M48
;Layer_Color=9474304
;FILE_FORMAT=4:4
METRIC,TZ
;TYPE=PLATED
T1F00S00C0.4000
T2F00S00C0.7000
T3F00S00C0.8000
T4F00S00C1.0000
T5F00S00C1.2000
T6F00S00C2.4000
T7F00S00C3.2000
%
T01
X55118Y-140716
X78994Y-120142
X89916Y-120400
X135749Y-85519
X118110Y-176530
X27432Y-170688
X16256Y-162814
X3810Y-170688
X-24638Y-182372
X-35814Y-182118
X-46228
X-51054Y-156464
X-57658Y-138684
X-57912Y-123444
X-47912Y-123464
X-36068Y-140462
X-28208Y-150451
X-1016Y-131064
X-7112Y-96012
X-18796
X-16510Y-71628
X-6858Y-31750
X8954Y-34345
X29485Y-34544
X27432Y-85344
X27940Y-101092
X-70358Y-63754
X-66040Y-48260
X-35107Y-20130
X-119634Y-76454
X-99060Y-117602
X-112268Y-146812
X-120650Y-170580
X-71374Y-169418
X-141224Y-119126
X-156718Y-131826
X-182372Y-108204
X-184150Y92456
X-132334Y185166
X-86360Y185170
X-36322Y2032
X153162Y124127
X123444Y168656
T02
X105925Y-105925
X120744Y-88663
X132778Y-69355
X141749Y-48449
X147451Y-26424
X172453Y-30905
X165784Y-56663
X155291Y-81115
X141217Y-103696
X123885Y-123885
X-105602Y-106260
X-120728Y-88684
X-132765Y-69378
X-141741Y-48473
X-147446Y-26450
X-172447Y-30935
X-165774Y-56693
X-155277Y-81142
X-141199Y-103721
X-124208Y-123550
X-149751Y-3817
X-148602Y18905
X-144026Y41190
X-136127Y62525
X-125089Y82418
X-111165Y100410
X-94678Y116087
X-76108Y129258
X-55656Y139292
X-33921Y146114
X-11403Y149566
X11362Y149368
X33851Y145925
X39590Y170668
X13289Y174695
X-13334Y174892
X-39665Y170856
X-65081Y162879
X-88996Y151145
X-110731Y135770
X-130015Y117436
X-146299Y96393
X-159209Y73127
X-168447Y48174
X-173799Y22110
X-175143Y-4464
X149752Y-3791
X148599Y18930
X144018Y41215
X136116Y62549
X125075Y82440
X111296Y100564
X94658Y116103
X75984Y129099
X55558Y139116
X64978Y162705
X88868Y150988
X110708Y135789
X130143Y117593
X146282Y96419
X159196Y73155
X168438Y48204
X173795Y22140
X175144Y-4433
T03
X0Y0
T04
X67310Y-158750
X92710Y-158750
X118110Y-158750
X118110Y-73660
X92710Y-73660
X67310Y-73660
X41910Y-73660
X41910Y-158750
X183496Y56388
X183496Y81788
X183496Y107188
Y132588
T05
X76200Y-25400
X-69850
X-69850Y25400
X76200Y25400
X76200Y0
T06
X0Y-57150
X0Y57150
T07
X180000Y-160000
X-180000
Y180000
X180000
M30
