M48
;Layer_Color=9474304
;FILE_FORMAT=4:4
METRIC,LZ
;TYPE=PLATED
T1F00S00C0.4000
T2F00S00C0.7000
T3F00S00C0.8000
T4F00S00C1.0000
T5F00S00C1.2000
T6F00S00C2.4000
T7F00S00C3.2000
%
T01
X0009935Y0002942
X00107732Y00053188
X0012094Y00082398
X00078776Y00080874
X00063282Y00068174
X00037628Y00091796
X00100366Y00123546
X00149642Y00136246
X0020349Y00128372
X00201204Y00103988
X00212888
X0024794Y00098908
X00247432Y00114656
X00218984Y00068936
X0022381Y00029312
X00236256Y00037186
X00247432Y00029312
X00275118Y00059284
X00298994Y00079858
X00309916Y000796
X00355749Y00114481
X0033811Y0002347
X00195362Y00017628
X00184186Y00017882
X00173772
X00168946Y00043536
X00162342Y00061316
X00162088Y00076556
X00172088Y00076536
X00183932Y00059538
X00191792Y00049549
X00148626Y00030582
X00597628Y00091796
X00623282Y00068174
X00638776Y00080874
X0068094Y00082398
X00667732Y00053188
X0065935Y0002942
X00708626Y00030582
X00728946Y00043536
X00722342Y00061316
X00722088Y00076556
X00732088Y00076536
X00743932Y00059538
X00751792Y00049549
X00755362Y00017628
X00744186Y00017882
X00733772
X0078381Y00029312
X00796256Y00037186
X00807432Y00029312
X00835118Y00059284
X00858994Y00079858
X00869916Y000796
X00915749Y00114481
X00807432Y00114656
X0080794Y00098908
X00772888Y00103988
X00761204
X0076349Y00128372
X00709642Y00136246
X00660366Y00123546
X00778984Y00068936
X0089811Y0002347
X00809486Y00165456
X00788954Y00165655
X00773142Y0016825
X00744893Y0017987
X00743678Y00202032
X0071396Y0015174
X0069364Y0038517
X00647666Y00385166
X0059585Y00292456
X00933162Y00324127
X00903444Y00368656
X00343444
X00373162Y00324127
X00249486Y00165456
X00228954Y00165655
X00213142Y0016825
X00184893Y0017987
X00183678Y00202032
X0015396Y0015174
X0013364Y0038517
X00087666Y00385166
X0003585Y00292456
X0009935Y0060942
X00107732Y00633188
X0012094Y00662398
X00078776Y00660874
X00063282Y00648174
X00037628Y00671796
X00100366Y00703546
X0003585Y00872456
X00183678Y00782032
X00184893Y0075987
X00213142Y0074825
X00228954Y00745655
X00249486Y00745456
X00247432Y00694656
X0024794Y00678908
X00212888Y00683988
X00201204
X0020349Y00708372
X00149642Y00716246
X0015396Y0073174
X00162088Y00656556
X00172088Y00656536
X00162342Y00641316
X00183932Y00639538
X00191792Y00629549
X00168946Y00623536
X00173772Y00597882
X00184186
X00195362Y00597628
X0022381Y00609312
X00236256Y00617186
X00247432Y00609312
X00275118Y00639284
X00298994Y00659858
X00309916Y006596
X00355749Y00694481
X0033811Y0060347
X00218984Y00648936
X00148626Y00610582
X00373162Y00904127
X0059585Y00872456
X00597628Y00671796
X00623282Y00648174
X00638776Y00660874
X0068094Y00662398
X00667732Y00633188
X0065935Y0060942
X00708626Y00610582
X00728946Y00623536
X00722342Y00641316
X00722088Y00656556
X00732088Y00656536
X00743932Y00639538
X00751792Y00629549
X00755362Y00597628
X00744186Y00597882
X00733772
X0078381Y00609312
X00796256Y00617186
X00807432Y00609312
X00835118Y00639284
X00858994Y00659858
X00869916Y006596
X00915749Y00694481
X00807432Y00694656
X0080794Y00678908
X00772888Y00683988
X00761204
X0076349Y00708372
X00773142Y0074825
X00788954Y00745655
X00809486Y00745456
X00744893Y0075987
X00743678Y00782032
X0071396Y0073174
X00709642Y00716246
X00660366Y00703546
X00778984Y00648936
X0089811Y0060347
X00933162Y00904127
X00903444Y00948656
X0069364Y0096517
X00647666Y00965166
X00343444Y00948656
X0013364Y0096517
X00087666Y00965166
T02
X00095792Y0007645
X00114398Y00093741
X00099272Y00111316
X00087235Y00130622
X00064723Y00118858
X00078801Y00096279
X00325925Y00094075
X00340743Y00111338
X00352777Y00130645
X00375291Y00118885
X00361217Y00096304
X00343885Y00076115
X00655792Y0007645
X00674398Y00093741
X00659272Y00111316
X00647235Y00130622
X00624723Y00118858
X00638802Y00096279
X00885925Y00094075
X00900744Y00111338
X00912778Y00130645
X00935291Y00118885
X00921217Y00096304
X00903885Y00076115
X00945784Y00143336
X00952453Y00169095
X00955144Y00195567
X00953795Y0022214
X00948438Y00248204
X00939196Y00273155
X00916116Y00262549
X00924019Y00241215
X00928599Y00218931
X00929752Y00196209
X00927451Y00173576
X00921749Y00151551
X00905075Y0028244
X00891296Y00300564
X00874658Y00316103
X00855984Y00329099
X00835558Y00339116
X00813851Y00345925
X00791362Y00349368
X00768597Y00349566
X00746079Y00346114
X00724344Y00339292
X00703892Y00329258
X00685322Y00316087
X00668835Y0030041
X00654911Y00282418
X00643873Y00262525
X00635974Y0024119
X00631398Y00218905
X00630249Y00196183
X00632554Y0017355
X0063826Y00151527
X00614226Y00143308
X00607553Y00169065
X00604857Y00195536
X00606201Y0022211
X00611553Y00248174
X00620791Y00273127
X00633701Y00296393
X00649986Y00317436
X00669269Y0033577
X00691004Y00351145
X00714919Y00362879
X00740335Y00370856
X00766666Y00374892
X00793289Y00374695
X0081959Y00370668
X00844979Y00362705
X00868868Y00350988
X00890708Y0033579
X00910143Y00317593
X00926282Y00296419
X00366282
X00345075Y0028244
X00356116Y00262549
X00364019Y00241215
X00368599Y00218931
X00369752Y00196209
X00367451Y00173576
X00361749Y00151551
X00385784Y00143336
X00392453Y00169095
X00395144Y00195567
X00393795Y0022214
X00388438Y00248204
X00379196Y00273155
X00350143Y00317593
X00331296Y00300564
X00314658Y00316103
X00295984Y00329099
X00275558Y00339116
X00253851Y00345925
X00231362Y00349368
X00208597Y00349566
X00186079Y00346114
X00164343Y00339292
X00143892Y00329258
X00154919Y00362879
X00180335Y00370856
X00206666Y00374892
X00233289Y00374695
X0025959Y00370668
X00284979Y00362705
X00308868Y00350988
X00330708Y0033579
X00131004Y00351145
X00109269Y0033577
X00125322Y00316087
X00108835Y0030041
X00094911Y00282418
X00083873Y00262525
X00075974Y0024119
X00071398Y00218905
X00070249Y00196183
X00072554Y0017355
X0007826Y00151527
X00054226Y00143308
X00047553Y00169065
X00044857Y00195536
X00046201Y0022211
X00051553Y00248174
X00060791Y00273127
X00073701Y00296393
X00089985Y00317436
X00095792Y0065645
X00114398Y0067374
X00099272Y00691317
X00087235Y00710621
X0007826Y00731527
X00072554Y0075355
X00070249Y00776183
X00071398Y00798905
X00075974Y0082119
X00083873Y00842525
X00094911Y00862418
X00108835Y00880411
X00125322Y00896087
X00109269Y0091577
X00131004Y00931145
X00089985Y00897436
X00073701Y00876393
X00060791Y00853127
X00051553Y00828174
X00046201Y0080211
X00044857Y00775536
X00047553Y00749065
X00054226Y00723308
X00064723Y00698858
X00078801Y00676279
X00325925Y00674075
X00340743Y00691338
X00352777Y00710645
X00361749Y00731551
X00367451Y00753576
X00369752Y00776209
X00368599Y00798931
X00364019Y00821215
X00356116Y00842549
X00345075Y0086244
X00331296Y00880564
X00314658Y00896103
X00295984Y00909099
X00275558Y00919116
X00253851Y00925925
X00231362Y00929368
X00208597Y00929566
X00186079Y00926114
X00164343Y00919292
X00143892Y00909258
X00308868Y00930988
X00330708Y0091579
X00350143Y00897593
X00366282Y00876419
X00379196Y00853155
X00388438Y00828204
X00393795Y0080214
X00395144Y00775567
X00392453Y00749095
X00385784Y00723336
X00375291Y00698885
X00361217Y00676304
X00343885Y00656115
X00655792Y0065645
X00674398Y0067374
X00659272Y00691317
X00647235Y00710621
X0063826Y00731527
X00632554Y0075355
X00630249Y00776183
X00631398Y00798905
X00635974Y0082119
X00643873Y00842525
X00654911Y00862418
X00668835Y00880411
X00685322Y00896087
X00703892Y00909258
X00724344Y00919292
X00746079Y00926114
X00768597Y00929566
X00791362Y00929368
X00813851Y00925925
X00835558Y00919116
X00855984Y00909099
X00874658Y00896103
X00891296Y00880564
X00905075Y0086244
X00916116Y00842549
X00924019Y00821215
X00928599Y00798931
X00929752Y00776209
X00927451Y00753576
X00921749Y00731551
X00912778Y00710645
X00900744Y00691338
X00885925Y00674075
X00903885Y00656115
X00921217Y00676304
X00935291Y00698885
X00926282Y00876419
X00910143Y00897593
X00890708Y0091579
X00868868Y00930988
X00691004Y00931145
X00669269Y0091577
X00649986Y00897436
X00633701Y00876393
X00620791Y00853127
X00611553Y00828174
X00606201Y0080211
X00604857Y00775536
X00607553Y00749065
X00614226Y00723308
X00624723Y00698858
X00638802Y00676279
X00945784Y00723336
X00952453Y00749095
X00955144Y00775567
X00953795Y0080214
X00948438Y00828204
X00939196Y00853155
X00844979Y00942705
X0081959Y00950668
X00793289Y00954695
X00766666Y00954892
X00740335Y00950856
X00714919Y00942879
X00284979Y00942705
X0025959Y00950668
X00233289Y00954695
X00206666Y00954892
X00180335Y00950856
X00154919Y00942879
T03
X0078Y002
X0022
Y0078
X0078
T04
X0026191Y0004125
X0028731
X0031271Y0004125
X0033811Y0004125
X0033811Y0012634
X0031271Y0012634
X0028731Y0012634
X0026191Y0012634
X0082191
X0084731Y0012634
X0087271Y0012634
X0089811Y0012634
X0089811Y0004125
X0087271Y0004125
X0084731Y0004125
X0082191
X00963496Y00256388
X00963496Y00281788
X00963496Y00307188
Y00332588
X00403496
Y00307188
X00403496Y00281788
X00403496Y00256388
X0033811Y0062125
X0031271Y0062125
X0028731Y0062125
X0026191
X0026191Y0070634
X0028731Y0070634
X0031271Y0070634
X0033811Y0070634
X00403496Y00836388
X00403496Y00861788
X00403496Y00887188
Y00912588
X0082191Y0070634
X0084731Y0070634
X0087271Y0070634
X0089811Y0070634
X0089811Y0062125
X0087271Y0062125
X0084731Y0062125
X0082191
X00963496Y00836388
X00963496Y00861788
X00963496Y00887188
Y00912588
T05
X0071015Y001746
X0071015Y002254
X008562Y002254
X008562Y002
X008562Y001746
X002962
X002962Y002
X002962Y002254
X0015015Y002254
X0015015Y001746
Y007546
X0015015Y008054
X002962Y008054
X002962Y0078
X002962Y007546
X0071015
X0071015Y008054
X008562Y008054
X008562Y0078
X008562Y007546
T06
X0022Y0014285
X0078
X0078Y0025715
X0022
X0022Y0072285
X0022Y0083715
X0078
X0078Y0072285
T07
X0004Y0004
X004
X006
X0096
Y0038
X006
X004
X0004
Y0062
X004
X006
X0096
Y0096
X006
X004
X0004
M30
