G04*
G04 #@! TF.GenerationSoftware,Altium Limited,Altium Designer,21.8.1 (53)*
G04*
G04 Layer_Color=32896*
%FSLAX44Y44*%
%MOMM*%
G71*
G04*
G04 #@! TF.SameCoordinates,1EBAD2C5-6FE2-4B2B-94EE-1844CA0BE318*
G04*
G04*
G04 #@! TF.FilePolarity,Positive*
G04*
G01*
G75*
%ADD10C,0.2000*%
%ADD11C,0.2540*%
D10*
X11938Y-171196D02*
Y-141224D01*
X-6350Y-171196D02*
X11938D01*
X-6350D02*
Y-141224D01*
X11938D01*
X-20828Y5574D02*
Y35546D01*
X-2540D01*
Y5574D02*
Y35546D01*
X-20828Y5574D02*
X-2540D01*
X-200660Y78486D02*
X-167640D01*
X-167640Y141986D01*
X-196850Y145796D02*
X-171450Y145796D01*
X-200660Y78486D02*
Y141986D01*
X-196850Y145796D01*
X-171450Y145796D02*
X-167640Y141986D01*
X114046Y-4572D02*
X132334Y-4572D01*
X114046Y-4572D02*
X114046Y-34544D01*
X132334Y-34544D01*
X132334Y-4572D01*
X92710Y-34544D02*
X110998Y-34544D01*
X110998Y-4572D02*
X110998Y-34544D01*
X92710Y-4572D02*
X110998Y-4572D01*
X92710Y-34544D02*
X92710Y-4572D01*
X-97790Y-123190D02*
X-97790Y-153162D01*
X-116078Y-153162D02*
X-97790Y-153162D01*
X-116078Y-123190D02*
X-116078Y-153162D01*
X-116078Y-123190D02*
X-97790Y-123190D01*
X-163322Y-93472D02*
X-163322Y-123444D01*
X-181610Y-123444D02*
X-163322Y-123444D01*
X-181610Y-93472D02*
X-181610Y-123444D01*
X-181610Y-93472D02*
X-163322Y-93472D01*
X-184658Y-123698D02*
Y-93726D01*
X-202946Y-123698D02*
X-184658D01*
X-202946D02*
Y-93726D01*
X-184658D01*
X-94742Y-123190D02*
X-76454D01*
X-94742Y-153162D02*
Y-123190D01*
Y-153162D02*
X-76454D01*
Y-123190D01*
X-123313Y11356D02*
X-123313Y-18616D01*
X-141601Y-18616D02*
X-123313Y-18616D01*
X-141601Y-18616D02*
X-141601Y11356D01*
X-123313D01*
X-108204Y-24638D02*
X-108204Y-54610D01*
X-126492Y-54610D02*
X-108204Y-54610D01*
X-126492Y-54610D02*
X-126492Y-24638D01*
X-108204D01*
X-100838Y11430D02*
X-100838Y-18542D01*
X-119126Y-18542D02*
X-100838Y-18542D01*
X-119126Y-18542D02*
Y11430D01*
X-100838D01*
X-85598Y-63514D02*
X-85598Y-33542D01*
X-103886Y-63514D02*
X-85598Y-63514D01*
X-103886Y-63514D02*
X-103886Y-33542D01*
X-85598D01*
X14732Y-186074D02*
X139446Y-186074D01*
X144526Y-180994D01*
Y-122828D01*
X14732Y-122828D02*
X144526Y-122828D01*
X14732Y-122828D02*
X14732Y-186074D01*
X14732Y-100984D02*
X139446Y-100984D01*
X144526Y-95904D01*
X144526Y-37738D02*
X144526Y-95904D01*
X14732Y-37738D02*
X144526Y-37738D01*
X14732Y-100984D02*
X14732Y-37738D01*
X166396Y38538D02*
X201396Y38538D01*
X166396Y149288D02*
X166396Y38538D01*
X166396Y149288D02*
X196396Y149288D01*
X201396Y144288D01*
X201396Y38538D01*
X68326Y77724D02*
X86614Y77724D01*
X68326Y77724D02*
X68326Y47752D01*
X86614Y47752D01*
X86614Y77724D02*
X86614Y47752D01*
X89154Y77978D02*
X107442Y77978D01*
X89154Y48006D02*
X89154Y77978D01*
X89154Y48006D02*
X107442Y48006D01*
Y77978D01*
X160020Y-92710D02*
X178308Y-92710D01*
X160020Y-122682D02*
Y-92710D01*
Y-122682D02*
X178308Y-122682D01*
X178308Y-92710D01*
X-6350Y-108204D02*
X11938D01*
X-6350Y-138176D02*
Y-108204D01*
Y-138176D02*
X11938D01*
Y-108204D01*
X-23706Y-12410D02*
X-23706Y85590D01*
X-96956Y-12410D02*
X-23706Y-12410D01*
X-96706Y85590D02*
X-23706Y85590D01*
X-96956Y85340D02*
X-96956Y-12410D01*
X-96956Y85340D02*
X-96706Y85590D01*
X-96706Y85590D01*
X-22246Y87290D02*
X22754D01*
X-22246D02*
Y108290D01*
X22754D01*
Y87290D02*
Y108290D01*
X-42672Y-79502D02*
Y-49530D01*
X-60960Y-79502D02*
X-42672Y-79502D01*
X-60960Y-49530D02*
X-60960Y-79502D01*
X-60960Y-49530D02*
X-42672D01*
X-94742Y-186690D02*
X-76454D01*
Y-156718D01*
X-94742D02*
X-76454D01*
X-94742Y-186690D02*
Y-156718D01*
X10836Y-17928D02*
Y27072D01*
X31836Y27072D01*
Y-17928D02*
Y27072D01*
X10836Y-17928D02*
X31836Y-17928D01*
X52070Y77722D02*
X52070Y47750D01*
X33782Y47750D02*
X52070Y47750D01*
X33782Y47750D02*
X33782Y77722D01*
X52070D01*
X201500Y-88040D02*
Y-43040D01*
X180500Y-88040D02*
X201500Y-88040D01*
X180500Y-88040D02*
Y-43039D01*
X201500Y-43040D01*
X183194Y-122172D02*
Y-92200D01*
X201482D01*
Y-122172D02*
Y-92200D01*
X183194Y-122172D02*
X201482D01*
D11*
X-129093Y-152705D02*
X-127426Y-151039D01*
X-124094D01*
X-122428Y-152705D01*
Y-159370D01*
X-124094Y-161036D01*
X-127426D01*
X-129093Y-159370D01*
Y-156038D01*
X-125760D01*
X-132425Y-161036D02*
Y-151039D01*
X-139089Y-161036D01*
Y-151039D01*
X-142422D02*
Y-161036D01*
X-147420D01*
X-149086Y-159370D01*
Y-152705D01*
X-147420Y-151039D01*
X-142422D01*
X-68834Y-77552D02*
X-75498D01*
X-72166Y-74219D02*
Y-80884D01*
X-78831Y-74219D02*
X-80497Y-72553D01*
X-83829D01*
X-85495Y-74219D01*
Y-75886D01*
X-83829Y-77552D01*
X-82163D01*
X-83829D01*
X-85495Y-79218D01*
Y-80884D01*
X-83829Y-82550D01*
X-80497D01*
X-78831Y-80884D01*
X-88828Y-82550D02*
Y-80884D01*
X-90494D01*
Y-82550D01*
X-88828D01*
X-97158Y-74219D02*
X-98824Y-72553D01*
X-102157D01*
X-103823Y-74219D01*
Y-75886D01*
X-102157Y-77552D01*
X-100491D01*
X-102157D01*
X-103823Y-79218D01*
Y-80884D01*
X-102157Y-82550D01*
X-98824D01*
X-97158Y-80884D01*
X-107155Y-72553D02*
Y-79218D01*
X-110487Y-82550D01*
X-113820Y-79218D01*
Y-72553D01*
X141986Y196179D02*
Y189514D01*
X138654Y186182D01*
X135322Y189514D01*
Y196179D01*
X131989D02*
X128657D01*
X130323D01*
Y186182D01*
X131989D01*
X128657D01*
X123659D02*
Y187848D01*
X121992D01*
Y186182D01*
X123659D01*
X115328Y194513D02*
X113662Y196179D01*
X110330D01*
X108663Y194513D01*
Y192847D01*
X110330Y191180D01*
X111996D01*
X110330D01*
X108663Y189514D01*
Y187848D01*
X110330Y186182D01*
X113662D01*
X115328Y187848D01*
X98667Y186182D02*
X105331D01*
X98667Y192847D01*
Y194513D01*
X100333Y196179D01*
X103665D01*
X105331Y194513D01*
X88670Y196179D02*
X95334D01*
Y191180D01*
X92002D01*
X95334D01*
Y186182D01*
X85338Y194513D02*
X83672Y196179D01*
X80339D01*
X78673Y194513D01*
Y187848D01*
X80339Y186182D01*
X83672D01*
X85338Y187848D01*
Y194513D01*
X75341D02*
X73675Y196179D01*
X70342D01*
X68676Y194513D01*
Y192847D01*
X70342Y191180D01*
X72009D01*
X70342D01*
X68676Y189514D01*
Y187848D01*
X70342Y186182D01*
X73675D01*
X75341Y187848D01*
X65344Y194513D02*
X63678Y196179D01*
X60346D01*
X58679Y194513D01*
Y187848D01*
X60346Y186182D01*
X63678D01*
X65344Y187848D01*
Y194513D01*
X55347Y186182D02*
Y187848D01*
X53681D01*
Y186182D01*
X55347D01*
X47017Y196179D02*
Y189514D01*
X43684Y186182D01*
X40352Y189514D01*
Y196179D01*
X37020Y186182D02*
X33688D01*
X35354D01*
Y196179D01*
X37020Y194513D01*
X45406Y-22769D02*
X52070D01*
Y-32766D01*
X45406D01*
X52070Y-27768D02*
X48738D01*
X42073Y-32766D02*
Y-22769D01*
X35409Y-32766D01*
Y-22769D01*
X25412Y-24435D02*
X27078Y-22769D01*
X30410D01*
X32076Y-24435D01*
Y-31100D01*
X30410Y-32766D01*
X27078D01*
X25412Y-31100D01*
X49022Y-107859D02*
X45690D01*
X47356D01*
Y-117856D01*
X49022D01*
X45690D01*
X34027D02*
X40691D01*
X34027Y-111192D01*
Y-109525D01*
X35693Y-107859D01*
X39025D01*
X40691Y-109525D01*
X24030D02*
X25696Y-107859D01*
X29028D01*
X30695Y-109525D01*
Y-116190D01*
X29028Y-117856D01*
X25696D01*
X24030Y-116190D01*
X64008Y37764D02*
X57344D01*
X60676Y41097D02*
Y34432D01*
X54011Y41097D02*
X52345Y42763D01*
X49013D01*
X47347Y41097D01*
Y39430D01*
X49013Y37764D01*
X50679D01*
X49013D01*
X47347Y36098D01*
Y34432D01*
X49013Y32766D01*
X52345D01*
X54011Y34432D01*
X44014Y32766D02*
Y34432D01*
X42348D01*
Y32766D01*
X44014D01*
X35684Y41097D02*
X34018Y42763D01*
X30685D01*
X29019Y41097D01*
Y39430D01*
X30685Y37764D01*
X32352D01*
X30685D01*
X29019Y36098D01*
Y34432D01*
X30685Y32766D01*
X34018D01*
X35684Y34432D01*
X25687Y42763D02*
Y36098D01*
X22355Y32766D01*
X19023Y36098D01*
Y42763D01*
X186003Y0D02*
Y-6665D01*
Y-3332D01*
X196000D01*
X186003Y-16661D02*
Y-9997D01*
X196000D01*
Y-16661D01*
X191002Y-9997D02*
Y-13329D01*
X187669Y-26658D02*
X186003Y-24992D01*
Y-21660D01*
X187669Y-19994D01*
X189335D01*
X191002Y-21660D01*
Y-24992D01*
X192668Y-26658D01*
X194334D01*
X196000Y-24992D01*
Y-21660D01*
X194334Y-19994D01*
X186003Y-29990D02*
Y-36655D01*
Y-33323D01*
X196000D01*
X-45974Y-117094D02*
Y-107097D01*
X-50972D01*
X-52639Y-108763D01*
Y-112096D01*
X-50972Y-113762D01*
X-45974D01*
X-49306D02*
X-52639Y-117094D01*
X-62635Y-107097D02*
X-55971D01*
Y-117094D01*
X-62635D01*
X-55971Y-112096D02*
X-59303D01*
X-72632Y-108763D02*
X-70966Y-107097D01*
X-67634D01*
X-65968Y-108763D01*
Y-110429D01*
X-67634Y-112096D01*
X-70966D01*
X-72632Y-113762D01*
Y-115428D01*
X-70966Y-117094D01*
X-67634D01*
X-65968Y-115428D01*
X-82629Y-107097D02*
X-75964D01*
Y-117094D01*
X-82629D01*
X-75964Y-112096D02*
X-79297D01*
X-85961Y-107097D02*
X-92626D01*
X-89293D01*
Y-117094D01*
X-18602Y-157531D02*
X-16936Y-155865D01*
X-13604D01*
X-11938Y-157531D01*
Y-164196D01*
X-13604Y-165862D01*
X-16936D01*
X-18602Y-164196D01*
X-26933Y-165862D02*
Y-155865D01*
X-21935Y-160864D01*
X-28599D01*
X-8697Y-2337D02*
X-7030Y-671D01*
X-3698D01*
X-2032Y-2337D01*
Y-9002D01*
X-3698Y-10668D01*
X-7030D01*
X-8697Y-9002D01*
X-12029Y-2337D02*
X-13695Y-671D01*
X-17027D01*
X-18693Y-2337D01*
Y-4004D01*
X-17027Y-5670D01*
X-15361D01*
X-17027D01*
X-18693Y-7336D01*
Y-9002D01*
X-17027Y-10668D01*
X-13695D01*
X-12029Y-9002D01*
X-146563Y142380D02*
Y132384D01*
X-151562D01*
X-153228Y134050D01*
Y140714D01*
X-151562Y142380D01*
X-146563D01*
X-156560Y132384D02*
X-159892D01*
X-158226D01*
Y142380D01*
X-156560Y140714D01*
X158242Y147665D02*
X151578Y137668D01*
Y147665D02*
X158242Y137668D01*
X148245Y145999D02*
X146579Y147665D01*
X143247D01*
X141581Y145999D01*
Y144333D01*
X143247Y142666D01*
X144913D01*
X143247D01*
X141581Y141000D01*
Y139334D01*
X143247Y137668D01*
X146579D01*
X148245Y139334D01*
X-61529Y-168707D02*
X-59862Y-167041D01*
X-56530D01*
X-54864Y-168707D01*
Y-175372D01*
X-56530Y-177038D01*
X-59862D01*
X-61529Y-175372D01*
X-64861Y-177038D02*
X-68193D01*
X-66527D01*
Y-167041D01*
X-64861Y-168707D01*
X-44450Y-143002D02*
Y-133005D01*
X-49448D01*
X-51115Y-134671D01*
Y-138004D01*
X-49448Y-139670D01*
X-44450D01*
X-47782D02*
X-51115Y-143002D01*
X-54447D02*
X-57779D01*
X-56113D01*
Y-133005D01*
X-54447Y-134671D01*
X-62777D02*
X-64444Y-133005D01*
X-67776D01*
X-69442Y-134671D01*
Y-141336D01*
X-67776Y-143002D01*
X-64444D01*
X-62777Y-141336D01*
Y-134671D01*
X71882Y-108113D02*
X65217Y-118110D01*
Y-108113D02*
X71882Y-118110D01*
X61885D02*
X58553D01*
X60219D01*
Y-108113D01*
X61885Y-109779D01*
X9144Y-78649D02*
X2480Y-88646D01*
Y-78649D02*
X9144Y-88646D01*
X-7517D02*
X-853D01*
X-7517Y-81981D01*
Y-80315D01*
X-5851Y-78649D01*
X-2519D01*
X-853Y-80315D01*
X-50038Y101945D02*
X-53370D01*
X-51704D01*
Y91948D01*
X-50038D01*
X-53370D01*
X-65033Y100279D02*
X-63367Y101945D01*
X-60035D01*
X-58369Y100279D01*
Y93614D01*
X-60035Y91948D01*
X-63367D01*
X-65033Y93614D01*
X-68365Y91948D02*
X-71698D01*
X-70032D01*
Y101945D01*
X-68365Y100279D01*
X2734Y122631D02*
X4400Y124297D01*
X7732D01*
X9398Y122631D01*
Y115966D01*
X7732Y114300D01*
X4400D01*
X2734Y115966D01*
X-7263Y114300D02*
X-599D01*
X-7263Y120964D01*
Y122631D01*
X-5597Y124297D01*
X-2265D01*
X-599Y122631D01*
X-37592Y-94488D02*
Y-84491D01*
X-42590D01*
X-44257Y-86157D01*
Y-89490D01*
X-42590Y-91156D01*
X-37592D01*
X-40924D02*
X-44257Y-94488D01*
X-47589Y-86157D02*
X-49255Y-84491D01*
X-52587D01*
X-54253Y-86157D01*
Y-87823D01*
X-52587Y-89490D01*
X-50921D01*
X-52587D01*
X-54253Y-91156D01*
Y-92822D01*
X-52587Y-94488D01*
X-49255D01*
X-47589Y-92822D01*
X-64250Y-84491D02*
X-57586D01*
Y-89490D01*
X-60918Y-87823D01*
X-62584D01*
X-64250Y-89490D01*
Y-92822D01*
X-62584Y-94488D01*
X-59252D01*
X-57586Y-92822D01*
X56896Y84328D02*
Y94325D01*
X51898D01*
X50231Y92659D01*
Y89326D01*
X51898Y87660D01*
X56896D01*
X53564D02*
X50231Y84328D01*
X46899Y92659D02*
X45233Y94325D01*
X41901D01*
X40235Y92659D01*
Y90992D01*
X41901Y89326D01*
X43567D01*
X41901D01*
X40235Y87660D01*
Y85994D01*
X41901Y84328D01*
X45233D01*
X46899Y85994D01*
X36902Y94325D02*
X30238D01*
Y92659D01*
X36902Y85994D01*
Y84328D01*
M02*
