G04*
G04 #@! TF.GenerationSoftware,Altium Limited,Altium Designer,21.8.1 (53)*
G04*
G04 Layer_Color=8388736*
%FSLAX44Y44*%
%MOMM*%
G71*
G04*
G04 #@! TF.SameCoordinates,1EBAD2C5-6FE2-4B2B-94EE-1844CA0BE318*
G04*
G04*
G04 #@! TF.FilePolarity,Negative*
G04*
G01*
G75*
%ADD12R,1.5032X0.9032*%
G04:AMPARAMS|DCode=13|XSize=1.2032mm|YSize=1.2032mm|CornerRadius=0.2016mm|HoleSize=0mm|Usage=FLASHONLY|Rotation=0.000|XOffset=0mm|YOffset=0mm|HoleType=Round|Shape=RoundedRectangle|*
%AMROUNDEDRECTD13*
21,1,1.2032,0.8000,0,0,0.0*
21,1,0.8000,1.2032,0,0,0.0*
1,1,0.4032,0.4000,-0.4000*
1,1,0.4032,-0.4000,-0.4000*
1,1,0.4032,-0.4000,0.4000*
1,1,0.4032,0.4000,0.4000*
%
%ADD13ROUNDEDRECTD13*%
G04:AMPARAMS|DCode=14|XSize=1.0032mm|YSize=1.2032mm|CornerRadius=0.1816mm|HoleSize=0mm|Usage=FLASHONLY|Rotation=0.000|XOffset=0mm|YOffset=0mm|HoleType=Round|Shape=RoundedRectangle|*
%AMROUNDEDRECTD14*
21,1,1.0032,0.8400,0,0,0.0*
21,1,0.6400,1.2032,0,0,0.0*
1,1,0.3632,0.3200,-0.4200*
1,1,0.3632,-0.3200,-0.4200*
1,1,0.3632,-0.3200,0.4200*
1,1,0.3632,0.3200,0.4200*
%
%ADD14ROUNDEDRECTD14*%
%ADD15R,0.9032X1.5032*%
G04:AMPARAMS|DCode=16|XSize=1.4032mm|YSize=0.5032mm|CornerRadius=0.1766mm|HoleSize=0mm|Usage=FLASHONLY|Rotation=270.000|XOffset=0mm|YOffset=0mm|HoleType=Round|Shape=RoundedRectangle|*
%AMROUNDEDRECTD16*
21,1,1.4032,0.1500,0,0,270.0*
21,1,1.0500,0.5032,0,0,270.0*
1,1,0.3532,-0.0750,-0.5250*
1,1,0.3532,-0.0750,0.5250*
1,1,0.3532,0.0750,0.5250*
1,1,0.3532,0.0750,-0.5250*
%
%ADD16ROUNDEDRECTD16*%
G04:AMPARAMS|DCode=17|XSize=1.4032mm|YSize=0.5032mm|CornerRadius=0.1766mm|HoleSize=0mm|Usage=FLASHONLY|Rotation=180.000|XOffset=0mm|YOffset=0mm|HoleType=Round|Shape=RoundedRectangle|*
%AMROUNDEDRECTD17*
21,1,1.4032,0.1500,0,0,180.0*
21,1,1.0500,0.5032,0,0,180.0*
1,1,0.3532,-0.5250,0.0750*
1,1,0.3532,0.5250,0.0750*
1,1,0.3532,0.5250,-0.0750*
1,1,0.3532,-0.5250,-0.0750*
%
%ADD17ROUNDEDRECTD17*%
%ADD18C,1.4032*%
%ADD19C,1.3532*%
%ADD20C,4.0032*%
%ADD21C,3.4032*%
%ADD22O,2.8032X2.0032*%
%ADD23O,2.8032X2.2032*%
%ADD24O,2.6032X2.0032*%
G04:AMPARAMS|DCode=25|XSize=5.2032mm|YSize=5.2032mm|CornerRadius=1.3516mm|HoleSize=0mm|Usage=FLASHONLY|Rotation=0.000|XOffset=0mm|YOffset=0mm|HoleType=Round|Shape=RoundedRectangle|*
%AMROUNDEDRECTD25*
21,1,5.2032,2.5000,0,0,0.0*
21,1,2.5000,5.2032,0,0,0.0*
1,1,2.7032,1.2500,-1.2500*
1,1,2.7032,-1.2500,-1.2500*
1,1,2.7032,-1.2500,1.2500*
1,1,2.7032,1.2500,1.2500*
%
%ADD25ROUNDEDRECTD25*%
%ADD26C,2.0032*%
%ADD27R,2.0032X2.0032*%
%ADD28C,1.8032*%
%ADD29C,1.7032*%
%ADD30R,2.0032X2.0032*%
%ADD31C,1.2032*%
%ADD32C,1.0032*%
D12*
X126478Y8366D02*
D03*
X126478Y25866D02*
D03*
X104902Y8368D02*
D03*
X104902Y25868D02*
D03*
X126480Y-26684D02*
D03*
X126480Y-9184D02*
D03*
X140716Y-150636D02*
D03*
Y-133136D02*
D03*
X10160Y105142D02*
D03*
X10160Y122642D02*
D03*
X31496Y104902D02*
D03*
Y122402D02*
D03*
X53340Y105096D02*
D03*
Y122596D02*
D03*
X53340Y71096D02*
D03*
X53340Y88596D02*
D03*
X75184Y71146D02*
D03*
X75184Y88646D02*
D03*
X97282Y71096D02*
D03*
X97282Y88596D02*
D03*
X-98806Y-177814D02*
D03*
Y-160314D02*
D03*
X-171196Y-99862D02*
D03*
Y-117362D02*
D03*
X-193040Y-99862D02*
D03*
X-193040Y-117362D02*
D03*
X-98806Y-127294D02*
D03*
Y-144794D02*
D03*
X-11430Y122896D02*
D03*
Y105396D02*
D03*
X-32766Y122896D02*
D03*
Y105396D02*
D03*
X-54356Y122596D02*
D03*
X-54356Y105096D02*
D03*
X-75692Y92924D02*
D03*
X-75692Y75424D02*
D03*
X-109728Y5040D02*
D03*
X-109728Y-12460D02*
D03*
X-132457Y5220D02*
D03*
X-132457Y-12280D02*
D03*
D13*
X-130048Y-147320D02*
D03*
D14*
X-139446Y-170434D02*
D03*
X-120650D02*
D03*
D15*
X-66066Y-48006D02*
D03*
X-83566D02*
D03*
D16*
X-13674Y-83312D02*
D03*
X-8674D02*
D03*
X-3674D02*
D03*
X-28674D02*
D03*
X-23674D02*
D03*
X-18674D02*
D03*
X-43674D02*
D03*
X-38674D02*
D03*
X-33674D02*
D03*
X-48674D02*
D03*
X-53674D02*
D03*
X-58674D02*
D03*
Y-169672D02*
D03*
X-53674Y-169672D02*
D03*
X-48674D02*
D03*
X-33674D02*
D03*
X-38674D02*
D03*
X-43674Y-169672D02*
D03*
X-18674Y-169672D02*
D03*
X-23674Y-169672D02*
D03*
X-28674Y-169672D02*
D03*
X-3674Y-169672D02*
D03*
X-8674Y-169672D02*
D03*
X-13674Y-169672D02*
D03*
D17*
X12192Y-98806D02*
D03*
X12192Y-103806D02*
D03*
X12192Y-108806D02*
D03*
Y-123806D02*
D03*
Y-118806D02*
D03*
Y-113806D02*
D03*
X12192Y-138806D02*
D03*
X12192Y-133806D02*
D03*
Y-128806D02*
D03*
Y-153806D02*
D03*
Y-148806D02*
D03*
Y-143806D02*
D03*
X-74168Y-143806D02*
D03*
Y-148806D02*
D03*
Y-153806D02*
D03*
Y-128806D02*
D03*
Y-133806D02*
D03*
Y-138806D02*
D03*
Y-113806D02*
D03*
Y-118806D02*
D03*
Y-123806D02*
D03*
Y-108806D02*
D03*
Y-103806D02*
D03*
Y-98806D02*
D03*
D18*
X144018Y41215D02*
D03*
X168438Y48204D02*
D03*
X148599Y18930D02*
D03*
X173795Y22140D02*
D03*
X149752Y-3791D02*
D03*
X175144Y-4433D02*
D03*
X147451Y-26424D02*
D03*
X172453Y-30905D02*
D03*
X141749Y-48449D02*
D03*
X165784Y-56663D02*
D03*
X155291Y-81115D02*
D03*
X141217Y-103696D02*
D03*
X105925Y-105925D02*
D03*
X123885Y-123885D02*
D03*
X11362Y149368D02*
D03*
X13289Y174695D02*
D03*
X33851Y145925D02*
D03*
X39590Y170668D02*
D03*
X55558Y139116D02*
D03*
X64978Y162705D02*
D03*
X75984Y129099D02*
D03*
X88868Y150988D02*
D03*
X94658Y116103D02*
D03*
X110708Y135789D02*
D03*
X111296Y100564D02*
D03*
X130143Y117593D02*
D03*
X125075Y82440D02*
D03*
X146282Y96419D02*
D03*
X136116Y62549D02*
D03*
X159196Y73155D02*
D03*
X-175143Y-4464D02*
D03*
X-149751Y-3817D02*
D03*
X-165774Y-56693D02*
D03*
X-141741Y-48473D02*
D03*
X-155277Y-81142D02*
D03*
X-132765Y-69378D02*
D03*
X-141199Y-103721D02*
D03*
X-120728Y-88684D02*
D03*
X-124208Y-123550D02*
D03*
X-105602Y-106260D02*
D03*
X-172447Y-30935D02*
D03*
X-147446Y-26450D02*
D03*
X-168447Y48174D02*
D03*
X-144026Y41190D02*
D03*
X-173799Y22110D02*
D03*
X-148602Y18905D02*
D03*
X-13334Y174892D02*
D03*
X-11403Y149566D02*
D03*
X-39665Y170856D02*
D03*
X-33921Y146114D02*
D03*
X-65081Y162879D02*
D03*
X-55656Y139292D02*
D03*
X-88996Y151145D02*
D03*
X-76108Y129258D02*
D03*
X-110731Y135770D02*
D03*
X-94678Y116087D02*
D03*
X-130015Y117436D02*
D03*
X-111165Y100410D02*
D03*
X-146299Y96393D02*
D03*
X-125089Y82418D02*
D03*
X-159209Y73127D02*
D03*
X-136127Y62525D02*
D03*
D19*
X132778Y-69355D02*
D03*
X120744Y-88663D02*
D03*
D20*
X0Y57150D02*
D03*
D21*
X0Y-57150D02*
D03*
D22*
X76200Y-25400D02*
D03*
X76200Y0D02*
D03*
D23*
X76200Y25400D02*
D03*
X-69850Y-25400D02*
D03*
D24*
X-69850Y25400D02*
D03*
D25*
X-180000Y180000D02*
D03*
X180000D02*
D03*
Y-160000D02*
D03*
X-180000D02*
D03*
D26*
X41910Y-158750D02*
D03*
X67310D02*
D03*
X92710Y-158750D02*
D03*
X183496Y107188D02*
D03*
X183496Y81788D02*
D03*
D27*
X118110Y-158750D02*
D03*
D28*
X41910Y-73660D02*
D03*
X67310Y-73660D02*
D03*
X92710Y-73660D02*
D03*
D29*
X118110Y-73660D02*
D03*
X183496Y56388D02*
D03*
D30*
X183496Y132588D02*
D03*
D31*
X-70358Y-63754D02*
D03*
X27432Y-170688D02*
D03*
X118110Y-176530D02*
D03*
D32*
X-120650Y-170580D02*
D03*
X-99060Y-117602D02*
D03*
X-141224Y-119126D02*
D03*
M02*
