G04*
G04 #@! TF.GenerationSoftware,Altium Limited,Altium Designer,21.8.1 (53)*
G04*
G04 Layer_Color=16711935*
%FSLAX44Y44*%
%MOMM*%
G71*
G04*
G04 #@! TF.SameCoordinates,1EBAD2C5-6FE2-4B2B-94EE-1844CA0BE318*
G04*
G04*
G04 #@! TF.FilePolarity,Negative*
G04*
G01*
G75*
%ADD12R,1.5032X0.9032*%
%ADD18C,1.4032*%
%ADD19C,1.3532*%
%ADD20C,4.0032*%
%ADD21C,3.4032*%
%ADD22O,2.8032X2.0032*%
%ADD23O,2.8032X2.2032*%
%ADD24O,2.6032X2.0032*%
G04:AMPARAMS|DCode=25|XSize=5.2032mm|YSize=5.2032mm|CornerRadius=1.3516mm|HoleSize=0mm|Usage=FLASHONLY|Rotation=0.000|XOffset=0mm|YOffset=0mm|HoleType=Round|Shape=RoundedRectangle|*
%AMROUNDEDRECTD25*
21,1,5.2032,2.5000,0,0,0.0*
21,1,2.5000,5.2032,0,0,0.0*
1,1,2.7032,1.2500,-1.2500*
1,1,2.7032,-1.2500,-1.2500*
1,1,2.7032,-1.2500,1.2500*
1,1,2.7032,1.2500,1.2500*
%
%ADD25ROUNDEDRECTD25*%
%ADD26C,2.0032*%
%ADD27R,2.0032X2.0032*%
%ADD28C,1.8032*%
%ADD29C,1.7032*%
%ADD30R,2.0032X2.0032*%
%ADD31C,1.2032*%
%ADD32C,1.0032*%
G04:AMPARAMS|DCode=65|XSize=2.2032mm|YSize=2.6032mm|CornerRadius=0.6016mm|HoleSize=0mm|Usage=FLASHONLY|Rotation=270.000|XOffset=0mm|YOffset=0mm|HoleType=Round|Shape=RoundedRectangle|*
%AMROUNDEDRECTD65*
21,1,2.2032,1.4000,0,0,270.0*
21,1,1.0000,2.6032,0,0,270.0*
1,1,1.2032,-0.7000,-0.5000*
1,1,1.2032,-0.7000,0.5000*
1,1,1.2032,0.7000,0.5000*
1,1,1.2032,0.7000,-0.5000*
%
%ADD65ROUNDEDRECTD65*%
G04:AMPARAMS|DCode=66|XSize=6.2032mm|YSize=3.2032mm|CornerRadius=0.8516mm|HoleSize=0mm|Usage=FLASHONLY|Rotation=180.000|XOffset=0mm|YOffset=0mm|HoleType=Round|Shape=RoundedRectangle|*
%AMROUNDEDRECTD66*
21,1,6.2032,1.5000,0,0,180.0*
21,1,4.5000,3.2032,0,0,180.0*
1,1,1.7032,-2.2500,0.7500*
1,1,1.7032,2.2500,0.7500*
1,1,1.7032,2.2500,-0.7500*
1,1,1.7032,-2.2500,-0.7500*
%
%ADD66ROUNDEDRECTD66*%
G04:AMPARAMS|DCode=67|XSize=1.7032mm|YSize=2.2032mm|CornerRadius=0.4766mm|HoleSize=0mm|Usage=FLASHONLY|Rotation=180.000|XOffset=0mm|YOffset=0mm|HoleType=Round|Shape=RoundedRectangle|*
%AMROUNDEDRECTD67*
21,1,1.7032,1.2500,0,0,180.0*
21,1,0.7500,2.2032,0,0,180.0*
1,1,0.9532,-0.3750,0.6250*
1,1,0.9532,0.3750,0.6250*
1,1,0.9532,0.3750,-0.6250*
1,1,0.9532,-0.3750,-0.6250*
%
%ADD67ROUNDEDRECTD67*%
%ADD68R,1.2032X1.8032*%
%ADD69R,1.8032X1.2032*%
D12*
X2794Y-147360D02*
D03*
Y-164860D02*
D03*
X-11684Y11710D02*
D03*
Y29210D02*
D03*
X123190Y-28208D02*
D03*
X123190Y-10708D02*
D03*
X101854Y-10908D02*
D03*
X101854Y-28408D02*
D03*
X-106934Y-129326D02*
D03*
X-106934Y-146826D02*
D03*
X-172466Y-99608D02*
D03*
X-172466Y-117108D02*
D03*
X-193802Y-99862D02*
D03*
Y-117362D02*
D03*
X-85598Y-146826D02*
D03*
Y-129326D02*
D03*
X-132457Y5220D02*
D03*
X-132457Y-12280D02*
D03*
X-117348Y-30774D02*
D03*
X-117348Y-48274D02*
D03*
X-109982Y5294D02*
D03*
X-109982Y-12206D02*
D03*
X-94742Y-39678D02*
D03*
Y-57178D02*
D03*
X77470Y54088D02*
D03*
X77470Y71588D02*
D03*
X98298Y54342D02*
D03*
X98298Y71842D02*
D03*
X169164Y-116346D02*
D03*
X169164Y-98846D02*
D03*
X2794Y-131840D02*
D03*
Y-114340D02*
D03*
X-51816Y-55666D02*
D03*
X-51816Y-73166D02*
D03*
X-85598Y-163054D02*
D03*
Y-180554D02*
D03*
X42926Y71586D02*
D03*
X42926Y54086D02*
D03*
X192338Y-116036D02*
D03*
Y-98536D02*
D03*
D18*
X144018Y41215D02*
D03*
X168438Y48204D02*
D03*
X148599Y18930D02*
D03*
X173795Y22140D02*
D03*
X149752Y-3791D02*
D03*
X175144Y-4433D02*
D03*
X147451Y-26424D02*
D03*
X172453Y-30905D02*
D03*
X141749Y-48449D02*
D03*
X165784Y-56663D02*
D03*
X155291Y-81115D02*
D03*
X141217Y-103696D02*
D03*
X105925Y-105925D02*
D03*
X123885Y-123885D02*
D03*
X11362Y149368D02*
D03*
X13289Y174695D02*
D03*
X33851Y145925D02*
D03*
X39590Y170668D02*
D03*
X55558Y139116D02*
D03*
X64978Y162705D02*
D03*
X75984Y129099D02*
D03*
X88868Y150988D02*
D03*
X94658Y116103D02*
D03*
X110708Y135789D02*
D03*
X111296Y100564D02*
D03*
X130143Y117593D02*
D03*
X125075Y82440D02*
D03*
X146282Y96419D02*
D03*
X136116Y62549D02*
D03*
X159196Y73155D02*
D03*
X-175143Y-4464D02*
D03*
X-149751Y-3817D02*
D03*
X-165774Y-56693D02*
D03*
X-141741Y-48473D02*
D03*
X-155277Y-81142D02*
D03*
X-132765Y-69378D02*
D03*
X-141199Y-103721D02*
D03*
X-120728Y-88684D02*
D03*
X-124208Y-123550D02*
D03*
X-105602Y-106260D02*
D03*
X-172447Y-30935D02*
D03*
X-147446Y-26450D02*
D03*
X-168447Y48174D02*
D03*
X-144026Y41190D02*
D03*
X-173799Y22110D02*
D03*
X-148602Y18905D02*
D03*
X-13334Y174892D02*
D03*
X-11403Y149566D02*
D03*
X-39665Y170856D02*
D03*
X-33921Y146114D02*
D03*
X-65081Y162879D02*
D03*
X-55656Y139292D02*
D03*
X-88996Y151145D02*
D03*
X-76108Y129258D02*
D03*
X-110731Y135770D02*
D03*
X-94678Y116087D02*
D03*
X-130015Y117436D02*
D03*
X-111165Y100410D02*
D03*
X-146299Y96393D02*
D03*
X-125089Y82418D02*
D03*
X-159209Y73127D02*
D03*
X-136127Y62525D02*
D03*
D19*
X132778Y-69355D02*
D03*
X120744Y-88663D02*
D03*
D20*
X0Y57150D02*
D03*
D21*
X0Y-57150D02*
D03*
D22*
X76200Y-25400D02*
D03*
X76200Y0D02*
D03*
D23*
X76200Y25400D02*
D03*
X-69850Y-25400D02*
D03*
D24*
X-69850Y25400D02*
D03*
D25*
X-180000Y180000D02*
D03*
X180000D02*
D03*
Y-160000D02*
D03*
X-180000D02*
D03*
D26*
X41910Y-158750D02*
D03*
X67310D02*
D03*
X92710Y-158750D02*
D03*
X183496Y107188D02*
D03*
X183496Y81788D02*
D03*
D27*
X118110Y-158750D02*
D03*
D28*
X41910Y-73660D02*
D03*
X67310Y-73660D02*
D03*
X92710Y-73660D02*
D03*
D29*
X118110Y-73660D02*
D03*
X183496Y56388D02*
D03*
D30*
X183496Y132588D02*
D03*
D31*
X-70358Y-63754D02*
D03*
D32*
X-120650Y-170580D02*
D03*
X-99060Y-117602D02*
D03*
D65*
X-184150Y131826D02*
D03*
Y92456D02*
D03*
D66*
X-60706Y66590D02*
D03*
D67*
X-60706Y1590D02*
D03*
X-37806Y1590D02*
D03*
X-83606Y1590D02*
D03*
D68*
X15254Y97790D02*
D03*
X-14746D02*
D03*
D69*
X21336Y-10428D02*
D03*
X21336Y19572D02*
D03*
X191000Y-50539D02*
D03*
Y-80540D02*
D03*
M02*
