G04*
G04 #@! TF.GenerationSoftware,Altium Limited,Altium Designer,21.8.1 (53)*
G04*
G04 Layer_Physical_Order=1*
G04 Layer_Color=255*
%FSLAX44Y44*%
%MOMM*%
G71*
G04*
G04 #@! TF.SameCoordinates,1EBAD2C5-6FE2-4B2B-94EE-1844CA0BE318*
G04*
G04*
G04 #@! TF.FilePolarity,Positive*
G04*
G01*
G75*
%ADD11C,0.2540*%
%ADD33C,0.3000*%
%ADD34R,1.3000X0.7000*%
G04:AMPARAMS|DCode=35|XSize=1mm|YSize=1mm|CornerRadius=0.1mm|HoleSize=0mm|Usage=FLASHONLY|Rotation=0.000|XOffset=0mm|YOffset=0mm|HoleType=Round|Shape=RoundedRectangle|*
%AMROUNDEDRECTD35*
21,1,1.0000,0.8000,0,0,0.0*
21,1,0.8000,1.0000,0,0,0.0*
1,1,0.2000,0.4000,-0.4000*
1,1,0.2000,-0.4000,-0.4000*
1,1,0.2000,-0.4000,0.4000*
1,1,0.2000,0.4000,0.4000*
%
%ADD35ROUNDEDRECTD35*%
G04:AMPARAMS|DCode=36|XSize=0.8mm|YSize=1mm|CornerRadius=0.08mm|HoleSize=0mm|Usage=FLASHONLY|Rotation=0.000|XOffset=0mm|YOffset=0mm|HoleType=Round|Shape=RoundedRectangle|*
%AMROUNDEDRECTD36*
21,1,0.8000,0.8400,0,0,0.0*
21,1,0.6400,1.0000,0,0,0.0*
1,1,0.1600,0.3200,-0.4200*
1,1,0.1600,-0.3200,-0.4200*
1,1,0.1600,-0.3200,0.4200*
1,1,0.1600,0.3200,0.4200*
%
%ADD36ROUNDEDRECTD36*%
%ADD37R,0.7000X1.3000*%
G04:AMPARAMS|DCode=38|XSize=1.2mm|YSize=0.3mm|CornerRadius=0.075mm|HoleSize=0mm|Usage=FLASHONLY|Rotation=270.000|XOffset=0mm|YOffset=0mm|HoleType=Round|Shape=RoundedRectangle|*
%AMROUNDEDRECTD38*
21,1,1.2000,0.1500,0,0,270.0*
21,1,1.0500,0.3000,0,0,270.0*
1,1,0.1500,-0.0750,-0.5250*
1,1,0.1500,-0.0750,0.5250*
1,1,0.1500,0.0750,0.5250*
1,1,0.1500,0.0750,-0.5250*
%
%ADD38ROUNDEDRECTD38*%
G04:AMPARAMS|DCode=39|XSize=1.2mm|YSize=0.3mm|CornerRadius=0.075mm|HoleSize=0mm|Usage=FLASHONLY|Rotation=180.000|XOffset=0mm|YOffset=0mm|HoleType=Round|Shape=RoundedRectangle|*
%AMROUNDEDRECTD39*
21,1,1.2000,0.1500,0,0,180.0*
21,1,1.0500,0.3000,0,0,180.0*
1,1,0.1500,-0.5250,0.0750*
1,1,0.1500,0.5250,0.0750*
1,1,0.1500,0.5250,-0.0750*
1,1,0.1500,-0.5250,-0.0750*
%
%ADD39ROUNDEDRECTD39*%
%ADD40C,0.6000*%
%ADD41C,0.5000*%
%ADD42C,0.2560*%
%ADD43C,1.2000*%
%ADD44C,1.1500*%
%ADD45C,1.4000*%
%ADD46C,3.8000*%
%ADD47C,3.2000*%
%ADD48O,2.6000X1.8000*%
%ADD49O,2.6000X2.0000*%
%ADD50O,2.4000X1.8000*%
G04:AMPARAMS|DCode=51|XSize=5mm|YSize=5mm|CornerRadius=1.25mm|HoleSize=0mm|Usage=FLASHONLY|Rotation=0.000|XOffset=0mm|YOffset=0mm|HoleType=Round|Shape=RoundedRectangle|*
%AMROUNDEDRECTD51*
21,1,5.0000,2.5000,0,0,0.0*
21,1,2.5000,5.0000,0,0,0.0*
1,1,2.5000,1.2500,-1.2500*
1,1,2.5000,-1.2500,-1.2500*
1,1,2.5000,-1.2500,1.2500*
1,1,2.5000,1.2500,1.2500*
%
%ADD51ROUNDEDRECTD51*%
%ADD52C,1.8000*%
%ADD53R,1.8000X1.8000*%
%ADD54C,1.6000*%
%ADD55C,1.5000*%
%ADD56R,1.8000X1.8000*%
%ADD57C,0.8000*%
%ADD58C,1.0000*%
G36*
X156459Y201930D02*
X154834Y199813D01*
X153373Y196285D01*
X152875Y192500D01*
Y167500D01*
X153373Y163715D01*
X154834Y160187D01*
X157158Y157158D01*
X160187Y154834D01*
X163715Y153373D01*
X167500Y152875D01*
X192500D01*
X196285Y153373D01*
X199813Y154834D01*
X201930Y156459D01*
X203200Y155833D01*
Y-135833D01*
X201930Y-136459D01*
X199813Y-134834D01*
X196285Y-133373D01*
X192500Y-132875D01*
X167500D01*
X163715Y-133373D01*
X160187Y-134834D01*
X157158Y-137158D01*
X154834Y-140188D01*
X153373Y-143715D01*
X152875Y-147500D01*
Y-172500D01*
X153373Y-176285D01*
X154834Y-179813D01*
X157158Y-182841D01*
X157296Y-182947D01*
X156888Y-184150D01*
X121324D01*
X121072Y-182880D01*
X121640Y-182645D01*
X123102Y-181522D01*
X124225Y-180060D01*
X124930Y-178357D01*
X125170Y-176530D01*
X124930Y-174703D01*
X124225Y-173000D01*
X123102Y-171538D01*
X122428Y-171020D01*
X122859Y-169750D01*
X129110D01*
Y-147750D01*
X107110D01*
Y-169750D01*
X113361D01*
X113792Y-171020D01*
X113118Y-171538D01*
X111995Y-173000D01*
X111290Y-174703D01*
X111050Y-176530D01*
X111290Y-178357D01*
X111995Y-180060D01*
X113118Y-181522D01*
X114580Y-182645D01*
X115148Y-182880D01*
X114896Y-184150D01*
X86208D01*
X85722Y-182977D01*
X95233Y-173465D01*
X96007Y-172308D01*
X96278Y-170942D01*
Y-169178D01*
X98257Y-168358D01*
X100555Y-166595D01*
X101187Y-165772D01*
X101837Y-165337D01*
X102611Y-164180D01*
X102836Y-163047D01*
X103427Y-161621D01*
X103805Y-158750D01*
X103427Y-155878D01*
X102318Y-153202D01*
X100555Y-150905D01*
X98257Y-149142D01*
X95582Y-148033D01*
X92710Y-147655D01*
X89838Y-148033D01*
X87163Y-149142D01*
X84865Y-150905D01*
X83101Y-153202D01*
X81993Y-155878D01*
X81615Y-158750D01*
X81993Y-161621D01*
X83101Y-164297D01*
X84865Y-166595D01*
X87163Y-168358D01*
X88074Y-168736D01*
X88371Y-170234D01*
X77088Y-181517D01*
X63695D01*
X63209Y-180344D01*
X69833Y-173719D01*
X70607Y-172562D01*
X70879Y-171196D01*
Y-169178D01*
X72857Y-168358D01*
X75155Y-166595D01*
X75561Y-166066D01*
X76523Y-165424D01*
X77297Y-164266D01*
X77569Y-162900D01*
X77545Y-162784D01*
X78027Y-161622D01*
X78405Y-158750D01*
X78027Y-155878D01*
X76919Y-153203D01*
X75155Y-150905D01*
X72857Y-149142D01*
X70182Y-148033D01*
X67540Y-147685D01*
X66871Y-146558D01*
X70669Y-142761D01*
X127794D01*
X132216Y-147183D01*
Y-156136D01*
X149216D01*
Y-145136D01*
X140263D01*
X134936Y-139809D01*
X135422Y-138636D01*
X149216D01*
Y-127636D01*
X144285D01*
Y-122195D01*
X144013Y-120830D01*
X143239Y-119672D01*
X124312Y-100745D01*
Y-95562D01*
X125632Y-94762D01*
X127044Y-93289D01*
X128027Y-91501D01*
X128513Y-89519D01*
X128490Y-88402D01*
X129754Y-88136D01*
X130037Y-88818D01*
X131085Y-90184D01*
X132451Y-91232D01*
X134042Y-91891D01*
X134479Y-91948D01*
Y-85519D01*
Y-79090D01*
X134042Y-79148D01*
X132451Y-79806D01*
X131085Y-80855D01*
X130037Y-82221D01*
X129378Y-83812D01*
X129153Y-85519D01*
X127920Y-85587D01*
X127900Y-85519D01*
X126843Y-83774D01*
X125370Y-82362D01*
X125160Y-82246D01*
X125063Y-80980D01*
X125271Y-80821D01*
X126880Y-78723D01*
X127678Y-76796D01*
X129065Y-76218D01*
X129158Y-76284D01*
X131075Y-76985D01*
X133108Y-77165D01*
X135118Y-76814D01*
X136968Y-75954D01*
X138533Y-74644D01*
X139706Y-72975D01*
X140407Y-71058D01*
X140587Y-69025D01*
X140236Y-67015D01*
X139376Y-65165D01*
X138067Y-63600D01*
X136397Y-62427D01*
X134480Y-61726D01*
X132447Y-61546D01*
X130437Y-61897D01*
X128587Y-62757D01*
X127022Y-64066D01*
X126029Y-65480D01*
X125190Y-65798D01*
X124448Y-65869D01*
X123173Y-64890D01*
X120731Y-63878D01*
X119380Y-63701D01*
Y-73660D01*
X116840D01*
Y-63701D01*
X115489Y-63878D01*
X113047Y-64890D01*
X110949Y-66499D01*
X109407Y-68510D01*
X109269Y-68515D01*
X108137Y-67792D01*
Y-61968D01*
X129003Y-41101D01*
X129777Y-39944D01*
X130049Y-38578D01*
Y-32184D01*
X134980D01*
Y-21184D01*
X117980D01*
Y-32184D01*
X122911D01*
Y-37100D01*
X102045Y-57967D01*
X101271Y-59124D01*
X100999Y-60490D01*
Y-66135D01*
X100632Y-66260D01*
X99729Y-66441D01*
X97753Y-64925D01*
X95321Y-63917D01*
X92710Y-63574D01*
X90099Y-63917D01*
X88181Y-64712D01*
X87461Y-63636D01*
X102091Y-49005D01*
X102865Y-47848D01*
X103137Y-46482D01*
Y-8082D01*
X106252Y-4967D01*
X117980D01*
Y-14684D01*
X134980D01*
Y-12753D01*
X144359D01*
X145724Y-12481D01*
X146882Y-11707D01*
X147185Y-11404D01*
X147467Y-11529D01*
X149548Y-11857D01*
X151643Y-11635D01*
X153608Y-10878D01*
X155311Y-9639D01*
X156636Y-8001D01*
X157491Y-6076D01*
X157818Y-3995D01*
X157596Y-1900D01*
X156840Y66D01*
X155600Y1769D01*
X153962Y3093D01*
X152037Y3948D01*
X149956Y4276D01*
X147861Y4054D01*
X145896Y3297D01*
X144192Y2058D01*
X142868Y419D01*
X142013Y-1506D01*
X141685Y-3586D01*
X141800Y-4671D01*
X140951Y-5615D01*
X134980D01*
Y-3684D01*
X126181D01*
X125695Y-2511D01*
X129001Y796D01*
X129775Y1954D01*
X129956Y2866D01*
X134978D01*
Y13866D01*
X117978D01*
Y2866D01*
X116996Y2171D01*
X114383D01*
X113402Y2868D01*
Y13868D01*
X96402D01*
Y4915D01*
X92814Y1327D01*
X91611Y1735D01*
X91443Y3013D01*
X90280Y5820D01*
X88431Y8230D01*
X86020Y10080D01*
X83213Y11243D01*
X80200Y11639D01*
X77470D01*
Y0D01*
Y-11639D01*
X80200D01*
X83213Y-11243D01*
X86020Y-10080D01*
X88431Y-8230D01*
X89141Y-7304D01*
X90411Y-7735D01*
Y-18552D01*
X89141Y-18983D01*
X88045Y-17555D01*
X85747Y-15791D01*
X83072Y-14683D01*
X80200Y-14305D01*
X72200D01*
X69328Y-14683D01*
X66652Y-15791D01*
X64355Y-17555D01*
X62592Y-19853D01*
X61483Y-22528D01*
X61105Y-25400D01*
X61483Y-28272D01*
X62592Y-30947D01*
X64355Y-33245D01*
X66652Y-35008D01*
X69328Y-36117D01*
X72200Y-36495D01*
X80200D01*
X83072Y-36117D01*
X85747Y-35008D01*
X88045Y-33245D01*
X89141Y-31817D01*
X90411Y-32248D01*
Y-41956D01*
X73706Y-58661D01*
X60706D01*
X59340Y-58933D01*
X58183Y-59707D01*
X52087Y-65803D01*
X51313Y-66960D01*
X51243Y-67311D01*
X49886Y-67627D01*
X49042Y-66528D01*
X46953Y-64925D01*
X44521Y-63917D01*
X41910Y-63574D01*
X41698Y-63602D01*
X41136Y-62463D01*
X53577Y-50021D01*
X54351Y-48864D01*
X54623Y-47498D01*
Y24430D01*
X61130Y30938D01*
X62207Y30218D01*
X61509Y28533D01*
X61096Y25400D01*
X61509Y22267D01*
X62718Y19348D01*
X64641Y16841D01*
X67148Y14918D01*
X70067Y13709D01*
X73200Y13297D01*
X79200D01*
X82333Y13709D01*
X85252Y14918D01*
X87759Y16841D01*
X89682Y19348D01*
X90891Y22267D01*
X91304Y25400D01*
X90891Y28533D01*
X89682Y31452D01*
X87759Y33958D01*
X85252Y35882D01*
X84833Y36055D01*
X85086Y37325D01*
X100584D01*
X101950Y37597D01*
X103107Y38371D01*
X111883Y47147D01*
X136876D01*
X137516Y45876D01*
X136963Y45131D01*
X136826Y44784D01*
X113351D01*
X111985Y44512D01*
X110828Y43738D01*
X102379Y35289D01*
X101605Y34132D01*
X101333Y32766D01*
Y31368D01*
X96402D01*
Y20368D01*
X113402D01*
Y31368D01*
X110210D01*
X109724Y32541D01*
X114829Y37647D01*
X136847D01*
X137100Y37063D01*
X138410Y35414D01*
X140103Y34160D01*
X142062Y33387D01*
X144155Y33147D01*
X146239Y33458D01*
X148171Y34296D01*
X149820Y35607D01*
X151074Y37299D01*
X151847Y39259D01*
X152086Y41352D01*
X151776Y43435D01*
X150937Y45367D01*
X150533Y45876D01*
X151146Y47147D01*
X152423D01*
X153789Y47418D01*
X154946Y48192D01*
X178646Y71891D01*
X180625Y71071D01*
X183496Y70693D01*
X186368Y71071D01*
X189044Y72180D01*
X191341Y73943D01*
X193104Y76241D01*
X194213Y78917D01*
X194591Y81788D01*
X194213Y84660D01*
X193104Y87336D01*
X191341Y89633D01*
X189044Y91397D01*
X186368Y92505D01*
X183496Y92883D01*
X180625Y92505D01*
X177949Y91397D01*
X175651Y89633D01*
X173888Y87336D01*
X172779Y84660D01*
X172401Y81788D01*
X172779Y78917D01*
X173599Y76938D01*
X168375Y71714D01*
X167218Y72353D01*
X167230Y72407D01*
X167150Y74511D01*
X166528Y76524D01*
X165406Y78307D01*
X163861Y79738D01*
X161998Y80722D01*
X159944Y81189D01*
X157839Y81109D01*
X155827Y80487D01*
X155416Y80228D01*
X154619Y81227D01*
X173704Y100312D01*
X174971Y100229D01*
X175651Y99343D01*
X177949Y97580D01*
X180624Y96471D01*
X183496Y96093D01*
X186368Y96471D01*
X189043Y97580D01*
X191341Y99343D01*
X193104Y101641D01*
X194213Y104317D01*
X194591Y107188D01*
X194213Y110060D01*
X193104Y112736D01*
X191341Y115033D01*
X189043Y116797D01*
X186368Y117905D01*
X183496Y118283D01*
X180624Y117905D01*
X177949Y116797D01*
X175651Y115033D01*
X173888Y112736D01*
X172779Y110060D01*
X172691Y109393D01*
X146232Y82933D01*
X135434D01*
X134389Y82725D01*
X134190Y82756D01*
X133402Y83187D01*
X133020Y83488D01*
X132732Y84986D01*
X131812Y86881D01*
X130433Y88473D01*
X128689Y89655D01*
X126698Y90344D01*
X124597Y90495D01*
X122529Y90097D01*
X120634Y89177D01*
X119042Y87799D01*
X117860Y86054D01*
X117171Y84064D01*
X117020Y81963D01*
X117418Y79895D01*
X118337Y78000D01*
X118799Y77466D01*
X118839Y77287D01*
X118509Y75861D01*
X117915Y75464D01*
X102083Y59632D01*
X101454Y59791D01*
X100851Y60195D01*
Y65596D01*
X105782D01*
Y76596D01*
X88782D01*
Y65596D01*
X93713D01*
Y61422D01*
X88438Y56147D01*
X71931D01*
X71546Y57417D01*
X71552Y57421D01*
X77707Y63576D01*
X78481Y64734D01*
X78663Y65646D01*
X83684D01*
Y76646D01*
X66684D01*
Y65646D01*
X68025D01*
X68511Y64473D01*
X67551Y63513D01*
X58928D01*
X58179Y63363D01*
X56908Y64215D01*
Y65596D01*
X61840D01*
Y76596D01*
X45479D01*
Y83096D01*
X61840D01*
Y92049D01*
X78507Y108717D01*
X79281Y109874D01*
X79553Y111240D01*
Y121912D01*
X79960Y122077D01*
X81642Y123345D01*
X82938Y125006D01*
X83760Y126945D01*
X84053Y129031D01*
X83795Y131122D01*
X83006Y133074D01*
X81737Y134756D01*
X80077Y136053D01*
X78138Y136875D01*
X76052Y137167D01*
X73961Y136910D01*
X72008Y136120D01*
X70326Y134852D01*
X69030Y133191D01*
X68208Y131252D01*
X67915Y129166D01*
X68173Y127076D01*
X68963Y125123D01*
X70231Y123441D01*
X71891Y122145D01*
X72416Y121922D01*
Y112718D01*
X63013Y103316D01*
X61840Y103802D01*
Y110596D01*
X44840D01*
Y99596D01*
X43897Y98807D01*
X42867Y98119D01*
X39387Y94639D01*
X38613Y93481D01*
X38341Y92116D01*
Y60660D01*
X-17309Y5009D01*
X-18483Y5495D01*
Y38815D01*
X-18754Y40181D01*
X-19528Y41339D01*
X-22085Y43896D01*
Y51378D01*
X-20815Y51566D01*
X-19997Y48867D01*
X-17996Y45125D01*
X-15305Y41845D01*
X-12025Y39153D01*
X-8283Y37153D01*
X-4223Y35922D01*
X-1270Y35631D01*
Y57150D01*
Y78669D01*
X-4223Y78378D01*
X-8283Y77147D01*
X-12025Y75146D01*
X-15305Y72455D01*
X-17996Y69175D01*
X-19997Y65433D01*
X-20815Y62734D01*
X-22085Y62922D01*
Y73452D01*
X-11730Y83807D01*
X24638D01*
X26004Y84079D01*
X27161Y84853D01*
X34019Y91711D01*
X34793Y92868D01*
X35065Y94234D01*
Y99402D01*
X39996D01*
Y110402D01*
X22996D01*
Y99402D01*
X27927D01*
Y95712D01*
X23160Y90945D01*
X10021D01*
X9535Y92118D01*
X12683Y95267D01*
X13457Y96424D01*
X13729Y97790D01*
Y99642D01*
X18660D01*
Y110642D01*
X1660D01*
Y99642D01*
X5169D01*
X5695Y98372D01*
X3856Y96533D01*
X-14691D01*
X-16057Y96261D01*
X-17214Y95487D01*
X-33177Y79524D01*
X-33951Y78367D01*
X-34223Y77001D01*
Y40347D01*
X-33951Y38981D01*
X-33177Y37824D01*
X-30620Y35266D01*
Y7246D01*
X-31890Y6875D01*
X-33024Y7745D01*
X-34615Y8404D01*
X-35052Y8461D01*
Y2032D01*
X-37592D01*
Y8461D01*
X-38029Y8404D01*
X-38983Y8008D01*
X-40253Y8771D01*
Y82208D01*
X-27634Y94827D01*
X-24816D01*
X-23451Y95099D01*
X-22293Y95873D01*
X-18270Y99896D01*
X-2930D01*
Y110896D01*
X-19930D01*
Y108193D01*
X-20340Y107919D01*
X-23093Y105166D01*
X-24266Y105652D01*
Y110896D01*
X-31752D01*
X-32258Y110997D01*
X-32764Y110896D01*
X-41266D01*
Y103467D01*
X-44586Y100147D01*
X-45856Y100673D01*
Y110596D01*
X-62856D01*
Y99596D01*
X-58433D01*
Y74155D01*
X-71204Y61384D01*
X-72377Y61870D01*
Y69924D01*
X-67192D01*
Y80924D01*
X-84192D01*
Y69924D01*
X-79514D01*
Y61422D01*
X-99043Y41893D01*
X-99817Y40736D01*
X-100089Y39370D01*
Y10855D01*
X-101228Y10540D01*
X-101359Y10540D01*
X-106159D01*
Y42718D01*
X-92155Y56723D01*
X-91381Y57880D01*
X-91109Y59246D01*
Y108888D01*
X-89578Y109834D01*
X-88133Y111367D01*
X-87135Y113221D01*
X-86650Y115271D01*
X-86713Y117377D01*
X-87318Y119394D01*
X-88425Y121187D01*
X-89958Y122631D01*
X-91813Y123630D01*
X-93862Y124114D01*
X-95968Y124052D01*
X-97986Y123447D01*
X-99778Y122340D01*
X-101222Y120807D01*
X-102221Y118952D01*
X-102706Y116902D01*
X-102643Y114796D01*
X-102038Y112779D01*
X-100931Y110987D01*
X-99398Y109542D01*
X-98246Y108922D01*
Y60724D01*
X-112251Y46719D01*
X-113025Y45562D01*
X-113297Y44196D01*
Y10540D01*
X-118228D01*
Y-460D01*
X-101359D01*
X-101228Y-460D01*
X-100089Y-775D01*
Y-6645D01*
X-101228Y-6960D01*
Y-6960D01*
X-118228D01*
Y-17960D01*
X-113297D01*
Y-72853D01*
X-114567Y-73238D01*
X-115308Y-72128D01*
X-116065Y-71622D01*
Y-25103D01*
X-116337Y-23737D01*
X-117111Y-22580D01*
X-123957Y-15733D01*
Y-6780D01*
X-140957D01*
Y-17780D01*
X-132004D01*
X-123203Y-26581D01*
Y-71040D01*
X-123712Y-71420D01*
X-124876Y-70704D01*
X-124704Y-69718D01*
X-124890Y-67620D01*
X-125614Y-65641D01*
X-126825Y-63918D01*
X-128441Y-62566D01*
X-130351Y-61679D01*
X-132426Y-61317D01*
X-134524Y-61504D01*
X-136503Y-62227D01*
X-138226Y-63438D01*
X-139578Y-65054D01*
X-140465Y-66964D01*
X-140827Y-69039D01*
X-140640Y-71137D01*
X-139917Y-73116D01*
X-138706Y-74839D01*
X-137090Y-76191D01*
X-135180Y-77078D01*
X-133105Y-77440D01*
X-131006Y-77253D01*
X-129028Y-76530D01*
X-127305Y-75319D01*
X-126670Y-74560D01*
X-125487Y-75126D01*
X-125751Y-76454D01*
X-125286Y-78795D01*
X-124399Y-80123D01*
X-124657Y-81667D01*
X-124722Y-81750D01*
X-125505Y-82180D01*
X-127025Y-83638D01*
X-128117Y-85440D01*
X-128704Y-87463D01*
X-128748Y-89569D01*
X-128246Y-91615D01*
X-127231Y-93461D01*
X-125773Y-94981D01*
X-123971Y-96072D01*
X-121948Y-96660D01*
X-119843Y-96704D01*
X-117797Y-96201D01*
X-115951Y-95187D01*
X-114431Y-93729D01*
X-113340Y-91927D01*
X-112752Y-89904D01*
X-112708Y-87798D01*
X-113210Y-85752D01*
X-114225Y-83906D01*
X-115583Y-82491D01*
X-115743Y-82052D01*
X-115764Y-81084D01*
X-115308Y-80780D01*
X-113982Y-78795D01*
X-112642Y-78570D01*
X-112251Y-79155D01*
X-99327Y-92080D01*
Y-99420D01*
X-100597Y-100017D01*
X-101314Y-99424D01*
X-103229Y-98547D01*
X-105306Y-98196D01*
X-107403Y-98394D01*
X-109378Y-99129D01*
X-111095Y-100349D01*
X-112437Y-101972D01*
X-113314Y-103887D01*
X-113665Y-105964D01*
X-113467Y-108061D01*
X-112733Y-110035D01*
X-111513Y-111752D01*
X-110081Y-112937D01*
Y-114254D01*
X-110129Y-114495D01*
Y-120709D01*
X-109857Y-122074D01*
X-109847Y-122089D01*
X-109809Y-122280D01*
X-109035Y-123438D01*
X-107306Y-125167D01*
Y-132321D01*
X-107696D01*
X-109062Y-132593D01*
X-110219Y-133367D01*
X-114791Y-137939D01*
X-115565Y-139096D01*
X-115837Y-140462D01*
Y-141980D01*
X-116594Y-142486D01*
X-117920Y-144471D01*
X-118385Y-146812D01*
X-117920Y-149153D01*
X-116594Y-151138D01*
X-116527Y-151182D01*
X-116896Y-152397D01*
X-122203D01*
X-123008Y-151416D01*
X-122989Y-151320D01*
Y-143320D01*
X-123222Y-142149D01*
X-123885Y-141157D01*
X-124878Y-140494D01*
X-124950Y-140480D01*
Y-131991D01*
X-124503Y-131614D01*
X-122406Y-131415D01*
X-120432Y-130681D01*
X-118715Y-129461D01*
X-117372Y-127838D01*
X-116496Y-125922D01*
X-116144Y-123846D01*
X-116342Y-121749D01*
X-117077Y-119774D01*
X-118297Y-118057D01*
X-119920Y-116714D01*
X-121835Y-115838D01*
X-121880Y-115830D01*
X-133213Y-104497D01*
X-133178Y-102835D01*
X-133681Y-100790D01*
X-134696Y-98944D01*
X-136153Y-97423D01*
X-137955Y-96332D01*
X-139978Y-95744D01*
X-140167Y-95741D01*
X-147657Y-83728D01*
X-147578Y-83557D01*
X-147215Y-81482D01*
X-147402Y-79384D01*
X-148125Y-77405D01*
X-149336Y-75682D01*
X-150952Y-74330D01*
X-152863Y-73443D01*
X-154938Y-73080D01*
X-157036Y-73267D01*
X-159014Y-73991D01*
X-160738Y-75202D01*
X-162089Y-76818D01*
X-162976Y-78728D01*
X-163339Y-80803D01*
X-163152Y-82901D01*
X-162428Y-84879D01*
X-161217Y-86603D01*
X-159602Y-87955D01*
X-157691Y-88842D01*
X-156336Y-89078D01*
X-148791Y-101179D01*
X-149175Y-102500D01*
X-149219Y-104606D01*
X-148716Y-106652D01*
X-147702Y-108498D01*
X-146244Y-110018D01*
X-144442Y-111109D01*
X-142419Y-111697D01*
X-141548Y-111715D01*
X-141515Y-111771D01*
X-142154Y-113194D01*
X-143565Y-113474D01*
X-145550Y-114800D01*
X-146876Y-116785D01*
X-147341Y-119126D01*
X-146876Y-121467D01*
X-145550Y-123452D01*
X-143565Y-124778D01*
X-142577Y-124974D01*
X-140117Y-127435D01*
Y-137978D01*
X-141071Y-138933D01*
X-141845Y-140090D01*
X-142117Y-141456D01*
Y-153184D01*
X-141845Y-154550D01*
X-141071Y-155707D01*
X-138729Y-158049D01*
X-138435Y-158489D01*
X-137278Y-159263D01*
X-135912Y-159535D01*
X-135253D01*
X-134767Y-160708D01*
X-137438Y-163379D01*
X-142646D01*
X-143738Y-163596D01*
X-144665Y-164215D01*
X-145283Y-165142D01*
X-145501Y-166234D01*
Y-174634D01*
X-145283Y-175727D01*
X-144665Y-176653D01*
X-143738Y-177271D01*
X-142646Y-177489D01*
X-136246D01*
X-135154Y-177271D01*
X-134227Y-176653D01*
X-133609Y-175727D01*
X-133391Y-174634D01*
Y-169426D01*
X-129176Y-165211D01*
X-128223Y-165268D01*
X-127255Y-166234D01*
Y-169164D01*
X-114045D01*
Y-166234D01*
X-114130Y-165805D01*
X-113157Y-164535D01*
X-107306D01*
Y-165814D01*
X-90306D01*
Y-160707D01*
X-89133Y-160221D01*
X-88024Y-161329D01*
X-86867Y-162103D01*
X-85501Y-162375D01*
X-74778D01*
X-74526Y-163645D01*
X-74672Y-163705D01*
X-76038Y-164754D01*
X-77087Y-166120D01*
X-77746Y-167711D01*
X-77803Y-168148D01*
X-64945D01*
X-65002Y-167711D01*
X-65661Y-166120D01*
X-66710Y-164754D01*
X-68076Y-163705D01*
X-68222Y-163645D01*
X-67970Y-162375D01*
X-67158D01*
X-65792Y-162103D01*
X-64634Y-161329D01*
X-62145Y-158840D01*
X-61371Y-157682D01*
X-61099Y-156316D01*
Y-146296D01*
X-61367Y-144949D01*
X-61322Y-144884D01*
X-60436Y-144044D01*
X-59999Y-144336D01*
X-57658Y-144802D01*
X-55317Y-144336D01*
X-53332Y-143010D01*
X-52826Y-142253D01*
X-52525D01*
X-51159Y-141981D01*
X-50002Y-141207D01*
X-36549Y-127755D01*
X-7243Y-157062D01*
Y-160508D01*
X-7404Y-160641D01*
Y-169672D01*
X-9944D01*
Y-161171D01*
X-10708Y-161323D01*
X-11660Y-161959D01*
X-11851Y-161832D01*
X-12924Y-161618D01*
X-14424D01*
X-15497Y-161832D01*
X-16174Y-162284D01*
X-16851Y-161832D01*
X-17924Y-161618D01*
X-19424D01*
X-20497Y-161832D01*
X-21174Y-162284D01*
X-21851Y-161832D01*
X-22924Y-161618D01*
X-24424D01*
X-25497Y-161832D01*
X-26174Y-162284D01*
X-26851Y-161832D01*
X-27924Y-161618D01*
X-29424D01*
X-30105Y-161059D01*
Y-157395D01*
X-29102Y-156391D01*
X-28208Y-156569D01*
X-25867Y-156103D01*
X-23883Y-154777D01*
X-22556Y-152792D01*
X-22091Y-150451D01*
X-22556Y-148110D01*
X-23883Y-146125D01*
X-25867Y-144799D01*
X-28208Y-144334D01*
X-30172Y-144724D01*
X-31006Y-143710D01*
X-31012Y-143695D01*
X-30416Y-142803D01*
X-29950Y-140462D01*
X-30416Y-138121D01*
X-31742Y-136136D01*
X-33727Y-134810D01*
X-36068Y-134345D01*
X-38409Y-134810D01*
X-40394Y-136136D01*
X-41720Y-138121D01*
X-42186Y-140462D01*
X-41946Y-141665D01*
X-41971Y-141702D01*
X-42242Y-143068D01*
Y-161059D01*
X-42924Y-161618D01*
X-44424D01*
X-45105Y-161059D01*
Y-159606D01*
X-45333Y-158460D01*
X-44936Y-156464D01*
X-45402Y-154123D01*
X-46728Y-152138D01*
X-48713Y-150812D01*
X-51054Y-150346D01*
X-53395Y-150812D01*
X-55380Y-152138D01*
X-56706Y-154123D01*
X-57172Y-156464D01*
X-56706Y-158805D01*
X-55895Y-160018D01*
X-56189Y-161525D01*
X-56619Y-161782D01*
X-56851Y-161832D01*
X-57924Y-161618D01*
X-59424D01*
X-60497Y-161832D01*
X-61407Y-162439D01*
X-62014Y-163349D01*
X-62228Y-164422D01*
Y-169931D01*
X-62333Y-170001D01*
X-63829Y-171497D01*
X-64176Y-171387D01*
X-64964Y-170836D01*
X-64945Y-170688D01*
X-77803D01*
X-77746Y-171125D01*
X-77350Y-172079D01*
X-78113Y-173349D01*
X-83274D01*
X-88333Y-168291D01*
X-89491Y-167517D01*
X-90856Y-167245D01*
X-106756D01*
X-108121Y-167517D01*
X-109279Y-168291D01*
X-111329Y-170341D01*
X-112103Y-171499D01*
X-112375Y-172864D01*
Y-178194D01*
X-114000Y-179819D01*
X-146858D01*
X-147931Y-178746D01*
Y-147898D01*
X-145559Y-145525D01*
X-144785Y-144368D01*
X-144513Y-143002D01*
Y-129855D01*
X-144785Y-128490D01*
X-145559Y-127332D01*
X-151088Y-121803D01*
X-152246Y-121029D01*
X-153611Y-120757D01*
X-162696D01*
Y-111862D01*
X-175434D01*
X-176282Y-110592D01*
X-176000Y-109911D01*
X-175943Y-109474D01*
X-188801D01*
X-188744Y-109911D01*
X-188462Y-110592D01*
X-189310Y-111862D01*
X-201540D01*
Y-122862D01*
X-196609D01*
Y-125476D01*
X-196337Y-126842D01*
X-195563Y-127999D01*
X-191958Y-131605D01*
X-192484Y-132875D01*
X-192500D01*
X-196285Y-133373D01*
X-199813Y-134834D01*
X-201930Y-136459D01*
X-203200Y-135833D01*
Y155833D01*
X-201930Y156459D01*
X-199813Y154834D01*
X-196285Y153373D01*
X-192500Y152875D01*
X-167500D01*
X-163715Y153373D01*
X-160187Y154834D01*
X-157158Y157158D01*
X-154834Y160187D01*
X-153373Y163715D01*
X-152875Y167500D01*
Y192500D01*
X-153373Y196285D01*
X-154834Y199813D01*
X-156459Y201930D01*
X-155833Y203200D01*
X155833D01*
X156459Y201930D01*
D02*
G37*
G36*
X152170Y76982D02*
X151629Y75957D01*
X151162Y73903D01*
X151242Y71798D01*
X151864Y69785D01*
X152986Y68003D01*
X154531Y66571D01*
X156394Y65588D01*
X158448Y65121D01*
X160047Y65181D01*
X160592Y63931D01*
X150945Y54284D01*
X140387D01*
X140021Y55554D01*
X141268Y56339D01*
X142700Y57884D01*
X143683Y59747D01*
X144151Y61801D01*
X144071Y63906D01*
X143448Y65918D01*
X142326Y67701D01*
X140781Y69133D01*
X138918Y70116D01*
X136865Y70583D01*
X134760Y70503D01*
X132747Y69881D01*
X132072Y70956D01*
X136912Y75796D01*
X147710D01*
X149076Y76068D01*
X150233Y76842D01*
X151137Y77745D01*
X152170Y76982D01*
D02*
G37*
G36*
X130640Y68409D02*
X129532Y67214D01*
X128549Y65351D01*
X128082Y63297D01*
X128162Y61192D01*
X128784Y59180D01*
X129906Y57397D01*
X131451Y55965D01*
X132231Y55554D01*
X131917Y54284D01*
X110405D01*
X109039Y54012D01*
X107882Y53238D01*
X99864Y45221D01*
X99612Y45271D01*
X99194Y46649D01*
X121916Y69372D01*
X129010D01*
X129979Y69564D01*
X130640Y68409D01*
D02*
G37*
G36*
X10909Y21475D02*
Y-8936D01*
X-5965Y-25810D01*
X-6858Y-25633D01*
X-9199Y-26098D01*
X-11184Y-27424D01*
X-12213Y-28964D01*
X-13483Y-28579D01*
Y-1257D01*
X-10703Y1522D01*
X-10191Y1270D01*
X-1270D01*
Y10191D01*
X-1522Y10703D01*
X9736Y21961D01*
X10909Y21475D01*
D02*
G37*
G36*
X41135Y26673D02*
Y-45299D01*
X6691Y-79743D01*
X-120D01*
Y-78062D01*
X-334Y-76989D01*
X-235Y-76631D01*
X362Y-75744D01*
X3634Y-75422D01*
X7129Y-74362D01*
X10350Y-72640D01*
X13173Y-70323D01*
X15490Y-67500D01*
X17212Y-64279D01*
X18272Y-60785D01*
X18505Y-58420D01*
X0D01*
X-18505D01*
X-18272Y-60785D01*
X-17212Y-64279D01*
X-17052Y-64578D01*
X-17595Y-65726D01*
X-18851Y-65976D01*
X-18985Y-66066D01*
X-20105Y-65467D01*
Y-46742D01*
X-14528Y-41165D01*
X-13754Y-40007D01*
X-13483Y-38641D01*
Y-34921D01*
X-12213Y-34536D01*
X-11184Y-36076D01*
X-9199Y-37402D01*
X-6858Y-37868D01*
X-4517Y-37402D01*
X-2532Y-36076D01*
X-1206Y-34091D01*
X-741Y-31750D01*
X-918Y-30857D01*
X16497Y-13441D01*
X17767Y-13967D01*
Y-20485D01*
X9847Y-28405D01*
X8954Y-28228D01*
X6613Y-28693D01*
X4628Y-30019D01*
X3302Y-32004D01*
X2836Y-34345D01*
X3302Y-36686D01*
X3958Y-37667D01*
X3892Y-37914D01*
X3211Y-38837D01*
X1270Y-38645D01*
Y-55880D01*
X18505D01*
X18272Y-53516D01*
X17212Y-50021D01*
X15490Y-46800D01*
X13173Y-43977D01*
X10350Y-41660D01*
X10105Y-41529D01*
X10302Y-40194D01*
X11295Y-39997D01*
X13280Y-38671D01*
X14606Y-36686D01*
X15071Y-34345D01*
X14894Y-33452D01*
X23859Y-24486D01*
X24633Y-23329D01*
X24905Y-21963D01*
Y20874D01*
X29705Y25675D01*
X30975Y25149D01*
Y-21890D01*
X26962Y-25903D01*
X26189Y-27061D01*
X25917Y-28426D01*
Y-29712D01*
X25160Y-30218D01*
X23834Y-32203D01*
X23368Y-34544D01*
X23834Y-36885D01*
X25160Y-38870D01*
X27144Y-40196D01*
X29485Y-40662D01*
X31827Y-40196D01*
X33811Y-38870D01*
X35137Y-36885D01*
X35603Y-34544D01*
X35137Y-32203D01*
X33811Y-30218D01*
X33715Y-29243D01*
X37067Y-25891D01*
X37841Y-24734D01*
X38113Y-23368D01*
Y25446D01*
X39865Y27199D01*
X41135Y26673D01*
D02*
G37*
G36*
X-101228Y-17960D02*
X-100089Y-18275D01*
Y-78994D01*
X-99981Y-79536D01*
X-101151Y-80162D01*
X-106159Y-75153D01*
Y-17960D01*
X-101228D01*
Y-17960D01*
D02*
G37*
G36*
X76949Y-79611D02*
Y-91994D01*
X53706Y-115238D01*
X48949D01*
X48463Y-114064D01*
X57133Y-105393D01*
X57907Y-104236D01*
X58179Y-102870D01*
Y-80273D01*
X59449Y-79841D01*
X60178Y-80792D01*
X62267Y-82395D01*
X64700Y-83403D01*
X67310Y-83746D01*
X69921Y-83403D01*
X72353Y-82395D01*
X74442Y-80792D01*
X75679Y-79180D01*
X76949Y-79611D01*
D02*
G37*
G36*
X31852Y-73448D02*
X31824Y-73660D01*
X32167Y-76271D01*
X33175Y-78703D01*
X34778Y-80792D01*
X36867Y-82395D01*
X39299Y-83403D01*
X41910Y-83746D01*
X44521Y-83403D01*
X46953Y-82395D01*
X49042Y-80792D01*
X49771Y-79841D01*
X51041Y-80273D01*
Y-101392D01*
X42196Y-110237D01*
X20805D01*
X20246Y-109556D01*
Y-108056D01*
X20998Y-107140D01*
X25734D01*
X26662Y-106955D01*
X27940Y-107210D01*
X30281Y-106744D01*
X32266Y-105418D01*
X33592Y-103433D01*
X34058Y-101092D01*
X33592Y-98751D01*
X32266Y-96766D01*
X30281Y-95440D01*
X27940Y-94974D01*
X25599Y-95440D01*
X23614Y-96766D01*
X22288Y-98751D01*
X22056Y-99919D01*
X21317Y-100036D01*
X20246Y-99045D01*
Y-98056D01*
X20032Y-96983D01*
X19511Y-96202D01*
X24867Y-90846D01*
X25091Y-90996D01*
X27432Y-91461D01*
X29773Y-90996D01*
X31758Y-89670D01*
X33084Y-87685D01*
X33549Y-85344D01*
X33084Y-83003D01*
X31758Y-81018D01*
X29773Y-79692D01*
X27432Y-79226D01*
X25855Y-79540D01*
X25229Y-78370D01*
X30713Y-72886D01*
X31852Y-73448D01*
D02*
G37*
G36*
X-48624Y-115681D02*
X-49079Y-117022D01*
X-49619Y-117093D01*
X-51210Y-117752D01*
X-52375Y-118645D01*
X-53586Y-119118D01*
X-55571Y-117792D01*
X-57912Y-117326D01*
X-60253Y-117792D01*
X-62238Y-119118D01*
X-62986Y-120238D01*
X-65555D01*
X-66114Y-119556D01*
Y-118056D01*
X-66328Y-116983D01*
X-66780Y-116306D01*
X-66328Y-115629D01*
X-66114Y-114556D01*
Y-113056D01*
X-66328Y-111983D01*
X-66780Y-111306D01*
X-66328Y-110629D01*
X-66114Y-109556D01*
Y-108056D01*
X-66328Y-106983D01*
X-66780Y-106306D01*
X-66328Y-105629D01*
X-66114Y-104556D01*
Y-103056D01*
X-65555Y-102375D01*
X-61930D01*
X-48624Y-115681D01*
D02*
G37*
G36*
X85578Y-80792D02*
X87667Y-82395D01*
X90099Y-83403D01*
X92710Y-83746D01*
X95321Y-83403D01*
X97753Y-82395D01*
X99383Y-81145D01*
X100222Y-82101D01*
X91168Y-91155D01*
X91142Y-91195D01*
X62099Y-120237D01*
X60459D01*
X59973Y-119064D01*
X83041Y-95995D01*
X83815Y-94838D01*
X84087Y-93472D01*
Y-80824D01*
X85289Y-80416D01*
X85578Y-80792D01*
D02*
G37*
G36*
X-52391Y68445D02*
Y-3146D01*
X-52243Y-3890D01*
Y-74148D01*
X-52404Y-74281D01*
Y-83312D01*
Y-91813D01*
X-51640Y-91661D01*
X-50688Y-91025D01*
X-50497Y-91152D01*
X-49424Y-91366D01*
X-47924D01*
X-46851Y-91152D01*
X-46174Y-90700D01*
X-45497Y-91152D01*
X-44424Y-91366D01*
X-42924D01*
X-41851Y-91152D01*
X-41174Y-90700D01*
X-40497Y-91152D01*
X-39424Y-91366D01*
X-37924D01*
X-36851Y-91152D01*
X-36174Y-90700D01*
X-35497Y-91152D01*
X-34424Y-91366D01*
X-32924D01*
X-31851Y-91152D01*
X-31174Y-90700D01*
X-30497Y-91152D01*
X-29424Y-91366D01*
X-27924D01*
X-26851Y-91152D01*
X-26174Y-90700D01*
X-25497Y-91152D01*
X-24424Y-91366D01*
X-23756Y-92636D01*
X-24448Y-93671D01*
X-24913Y-96012D01*
X-24448Y-98353D01*
X-23122Y-100338D01*
X-21137Y-101664D01*
X-18796Y-102129D01*
X-16455Y-101664D01*
X-14470Y-100338D01*
X-13718Y-99212D01*
X-12190D01*
X-11438Y-100338D01*
X-9453Y-101664D01*
X-7112Y-102129D01*
X-4771Y-101664D01*
X-3927Y-101100D01*
X-2807Y-101698D01*
Y-106934D01*
X-2535Y-108300D01*
X-1761Y-109457D01*
X111Y-111329D01*
X1268Y-112103D01*
X2634Y-112375D01*
X3579D01*
X4138Y-113056D01*
Y-114556D01*
X4352Y-115629D01*
X4804Y-116306D01*
X4352Y-116983D01*
X4138Y-118056D01*
Y-119556D01*
X4352Y-120629D01*
X4804Y-121306D01*
X4352Y-121983D01*
X4138Y-123056D01*
Y-124556D01*
X4282Y-125277D01*
X4032Y-125825D01*
X2601Y-126265D01*
X1325Y-125412D01*
X-1016Y-124946D01*
X-3357Y-125412D01*
X-5342Y-126738D01*
X-6668Y-128723D01*
X-7133Y-131064D01*
X-6668Y-133405D01*
X-5342Y-135390D01*
X-4585Y-135896D01*
Y-138652D01*
X-4313Y-140017D01*
X-3539Y-141175D01*
X1615Y-146329D01*
X2772Y-147103D01*
X4138Y-147375D01*
X4247Y-147507D01*
X4138Y-148056D01*
Y-149556D01*
X4352Y-150629D01*
X4804Y-151306D01*
X4352Y-151983D01*
X4138Y-153056D01*
Y-154556D01*
X4352Y-155629D01*
X4959Y-156539D01*
X5869Y-157146D01*
X6942Y-157360D01*
X10699D01*
X11889Y-158550D01*
X10604Y-160473D01*
X10138Y-162814D01*
X10604Y-165155D01*
X11930Y-167140D01*
X13915Y-168466D01*
X16256Y-168932D01*
X18597Y-168466D01*
X18913Y-168255D01*
X19370Y-168436D01*
X20046Y-169025D01*
X19994Y-169418D01*
X35029D01*
X36072Y-168816D01*
X36090Y-168830D01*
X38897Y-169993D01*
X40640Y-170222D01*
Y-158750D01*
X41910D01*
Y-157480D01*
X53382D01*
X53153Y-155737D01*
X52091Y-153175D01*
X52422Y-152386D01*
X52804Y-151905D01*
X57262D01*
X57824Y-153044D01*
X57702Y-153203D01*
X56593Y-155878D01*
X56215Y-158750D01*
X56593Y-161622D01*
X57702Y-164298D01*
X59465Y-166595D01*
X61762Y-168358D01*
X62860Y-168813D01*
X63151Y-170308D01*
X56942Y-176517D01*
X34064D01*
X33437Y-175247D01*
X34018Y-174491D01*
X34778Y-172656D01*
X34870Y-171958D01*
X19994D01*
X20086Y-172656D01*
X20846Y-174491D01*
X21427Y-175247D01*
X20800Y-176517D01*
X8171D01*
X7786Y-175247D01*
X8136Y-175014D01*
X9462Y-173029D01*
X9927Y-170688D01*
X9462Y-168347D01*
X8136Y-166362D01*
X6151Y-165036D01*
X3810Y-164571D01*
X1469Y-165036D01*
X1015Y-165340D01*
X-105Y-164741D01*
Y-155584D01*
X-377Y-154218D01*
X-1151Y-153061D01*
X-34026Y-120185D01*
X-55553Y-98658D01*
X-55377Y-98394D01*
X-55105Y-97028D01*
Y-92476D01*
X-54944Y-92343D01*
Y-83312D01*
Y-74281D01*
X-55105Y-74148D01*
Y-69596D01*
X-55377Y-68230D01*
X-56151Y-67073D01*
X-61993Y-61231D01*
X-63150Y-60457D01*
X-64236Y-60241D01*
X-64243Y-60224D01*
X-65366Y-58762D01*
X-66650Y-57776D01*
X-66585Y-57116D01*
X-66302Y-56506D01*
X-60566D01*
Y-50867D01*
X-60388Y-50601D01*
X-59922Y-48260D01*
X-60388Y-45919D01*
X-60566Y-45653D01*
Y-39506D01*
X-71566D01*
Y-45730D01*
X-71692Y-45919D01*
X-72158Y-48260D01*
X-71692Y-50601D01*
X-71566Y-50790D01*
X-71566Y-55894D01*
X-72124Y-56831D01*
X-72589Y-57101D01*
X-73888Y-57639D01*
X-75350Y-58762D01*
X-76473Y-60224D01*
X-77178Y-61927D01*
X-77418Y-63754D01*
X-77178Y-65581D01*
X-76473Y-67284D01*
X-75350Y-68746D01*
X-73888Y-69868D01*
X-72185Y-70574D01*
X-70358Y-70814D01*
X-68531Y-70574D01*
X-66828Y-69868D01*
X-65366Y-68746D01*
X-64619Y-68698D01*
X-62243Y-71074D01*
Y-83312D01*
Y-95237D01*
X-74168D01*
X-74242Y-95252D01*
X-79418D01*
X-80491Y-95466D01*
X-80919Y-95752D01*
X-82189Y-95142D01*
Y-81882D01*
X-82461Y-80516D01*
X-83235Y-79359D01*
X-87109Y-75484D01*
Y-57046D01*
X-84836D01*
Y-48006D01*
Y-38966D01*
X-87109D01*
Y35385D01*
X-53564Y68931D01*
X-52391Y68445D01*
D02*
G37*
G36*
X109407Y-78810D02*
X110949Y-80821D01*
X113047Y-82430D01*
X114051Y-82846D01*
X114288Y-84319D01*
X113460Y-85824D01*
X112974Y-87806D01*
X113017Y-89846D01*
X113586Y-91806D01*
X114644Y-93551D01*
X116117Y-94963D01*
X117175Y-95545D01*
Y-102223D01*
X117447Y-103588D01*
X118220Y-104746D01*
X137148Y-123673D01*
Y-127636D01*
X133341D01*
X132365Y-127636D01*
X131372Y-126716D01*
X131679Y-125974D01*
X131954Y-123885D01*
X131679Y-121797D01*
X130873Y-119851D01*
X129591Y-118179D01*
X127920Y-116897D01*
X125974Y-116091D01*
X123885Y-115816D01*
X121797Y-116091D01*
X119851Y-116897D01*
X118179Y-118179D01*
X116897Y-119851D01*
X116091Y-121797D01*
X115816Y-123885D01*
X116091Y-125974D01*
X116897Y-127920D01*
X118179Y-129591D01*
X119851Y-130873D01*
X121797Y-131679D01*
X123885Y-131954D01*
X125974Y-131679D01*
X127920Y-130873D01*
X129591Y-129591D01*
X130873Y-127920D01*
X130946Y-127743D01*
X132216Y-127996D01*
X132216Y-128832D01*
X132216Y-128832D01*
X132216Y-128844D01*
Y-135422D01*
X130946Y-136101D01*
X130638Y-135895D01*
X129272Y-135623D01*
X81399D01*
X80913Y-134450D01*
X84663Y-130699D01*
X85138Y-129989D01*
X86239Y-128888D01*
X86949Y-128413D01*
X89023Y-126340D01*
X89916Y-126517D01*
X92257Y-126052D01*
X94242Y-124726D01*
X95568Y-122741D01*
X96033Y-120400D01*
X95568Y-118059D01*
X94242Y-116074D01*
X92257Y-114748D01*
X89916Y-114282D01*
X87575Y-114748D01*
X85590Y-116074D01*
X85176Y-116694D01*
X83906D01*
X83320Y-115816D01*
X81335Y-114490D01*
X80001Y-114225D01*
X79583Y-112847D01*
X96215Y-96215D01*
X96242Y-96175D01*
X107091Y-85325D01*
X107865Y-84168D01*
X108137Y-82802D01*
Y-79528D01*
X109269Y-78805D01*
X109407Y-78810D01*
D02*
G37*
%LPC*%
G36*
X-85090Y191599D02*
Y186440D01*
X-79931D01*
X-79988Y186877D01*
X-80647Y188468D01*
X-81696Y189834D01*
X-83062Y190883D01*
X-84653Y191542D01*
X-85090Y191599D01*
D02*
G37*
G36*
X-87630D02*
X-88067Y191542D01*
X-89658Y190883D01*
X-91024Y189834D01*
X-92073Y188468D01*
X-92732Y186877D01*
X-92789Y186440D01*
X-87630D01*
Y191599D01*
D02*
G37*
G36*
X-131064Y191595D02*
Y186436D01*
X-125905D01*
X-125962Y186873D01*
X-126621Y188464D01*
X-127670Y189830D01*
X-129036Y190879D01*
X-130627Y191538D01*
X-131064Y191595D01*
D02*
G37*
G36*
X-133604D02*
X-134041Y191538D01*
X-135632Y190879D01*
X-136998Y189830D01*
X-138047Y188464D01*
X-138706Y186873D01*
X-138763Y186436D01*
X-133604D01*
Y191595D01*
D02*
G37*
G36*
X-79931Y183900D02*
X-85090D01*
Y178741D01*
X-84653Y178798D01*
X-83062Y179457D01*
X-81696Y180506D01*
X-80647Y181872D01*
X-79988Y183463D01*
X-79931Y183900D01*
D02*
G37*
G36*
X-87630D02*
X-92789D01*
X-92732Y183463D01*
X-92073Y181872D01*
X-91024Y180506D01*
X-89658Y179457D01*
X-88067Y178798D01*
X-87630Y178741D01*
Y183900D01*
D02*
G37*
G36*
X-125905Y183896D02*
X-131064D01*
Y178737D01*
X-130627Y178794D01*
X-129036Y179453D01*
X-127670Y180502D01*
X-126621Y181868D01*
X-125962Y183459D01*
X-125905Y183896D01*
D02*
G37*
G36*
X-133604D02*
X-138763D01*
X-138706Y183459D01*
X-138047Y181868D01*
X-136998Y180502D01*
X-135632Y179453D01*
X-134041Y178794D01*
X-133604Y178737D01*
Y183896D01*
D02*
G37*
G36*
X124714Y175085D02*
Y169926D01*
X129873D01*
X129816Y170363D01*
X129157Y171954D01*
X128108Y173320D01*
X126742Y174369D01*
X125151Y175028D01*
X124714Y175085D01*
D02*
G37*
G36*
X122174D02*
X121737Y175028D01*
X120146Y174369D01*
X118780Y173320D01*
X117731Y171954D01*
X117072Y170363D01*
X117015Y169926D01*
X122174D01*
Y175085D01*
D02*
G37*
G36*
X-13948Y182938D02*
X-16009Y182505D01*
X-17888Y181553D01*
X-19457Y180148D01*
X-20609Y178384D01*
X-21265Y176382D01*
X-21380Y174279D01*
X-20947Y172218D01*
X-19995Y170338D01*
X-18590Y168769D01*
X-16826Y167618D01*
X-14824Y166962D01*
X-12721Y166847D01*
X-10660Y167280D01*
X-8780Y168231D01*
X-7211Y169637D01*
X-6060Y171401D01*
X-5404Y173403D01*
X-5289Y175506D01*
X-5722Y177567D01*
X-6673Y179446D01*
X-8079Y181015D01*
X-9843Y182167D01*
X-11845Y182823D01*
X-13948Y182938D01*
D02*
G37*
G36*
X13901Y182741D02*
X11797Y182625D01*
X9796Y181969D01*
X8032Y180817D01*
X6627Y179248D01*
X5676Y177369D01*
X5243Y175307D01*
X5359Y173204D01*
X6015Y171202D01*
X7167Y169439D01*
X8736Y168033D01*
X10615Y167082D01*
X12677Y166649D01*
X14780Y166765D01*
X16782Y167421D01*
X18545Y168573D01*
X19951Y170142D01*
X20902Y172022D01*
X21335Y174083D01*
X21219Y176187D01*
X20563Y178188D01*
X19411Y179952D01*
X17842Y181357D01*
X15962Y182308D01*
X13901Y182741D01*
D02*
G37*
G36*
X-39393Y178920D02*
X-41490Y178716D01*
X-43462Y177976D01*
X-45175Y176751D01*
X-46513Y175124D01*
X-47385Y173206D01*
X-47730Y171128D01*
X-47525Y169031D01*
X-46785Y167059D01*
X-45560Y165346D01*
X-43933Y164008D01*
X-42015Y163137D01*
X-39937Y162792D01*
X-37840Y162996D01*
X-35868Y163736D01*
X-34155Y164961D01*
X-32817Y166589D01*
X-31946Y168506D01*
X-31601Y170584D01*
X-31805Y172681D01*
X-32545Y174653D01*
X-33771Y176366D01*
X-35398Y177704D01*
X-37315Y178575D01*
X-39393Y178920D01*
D02*
G37*
G36*
X39317Y178733D02*
X37239Y178387D01*
X35321Y177516D01*
X33695Y176177D01*
X32470Y174464D01*
X31730Y172492D01*
X31526Y170395D01*
X31871Y168317D01*
X32743Y166399D01*
X34081Y164773D01*
X35794Y163548D01*
X37767Y162808D01*
X39863Y162604D01*
X41941Y162949D01*
X43859Y163821D01*
X45486Y165159D01*
X46711Y166873D01*
X47450Y168845D01*
X47655Y170941D01*
X47309Y173019D01*
X46438Y174937D01*
X45099Y176564D01*
X43386Y177789D01*
X41413Y178528D01*
X39317Y178733D01*
D02*
G37*
G36*
X129873Y167386D02*
X124714D01*
Y162227D01*
X125151Y162284D01*
X126742Y162943D01*
X128108Y163992D01*
X129157Y165358D01*
X129816Y166949D01*
X129873Y167386D01*
D02*
G37*
G36*
X122174D02*
X117015D01*
X117072Y166949D01*
X117731Y165358D01*
X118780Y163992D01*
X120146Y162943D01*
X121737Y162284D01*
X122174Y162227D01*
Y167386D01*
D02*
G37*
G36*
X-66034Y170892D02*
X-68075Y170372D01*
X-69912Y169342D01*
X-71420Y167871D01*
X-72497Y166060D01*
X-73067Y164033D01*
X-73094Y161926D01*
X-72574Y159885D01*
X-71544Y158048D01*
X-70073Y156540D01*
X-68262Y155464D01*
X-66235Y154893D01*
X-64128Y154867D01*
X-62087Y155386D01*
X-60250Y156416D01*
X-58742Y157887D01*
X-57666Y159698D01*
X-57095Y161726D01*
X-57069Y163832D01*
X-57588Y165873D01*
X-58618Y167710D01*
X-60089Y169219D01*
X-61900Y170294D01*
X-63927Y170865D01*
X-66034Y170892D01*
D02*
G37*
G36*
X65930Y170718D02*
X63823Y170691D01*
X61796Y170119D01*
X59985Y169043D01*
X58515Y167535D01*
X57485Y165697D01*
X56966Y163656D01*
X56993Y161550D01*
X57564Y159522D01*
X58640Y157711D01*
X60148Y156241D01*
X61986Y155211D01*
X64027Y154692D01*
X66133Y154719D01*
X68161Y155290D01*
X69972Y156366D01*
X71442Y157875D01*
X72472Y159712D01*
X72991Y161754D01*
X72964Y163860D01*
X72393Y165887D01*
X71317Y167698D01*
X69809Y169168D01*
X67971Y170198D01*
X65930Y170718D01*
D02*
G37*
G36*
X-89065Y159214D02*
X-91151Y158921D01*
X-93090Y158098D01*
X-94750Y156802D01*
X-96018Y155120D01*
X-96807Y153167D01*
X-97065Y151076D01*
X-96772Y148990D01*
X-95949Y147051D01*
X-94652Y145391D01*
X-92970Y144123D01*
X-91018Y143334D01*
X-88927Y143076D01*
X-86841Y143369D01*
X-84902Y144192D01*
X-83242Y145489D01*
X-81974Y147171D01*
X-81184Y149124D01*
X-80927Y151214D01*
X-81220Y153300D01*
X-82043Y155239D01*
X-83339Y156899D01*
X-85021Y158167D01*
X-86974Y158957D01*
X-89065Y159214D01*
D02*
G37*
G36*
X88936Y159057D02*
X86845Y158800D01*
X84892Y158010D01*
X83210Y156742D01*
X81914Y155081D01*
X81092Y153142D01*
X80799Y151056D01*
X81057Y148965D01*
X81847Y147013D01*
X83115Y145331D01*
X84775Y144035D01*
X86714Y143212D01*
X88800Y142920D01*
X90891Y143177D01*
X92844Y143967D01*
X94526Y145235D01*
X95822Y146896D01*
X96644Y148835D01*
X96937Y150921D01*
X96679Y153011D01*
X95890Y154964D01*
X94621Y156646D01*
X92961Y157942D01*
X91022Y158765D01*
X88936Y159057D01*
D02*
G37*
G36*
X195036Y144128D02*
X184766D01*
Y133858D01*
X195036D01*
Y144128D01*
D02*
G37*
G36*
X182226D02*
X171956D01*
Y133858D01*
X182226D01*
Y144128D01*
D02*
G37*
G36*
X109891Y143817D02*
X107841Y143332D01*
X105987Y142333D01*
X104454Y140888D01*
X103347Y139096D01*
X102742Y137078D01*
X102680Y134973D01*
X103165Y132923D01*
X104164Y131068D01*
X105609Y129536D01*
X107401Y128429D01*
X109419Y127824D01*
X111525Y127762D01*
X113574Y128247D01*
X115429Y129246D01*
X116962Y130691D01*
X118068Y132483D01*
X118673Y134501D01*
X118735Y136606D01*
X118250Y138656D01*
X117251Y140511D01*
X115807Y142044D01*
X114014Y143150D01*
X111996Y143755D01*
X109891Y143817D01*
D02*
G37*
G36*
X-109916Y143798D02*
X-112022Y143735D01*
X-114039Y143130D01*
X-115831Y142023D01*
X-117276Y140490D01*
X-118275Y138636D01*
X-118759Y136586D01*
X-118697Y134480D01*
X-118091Y132463D01*
X-116985Y130670D01*
X-115451Y129226D01*
X-113597Y128227D01*
X-111547Y127743D01*
X-109441Y127805D01*
X-107424Y128410D01*
X-105632Y129517D01*
X-104187Y131050D01*
X-103188Y132905D01*
X-102704Y134955D01*
X-102766Y137060D01*
X-103372Y139078D01*
X-104479Y140870D01*
X-106011Y142315D01*
X-107866Y143313D01*
X-109916Y143798D01*
D02*
G37*
G36*
X154432Y130556D02*
Y125397D01*
X159591D01*
X159534Y125834D01*
X158875Y127425D01*
X157826Y128791D01*
X156460Y129839D01*
X154869Y130498D01*
X154432Y130556D01*
D02*
G37*
G36*
X151892D02*
X151455Y130498D01*
X149864Y129839D01*
X148498Y128791D01*
X147449Y127425D01*
X146790Y125834D01*
X146733Y125397D01*
X151892D01*
Y130556D01*
D02*
G37*
G36*
X195036Y131318D02*
X184766D01*
Y121048D01*
X195036D01*
Y131318D01*
D02*
G37*
G36*
X182226D02*
X171956D01*
Y121048D01*
X182226D01*
Y131318D01*
D02*
G37*
G36*
X159591Y122857D02*
X154432D01*
Y117698D01*
X154869Y117755D01*
X156460Y118414D01*
X157826Y119462D01*
X158875Y120829D01*
X159534Y122420D01*
X159591Y122857D01*
D02*
G37*
G36*
X151892D02*
X146733D01*
X146790Y122420D01*
X147449Y120829D01*
X148498Y119462D01*
X149864Y118414D01*
X151455Y117755D01*
X151892Y117698D01*
Y122857D01*
D02*
G37*
G36*
X-12017Y157612D02*
X-14078Y157179D01*
X-15957Y156227D01*
X-17526Y154821D01*
X-18678Y153057D01*
X-19334Y151056D01*
X-19449Y148952D01*
X-19016Y146891D01*
X-18065Y145012D01*
X-16659Y143443D01*
X-14972Y142342D01*
Y128396D01*
X-19930D01*
Y117396D01*
X-2930D01*
Y128396D01*
X-7835D01*
Y142406D01*
X-6849Y142905D01*
X-5281Y144311D01*
X-4129Y146074D01*
X-3473Y148076D01*
X-3358Y150179D01*
X-3791Y152241D01*
X-4742Y154120D01*
X-6148Y155689D01*
X-7912Y156840D01*
X-9914Y157496D01*
X-12017Y157612D01*
D02*
G37*
G36*
X-33649Y154179D02*
X-35746Y153974D01*
X-37718Y153234D01*
X-39431Y152009D01*
X-40769Y150382D01*
X-41641Y148464D01*
X-41986Y146386D01*
X-41781Y144289D01*
X-41041Y142317D01*
X-39816Y140604D01*
X-38189Y139266D01*
X-36271Y138395D01*
X-35827Y138321D01*
Y128396D01*
X-41266D01*
Y117396D01*
X-24266D01*
Y128396D01*
X-28689D01*
Y140020D01*
X-28411Y140220D01*
X-27073Y141847D01*
X-26202Y143764D01*
X-25857Y145842D01*
X-26061Y147939D01*
X-26801Y149911D01*
X-28027Y151624D01*
X-29654Y152962D01*
X-31572Y153833D01*
X-33649Y154179D01*
D02*
G37*
G36*
X11974Y157414D02*
X9871Y157298D01*
X7869Y156642D01*
X6106Y155490D01*
X4700Y153921D01*
X3749Y152042D01*
X3316Y149980D01*
X3432Y147877D01*
X4088Y145876D01*
X5240Y144112D01*
X6591Y142902D01*
Y128142D01*
X1660D01*
Y117142D01*
X18660D01*
Y128142D01*
X13729D01*
Y141725D01*
X14855Y142094D01*
X16619Y143246D01*
X18024Y144816D01*
X18975Y146695D01*
X19408Y148756D01*
X19292Y150860D01*
X18636Y152861D01*
X17484Y154625D01*
X15915Y156030D01*
X14036Y156982D01*
X11974Y157414D01*
D02*
G37*
G36*
X56509Y147129D02*
X54403Y147102D01*
X52375Y146531D01*
X50565Y145455D01*
X49094Y143946D01*
X48064Y142109D01*
X47545Y140067D01*
X47572Y137961D01*
X48143Y135934D01*
X49220Y134123D01*
X50728Y132653D01*
X51989Y131945D01*
Y128096D01*
X44840D01*
Y117096D01*
X61840D01*
Y128096D01*
X59127D01*
Y131931D01*
X60551Y132778D01*
X62022Y134286D01*
X63052Y136124D01*
X63571Y138165D01*
X63544Y140271D01*
X62973Y142299D01*
X61897Y144109D01*
X60388Y145580D01*
X58551Y146610D01*
X56509Y147129D01*
D02*
G37*
G36*
X-56609Y147305D02*
X-58650Y146785D01*
X-60488Y145755D01*
X-61996Y144284D01*
X-63072Y142474D01*
X-63643Y140446D01*
X-63669Y138340D01*
X-63150Y136298D01*
X-62119Y134461D01*
X-60649Y132953D01*
X-58838Y131877D01*
X-57924Y131620D01*
Y128096D01*
X-62856D01*
Y117096D01*
X-54630D01*
X-54356Y117041D01*
X-54082Y117096D01*
X-45856D01*
Y128096D01*
X-50787D01*
Y132866D01*
X-49317Y134300D01*
X-48241Y136111D01*
X-47670Y138139D01*
X-47644Y140245D01*
X-48163Y142286D01*
X-49194Y144124D01*
X-50664Y145632D01*
X-52475Y146708D01*
X-54503Y147278D01*
X-56609Y147305D01*
D02*
G37*
G36*
X33577Y153990D02*
X31499Y153644D01*
X29582Y152773D01*
X27955Y151434D01*
X26730Y149721D01*
X25990Y147749D01*
X25786Y145652D01*
X26132Y143574D01*
X27003Y141657D01*
X27927Y140533D01*
Y127902D01*
X22996D01*
Y116902D01*
X39996D01*
Y127902D01*
X35065D01*
Y138017D01*
X36202Y138206D01*
X38119Y139078D01*
X39746Y140416D01*
X40971Y142130D01*
X41711Y144102D01*
X41915Y146198D01*
X41569Y148276D01*
X40698Y150194D01*
X39360Y151821D01*
X37646Y153046D01*
X35674Y153785D01*
X33577Y153990D01*
D02*
G37*
G36*
X130551Y125652D02*
X128451Y125483D01*
X126467Y124776D01*
X124733Y123580D01*
X123368Y121976D01*
X122464Y120073D01*
X122084Y118001D01*
X122253Y115901D01*
X122959Y113917D01*
X124156Y112183D01*
X125760Y110818D01*
X127662Y109914D01*
X129734Y109534D01*
X131834Y109703D01*
X133818Y110410D01*
X135552Y111606D01*
X136917Y113210D01*
X137821Y115113D01*
X138201Y117185D01*
X138032Y119284D01*
X137326Y121269D01*
X136130Y123003D01*
X134525Y124368D01*
X132623Y125271D01*
X130551Y125652D01*
D02*
G37*
G36*
X-130424Y125495D02*
X-132496Y125114D01*
X-134399Y124210D01*
X-136003Y122845D01*
X-137198Y121110D01*
X-137905Y119126D01*
X-138073Y117026D01*
X-137825Y115674D01*
X-146552Y104396D01*
X-147924Y104297D01*
X-149915Y103607D01*
X-151658Y102425D01*
X-153037Y100833D01*
X-153956Y98937D01*
X-154354Y96869D01*
X-154203Y94768D01*
X-153513Y92778D01*
X-152331Y91034D01*
X-150738Y89655D01*
X-148843Y88736D01*
X-146775Y88338D01*
X-144674Y88490D01*
X-142683Y89179D01*
X-140940Y90361D01*
X-139561Y91954D01*
X-138642Y93849D01*
X-138244Y95917D01*
X-138395Y98018D01*
X-138457Y98197D01*
X-129793Y109392D01*
X-129605Y109377D01*
X-127533Y109758D01*
X-125631Y110662D01*
X-124027Y112027D01*
X-122831Y113761D01*
X-122125Y115746D01*
X-121956Y117846D01*
X-122337Y119917D01*
X-123240Y121820D01*
X-124606Y123424D01*
X-126340Y124620D01*
X-128325Y125326D01*
X-130424Y125495D01*
D02*
G37*
G36*
X93841Y124131D02*
X91791Y123646D01*
X89937Y122647D01*
X88404Y121202D01*
X87297Y119410D01*
X86692Y117392D01*
X86630Y115286D01*
X87044Y113536D01*
X72661Y99153D01*
X71887Y97995D01*
X71615Y96629D01*
Y94146D01*
X66684D01*
Y83146D01*
X83684D01*
Y94146D01*
X79391D01*
X79017Y95416D01*
X92115Y108514D01*
X93369Y108138D01*
X95475Y108076D01*
X97524Y108560D01*
X99379Y109559D01*
X100912Y111004D01*
X102018Y112797D01*
X102623Y114815D01*
X102685Y116920D01*
X102200Y118970D01*
X101201Y120824D01*
X99756Y122357D01*
X97964Y123464D01*
X95946Y124069D01*
X93841Y124131D01*
D02*
G37*
G36*
X-182880Y98885D02*
Y93726D01*
X-177721D01*
X-177778Y94163D01*
X-178437Y95754D01*
X-179486Y97120D01*
X-180852Y98169D01*
X-182443Y98828D01*
X-182880Y98885D01*
D02*
G37*
G36*
X-185420D02*
X-185857Y98828D01*
X-187448Y98169D01*
X-188814Y97120D01*
X-189863Y95754D01*
X-190522Y94163D01*
X-190579Y93726D01*
X-185420D01*
Y98885D01*
D02*
G37*
G36*
X111705Y108623D02*
X109605Y108454D01*
X107621Y107747D01*
X105887Y106551D01*
X104522Y104947D01*
X103618Y103044D01*
X103238Y100972D01*
X103340Y99701D01*
X97735Y94096D01*
X88782D01*
Y83096D01*
X105782D01*
Y92049D01*
X107326Y93593D01*
X108816Y92886D01*
X110888Y92505D01*
X112988Y92674D01*
X114972Y93381D01*
X116706Y94577D01*
X118071Y96181D01*
X118975Y98084D01*
X119355Y100156D01*
X119186Y102255D01*
X118479Y104240D01*
X117283Y105974D01*
X115679Y107339D01*
X113776Y108242D01*
X111705Y108623D01*
D02*
G37*
G36*
X145805Y104473D02*
X143736Y104076D01*
X141841Y103156D01*
X140249Y101777D01*
X139068Y100033D01*
X138378Y98042D01*
X138227Y95941D01*
X138625Y93873D01*
X139545Y91978D01*
X140924Y90386D01*
X142668Y89204D01*
X144658Y88515D01*
X146759Y88364D01*
X148828Y88762D01*
X150723Y89682D01*
X152315Y91060D01*
X153496Y92804D01*
X154186Y94795D01*
X154337Y96896D01*
X153939Y98964D01*
X153019Y100859D01*
X151640Y102452D01*
X149896Y103633D01*
X147906Y104323D01*
X145805Y104473D01*
D02*
G37*
G36*
X-76177Y137326D02*
X-78263Y137034D01*
X-80202Y136211D01*
X-81862Y134914D01*
X-83130Y133232D01*
X-83920Y131279D01*
X-84177Y129189D01*
X-83884Y127103D01*
X-83061Y125163D01*
X-81765Y123503D01*
X-80083Y122235D01*
X-79515Y122006D01*
Y98424D01*
X-84192D01*
Y87424D01*
X-67192D01*
Y98424D01*
X-72378D01*
Y122150D01*
X-72014Y122304D01*
X-70354Y123601D01*
X-69086Y125283D01*
X-68296Y127236D01*
X-68039Y129327D01*
X-68332Y131413D01*
X-69155Y133352D01*
X-70451Y135012D01*
X-72134Y136280D01*
X-74086Y137069D01*
X-76177Y137326D01*
D02*
G37*
G36*
X-177721Y91186D02*
X-182880D01*
Y86027D01*
X-182443Y86084D01*
X-180852Y86743D01*
X-179486Y87792D01*
X-178437Y89158D01*
X-177778Y90749D01*
X-177721Y91186D01*
D02*
G37*
G36*
X-185420D02*
X-190579D01*
X-190522Y90749D01*
X-189863Y89158D01*
X-188814Y87792D01*
X-187448Y86743D01*
X-185857Y86084D01*
X-185420Y86027D01*
Y91186D01*
D02*
G37*
G36*
X-124613Y90473D02*
X-126714Y90322D01*
X-128704Y89632D01*
X-130448Y88450D01*
X-131827Y86858D01*
X-132746Y84963D01*
X-133144Y82894D01*
X-132992Y80793D01*
X-132303Y78803D01*
X-131121Y77059D01*
X-129528Y75680D01*
X-127633Y74761D01*
X-125565Y74363D01*
X-123464Y74515D01*
X-121473Y75205D01*
X-119730Y76386D01*
X-118351Y77979D01*
X-117431Y79874D01*
X-117034Y81943D01*
X-117185Y84044D01*
X-117875Y86034D01*
X-119057Y87778D01*
X-120649Y89156D01*
X-122545Y90076D01*
X-124613Y90473D01*
D02*
G37*
G36*
X-159958Y81161D02*
X-162012Y80693D01*
X-163875Y79710D01*
X-165420Y78278D01*
X-166541Y76495D01*
X-167163Y74482D01*
X-167243Y72377D01*
X-166775Y70324D01*
X-165792Y68461D01*
X-164360Y66916D01*
X-162577Y65794D01*
X-160564Y65173D01*
X-158459Y65093D01*
X-156405Y65560D01*
X-154543Y66544D01*
X-152998Y67976D01*
X-151876Y69759D01*
X-151255Y71772D01*
X-151175Y73877D01*
X-151643Y75930D01*
X-152626Y77793D01*
X-154058Y79338D01*
X-155841Y80459D01*
X-157853Y81081D01*
X-159958Y81161D01*
D02*
G37*
G36*
X1270Y78669D02*
Y58420D01*
X21519D01*
X21228Y61373D01*
X19997Y65433D01*
X17996Y69175D01*
X15305Y72455D01*
X12025Y75146D01*
X8283Y77147D01*
X4223Y78378D01*
X1270Y78669D01*
D02*
G37*
G36*
X183496Y65970D02*
X181016Y65643D01*
X178705Y64686D01*
X176721Y63163D01*
X175198Y61179D01*
X174241Y58868D01*
X173914Y56388D01*
X174017Y55607D01*
X172828Y54907D01*
X172354Y55259D01*
X170394Y56032D01*
X168302Y56271D01*
X166218Y55961D01*
X164286Y55122D01*
X162637Y53812D01*
X161383Y52119D01*
X160610Y50160D01*
X160370Y48067D01*
X160681Y45983D01*
X161520Y44051D01*
X162830Y42402D01*
X164523Y41148D01*
X166482Y40375D01*
X168575Y40136D01*
X170658Y40446D01*
X172591Y41285D01*
X174240Y42595D01*
X175494Y44288D01*
X176267Y46247D01*
X176489Y48190D01*
X176924Y48517D01*
X177714Y48850D01*
X178705Y48090D01*
X181016Y47133D01*
X183496Y46806D01*
X185976Y47133D01*
X188287Y48090D01*
X190271Y49612D01*
X191794Y51597D01*
X192752Y53908D01*
X193078Y56388D01*
X192752Y58868D01*
X191794Y61179D01*
X190271Y63163D01*
X188287Y64686D01*
X185976Y65643D01*
X183496Y65970D01*
D02*
G37*
G36*
X-136877Y70559D02*
X-138931Y70092D01*
X-140793Y69108D01*
X-142338Y67676D01*
X-143460Y65893D01*
X-144082Y63881D01*
X-144161Y61776D01*
X-143694Y59722D01*
X-142710Y57859D01*
X-141278Y56314D01*
X-139495Y55193D01*
X-137483Y54571D01*
X-135378Y54491D01*
X-133324Y54959D01*
X-131461Y55942D01*
X-129916Y57374D01*
X-128795Y59157D01*
X-128173Y61170D01*
X-128093Y63275D01*
X-128561Y65329D01*
X-129544Y67191D01*
X-130976Y68736D01*
X-132759Y69858D01*
X-134772Y70479D01*
X-136877Y70559D01*
D02*
G37*
G36*
X-168311Y56242D02*
X-170404Y56002D01*
X-172363Y55229D01*
X-174056Y53974D01*
X-175366Y52325D01*
X-176205Y50393D01*
X-176514Y48309D01*
X-176275Y46217D01*
X-175501Y44257D01*
X-174247Y42565D01*
X-172598Y41255D01*
X-170665Y40416D01*
X-168582Y40106D01*
X-166489Y40346D01*
X-164530Y41119D01*
X-162837Y42374D01*
X-161527Y44023D01*
X-160689Y45955D01*
X-160379Y48039D01*
X-160619Y50132D01*
X-161392Y52091D01*
X-162646Y53783D01*
X-164296Y55093D01*
X-166228Y55932D01*
X-168311Y56242D01*
D02*
G37*
G36*
X21519Y55880D02*
X1270D01*
Y35631D01*
X4223Y35922D01*
X8283Y37153D01*
X12025Y39153D01*
X15305Y41845D01*
X17996Y45125D01*
X19997Y48867D01*
X21228Y52927D01*
X21519Y55880D01*
D02*
G37*
G36*
X-143890Y49258D02*
X-145983Y49018D01*
X-147943Y48245D01*
X-149635Y46990D01*
X-150945Y45341D01*
X-151784Y43409D01*
X-152094Y41325D01*
X-151854Y39232D01*
X-151080Y37273D01*
X-149826Y35581D01*
X-148177Y34271D01*
X-146244Y33432D01*
X-144161Y33122D01*
X-142068Y33362D01*
X-140109Y34135D01*
X-138417Y35389D01*
X-137106Y37039D01*
X-136268Y38971D01*
X-135958Y41055D01*
X-136198Y43148D01*
X-136971Y45107D01*
X-138225Y46799D01*
X-139875Y48109D01*
X-141807Y48948D01*
X-143890Y49258D01*
D02*
G37*
G36*
X172776Y30145D02*
X170739Y29608D01*
X168910Y28563D01*
X167414Y27079D01*
X166354Y25259D01*
X165800Y23227D01*
X165791Y21121D01*
X166328Y19084D01*
X167373Y17255D01*
X168857Y15760D01*
X170676Y14699D01*
X172709Y14145D01*
X174815Y14136D01*
X176852Y14673D01*
X178681Y15718D01*
X180176Y17201D01*
X181237Y19021D01*
X181791Y21054D01*
X181800Y23160D01*
X181263Y25197D01*
X180217Y27026D01*
X178734Y28521D01*
X176914Y29582D01*
X174882Y30136D01*
X172776Y30145D01*
D02*
G37*
G36*
X-172781Y30115D02*
X-174887Y30105D01*
X-176920Y29551D01*
X-178739Y28490D01*
X-180222Y26994D01*
X-181267Y25165D01*
X-181804Y23128D01*
X-181794Y21022D01*
X-181241Y18990D01*
X-180179Y17170D01*
X-178683Y15687D01*
X-176854Y14642D01*
X-174818Y14106D01*
X-172711Y14115D01*
X-170679Y14669D01*
X-168859Y15730D01*
X-167376Y17226D01*
X-166331Y19055D01*
X-165795Y21092D01*
X-165804Y23198D01*
X-166358Y25231D01*
X-167419Y27050D01*
X-168915Y28533D01*
X-170744Y29578D01*
X-172781Y30115D01*
D02*
G37*
G36*
X134978Y31366D02*
X117978D01*
Y20366D01*
X134978D01*
Y22297D01*
X140151D01*
X140967Y21351D01*
X140604Y20017D01*
X140595Y17911D01*
X141131Y15874D01*
X142177Y14045D01*
X143660Y12550D01*
X145480Y11489D01*
X147512Y10935D01*
X149619Y10926D01*
X151656Y11463D01*
X153484Y12508D01*
X154980Y13992D01*
X156041Y15812D01*
X156594Y17844D01*
X156603Y19950D01*
X156067Y21987D01*
X155021Y23816D01*
X153538Y25312D01*
X151718Y26372D01*
X149686Y26926D01*
X147579Y26935D01*
X146046Y26531D01*
X144187Y28389D01*
X143029Y29163D01*
X141664Y29434D01*
X134978D01*
Y31366D01*
D02*
G37*
G36*
X-147584Y26909D02*
X-149690Y26900D01*
X-151723Y26346D01*
X-153542Y25285D01*
X-155025Y23789D01*
X-156070Y21960D01*
X-156607Y19923D01*
X-156598Y17816D01*
X-156044Y15784D01*
X-154982Y13965D01*
X-153486Y12482D01*
X-151658Y11436D01*
X-149621Y10900D01*
X-147514Y10909D01*
X-145482Y11463D01*
X-143662Y12524D01*
X-142179Y14020D01*
X-141134Y15849D01*
X-140598Y17886D01*
X-140607Y19993D01*
X-141161Y22025D01*
X-142222Y23844D01*
X-143718Y25327D01*
X-145547Y26373D01*
X-147584Y26909D01*
D02*
G37*
G36*
X74930Y11639D02*
X72200D01*
X69187Y11243D01*
X66380Y10080D01*
X63970Y8230D01*
X62120Y5820D01*
X60957Y3013D01*
X60728Y1270D01*
X74930D01*
Y11639D01*
D02*
G37*
G36*
X-111575Y108469D02*
X-113647Y108089D01*
X-115549Y107185D01*
X-117153Y105819D01*
X-118349Y104085D01*
X-119056Y102100D01*
X-119224Y100001D01*
X-118843Y97929D01*
X-117940Y96026D01*
X-116574Y94423D01*
X-114840Y93227D01*
X-114734Y93189D01*
Y57229D01*
X-135199Y36764D01*
X-135973Y35606D01*
X-136245Y34241D01*
Y10720D01*
X-140957D01*
Y-280D01*
X-123957D01*
Y10720D01*
X-129107D01*
Y32762D01*
X-108642Y53228D01*
X-107868Y54386D01*
X-107597Y55751D01*
Y93249D01*
X-106781Y93636D01*
X-105177Y95002D01*
X-103982Y96736D01*
X-103275Y98720D01*
X-103107Y100820D01*
X-103487Y102892D01*
X-104391Y104795D01*
X-105757Y106398D01*
X-107491Y107594D01*
X-109475Y108301D01*
X-111575Y108469D01*
D02*
G37*
G36*
X74930Y-1270D02*
X60728D01*
X60957Y-3013D01*
X62120Y-5820D01*
X63970Y-8230D01*
X66380Y-10080D01*
X69187Y-11243D01*
X72200Y-11639D01*
X74930D01*
Y-1270D01*
D02*
G37*
G36*
X-149957Y4250D02*
X-152038Y3922D01*
X-153962Y3066D01*
X-155601Y1742D01*
X-156840Y38D01*
X-157596Y-1928D01*
X-157818Y-4022D01*
X-157490Y-6103D01*
X-157365Y-6384D01*
X-165279Y-14298D01*
X-177860D01*
X-179226Y-14569D01*
X-180384Y-15343D01*
X-195563Y-30522D01*
X-196337Y-31680D01*
X-196609Y-33046D01*
Y-94362D01*
X-201540D01*
Y-105362D01*
X-189417D01*
X-188857Y-106199D01*
X-188762Y-106632D01*
X-188801Y-106934D01*
X-183642D01*
Y-101438D01*
X-184540Y-100744D01*
Y-94362D01*
X-189471D01*
Y-34524D01*
X-176382Y-21435D01*
X-163801D01*
X-162435Y-21163D01*
X-161278Y-20390D01*
X-152297Y-11409D01*
X-151640Y-11661D01*
X-149546Y-11883D01*
X-147465Y-11555D01*
X-145540Y-10700D01*
X-143902Y-9375D01*
X-142663Y-7672D01*
X-141906Y-5706D01*
X-141685Y-3611D01*
X-142013Y-1530D01*
X-142868Y395D01*
X-144193Y2032D01*
X-145896Y3272D01*
X-147862Y4028D01*
X-149957Y4250D01*
D02*
G37*
G36*
X175348Y3633D02*
X173253Y3411D01*
X171287Y2655D01*
X169584Y1415D01*
X168260Y-223D01*
X167405Y-2148D01*
X167077Y-4229D01*
X167299Y-6324D01*
X168056Y-8290D01*
X169296Y-9993D01*
X170934Y-11317D01*
X172859Y-12172D01*
X174940Y-12500D01*
X177034Y-12278D01*
X179000Y-11521D01*
X180703Y-10281D01*
X182027Y-8643D01*
X182882Y-6718D01*
X183210Y-4638D01*
X182988Y-2543D01*
X182232Y-577D01*
X180992Y1126D01*
X179354Y2450D01*
X177429Y3305D01*
X175348Y3633D01*
D02*
G37*
G36*
X-175349Y3602D02*
X-177429Y3274D01*
X-179354Y2419D01*
X-180992Y1094D01*
X-182232Y-609D01*
X-182988Y-2575D01*
X-183209Y-4669D01*
X-182881Y-6750D01*
X-182026Y-8675D01*
X-180702Y-10313D01*
X-178998Y-11552D01*
X-177032Y-12309D01*
X-174937Y-12530D01*
X-172857Y-12202D01*
X-170932Y-11347D01*
X-169294Y-10022D01*
X-168055Y-8319D01*
X-167298Y-6353D01*
X-167077Y-4258D01*
X-167405Y-2178D01*
X-168260Y-253D01*
X-169585Y1385D01*
X-171288Y2625D01*
X-173254Y3381D01*
X-175349Y3602D01*
D02*
G37*
G36*
X146770Y-18384D02*
X144712Y-18834D01*
X142841Y-19802D01*
X141284Y-21220D01*
X140147Y-22994D01*
X139508Y-25001D01*
X139411Y-27105D01*
X139861Y-29163D01*
X140828Y-31034D01*
X142247Y-32591D01*
X144020Y-33728D01*
X146027Y-34367D01*
X148132Y-34465D01*
X150190Y-34014D01*
X152061Y-33047D01*
X153618Y-31628D01*
X154754Y-29855D01*
X155393Y-27848D01*
X155491Y-25744D01*
X155041Y-23686D01*
X154074Y-21815D01*
X152655Y-20258D01*
X150881Y-19121D01*
X148874Y-18482D01*
X146770Y-18384D01*
D02*
G37*
G36*
X-146767Y-18410D02*
X-148871Y-18508D01*
X-150878Y-19147D01*
X-152651Y-20284D01*
X-154070Y-21841D01*
X-155037Y-23713D01*
X-155487Y-25771D01*
X-155388Y-27875D01*
X-154749Y-29882D01*
X-153612Y-31655D01*
X-152055Y-33073D01*
X-150183Y-34041D01*
X-148126Y-34490D01*
X-146022Y-34392D01*
X-144015Y-33753D01*
X-142241Y-32616D01*
X-140823Y-31059D01*
X-139856Y-29187D01*
X-139406Y-27129D01*
X-139504Y-25025D01*
X-140143Y-23018D01*
X-141280Y-21245D01*
X-142838Y-19827D01*
X-144709Y-18859D01*
X-146767Y-18410D01*
D02*
G37*
G36*
X171772Y-22865D02*
X169714Y-23315D01*
X167843Y-24282D01*
X166286Y-25701D01*
X165149Y-27474D01*
X164510Y-29481D01*
X164412Y-31586D01*
X164863Y-33643D01*
X165830Y-35515D01*
X167249Y-37072D01*
X169022Y-38208D01*
X171029Y-38847D01*
X173134Y-38945D01*
X175191Y-38495D01*
X177062Y-37527D01*
X178619Y-36109D01*
X179756Y-34335D01*
X180395Y-32328D01*
X180493Y-30224D01*
X180043Y-28166D01*
X179075Y-26295D01*
X177656Y-24738D01*
X175883Y-23601D01*
X173876Y-22962D01*
X171772Y-22865D01*
D02*
G37*
G36*
X142294Y-40398D02*
X140191Y-40531D01*
X138195Y-41204D01*
X136441Y-42371D01*
X135049Y-43952D01*
X134114Y-45839D01*
X133698Y-47904D01*
X133832Y-50006D01*
X134505Y-52002D01*
X135671Y-53756D01*
X137252Y-55148D01*
X139139Y-56084D01*
X141204Y-56499D01*
X143307Y-56366D01*
X145303Y-55693D01*
X147057Y-54526D01*
X148449Y-52945D01*
X149384Y-51058D01*
X149799Y-48993D01*
X149666Y-46891D01*
X148993Y-44895D01*
X147827Y-43141D01*
X146246Y-41749D01*
X144359Y-40813D01*
X142294Y-40398D01*
D02*
G37*
G36*
X-171768Y-22895D02*
X-173872Y-22993D01*
X-175879Y-23632D01*
X-177652Y-24769D01*
X-179071Y-26326D01*
X-180038Y-28198D01*
X-180488Y-30256D01*
X-180389Y-32360D01*
X-179750Y-34367D01*
X-178613Y-36140D01*
X-177056Y-37558D01*
X-175834Y-38190D01*
X-172257Y-51995D01*
X-173019Y-53140D01*
X-173691Y-55136D01*
X-173824Y-57238D01*
X-173409Y-59303D01*
X-172473Y-61191D01*
X-171080Y-62771D01*
X-169326Y-63937D01*
X-167330Y-64610D01*
X-165228Y-64743D01*
X-164758Y-64648D01*
X-164132Y-65818D01*
X-173719Y-75405D01*
X-174493Y-76563D01*
X-174765Y-77929D01*
Y-94362D01*
X-179696D01*
Y-101037D01*
X-180966Y-101793D01*
X-181102Y-101775D01*
Y-106934D01*
X-175943D01*
X-175982Y-106632D01*
X-175887Y-106199D01*
X-175327Y-105362D01*
X-162696D01*
Y-94362D01*
X-167627D01*
Y-79407D01*
X-144280Y-56059D01*
X-143297Y-56391D01*
X-141194Y-56524D01*
X-139129Y-56108D01*
X-137242Y-55172D01*
X-135662Y-53780D01*
X-134496Y-52026D01*
X-133823Y-50030D01*
X-133690Y-47927D01*
X-134106Y-45862D01*
X-135042Y-43975D01*
X-136434Y-42395D01*
X-138188Y-41228D01*
X-140184Y-40556D01*
X-142287Y-40423D01*
X-144352Y-40838D01*
X-146239Y-41774D01*
X-147819Y-43167D01*
X-148986Y-44921D01*
X-149658Y-46917D01*
X-149791Y-49019D01*
X-149379Y-51065D01*
X-156585Y-58271D01*
X-157822Y-57712D01*
X-157723Y-56146D01*
X-158139Y-54081D01*
X-159075Y-52194D01*
X-160467Y-50614D01*
X-162221Y-49447D01*
X-162400Y-49387D01*
X-165951Y-35683D01*
X-165824Y-35543D01*
X-164857Y-33672D01*
X-164407Y-31614D01*
X-164505Y-29510D01*
X-165144Y-27503D01*
X-166282Y-25730D01*
X-167839Y-24311D01*
X-169710Y-23344D01*
X-171768Y-22895D01*
D02*
G37*
G36*
X166328Y-48613D02*
X164226Y-48746D01*
X162230Y-49419D01*
X160476Y-50586D01*
X159084Y-52167D01*
X158148Y-54054D01*
X157733Y-56119D01*
X157866Y-58221D01*
X158539Y-60217D01*
X159706Y-61971D01*
X161287Y-63363D01*
X163174Y-64299D01*
X165239Y-64714D01*
X167341Y-64581D01*
X169337Y-63908D01*
X171091Y-62741D01*
X172484Y-61160D01*
X173419Y-59273D01*
X173834Y-57208D01*
X173701Y-55106D01*
X173028Y-53110D01*
X171861Y-51356D01*
X170281Y-49964D01*
X168393Y-49028D01*
X166328Y-48613D01*
D02*
G37*
G36*
X137019Y-79090D02*
Y-84249D01*
X142178D01*
X142121Y-83812D01*
X141462Y-82221D01*
X140414Y-80855D01*
X139047Y-79806D01*
X137457Y-79148D01*
X137019Y-79090D01*
D02*
G37*
G36*
X142178Y-86789D02*
X137019D01*
Y-91948D01*
X137457Y-91891D01*
X139047Y-91232D01*
X140414Y-90184D01*
X141462Y-88818D01*
X142121Y-87226D01*
X142178Y-86789D01*
D02*
G37*
G36*
X154950Y-73053D02*
X152875Y-73416D01*
X150965Y-74304D01*
X149350Y-75656D01*
X148139Y-77379D01*
X147416Y-79358D01*
X147229Y-81456D01*
X147592Y-83531D01*
X147672Y-83702D01*
X140183Y-95716D01*
X139995Y-95720D01*
X137972Y-96308D01*
X136171Y-97400D01*
X134713Y-98920D01*
X133698Y-100766D01*
X133196Y-102812D01*
X133241Y-104918D01*
X133829Y-106941D01*
X134920Y-108742D01*
X136441Y-110200D01*
X138287Y-111214D01*
X140333Y-111716D01*
X142439Y-111672D01*
X144461Y-111084D01*
X146263Y-109992D01*
X147721Y-108472D01*
X148735Y-106626D01*
X149237Y-104580D01*
X149193Y-102474D01*
X148809Y-101153D01*
X156352Y-89051D01*
X157707Y-88814D01*
X159617Y-87927D01*
X161233Y-86575D01*
X162443Y-84851D01*
X163166Y-82873D01*
X163353Y-80774D01*
X162990Y-78700D01*
X162103Y-76789D01*
X160751Y-75174D01*
X159027Y-73963D01*
X157049Y-73240D01*
X154950Y-73053D01*
D02*
G37*
G36*
X-114045Y-171704D02*
X-119380D01*
Y-178039D01*
X-117450D01*
X-116147Y-177780D01*
X-115042Y-177042D01*
X-114304Y-175937D01*
X-114045Y-174634D01*
Y-171704D01*
D02*
G37*
G36*
X-121920D02*
X-127255D01*
Y-174634D01*
X-126996Y-175937D01*
X-126258Y-177042D01*
X-125153Y-177780D01*
X-123850Y-178039D01*
X-121920D01*
Y-171704D01*
D02*
G37*
G36*
X1270Y9455D02*
Y1270D01*
X9455D01*
X9294Y2490D01*
X8333Y4811D01*
X6804Y6804D01*
X4811Y8333D01*
X2490Y9294D01*
X1270Y9455D01*
D02*
G37*
G36*
X9455Y-1270D02*
X1270D01*
Y-9455D01*
X2490Y-9294D01*
X4811Y-8333D01*
X6804Y-6804D01*
X8333Y-4811D01*
X9294Y-2490D01*
X9455Y-1270D01*
D02*
G37*
G36*
X-1270D02*
X-9455D01*
X-9294Y-2490D01*
X-8333Y-4811D01*
X-6804Y-6804D01*
X-4811Y-8333D01*
X-2490Y-9294D01*
X-1270Y-9455D01*
Y-1270D01*
D02*
G37*
G36*
X-1270Y-38645D02*
X-3634Y-38878D01*
X-7129Y-39938D01*
X-10350Y-41660D01*
X-13173Y-43977D01*
X-15490Y-46800D01*
X-17212Y-50021D01*
X-18272Y-53516D01*
X-18505Y-55880D01*
X-1270D01*
Y-38645D01*
D02*
G37*
G36*
X-66850Y36495D02*
X-72850D01*
X-75722Y36117D01*
X-78397Y35008D01*
X-80695Y33245D01*
X-82458Y30947D01*
X-83567Y28272D01*
X-83945Y25400D01*
X-83567Y22528D01*
X-82458Y19853D01*
X-80695Y17555D01*
X-78397Y15791D01*
X-75722Y14683D01*
X-72850Y14305D01*
X-66850D01*
X-63978Y14683D01*
X-61302Y15791D01*
X-59005Y17555D01*
X-57242Y19853D01*
X-56133Y22528D01*
X-55755Y25400D01*
X-56133Y28272D01*
X-57242Y30947D01*
X-59005Y33245D01*
X-61302Y35008D01*
X-63978Y36117D01*
X-66850Y36495D01*
D02*
G37*
G36*
Y-12752D02*
X-68580D01*
Y-24130D01*
X-54369D01*
X-54633Y-22126D01*
X-55896Y-19076D01*
X-57906Y-16456D01*
X-60526Y-14446D01*
X-63576Y-13183D01*
X-66850Y-12752D01*
D02*
G37*
G36*
X-71120D02*
X-72850D01*
X-76124Y-13183D01*
X-79174Y-14446D01*
X-81794Y-16456D01*
X-83804Y-19076D01*
X-85067Y-22126D01*
X-85331Y-24130D01*
X-71120D01*
Y-12752D01*
D02*
G37*
G36*
X-54369Y-26670D02*
X-68580D01*
Y-38048D01*
X-66850D01*
X-63576Y-37617D01*
X-60526Y-36354D01*
X-57906Y-34344D01*
X-55896Y-31724D01*
X-54633Y-28674D01*
X-54369Y-26670D01*
D02*
G37*
G36*
X-71120D02*
X-85331D01*
X-85067Y-28674D01*
X-83804Y-31724D01*
X-81794Y-34344D01*
X-79174Y-36354D01*
X-76124Y-37617D01*
X-72850Y-38048D01*
X-71120D01*
Y-26670D01*
D02*
G37*
G36*
X-77526Y-38966D02*
X-82296D01*
Y-46736D01*
X-77526D01*
Y-38966D01*
D02*
G37*
G36*
Y-49276D02*
X-82296D01*
Y-57046D01*
X-77526D01*
Y-49276D01*
D02*
G37*
G36*
X53382Y-160020D02*
X43180D01*
Y-170222D01*
X44922Y-169993D01*
X47730Y-168830D01*
X50140Y-166980D01*
X51990Y-164570D01*
X53153Y-161763D01*
X53382Y-160020D01*
D02*
G37*
G36*
X105925Y-97856D02*
X103836Y-98131D01*
X101890Y-98937D01*
X100219Y-100219D01*
X98937Y-101890D01*
X98131Y-103836D01*
X97856Y-105925D01*
X98131Y-108013D01*
X98937Y-109959D01*
X100219Y-111630D01*
X101890Y-112913D01*
X103836Y-113719D01*
X105925Y-113994D01*
X108013Y-113719D01*
X109959Y-112913D01*
X111630Y-111630D01*
X112913Y-109959D01*
X113719Y-108013D01*
X113994Y-105925D01*
X113719Y-103836D01*
X112913Y-101890D01*
X111630Y-100219D01*
X109959Y-98937D01*
X108013Y-98131D01*
X105925Y-97856D01*
D02*
G37*
%LPD*%
D11*
X27940Y-101600D02*
Y-101092D01*
X25734Y-103806D02*
X27940Y-101600D01*
X12192Y-103806D02*
X25734D01*
X25654Y-85344D02*
X27432D01*
X12192Y-98806D02*
X25654Y-85344D01*
D33*
X-54356Y103110D02*
X-54864Y101884D01*
X-1016Y-138652D02*
Y-133096D01*
Y-131064D01*
X-1270Y-133350D02*
X-1016Y-133096D01*
Y-138652D02*
X4138Y-143806D01*
X2794Y-169672D02*
X3810Y-170688D01*
X-3674Y-169672D02*
X2794D01*
X-151500Y-180224D02*
X-148336Y-183388D01*
X-151500Y-180224D02*
Y-146420D01*
X-148336Y-183388D02*
X-112522D01*
X-151500Y-146420D02*
X-148082Y-143002D01*
Y-129855D01*
X-38674Y-143068D02*
X-36068Y-140462D01*
X-38674Y-169672D02*
Y-143068D01*
X-17816Y105396D02*
X-11430D01*
X-24816Y98396D02*
X-17816Y105396D01*
X-48822Y90864D02*
X-32258Y107428D01*
X-43822Y83686D02*
X-29112Y98396D01*
X-43822Y-1075D02*
Y83686D01*
X-48822Y-3146D02*
Y90864D01*
Y-3146D02*
X-48674Y-3294D01*
Y-83312D02*
Y-3294D01*
X-43822Y-1075D02*
X-43674Y-1223D01*
Y-83312D02*
Y-1223D01*
X-29112Y98396D02*
X-24816D01*
X-14691Y92964D02*
X5334D01*
X-30654Y77001D02*
X-14691Y92964D01*
X-30654Y40347D02*
Y77001D01*
Y40347D02*
X-27051Y36744D01*
Y-34499D02*
Y36744D01*
X-25654Y74930D02*
X-13208Y87376D01*
X-25654Y42418D02*
Y74930D01*
Y42418D02*
X-22051Y38815D01*
X41910Y59182D02*
Y92116D01*
X45390Y95596D01*
X51146D02*
X53340Y97790D01*
X45390Y95596D02*
X51146D01*
X53340Y97790D02*
Y105096D01*
X-22051Y-36570D02*
Y38815D01*
X93692Y-93692D02*
Y-93678D01*
X104568Y-82802D01*
X144359Y-9184D02*
X149752Y-3791D01*
X126480Y-9184D02*
X144359D01*
X104774Y-1398D02*
X121761D01*
X99568Y-6604D02*
X104774Y-1398D01*
X99568Y-46482D02*
Y-6604D01*
X126478Y3319D02*
Y8366D01*
X121761Y-1398D02*
X126478Y3319D01*
X80518Y-65532D02*
X99568Y-46482D01*
X93980Y-2554D02*
X104902Y8368D01*
X93980Y-43434D02*
Y-2554D01*
X75184Y-62230D02*
X93980Y-43434D01*
X762Y-97790D02*
X51054Y-47498D01*
Y25908D01*
X66040Y40894D01*
X100584D01*
X110405Y50715D01*
X94742Y47244D02*
X120438Y72940D01*
X63500Y47244D02*
X94742D01*
X44704Y28448D02*
X63500Y47244D01*
X44704Y-46777D02*
Y28448D01*
X60198Y52578D02*
X89916D01*
X34544Y26924D02*
X60198Y52578D01*
X34544Y-23368D02*
Y26924D01*
X89916Y52578D02*
X97282Y59944D01*
X75184Y66099D02*
Y71146D01*
X69029Y59944D02*
X75184Y66099D01*
X58928Y59944D02*
X69029D01*
X21336Y22352D02*
X58928Y59944D01*
X21336Y-21963D02*
Y22352D01*
X53340Y62484D02*
Y71096D01*
X14478Y23622D02*
X53340Y62484D01*
X14478Y-10414D02*
Y23622D01*
X8169Y-83312D02*
X44704Y-46777D01*
X60706Y-62230D02*
X75184D01*
X54610Y-68326D02*
X60706Y-62230D01*
X54610Y-102870D02*
Y-68326D01*
X141664Y25866D02*
X148599Y18930D01*
X126478Y25866D02*
X141664D01*
X104902Y25868D02*
Y32766D01*
X113351Y41215D01*
X144018D01*
X120438Y72940D02*
X129010D01*
X135434Y79365D01*
X110405Y50715D02*
X152423D01*
X135434Y79365D02*
X147710D01*
X-8674Y-94450D02*
X-7112Y-96012D01*
X762Y-106934D02*
Y-97790D01*
X-18796Y-96012D02*
X-13674Y-90890D01*
X97282Y59944D02*
Y71096D01*
X-8674Y-94450D02*
Y-83312D01*
X8954Y-34345D02*
X21336Y-21963D01*
X-13674Y-90890D02*
Y-83312D01*
X-23674Y-83312D02*
X-23674Y-83312D01*
X55558Y123038D02*
X56000Y122596D01*
X-3674Y-83312D02*
X8169D01*
X2634Y-108806D02*
X12192D01*
X762Y-106934D02*
X2634Y-108806D01*
X95250Y-158750D02*
X99314Y-162814D01*
X-81178Y-108806D02*
X-74168D01*
X69850Y-158750D02*
X74000Y-162900D01*
X-81896Y-113806D02*
X-74168D01*
X-85316Y-128806D02*
X-74168D01*
X-84698Y-118806D02*
X-74168D01*
X-87790Y-126332D02*
Y-123360D01*
X-90170Y-135890D02*
X-86360Y-139700D01*
X-60452Y-98806D02*
X-58674Y-97028D01*
Y-83312D01*
X-74168Y-98806D02*
X-60452D01*
X-3674Y-169672D02*
Y-155584D01*
X-106512Y-107170D02*
X-105602Y-106260D01*
X-55656Y139292D02*
X-54356Y137992D01*
X-75946Y92924D02*
Y129095D01*
X-75946Y59944D02*
Y72376D01*
X-96520Y39370D02*
X-75946Y59944D01*
X-94678Y59246D02*
Y116087D01*
X-109728Y44196D02*
X-94678Y59246D01*
X-109728Y5040D02*
Y44196D01*
X-74168Y-113806D02*
X-74168Y-113806D01*
X-76108Y129258D02*
X-75946Y129095D01*
X-132676Y5217D02*
Y34241D01*
X-111165Y55751D01*
Y100410D01*
X-58274Y-123806D02*
X-57912Y-123444D01*
X-74168Y-123806D02*
X-58274D01*
X-23674Y-182066D02*
Y-169672D01*
X-171196Y-77929D02*
X-141741Y-48473D01*
X-171196Y-99862D02*
Y-77929D01*
X-57780Y-138806D02*
X-57658Y-138684D01*
X-87790Y-126332D02*
X-85316Y-128806D01*
X-43674Y-179564D02*
Y-169672D01*
X-193040Y-125476D02*
X-188468Y-130048D01*
X-193040Y-125476D02*
Y-117362D01*
X-163801Y-17866D02*
X-149751Y-3817D01*
X-193040Y-99862D02*
Y-33046D01*
X-177860Y-17866D01*
X-163801D01*
X-28674Y-176502D02*
Y-169672D01*
X-34290Y-182118D02*
X-28674Y-176502D01*
X-35814Y-182118D02*
X-34290D01*
X-33921Y146114D02*
X-32258Y144451D01*
Y124928D02*
Y144451D01*
X55558Y123038D02*
Y139116D01*
X-54356Y120610D02*
Y122596D01*
Y137992D01*
X5334Y92964D02*
X10160Y97790D01*
Y105142D01*
X31496Y122402D02*
Y143571D01*
X33851Y145925D01*
X10160Y122642D02*
Y148166D01*
X11362Y149368D01*
X53340Y105096D02*
X56000D01*
X-11403Y122923D02*
Y149566D01*
X-11430Y122896D02*
X-11403Y122923D01*
X53340Y88596D02*
X75984Y111240D01*
Y129099D01*
X75184Y88646D02*
Y96629D01*
X94658Y116103D01*
X97282Y88596D02*
X109250Y100564D01*
X111296D01*
X175533Y107188D02*
X183496D01*
X147710Y79365D02*
X175533Y107188D01*
X152423Y50715D02*
X183496Y81788D01*
X-18674Y-83312D02*
Y-73792D01*
X12192Y-118806D02*
X55184D01*
X80518Y-93472D01*
Y-65532D01*
X89916Y-120400D02*
Y-119634D01*
X76510Y-133806D02*
X82140Y-128176D01*
Y-127940D01*
X84190Y-125890D01*
X84426D01*
X89916Y-120400D01*
X70838Y-128806D02*
X78994Y-120650D01*
Y-120142D01*
X12192Y-113806D02*
X43674D01*
X54610Y-102870D01*
X63577Y-123806D02*
X93692Y-93692D01*
X12192Y-123806D02*
X63577D01*
X12192Y-128806D02*
X70838D01*
X12192Y-133806D02*
X76510D01*
X12192Y-138806D02*
X53208D01*
X55118Y-140716D01*
X4138Y-143806D02*
X12192D01*
X-10270Y-180086D02*
X58420D01*
X67310Y-171196D01*
Y-158750D01*
X-12993Y-185086D02*
X78566D01*
X92710Y-170942D01*
Y-158750D01*
X120744Y-102223D02*
X140716Y-122195D01*
Y-133136D02*
Y-122195D01*
X120744Y-102223D02*
Y-88663D01*
X-6858Y-31750D02*
X14478Y-10414D01*
X-18674Y-73792D02*
X-16510Y-71628D01*
X-23674Y-45264D02*
X-17051Y-38641D01*
X-23674Y-83312D02*
Y-45264D01*
X-28674Y-83312D02*
Y-43193D01*
X-22051Y-36570D01*
X-33674Y-83312D02*
Y-41122D01*
X-27051Y-34499D01*
X-38674Y-83312D02*
Y-23697D01*
X-35107Y-20130D01*
X-17051Y-38641D02*
Y221D01*
X41910Y59182D01*
X-58674Y-83312D02*
Y-69596D01*
X-70358Y-63754D02*
X-64516D01*
X-58674Y-69596D01*
X-83430Y-153806D02*
X-74168D01*
X-83806Y-153430D02*
Y-153293D01*
Y-153430D02*
X-83430Y-153806D01*
X-86360Y-143668D02*
Y-139700D01*
Y-143668D02*
X-81222Y-148806D01*
X-74168D01*
X-92305Y-144794D02*
X-83806Y-153293D01*
X-98806Y-144794D02*
X-92305D01*
X-88806Y-155501D02*
Y-155364D01*
X-90856Y-153314D02*
X-88806Y-155364D01*
X-74168Y-143806D02*
X-67158D01*
X-64668Y-146296D01*
X-112522Y-183388D02*
X-108806Y-179672D01*
X-108163Y-153314D02*
X-90856D01*
X-112268Y-140462D02*
X-107696Y-135890D01*
X-90170D01*
X-112246Y-146790D02*
X-111760Y-147276D01*
X-111782Y-147298D02*
X-111760Y-147276D01*
X-112268Y-146812D02*
X-111782Y-147298D01*
X-112268Y-146812D02*
Y-140462D01*
X-139446Y-170434D02*
X-129978Y-160966D01*
X-64203Y-176918D02*
X-59810Y-172525D01*
X-84752Y-176918D02*
X-64203D01*
X-108806Y-179672D02*
Y-172864D01*
X-97790Y-177814D02*
X-92724Y-182880D01*
X-56388D01*
X-108806Y-172864D02*
X-106756Y-170814D01*
X-90856D01*
X-84752Y-176918D01*
X-135912Y-155966D02*
X-110815D01*
X-108163Y-153314D01*
X-129978Y-160966D02*
X-99458D01*
X-98806Y-160314D01*
X-46228Y-182118D02*
X-43674Y-179564D01*
X-74168Y-133806D02*
X-63387D01*
X-60765Y-131184D01*
X-74168Y-138806D02*
X-57780D01*
X-88806Y-155501D02*
X-85501Y-158806D01*
X-67158D01*
X-64668Y-156316D01*
Y-146296D01*
X-13674Y-176682D02*
X-10270Y-180086D01*
X-13674Y-176682D02*
Y-169672D01*
X-18633Y-179446D02*
X-12993Y-185086D01*
X-18674Y-179446D02*
X-18633D01*
X-18674D02*
Y-169672D01*
X-56388Y-182880D02*
X-53728Y-180220D01*
Y-179011D01*
X-53674Y-178957D01*
Y-169672D01*
X-33674D02*
Y-155917D01*
X-28208Y-150451D01*
X-90678Y-76962D02*
Y36863D01*
Y-76962D02*
X-85758Y-81882D01*
Y-104226D02*
Y-81882D01*
X-96520Y-78994D02*
Y39370D01*
Y-78994D02*
X-90758Y-84756D01*
Y-104944D02*
Y-84756D01*
X-109728Y-76631D02*
Y-12460D01*
Y-76631D02*
X-95758Y-90602D01*
Y-107746D02*
Y-90602D01*
X-106512Y-120914D02*
X-102119Y-125308D01*
X-99790D01*
X-93548Y-117602D02*
X-87790Y-123360D01*
X-99060Y-117602D02*
X-93548D01*
X-106512Y-114447D02*
Y-107170D01*
X-106560Y-114495D02*
X-106512Y-114447D01*
X-106560Y-120709D02*
Y-114495D01*
Y-120709D02*
X-106512Y-120757D01*
Y-120914D02*
Y-120757D01*
X-99790Y-125308D02*
X-97790Y-127308D01*
X-51816Y-156464D02*
X-51054D01*
X-48674Y-169672D02*
Y-159606D01*
X-60765Y-131184D02*
X-55632D01*
X-55392Y-130944D01*
X-54805D01*
X-50412Y-126551D01*
Y-125964D01*
X-47912Y-123464D01*
X-57658Y-138684D02*
X-52525D01*
X-36549Y-122709D01*
X-60452Y-98806D02*
X-36549Y-122709D01*
X-3674Y-155584D01*
X-132457Y-12280D02*
X-119634Y-25103D01*
Y-76454D02*
Y-25103D01*
X-136548Y-139456D02*
Y-125957D01*
X-135912Y-155966D02*
Y-155820D01*
X-138548Y-153184D02*
X-135912Y-155820D01*
X-138548Y-153184D02*
Y-141456D01*
X-136548Y-139456D01*
X-170060Y-124326D02*
X-153611D01*
X-141224Y-121281D02*
X-136548Y-125957D01*
X-188468Y-130048D02*
X-156972D01*
X-141224Y-121281D02*
Y-119126D01*
X-156718Y-131826D02*
X-156159D01*
X-153611Y-124326D02*
X-148082Y-129855D01*
X-171196Y-123190D02*
X-170060Y-124326D01*
X-171196Y-123190D02*
Y-117362D01*
X29485Y-28426D02*
X34544Y-23368D01*
X29485Y-34544D02*
Y-28426D01*
X104568Y-82802D02*
Y-60490D01*
X126480Y-38578D01*
Y-26684D01*
X-51816Y-156464D02*
X-48674Y-159606D01*
X16256Y-162814D02*
Y-157870D01*
X12192Y-153806D02*
X16256Y-157870D01*
X12192Y-148806D02*
X32042D01*
X36830Y-144018D01*
X46990D01*
X51308Y-148336D01*
X60046D01*
X69190Y-139192D01*
X129272D01*
X140716Y-150636D01*
X-90678Y36863D02*
X-54864Y72677D01*
Y101884D01*
X-13208Y87376D02*
X24638D01*
X31496Y94234D01*
Y104902D01*
D34*
X126478Y8366D02*
D03*
X126478Y25866D02*
D03*
X104902Y8368D02*
D03*
X104902Y25868D02*
D03*
X126480Y-26684D02*
D03*
X126480Y-9184D02*
D03*
X140716Y-150636D02*
D03*
Y-133136D02*
D03*
X10160Y105142D02*
D03*
X10160Y122642D02*
D03*
X31496Y104902D02*
D03*
Y122402D02*
D03*
X53340Y105096D02*
D03*
Y122596D02*
D03*
X53340Y71096D02*
D03*
X53340Y88596D02*
D03*
X75184Y71146D02*
D03*
X75184Y88646D02*
D03*
X97282Y71096D02*
D03*
X97282Y88596D02*
D03*
X-98806Y-177814D02*
D03*
Y-160314D02*
D03*
X-171196Y-99862D02*
D03*
Y-117362D02*
D03*
X-193040Y-99862D02*
D03*
X-193040Y-117362D02*
D03*
X-98806Y-127294D02*
D03*
Y-144794D02*
D03*
X-11430Y122896D02*
D03*
Y105396D02*
D03*
X-32766Y122896D02*
D03*
Y105396D02*
D03*
X-54356Y122596D02*
D03*
X-54356Y105096D02*
D03*
X-75692Y92924D02*
D03*
X-75692Y75424D02*
D03*
X-109728Y5040D02*
D03*
X-109728Y-12460D02*
D03*
X-132457Y5220D02*
D03*
X-132457Y-12280D02*
D03*
D35*
X-130048Y-147320D02*
D03*
D36*
X-139446Y-170434D02*
D03*
X-120650D02*
D03*
D37*
X-66066Y-48006D02*
D03*
X-83566D02*
D03*
D38*
X-13674Y-83312D02*
D03*
X-8674D02*
D03*
X-3674D02*
D03*
X-28674D02*
D03*
X-23674D02*
D03*
X-18674D02*
D03*
X-43674D02*
D03*
X-38674D02*
D03*
X-33674D02*
D03*
X-48674D02*
D03*
X-53674D02*
D03*
X-58674D02*
D03*
Y-169672D02*
D03*
X-53674Y-169672D02*
D03*
X-48674D02*
D03*
X-33674D02*
D03*
X-38674D02*
D03*
X-43674Y-169672D02*
D03*
X-18674Y-169672D02*
D03*
X-23674Y-169672D02*
D03*
X-28674Y-169672D02*
D03*
X-3674Y-169672D02*
D03*
X-8674Y-169672D02*
D03*
X-13674Y-169672D02*
D03*
D39*
X12192Y-98806D02*
D03*
X12192Y-103806D02*
D03*
X12192Y-108806D02*
D03*
Y-123806D02*
D03*
Y-118806D02*
D03*
Y-113806D02*
D03*
X12192Y-138806D02*
D03*
X12192Y-133806D02*
D03*
Y-128806D02*
D03*
Y-153806D02*
D03*
Y-148806D02*
D03*
Y-143806D02*
D03*
X-74168Y-143806D02*
D03*
Y-148806D02*
D03*
Y-153806D02*
D03*
Y-128806D02*
D03*
Y-133806D02*
D03*
Y-138806D02*
D03*
Y-113806D02*
D03*
Y-118806D02*
D03*
Y-123806D02*
D03*
Y-108806D02*
D03*
Y-103806D02*
D03*
Y-98806D02*
D03*
D40*
X-146299Y96393D02*
X-130015Y117436D01*
X-155277Y-81142D02*
X-141199Y-103721D01*
X-124208Y-123550D02*
Y-120711D01*
X-172447Y-30935D02*
X-165774Y-56693D01*
X-130048Y-147320D02*
Y-129390D01*
X-124208Y-123550D01*
X-141199Y-103721D02*
X-124208Y-120711D01*
X141217Y-103696D02*
X155291Y-81115D01*
D41*
X55558Y139116D02*
X56500Y138174D01*
D42*
X-90758Y-105986D02*
Y-104944D01*
X-85758Y-104226D02*
X-81178Y-108806D01*
X-95758Y-107746D02*
X-84698Y-118806D01*
X-83158Y-113586D02*
X-82116D01*
X-90758Y-105986D02*
X-83158Y-113586D01*
X-82116D02*
X-81896Y-113806D01*
D43*
X144018Y41215D02*
D03*
X168438Y48204D02*
D03*
X148599Y18930D02*
D03*
X173795Y22140D02*
D03*
X149752Y-3791D02*
D03*
X175144Y-4433D02*
D03*
X147451Y-26424D02*
D03*
X172453Y-30905D02*
D03*
X141749Y-48449D02*
D03*
X165784Y-56663D02*
D03*
X155291Y-81115D02*
D03*
X141217Y-103696D02*
D03*
X105925Y-105925D02*
D03*
X123885Y-123885D02*
D03*
X11362Y149368D02*
D03*
X13289Y174695D02*
D03*
X33851Y145925D02*
D03*
X39590Y170668D02*
D03*
X55558Y139116D02*
D03*
X64978Y162705D02*
D03*
X75984Y129099D02*
D03*
X88868Y150988D02*
D03*
X94658Y116103D02*
D03*
X110708Y135789D02*
D03*
X111296Y100564D02*
D03*
X130143Y117593D02*
D03*
X125075Y82440D02*
D03*
X146282Y96419D02*
D03*
X136116Y62549D02*
D03*
X159196Y73155D02*
D03*
X-175143Y-4464D02*
D03*
X-149751Y-3817D02*
D03*
X-165774Y-56693D02*
D03*
X-141741Y-48473D02*
D03*
X-155277Y-81142D02*
D03*
X-132765Y-69378D02*
D03*
X-141199Y-103721D02*
D03*
X-120728Y-88684D02*
D03*
X-124208Y-123550D02*
D03*
X-105602Y-106260D02*
D03*
X-172447Y-30935D02*
D03*
X-147446Y-26450D02*
D03*
X-168447Y48174D02*
D03*
X-144026Y41190D02*
D03*
X-173799Y22110D02*
D03*
X-148602Y18905D02*
D03*
X-13334Y174892D02*
D03*
X-11403Y149566D02*
D03*
X-39665Y170856D02*
D03*
X-33921Y146114D02*
D03*
X-65081Y162879D02*
D03*
X-55656Y139292D02*
D03*
X-88996Y151145D02*
D03*
X-76108Y129258D02*
D03*
X-110731Y135770D02*
D03*
X-94678Y116087D02*
D03*
X-130015Y117436D02*
D03*
X-111165Y100410D02*
D03*
X-146299Y96393D02*
D03*
X-125089Y82418D02*
D03*
X-159209Y73127D02*
D03*
X-136127Y62525D02*
D03*
D44*
X132778Y-69355D02*
D03*
X120744Y-88663D02*
D03*
D45*
X0Y0D02*
D03*
D46*
X0Y57150D02*
D03*
D47*
X0Y-57150D02*
D03*
D48*
X76200Y-25400D02*
D03*
X76200Y0D02*
D03*
D49*
X76200Y25400D02*
D03*
X-69850Y-25400D02*
D03*
D50*
X-69850Y25400D02*
D03*
D51*
X-180000Y180000D02*
D03*
X180000D02*
D03*
Y-160000D02*
D03*
X-180000D02*
D03*
D52*
X41910Y-158750D02*
D03*
X67310D02*
D03*
X92710Y-158750D02*
D03*
X183496Y107188D02*
D03*
X183496Y81788D02*
D03*
D53*
X118110Y-158750D02*
D03*
D54*
X41910Y-73660D02*
D03*
X67310Y-73660D02*
D03*
X92710Y-73660D02*
D03*
D55*
X118110Y-73660D02*
D03*
X183496Y56388D02*
D03*
D56*
X183496Y132588D02*
D03*
D57*
X-1016Y-131064D02*
D03*
X3810Y-170688D02*
D03*
X-36068Y-140462D02*
D03*
X135749Y-85519D02*
D03*
X-36322Y2032D02*
D03*
X-184150Y92456D02*
D03*
X27940Y-101092D02*
D03*
X-7112Y-96012D02*
D03*
X-18796D02*
D03*
X27432Y-85344D02*
D03*
X8954Y-34345D02*
D03*
X-119634Y-76454D02*
D03*
X-57912Y-123444D02*
D03*
X-57658Y-138684D02*
D03*
X-35814Y-182118D02*
D03*
X89916Y-120400D02*
D03*
X78994Y-120142D02*
D03*
X55118Y-140716D02*
D03*
X-6858Y-31750D02*
D03*
X-16510Y-71628D02*
D03*
X-35107Y-20130D02*
D03*
X-66040Y-48260D02*
D03*
X-112268Y-146812D02*
D03*
X-120650Y-170580D02*
D03*
X-46228Y-182118D02*
D03*
X-24638Y-182372D02*
D03*
X-28208Y-150451D02*
D03*
X-99060Y-117602D02*
D03*
X-71374Y-169418D02*
D03*
X-51054Y-156464D02*
D03*
X-47912Y-123464D02*
D03*
X-132334Y185166D02*
D03*
X-86360Y185170D02*
D03*
X-182372Y-108204D02*
D03*
X-141224Y-119126D02*
D03*
X-156718Y-131826D02*
D03*
X29485Y-34544D02*
D03*
X123444Y168656D02*
D03*
X153162Y124127D02*
D03*
X16256Y-162814D02*
D03*
D58*
X-70358Y-63754D02*
D03*
X27432Y-170688D02*
D03*
X118110Y-176530D02*
D03*
M02*
