G04*
G04 #@! TF.GenerationSoftware,Altium Limited,Altium Designer,21.8.1 (53)*
G04*
G04 Layer_Physical_Order=2*
G04 Layer_Color=16711680*
%FSLAX44Y44*%
%MOMM*%
G71*
G04*
G04 #@! TF.SameCoordinates,1EBAD2C5-6FE2-4B2B-94EE-1844CA0BE318*
G04*
G04*
G04 #@! TF.FilePolarity,Positive*
G04*
G01*
G75*
%ADD11C,0.2540*%
%ADD33C,0.3000*%
%ADD34R,1.3000X0.7000*%
%ADD40C,0.6000*%
%ADD43C,1.2000*%
%ADD44C,1.1500*%
%ADD45C,1.4000*%
%ADD46C,3.8000*%
%ADD47C,3.2000*%
%ADD48O,2.6000X1.8000*%
%ADD49O,2.6000X2.0000*%
%ADD50O,2.4000X1.8000*%
G04:AMPARAMS|DCode=51|XSize=5mm|YSize=5mm|CornerRadius=1.25mm|HoleSize=0mm|Usage=FLASHONLY|Rotation=0.000|XOffset=0mm|YOffset=0mm|HoleType=Round|Shape=RoundedRectangle|*
%AMROUNDEDRECTD51*
21,1,5.0000,2.5000,0,0,0.0*
21,1,2.5000,5.0000,0,0,0.0*
1,1,2.5000,1.2500,-1.2500*
1,1,2.5000,-1.2500,-1.2500*
1,1,2.5000,-1.2500,1.2500*
1,1,2.5000,1.2500,1.2500*
%
%ADD51ROUNDEDRECTD51*%
%ADD52C,1.8000*%
%ADD53R,1.8000X1.8000*%
%ADD54C,1.6000*%
%ADD55C,1.5000*%
%ADD56R,1.8000X1.8000*%
%ADD57C,0.8000*%
%ADD58C,1.0000*%
G04:AMPARAMS|DCode=59|XSize=2mm|YSize=2.4mm|CornerRadius=0.5mm|HoleSize=0mm|Usage=FLASHONLY|Rotation=270.000|XOffset=0mm|YOffset=0mm|HoleType=Round|Shape=RoundedRectangle|*
%AMROUNDEDRECTD59*
21,1,2.0000,1.4000,0,0,270.0*
21,1,1.0000,2.4000,0,0,270.0*
1,1,1.0000,-0.7000,-0.5000*
1,1,1.0000,-0.7000,0.5000*
1,1,1.0000,0.7000,0.5000*
1,1,1.0000,0.7000,-0.5000*
%
%ADD59ROUNDEDRECTD59*%
G04:AMPARAMS|DCode=60|XSize=6mm|YSize=3mm|CornerRadius=0.75mm|HoleSize=0mm|Usage=FLASHONLY|Rotation=180.000|XOffset=0mm|YOffset=0mm|HoleType=Round|Shape=RoundedRectangle|*
%AMROUNDEDRECTD60*
21,1,6.0000,1.5000,0,0,180.0*
21,1,4.5000,3.0000,0,0,180.0*
1,1,1.5000,-2.2500,0.7500*
1,1,1.5000,2.2500,0.7500*
1,1,1.5000,2.2500,-0.7500*
1,1,1.5000,-2.2500,-0.7500*
%
%ADD60ROUNDEDRECTD60*%
G04:AMPARAMS|DCode=61|XSize=1.5mm|YSize=2mm|CornerRadius=0.375mm|HoleSize=0mm|Usage=FLASHONLY|Rotation=180.000|XOffset=0mm|YOffset=0mm|HoleType=Round|Shape=RoundedRectangle|*
%AMROUNDEDRECTD61*
21,1,1.5000,1.2500,0,0,180.0*
21,1,0.7500,2.0000,0,0,180.0*
1,1,0.7500,-0.3750,0.6250*
1,1,0.7500,0.3750,0.6250*
1,1,0.7500,0.3750,-0.6250*
1,1,0.7500,-0.3750,-0.6250*
%
%ADD61ROUNDEDRECTD61*%
%ADD62R,1.0000X1.6000*%
%ADD63R,1.6000X1.0000*%
%ADD64C,0.7500*%
G36*
X7033Y169643D02*
X7167Y169439D01*
X8736Y168033D01*
X10615Y167082D01*
X12677Y166649D01*
X14780Y166765D01*
X16782Y167421D01*
X18545Y168573D01*
X18671Y168714D01*
X32665Y166571D01*
X32743Y166399D01*
X34081Y164773D01*
X35794Y163548D01*
X37767Y162808D01*
X39863Y162604D01*
X41941Y162949D01*
X43859Y163821D01*
X44005Y163941D01*
X57512Y159704D01*
X57564Y159522D01*
X58640Y157711D01*
X60148Y156241D01*
X61986Y155211D01*
X64027Y154692D01*
X66133Y154719D01*
X68161Y155290D01*
X68323Y155386D01*
X81034Y149153D01*
X81057Y148965D01*
X81847Y147013D01*
X83115Y145331D01*
X84775Y144035D01*
X86714Y143212D01*
X88800Y142920D01*
X90891Y143177D01*
X91066Y143248D01*
X102686Y135161D01*
X102680Y134973D01*
X103165Y132923D01*
X104164Y131068D01*
X105609Y129536D01*
X107401Y128429D01*
X109419Y127824D01*
X111525Y127762D01*
X112527Y127999D01*
X122152Y118373D01*
X122084Y118001D01*
X122253Y115901D01*
X122959Y113917D01*
X124156Y112183D01*
X125760Y110818D01*
X127662Y109914D01*
X129734Y109534D01*
X129867Y109545D01*
X138458Y98273D01*
X138378Y98042D01*
X138227Y95941D01*
X138625Y93873D01*
X139545Y91978D01*
X140924Y90386D01*
X142668Y89204D01*
X144658Y88515D01*
X144846Y88501D01*
X151717Y76124D01*
X151629Y75957D01*
X151162Y73903D01*
X151242Y71798D01*
X151864Y69785D01*
X152986Y68003D01*
X154531Y66571D01*
X156394Y65588D01*
X156578Y65546D01*
X161495Y52271D01*
X161383Y52119D01*
X160610Y50160D01*
X160370Y48067D01*
X160681Y45983D01*
X161520Y44051D01*
X162830Y42402D01*
X164523Y41148D01*
X164698Y41079D01*
X167548Y27212D01*
X167414Y27079D01*
X166354Y25259D01*
X165800Y23227D01*
X165791Y21121D01*
X166328Y19084D01*
X167373Y17255D01*
X168857Y15760D01*
X169019Y15664D01*
X169737Y1526D01*
X169584Y1415D01*
X168260Y-223D01*
X167405Y-2148D01*
X167077Y-4229D01*
X167299Y-6324D01*
X168056Y-8290D01*
X169296Y-9993D01*
X169442Y-10111D01*
X168011Y-24196D01*
X167843Y-24282D01*
X166286Y-25701D01*
X165149Y-27474D01*
X164510Y-29481D01*
X164412Y-31586D01*
X164863Y-33643D01*
X165830Y-35515D01*
X165957Y-35654D01*
X162409Y-49359D01*
X162230Y-49419D01*
X160476Y-50586D01*
X159084Y-52167D01*
X158148Y-54054D01*
X157733Y-56119D01*
X157866Y-58221D01*
X158539Y-60217D01*
X158644Y-60374D01*
X153061Y-73384D01*
X152875Y-73416D01*
X150965Y-74304D01*
X149350Y-75656D01*
X148139Y-77379D01*
X147618Y-78804D01*
X146303Y-78702D01*
X146183Y-78099D01*
X145410Y-76941D01*
X140171Y-71702D01*
X140407Y-71058D01*
X140587Y-69025D01*
X140236Y-67015D01*
X139376Y-65165D01*
X138067Y-63600D01*
X136397Y-62427D01*
X134480Y-61726D01*
X132447Y-61546D01*
X130437Y-61897D01*
X128587Y-62757D01*
X127022Y-64066D01*
X126029Y-65480D01*
X125190Y-65798D01*
X124448Y-65869D01*
X123173Y-64890D01*
X120731Y-63878D01*
X119380Y-63701D01*
Y-73660D01*
X116840D01*
Y-63701D01*
X115489Y-63878D01*
X113047Y-64890D01*
X110949Y-66499D01*
X109623Y-68228D01*
X108353Y-67797D01*
Y-61295D01*
X126739Y-42909D01*
X127513Y-41751D01*
X127785Y-40385D01*
Y-33708D01*
X131690D01*
Y-27307D01*
X132863Y-26821D01*
X134990Y-28948D01*
X136148Y-29721D01*
X137514Y-29993D01*
X140290D01*
X140828Y-31034D01*
X142247Y-32591D01*
X144020Y-33728D01*
X146027Y-34367D01*
X147346Y-34428D01*
X147847Y-35723D01*
X143025Y-40545D01*
X142294Y-40398D01*
X140191Y-40531D01*
X138195Y-41204D01*
X136441Y-42371D01*
X135049Y-43952D01*
X134114Y-45839D01*
X133698Y-47904D01*
X133832Y-50006D01*
X134505Y-52002D01*
X135671Y-53756D01*
X137252Y-55148D01*
X139139Y-56084D01*
X141204Y-56499D01*
X143307Y-56366D01*
X145303Y-55693D01*
X147057Y-54526D01*
X148449Y-52945D01*
X149384Y-51058D01*
X149799Y-48993D01*
X149666Y-46891D01*
X148993Y-44895D01*
X148903Y-44760D01*
X159474Y-34189D01*
X160248Y-33031D01*
X160520Y-31665D01*
Y-22489D01*
X160248Y-21124D01*
X159474Y-19966D01*
X153909Y-14401D01*
X152752Y-13627D01*
X151386Y-13356D01*
X144790D01*
X140125Y-8691D01*
X138967Y-7917D01*
X137601Y-7645D01*
X131690D01*
Y-5208D01*
X114690D01*
Y-16208D01*
X113435Y-16243D01*
X110354D01*
Y-5408D01*
X93354D01*
Y-9331D01*
X88870D01*
X88560Y-8062D01*
X90280Y-5820D01*
X91443Y-3013D01*
X91672Y-1270D01*
X76200D01*
Y0D01*
D01*
Y-1270D01*
X60728D01*
X60957Y-3013D01*
X62120Y-5820D01*
X63886Y-8122D01*
X63826Y-8634D01*
X63524Y-9489D01*
X62950Y-9603D01*
X61793Y-10377D01*
X54780Y-17389D01*
X53607Y-16903D01*
Y18842D01*
X56596Y21832D01*
X61689D01*
X62718Y19348D01*
X64641Y16841D01*
X67148Y14918D01*
X70067Y13709D01*
X73200Y13297D01*
X79200D01*
X82333Y13709D01*
X85252Y14918D01*
X87759Y16841D01*
X89682Y19348D01*
X90891Y22267D01*
X91304Y25400D01*
X90891Y28533D01*
X89682Y31452D01*
X87759Y33958D01*
X85252Y35882D01*
X82333Y37091D01*
X82548Y38322D01*
X91440D01*
X92716Y38576D01*
X93798Y39299D01*
X100655Y46157D01*
X101378Y47238D01*
X101632Y48514D01*
Y48842D01*
X106798D01*
Y59842D01*
X89798D01*
Y48842D01*
X92252D01*
X92738Y47669D01*
X90059Y44990D01*
X65080D01*
X64594Y46163D01*
X67797Y49366D01*
X68970Y48880D01*
Y48588D01*
X85970D01*
Y59588D01*
X68970D01*
Y57422D01*
X67804D01*
X66528Y57168D01*
X65447Y56446D01*
X37775Y28774D01*
X37052Y27692D01*
X36798Y26416D01*
Y-34041D01*
X35528Y-34166D01*
X35137Y-32203D01*
X33811Y-30218D01*
X31827Y-28892D01*
X29485Y-28426D01*
X27144Y-28892D01*
X25160Y-30218D01*
X23834Y-32203D01*
X23368Y-34544D01*
X23834Y-36885D01*
X25160Y-38870D01*
X25917Y-39376D01*
Y-57936D01*
X17593Y-66261D01*
X16561Y-65496D01*
X17212Y-64279D01*
X18272Y-60785D01*
X18505Y-58420D01*
X1270D01*
Y-75655D01*
X3634Y-75422D01*
X7129Y-74362D01*
X8346Y-73711D01*
X9111Y-74742D01*
X-6219Y-90072D01*
X-7112Y-89895D01*
X-9453Y-90360D01*
X-11438Y-91686D01*
X-12190Y-92812D01*
X-13718D01*
X-14470Y-91686D01*
X-16455Y-90360D01*
X-18796Y-89895D01*
X-19689Y-90072D01*
X-26403Y-83358D01*
Y-68435D01*
X-25133Y-68049D01*
X-25129Y-68055D01*
X-22450Y-70735D01*
X-22627Y-71628D01*
X-22162Y-73969D01*
X-20836Y-75954D01*
X-18851Y-77280D01*
X-16510Y-77745D01*
X-14169Y-77280D01*
X-12184Y-75954D01*
X-10858Y-73969D01*
X-10829Y-73824D01*
X-9400Y-73148D01*
X-7129Y-74362D01*
X-3634Y-75422D01*
X-1270Y-75655D01*
Y-57150D01*
X0D01*
Y-55880D01*
X18505D01*
X18272Y-53516D01*
X17212Y-50021D01*
X15490Y-46800D01*
X13173Y-43977D01*
X10350Y-41660D01*
X10105Y-41529D01*
X10302Y-40194D01*
X11295Y-39997D01*
X13280Y-38671D01*
X14606Y-36686D01*
X15071Y-34345D01*
X14606Y-32004D01*
X13280Y-30019D01*
X11295Y-28693D01*
X8954Y-28228D01*
X8061Y-28405D01*
X1382Y-21727D01*
X224Y-20953D01*
X-1141Y-20681D01*
X-10788D01*
X-12154Y-20953D01*
X-13311Y-21727D01*
X-18021Y-26437D01*
X-19291Y-25911D01*
Y5670D01*
X-12954D01*
Y11710D01*
Y17750D01*
X-19291D01*
Y23710D01*
X-13507D01*
X-11684Y23347D01*
X-9861Y23710D01*
X-3184D01*
Y34543D01*
X-2675Y35769D01*
X-1270Y35631D01*
Y55880D01*
X-21519D01*
X-21228Y52927D01*
X-19997Y48867D01*
X-18553Y46166D01*
X-19584Y45401D01*
X-20492Y46309D01*
X-22394Y47580D01*
X-24638Y48027D01*
X-80264D01*
X-82507Y47580D01*
X-84410Y46309D01*
X-94384Y36335D01*
X-95655Y34433D01*
X-96101Y32190D01*
Y31941D01*
X-97274Y31455D01*
X-109162Y43342D01*
Y83495D01*
X-109433Y84860D01*
X-110207Y86018D01*
X-132764Y108575D01*
X-132068Y109675D01*
X-131705Y109546D01*
X-129605Y109377D01*
X-127533Y109758D01*
X-125631Y110662D01*
X-124027Y112027D01*
X-122831Y113761D01*
X-122125Y115746D01*
X-121956Y117846D01*
X-121990Y118031D01*
X-111730Y127786D01*
X-111547Y127743D01*
X-109441Y127805D01*
X-107424Y128410D01*
X-105632Y129517D01*
X-104187Y131050D01*
X-103188Y132905D01*
X-102704Y134955D01*
X-102711Y135199D01*
X-91141Y143384D01*
X-91018Y143334D01*
X-88927Y143076D01*
X-86841Y143369D01*
X-84902Y144192D01*
X-83242Y145489D01*
X-81974Y147171D01*
X-81184Y149124D01*
X-81161Y149311D01*
X-68425Y155560D01*
X-68262Y155464D01*
X-66235Y154893D01*
X-64128Y154867D01*
X-62087Y155386D01*
X-60250Y156416D01*
X-58742Y157887D01*
X-57666Y159698D01*
X-57614Y159879D01*
X-44078Y164128D01*
X-43933Y164008D01*
X-42015Y163137D01*
X-39937Y162792D01*
X-37840Y162996D01*
X-35868Y163736D01*
X-34155Y164961D01*
X-32817Y166589D01*
X-32739Y166760D01*
X-18716Y168910D01*
X-18590Y168769D01*
X-16826Y167618D01*
X-14824Y166962D01*
X-12721Y166847D01*
X-10660Y167280D01*
X-8780Y168231D01*
X-7211Y169637D01*
X-7139Y169748D01*
X7033Y169643D01*
D02*
G37*
G36*
X156459Y201930D02*
X154834Y199813D01*
X153373Y196285D01*
X152875Y192500D01*
Y167500D01*
X153373Y163715D01*
X154834Y160187D01*
X157158Y157158D01*
X160187Y154834D01*
X163715Y153373D01*
X167500Y152875D01*
X192500D01*
X196285Y153373D01*
X199813Y154834D01*
X201930Y156459D01*
X203200Y155833D01*
Y-135833D01*
X201930Y-136459D01*
X199813Y-134834D01*
X196285Y-133373D01*
X192500Y-132875D01*
X167500D01*
X163715Y-133373D01*
X160187Y-134834D01*
X157158Y-137158D01*
X154834Y-140188D01*
X153373Y-143715D01*
X152875Y-147500D01*
Y-172500D01*
X153373Y-176285D01*
X154834Y-179813D01*
X157158Y-182841D01*
X157296Y-182947D01*
X156888Y-184150D01*
X121324D01*
X121072Y-182880D01*
X121640Y-182645D01*
X123102Y-181522D01*
X124225Y-180060D01*
X124930Y-178357D01*
X125170Y-176530D01*
X124930Y-174703D01*
X124225Y-173000D01*
X123102Y-171538D01*
X122428Y-171020D01*
X122859Y-169750D01*
X129110D01*
Y-148349D01*
X131306D01*
X132671Y-148077D01*
X133829Y-147303D01*
X159394Y-121739D01*
X160664Y-121846D01*
Y-121846D01*
X177664D01*
Y-117855D01*
X177813Y-117108D01*
X177664Y-116361D01*
Y-112027D01*
X183838D01*
Y-121536D01*
X192270D01*
X192786Y-121639D01*
X193302Y-121536D01*
X200838D01*
Y-110536D01*
X196212D01*
X196083Y-109886D01*
X195309Y-108729D01*
X192515Y-105935D01*
X191574Y-105306D01*
X191687Y-104296D01*
X191786Y-104036D01*
X200838D01*
Y-93036D01*
X195593D01*
Y-87540D01*
X201000D01*
Y-73540D01*
X181000D01*
Y-87540D01*
X188455D01*
Y-93036D01*
X183838D01*
Y-103619D01*
X183838Y-104036D01*
X182921Y-104889D01*
X178709D01*
X177664Y-104346D01*
Y-100355D01*
X177812Y-99608D01*
X177664Y-98861D01*
Y-93346D01*
X160664D01*
Y-96039D01*
X153901D01*
X146455Y-88593D01*
Y-84097D01*
X147725Y-83817D01*
X148480Y-85441D01*
X149831Y-87057D01*
X151555Y-88267D01*
X153534Y-88990D01*
X155632Y-89177D01*
X157707Y-88814D01*
X159617Y-87927D01*
X161233Y-86575D01*
X162443Y-84851D01*
X163166Y-82873D01*
X163353Y-80774D01*
X162990Y-78700D01*
X162411Y-77452D01*
X168034Y-64347D01*
X169337Y-63908D01*
X171091Y-62741D01*
X172484Y-61160D01*
X173419Y-59273D01*
X173834Y-57208D01*
X173701Y-55106D01*
X173028Y-53110D01*
X172266Y-51965D01*
X175840Y-38159D01*
X177062Y-37527D01*
X178619Y-36109D01*
X179756Y-34335D01*
X180395Y-32328D01*
X180493Y-30224D01*
X180043Y-28166D01*
X179075Y-26295D01*
X178149Y-25278D01*
X179591Y-11091D01*
X180703Y-10281D01*
X182027Y-8643D01*
X182882Y-6718D01*
X183210Y-4638D01*
X182988Y-2543D01*
X182232Y-577D01*
X180992Y1126D01*
X179922Y1991D01*
X179200Y16233D01*
X180176Y17201D01*
X181237Y19021D01*
X181791Y21054D01*
X181800Y23160D01*
X181263Y25197D01*
X180217Y27026D01*
X178734Y28521D01*
X177546Y29214D01*
X174675Y43183D01*
X175494Y44288D01*
X176267Y46247D01*
X176489Y48190D01*
X176924Y48517D01*
X177714Y48850D01*
X178705Y48090D01*
X181016Y47133D01*
X183496Y46806D01*
X185976Y47133D01*
X188287Y48090D01*
X190271Y49612D01*
X191794Y51597D01*
X192752Y53908D01*
X193078Y56388D01*
X192752Y58868D01*
X191794Y61179D01*
X190271Y63163D01*
X188287Y64686D01*
X185976Y65643D01*
X183496Y65970D01*
X181016Y65643D01*
X178705Y64686D01*
X176721Y63163D01*
X175198Y61179D01*
X174241Y58868D01*
X173914Y56388D01*
X174017Y55607D01*
X172828Y54907D01*
X172354Y55259D01*
X171074Y55764D01*
X166121Y69136D01*
X166763Y70353D01*
X167230Y72407D01*
X167150Y74511D01*
X166528Y76524D01*
X165406Y78307D01*
X163861Y79738D01*
X161998Y80722D01*
X160657Y81027D01*
X153736Y93495D01*
X154186Y94795D01*
X154337Y96896D01*
X153939Y98964D01*
X153019Y100859D01*
X151640Y102452D01*
X149896Y103633D01*
X147906Y104323D01*
X146596Y104417D01*
X137942Y115770D01*
X138201Y117185D01*
X138032Y119284D01*
X137326Y121269D01*
X136130Y123003D01*
X134525Y124368D01*
X132623Y125271D01*
X130551Y125652D01*
X129387Y125558D01*
X118724Y136221D01*
X118735Y136606D01*
X118250Y138656D01*
X117251Y140511D01*
X115807Y142044D01*
X114014Y143150D01*
X111996Y143755D01*
X109891Y143817D01*
X108552Y143500D01*
X96847Y151646D01*
X96679Y153011D01*
X95890Y154964D01*
X94621Y156646D01*
X92961Y157942D01*
X91022Y158765D01*
X88936Y159057D01*
X86845Y158800D01*
X85570Y158284D01*
X72766Y164563D01*
X72393Y165887D01*
X71317Y167698D01*
X69809Y169168D01*
X67971Y170198D01*
X65930Y170718D01*
X63823Y170691D01*
X61796Y170119D01*
X60613Y169417D01*
X47007Y173685D01*
X46438Y174937D01*
X45099Y176564D01*
X43386Y177789D01*
X41413Y178528D01*
X39317Y178733D01*
X37239Y178387D01*
X35321Y177516D01*
X34259Y176642D01*
X20163Y178800D01*
X19411Y179952D01*
X17842Y181357D01*
X15962Y182308D01*
X13901Y182741D01*
X11797Y182625D01*
X9796Y181969D01*
X8032Y180817D01*
X7156Y179839D01*
X-7120Y179944D01*
X-8079Y181015D01*
X-9843Y182167D01*
X-11845Y182823D01*
X-13948Y182938D01*
X-16009Y182505D01*
X-17888Y181553D01*
X-19457Y180148D01*
X-20209Y178996D01*
X-34335Y176831D01*
X-35398Y177704D01*
X-37315Y178575D01*
X-39393Y178920D01*
X-41490Y178716D01*
X-43462Y177976D01*
X-45175Y176751D01*
X-46513Y175124D01*
X-47082Y173871D01*
X-60717Y169592D01*
X-61900Y170294D01*
X-63927Y170865D01*
X-66034Y170892D01*
X-68075Y170372D01*
X-69912Y169342D01*
X-71420Y167871D01*
X-72497Y166060D01*
X-72869Y164736D01*
X-85699Y158441D01*
X-86974Y158957D01*
X-89065Y159214D01*
X-91151Y158921D01*
X-93090Y158098D01*
X-94750Y156802D01*
X-96018Y155120D01*
X-96807Y153167D01*
X-96983Y151740D01*
X-108638Y143496D01*
X-109916Y143798D01*
X-112022Y143735D01*
X-114039Y143130D01*
X-115831Y142023D01*
X-117276Y140490D01*
X-118275Y138636D01*
X-118759Y136586D01*
X-118718Y135211D01*
X-129053Y125385D01*
X-130424Y125495D01*
X-132496Y125114D01*
X-134399Y124210D01*
X-136003Y122845D01*
X-137198Y121110D01*
X-137905Y119126D01*
X-138073Y117026D01*
X-137770Y115378D01*
X-138948Y114759D01*
X-158538Y134349D01*
X-159696Y135123D01*
X-161061Y135394D01*
X-170090D01*
Y136826D01*
X-170330Y138653D01*
X-171035Y140356D01*
X-172157Y141818D01*
X-173620Y142941D01*
X-175323Y143646D01*
X-177150Y143886D01*
X-191150D01*
X-192977Y143646D01*
X-194680Y142941D01*
X-196142Y141818D01*
X-197264Y140356D01*
X-197970Y138653D01*
X-198210Y136826D01*
Y126826D01*
X-197970Y124999D01*
X-197264Y123296D01*
X-196142Y121833D01*
X-194680Y120711D01*
X-192977Y120006D01*
X-191150Y119766D01*
X-177150D01*
X-175323Y120006D01*
X-173620Y120711D01*
X-172157Y121833D01*
X-171035Y123296D01*
X-170330Y124999D01*
X-170090Y126826D01*
Y128257D01*
X-162540D01*
X-125826Y91544D01*
X-126270Y90354D01*
X-126714Y90322D01*
X-128704Y89632D01*
X-130448Y88450D01*
X-131827Y86858D01*
X-132746Y84963D01*
X-133144Y82894D01*
X-132992Y80793D01*
X-132303Y78803D01*
X-131121Y77059D01*
X-129528Y75680D01*
X-128658Y75258D01*
Y68103D01*
X-129928Y67605D01*
X-130976Y68736D01*
X-132759Y69858D01*
X-134772Y70479D01*
X-136877Y70559D01*
X-138931Y70092D01*
X-140793Y69108D01*
X-142338Y67676D01*
X-143460Y65893D01*
X-144082Y63881D01*
X-144161Y61776D01*
X-143694Y59722D01*
X-142710Y57859D01*
X-141278Y56314D01*
X-139495Y55193D01*
X-138094Y54760D01*
Y48317D01*
X-139364Y47704D01*
X-139875Y48109D01*
X-141807Y48948D01*
X-143890Y49258D01*
X-145983Y49018D01*
X-147943Y48245D01*
X-149635Y46990D01*
X-150945Y45341D01*
X-151784Y43409D01*
X-152094Y41325D01*
X-151854Y39232D01*
X-151080Y37273D01*
X-149826Y35581D01*
X-148177Y34271D01*
X-147535Y33992D01*
X-147323Y32927D01*
X-146549Y31769D01*
X-138523Y23743D01*
X-139049Y22473D01*
X-141422D01*
X-142222Y23844D01*
X-143718Y25327D01*
X-145547Y26373D01*
X-147584Y26909D01*
X-149690Y26900D01*
X-151723Y26346D01*
X-153542Y25285D01*
X-155025Y23789D01*
X-156070Y21960D01*
X-156607Y19923D01*
X-156598Y17816D01*
X-156044Y15784D01*
X-154982Y13965D01*
X-153486Y12482D01*
X-151658Y11436D01*
X-149621Y10900D01*
X-147514Y10909D01*
X-145482Y11463D01*
X-143662Y12524D01*
X-142179Y14020D01*
X-141427Y15336D01*
X-139431D01*
X-136244Y12149D01*
Y10720D01*
X-140957D01*
Y-280D01*
X-124727D01*
Y-6780D01*
X-140957D01*
Y-17780D01*
X-132191D01*
Y-54004D01*
X-131919Y-55369D01*
X-131146Y-56527D01*
X-118382Y-69291D01*
X-119008Y-70461D01*
X-119634Y-70336D01*
X-121975Y-70802D01*
X-123837Y-72046D01*
X-124324Y-71877D01*
X-124999Y-71412D01*
X-124704Y-69718D01*
X-124890Y-67620D01*
X-125614Y-65641D01*
X-126825Y-63918D01*
X-128441Y-62566D01*
X-130351Y-61679D01*
X-132426Y-61317D01*
X-134524Y-61504D01*
X-136503Y-62227D01*
X-138226Y-63438D01*
X-139578Y-65054D01*
X-140465Y-66964D01*
X-140827Y-69039D01*
X-140640Y-71137D01*
X-139917Y-73116D01*
X-138706Y-74839D01*
X-137090Y-76191D01*
X-136334Y-76542D01*
Y-77840D01*
X-154534Y-96039D01*
X-163966D01*
Y-94108D01*
X-180966D01*
Y-100830D01*
X-181102Y-100949D01*
Y-106934D01*
X-175943D01*
X-176000Y-106497D01*
X-176138Y-106164D01*
X-175432Y-105108D01*
X-163966D01*
Y-103177D01*
X-153055D01*
X-151690Y-102905D01*
X-150532Y-102131D01*
X-150332Y-101931D01*
X-149342Y-102418D01*
X-149176Y-102572D01*
X-149219Y-104606D01*
X-148716Y-106652D01*
X-147702Y-108498D01*
X-146244Y-110018D01*
X-144442Y-111109D01*
X-142419Y-111697D01*
X-140313Y-111741D01*
X-138267Y-111238D01*
X-136422Y-110224D01*
X-134901Y-108766D01*
X-133810Y-106964D01*
X-133222Y-104941D01*
X-133178Y-102835D01*
X-133681Y-100790D01*
X-134696Y-98944D01*
X-136153Y-97423D01*
X-137955Y-96332D01*
X-139978Y-95744D01*
X-142084Y-95700D01*
X-142377Y-95772D01*
X-143024Y-94624D01*
X-130242Y-81841D01*
X-129468Y-80684D01*
X-129197Y-79318D01*
Y-76592D01*
X-129028Y-76530D01*
X-127305Y-75319D01*
X-126670Y-74560D01*
X-125487Y-75126D01*
X-125751Y-76454D01*
X-125286Y-78795D01*
X-124399Y-80123D01*
X-124657Y-81667D01*
X-124722Y-81750D01*
X-125505Y-82180D01*
X-127025Y-83638D01*
X-128117Y-85440D01*
X-128704Y-87463D01*
X-128748Y-89569D01*
X-128246Y-91615D01*
X-127231Y-93461D01*
X-125773Y-94981D01*
X-124297Y-95875D01*
Y-109843D01*
X-124025Y-111208D01*
X-123251Y-112366D01*
X-120620Y-114997D01*
X-121356Y-116057D01*
X-121835Y-115838D01*
X-123912Y-115486D01*
X-126009Y-115685D01*
X-127984Y-116419D01*
X-129701Y-117639D01*
X-131043Y-119262D01*
X-131920Y-121178D01*
X-132271Y-123254D01*
X-132073Y-125352D01*
X-131339Y-127326D01*
X-130119Y-129043D01*
X-128496Y-130386D01*
X-126580Y-131262D01*
X-124503Y-131614D01*
X-122406Y-131415D01*
X-120432Y-130681D01*
X-118715Y-129461D01*
X-117372Y-127838D01*
X-116704Y-126378D01*
X-115434Y-126655D01*
Y-134826D01*
X-99485D01*
Y-136508D01*
X-99213Y-137874D01*
X-98439Y-139031D01*
X-94098Y-143373D01*
Y-152326D01*
X-95302Y-152485D01*
X-97230D01*
X-98434Y-152326D01*
Y-141326D01*
X-109679D01*
X-109927Y-141160D01*
X-112268Y-140695D01*
X-114609Y-141160D01*
X-114857Y-141326D01*
X-115434D01*
Y-141711D01*
X-116594Y-142486D01*
X-117920Y-144471D01*
X-118385Y-146812D01*
X-118314Y-147172D01*
X-119484Y-147798D01*
X-140823Y-126459D01*
X-140406Y-125081D01*
X-138883Y-124778D01*
X-136898Y-123452D01*
X-135572Y-121467D01*
X-135106Y-119126D01*
X-135572Y-116785D01*
X-136898Y-114800D01*
X-138883Y-113474D01*
X-141224Y-113008D01*
X-143565Y-113474D01*
X-144061Y-113805D01*
X-145397Y-113539D01*
X-163966D01*
Y-111608D01*
X-175329D01*
X-176177Y-110338D01*
X-176000Y-109911D01*
X-175943Y-109474D01*
X-182372D01*
Y-108204D01*
X-183642D01*
Y-101775D01*
X-184032Y-101826D01*
X-184296Y-101834D01*
X-185302Y-101051D01*
Y-94362D01*
X-190233D01*
Y-57402D01*
X-181321Y-48489D01*
X-170098D01*
X-169800Y-49759D01*
X-170272Y-49994D01*
X-171852Y-51386D01*
X-173019Y-53140D01*
X-173691Y-55136D01*
X-173824Y-57238D01*
X-173409Y-59303D01*
X-172473Y-61191D01*
X-171080Y-62771D01*
X-169326Y-63937D01*
X-168023Y-64377D01*
X-162397Y-77481D01*
X-162976Y-78728D01*
X-163339Y-80803D01*
X-163152Y-82901D01*
X-162428Y-84879D01*
X-161217Y-86603D01*
X-159602Y-87955D01*
X-157691Y-88842D01*
X-155616Y-89204D01*
X-153518Y-89017D01*
X-151540Y-88294D01*
X-149816Y-87083D01*
X-148465Y-85467D01*
X-147578Y-83557D01*
X-147215Y-81482D01*
X-147402Y-79384D01*
X-148125Y-77405D01*
X-149336Y-75682D01*
X-150952Y-74330D01*
X-152863Y-73443D01*
X-153048Y-73411D01*
X-158633Y-60402D01*
X-158529Y-60245D01*
X-157856Y-58249D01*
X-157723Y-56146D01*
X-158139Y-54081D01*
X-159075Y-52194D01*
X-160467Y-50614D01*
X-162221Y-49447D01*
X-163474Y-49025D01*
X-163661Y-47622D01*
X-163394Y-47444D01*
X-150025Y-34075D01*
X-148126Y-34490D01*
X-146022Y-34392D01*
X-144015Y-33753D01*
X-142241Y-32616D01*
X-140823Y-31059D01*
X-139856Y-29187D01*
X-139406Y-27129D01*
X-139504Y-25025D01*
X-140143Y-23018D01*
X-141280Y-21245D01*
X-142838Y-19827D01*
X-144709Y-18859D01*
X-146767Y-18410D01*
X-148871Y-18508D01*
X-150878Y-19147D01*
X-152651Y-20284D01*
X-154070Y-21841D01*
X-155037Y-23713D01*
X-155487Y-25771D01*
X-155388Y-27875D01*
X-155033Y-28990D01*
X-167395Y-41352D01*
X-182799D01*
X-184165Y-41624D01*
X-185323Y-42397D01*
X-196325Y-53400D01*
X-197099Y-54558D01*
X-197371Y-55923D01*
Y-94362D01*
X-202302D01*
X-203200Y-93464D01*
Y155833D01*
X-201930Y156459D01*
X-199813Y154834D01*
X-196285Y153373D01*
X-192500Y152875D01*
X-167500D01*
X-163715Y153373D01*
X-160187Y154834D01*
X-157158Y157158D01*
X-154834Y160187D01*
X-153373Y163715D01*
X-152875Y167500D01*
Y192500D01*
X-153373Y196285D01*
X-154834Y199813D01*
X-156459Y201930D01*
X-155833Y203200D01*
X155833D01*
X156459Y201930D01*
D02*
G37*
G36*
X-116299Y79299D02*
Y41864D01*
X-116027Y40499D01*
X-115254Y39341D01*
X-96101Y20188D01*
Y13145D01*
X-97274Y12659D01*
X-121520Y36905D01*
Y75188D01*
X-121473Y75205D01*
X-119730Y76386D01*
X-118351Y77979D01*
X-117569Y79591D01*
X-116299Y79299D01*
D02*
G37*
G36*
X-26429Y26716D02*
Y8245D01*
X-27699Y8120D01*
X-28131Y10294D01*
X-29521Y12375D01*
X-31602Y13765D01*
X-34056Y14253D01*
X-36536D01*
Y1590D01*
Y-11073D01*
X-34056D01*
X-31602Y-10585D01*
X-29521Y-9195D01*
X-28131Y-7114D01*
X-27699Y-4940D01*
X-26429Y-5065D01*
Y-25700D01*
X-30268Y-29540D01*
X-31539Y-29014D01*
Y-24962D01*
X-30781Y-24456D01*
X-29455Y-22471D01*
X-28990Y-20130D01*
X-29455Y-17789D01*
X-30781Y-15804D01*
X-32766Y-14478D01*
X-35107Y-14012D01*
X-37448Y-14478D01*
X-39433Y-15804D01*
X-40759Y-17789D01*
X-41225Y-20130D01*
X-40759Y-22471D01*
X-39433Y-24456D01*
X-38676Y-24962D01*
Y-29057D01*
X-41994Y-32375D01*
X-43167Y-31889D01*
Y-19050D01*
X-43439Y-17684D01*
X-44213Y-16527D01*
X-52459Y-8280D01*
X-51540Y-6903D01*
X-51093Y-4660D01*
Y7840D01*
X-51540Y10084D01*
X-52811Y11985D01*
X-54713Y13256D01*
X-56956Y13703D01*
X-63027D01*
X-63279Y14973D01*
X-61302Y15791D01*
X-59005Y17555D01*
X-57242Y19853D01*
X-56133Y22528D01*
X-55755Y25400D01*
X-56133Y28272D01*
X-56711Y29665D01*
X-56005Y30721D01*
X-30434D01*
X-26429Y26716D01*
D02*
G37*
G36*
X-82458Y19853D02*
X-80695Y17555D01*
X-78397Y15791D01*
X-75722Y14683D01*
X-72850Y14305D01*
X-67416D01*
X-67031Y13035D01*
X-68601Y11985D01*
X-69872Y10084D01*
X-70319Y7840D01*
Y-4660D01*
X-69872Y-6903D01*
X-68601Y-8806D01*
X-66700Y-10076D01*
X-64456Y-10523D01*
X-60310D01*
X-50305Y-20528D01*
Y-32304D01*
X-54818Y-36817D01*
X-59044D01*
X-59475Y-35547D01*
X-57906Y-34344D01*
X-55896Y-31724D01*
X-54633Y-28674D01*
X-54369Y-26670D01*
X-69850D01*
Y-25400D01*
X-71120D01*
Y-12752D01*
X-72850D01*
X-76124Y-13183D01*
X-79174Y-14446D01*
X-81794Y-16456D01*
X-83804Y-19076D01*
X-85067Y-22126D01*
X-85077Y-22204D01*
X-86347Y-22121D01*
Y-17734D01*
X-81083Y-12469D01*
X-80309Y-11312D01*
X-80152Y-10523D01*
X-79856D01*
X-77613Y-10077D01*
X-75711Y-8806D01*
X-74440Y-6904D01*
X-73993Y-4660D01*
Y7840D01*
X-74440Y10083D01*
X-75711Y11985D01*
X-77613Y13256D01*
X-79856Y13703D01*
X-84376D01*
Y21162D01*
X-83106Y21415D01*
X-82458Y19853D01*
D02*
G37*
G36*
X-39129Y-41399D02*
Y-89855D01*
X-39256Y-90010D01*
X-56073D01*
X-79743Y-66340D01*
Y-61211D01*
X-78473Y-60685D01*
X-77184Y-61975D01*
X-77418Y-63754D01*
X-77178Y-65581D01*
X-76473Y-67284D01*
X-75350Y-68746D01*
X-73888Y-69868D01*
X-72185Y-70574D01*
X-70358Y-70814D01*
X-68579Y-70580D01*
X-63469Y-75689D01*
X-62312Y-76463D01*
X-60946Y-76735D01*
X-60316D01*
Y-78666D01*
X-43316D01*
Y-67666D01*
X-60316D01*
Y-67666D01*
X-61082Y-67983D01*
X-63532Y-65533D01*
X-63298Y-63754D01*
X-63538Y-61927D01*
X-64243Y-60224D01*
X-65366Y-58762D01*
X-66828Y-57639D01*
X-68531Y-56934D01*
X-70358Y-56694D01*
X-72137Y-56928D01*
X-73139Y-55926D01*
Y-49834D01*
X-71869Y-49708D01*
X-71692Y-50601D01*
X-70366Y-52586D01*
X-68381Y-53912D01*
X-66040Y-54377D01*
X-63699Y-53912D01*
X-61714Y-52586D01*
X-61586Y-52394D01*
X-60316Y-52779D01*
Y-61166D01*
X-43316D01*
Y-50166D01*
X-48247D01*
Y-48722D01*
X-40399Y-40873D01*
X-39129Y-41399D01*
D02*
G37*
G36*
X102398Y-17678D02*
X99331Y-20746D01*
X98557Y-21903D01*
X98357Y-22908D01*
X93354D01*
Y-33908D01*
X110354D01*
Y-23381D01*
X114690D01*
Y-33708D01*
X120647D01*
Y-38907D01*
X102261Y-57294D01*
X101487Y-58452D01*
X101215Y-59817D01*
Y-66342D01*
X100013Y-66751D01*
X99842Y-66528D01*
X97753Y-64925D01*
X96279Y-64314D01*
Y-60452D01*
X96007Y-59086D01*
X95233Y-57929D01*
X79769Y-42464D01*
Y-36495D01*
X80200D01*
X83072Y-36117D01*
X85747Y-35008D01*
X88045Y-33245D01*
X89809Y-30947D01*
X90917Y-28272D01*
X91295Y-25400D01*
X90917Y-22528D01*
X89809Y-19853D01*
X88186Y-17739D01*
X88511Y-16469D01*
X99862D01*
X100167Y-16408D01*
X101872D01*
X102398Y-17678D01*
D02*
G37*
G36*
X61396Y-22486D02*
X61476Y-22583D01*
X61105Y-25400D01*
X61483Y-28272D01*
X62592Y-30947D01*
X64355Y-33245D01*
X66652Y-35008D01*
X69328Y-36117D01*
X72200Y-36495D01*
X72631D01*
Y-43942D01*
X72903Y-45308D01*
X73677Y-46465D01*
X89141Y-61930D01*
Y-64314D01*
X87667Y-64925D01*
X85578Y-66528D01*
X83975Y-68617D01*
X83833Y-68961D01*
X82563Y-68708D01*
Y-61214D01*
X82291Y-59848D01*
X81517Y-58691D01*
X59449Y-36622D01*
Y-22814D01*
X60358Y-21905D01*
X61396Y-22486D01*
D02*
G37*
G36*
X24804Y-70939D02*
Y-79884D01*
X23106Y-81018D01*
X21780Y-83003D01*
X21314Y-85344D01*
X21780Y-87685D01*
X22385Y-88590D01*
X22021Y-90331D01*
X21868Y-90433D01*
X12238Y-100063D01*
X-1256D01*
X-1855Y-98943D01*
X-1460Y-98353D01*
X-994Y-96012D01*
X-1172Y-95119D01*
X23534Y-70413D01*
X24804Y-70939D01*
D02*
G37*
G36*
X83975Y-78703D02*
X85578Y-80792D01*
X87667Y-82395D01*
X90099Y-83403D01*
X92710Y-83746D01*
X95321Y-83403D01*
X97753Y-82395D01*
X98661Y-81698D01*
X99500Y-82655D01*
X87393Y-94763D01*
X86619Y-95920D01*
X86347Y-97286D01*
Y-115568D01*
X85590Y-116074D01*
X85176Y-116694D01*
X83906D01*
X83320Y-115816D01*
X82563Y-115310D01*
Y-78612D01*
X83833Y-78359D01*
X83975Y-78703D01*
D02*
G37*
G36*
X110949Y-80821D02*
X113047Y-82430D01*
X114051Y-82846D01*
X114288Y-84319D01*
X113460Y-85824D01*
X112974Y-87806D01*
X113017Y-89846D01*
X113586Y-91806D01*
X114644Y-93551D01*
X116117Y-94963D01*
X117905Y-95946D01*
X119887Y-96432D01*
X121927Y-96389D01*
X123887Y-95820D01*
X125632Y-94762D01*
X127044Y-93289D01*
X128027Y-91501D01*
X128453Y-89767D01*
X128808Y-89375D01*
X129771Y-88907D01*
X130165Y-88985D01*
X131085Y-90184D01*
X132451Y-91232D01*
X134042Y-91891D01*
X134479Y-91948D01*
Y-85519D01*
X137019D01*
Y-91948D01*
X137457Y-91891D01*
X138314Y-91536D01*
X139307Y-91459D01*
X140022Y-92085D01*
X140363Y-92595D01*
X142238Y-94470D01*
X141657Y-95685D01*
X139995Y-95720D01*
X137972Y-96308D01*
X136171Y-97400D01*
X134713Y-98920D01*
X133698Y-100766D01*
X133196Y-102812D01*
X133241Y-104918D01*
X133293Y-105099D01*
X124072Y-115841D01*
X123885Y-115816D01*
X121797Y-116091D01*
X119851Y-116897D01*
X118179Y-118179D01*
X116897Y-119851D01*
X116091Y-121797D01*
X115816Y-123885D01*
X116091Y-125974D01*
X116897Y-127920D01*
X118179Y-129591D01*
X119851Y-130873D01*
X121797Y-131679D01*
X123885Y-131954D01*
X125974Y-131679D01*
X127920Y-130873D01*
X129591Y-129591D01*
X130873Y-127920D01*
X131679Y-125974D01*
X131954Y-123885D01*
X131775Y-122521D01*
X141063Y-111701D01*
X142439Y-111672D01*
X144461Y-111084D01*
X146263Y-109992D01*
X147721Y-108472D01*
X148735Y-106626D01*
X149237Y-104580D01*
X149208Y-103196D01*
X150464Y-102508D01*
X151058Y-102905D01*
X152423Y-103177D01*
X160506D01*
X160527Y-104447D01*
X159690Y-105062D01*
X159191Y-105161D01*
X158034Y-105935D01*
X129107Y-134861D01*
X102443D01*
X101957Y-133688D01*
X108448Y-127198D01*
X109221Y-126040D01*
X109493Y-124674D01*
Y-113105D01*
X109959Y-112913D01*
X111630Y-111630D01*
X112913Y-109959D01*
X113719Y-108013D01*
X113994Y-105925D01*
X113719Y-103836D01*
X112913Y-101890D01*
X111630Y-100219D01*
X109959Y-98937D01*
X108013Y-98131D01*
X105925Y-97856D01*
X103836Y-98131D01*
X101890Y-98937D01*
X100219Y-100219D01*
X98937Y-101890D01*
X98131Y-103836D01*
X97856Y-105925D01*
X98131Y-108013D01*
X98937Y-109959D01*
X100219Y-111630D01*
X101890Y-112913D01*
X102356Y-113105D01*
Y-123196D01*
X95771Y-129781D01*
X70058D01*
X52093Y-111817D01*
X50936Y-111043D01*
X49570Y-110771D01*
X11294D01*
Y-108840D01*
X-5706D01*
Y-119840D01*
X11294D01*
Y-117909D01*
X48092D01*
X55647Y-125463D01*
X55121Y-126733D01*
X37338D01*
X35972Y-127005D01*
X34815Y-127779D01*
X13733Y-148861D01*
X13104Y-149802D01*
X12094Y-149689D01*
X11834Y-149590D01*
Y-148630D01*
X4064D01*
Y-153400D01*
X11417D01*
X11834Y-153400D01*
X12687Y-154317D01*
Y-157982D01*
X12055Y-158405D01*
X12055Y-158405D01*
X11930Y-158488D01*
X11627Y-158942D01*
X10518Y-159360D01*
X-5706D01*
Y-170360D01*
X-2577D01*
X-2307Y-170688D01*
X-1842Y-173029D01*
X-516Y-175014D01*
X1469Y-176340D01*
X3810Y-176805D01*
X6151Y-176340D01*
X8136Y-175014D01*
X9462Y-173029D01*
X9927Y-170688D01*
X10197Y-170360D01*
X11294D01*
Y-168242D01*
X12564Y-167563D01*
X13915Y-168466D01*
X16256Y-168932D01*
X18597Y-168466D01*
X18913Y-168255D01*
X19370Y-168436D01*
X20046Y-169025D01*
X19994Y-169418D01*
X26162D01*
Y-163250D01*
X25464Y-163342D01*
X23630Y-164102D01*
X23373Y-164298D01*
X22221Y-163582D01*
X22373Y-162814D01*
X21908Y-160473D01*
X20582Y-158488D01*
X19825Y-157982D01*
Y-152862D01*
X38816Y-133871D01*
X51828D01*
X51977Y-134080D01*
X51666Y-135807D01*
X50792Y-136390D01*
X49466Y-138375D01*
X49001Y-140716D01*
X49466Y-143057D01*
X50792Y-145042D01*
X52777Y-146368D01*
X55118Y-146833D01*
X56011Y-146656D01*
X56659Y-147303D01*
X57816Y-148077D01*
X59182Y-148349D01*
X60710D01*
X61141Y-149619D01*
X59465Y-150905D01*
X57702Y-153203D01*
X56593Y-155878D01*
X56215Y-158750D01*
X56593Y-161622D01*
X57702Y-164298D01*
X59465Y-166595D01*
X61762Y-168358D01*
X64438Y-169467D01*
X67310Y-169845D01*
X70182Y-169467D01*
X72857Y-168358D01*
X75155Y-166595D01*
X76919Y-164298D01*
X78027Y-161622D01*
X78405Y-158750D01*
X78027Y-155878D01*
X76919Y-153203D01*
X75155Y-150905D01*
X73479Y-149619D01*
X73910Y-148349D01*
X86110D01*
X86541Y-149619D01*
X84865Y-150905D01*
X83101Y-153202D01*
X81993Y-155878D01*
X81615Y-158750D01*
X81993Y-161621D01*
X83101Y-164297D01*
X84865Y-166595D01*
X87163Y-168358D01*
X89838Y-169467D01*
X92710Y-169845D01*
X95582Y-169467D01*
X98257Y-168358D01*
X100555Y-166595D01*
X102318Y-164297D01*
X103427Y-161621D01*
X103805Y-158750D01*
X103427Y-155878D01*
X102318Y-153202D01*
X100555Y-150905D01*
X98879Y-149619D01*
X99310Y-148349D01*
X107110D01*
Y-169750D01*
X113361D01*
X113792Y-171020D01*
X113118Y-171538D01*
X111995Y-173000D01*
X111906Y-173215D01*
X38403D01*
X37038Y-173487D01*
X35880Y-174261D01*
X35211Y-174930D01*
X34134Y-174211D01*
X34778Y-172656D01*
X34870Y-171958D01*
X19994D01*
X20086Y-172656D01*
X20846Y-174491D01*
X22054Y-176066D01*
X23630Y-177274D01*
X24528Y-177646D01*
X24275Y-178916D01*
X-1457D01*
X-7140Y-173234D01*
Y-154300D01*
X-6246Y-153400D01*
X-5870Y-153400D01*
X1524D01*
Y-147360D01*
Y-141320D01*
X-5870D01*
X-6246Y-141320D01*
X-7140Y-140420D01*
Y-136395D01*
X-5870Y-135756D01*
X-5706Y-135877D01*
Y-137340D01*
X11294D01*
Y-126340D01*
X2714D01*
X1325Y-125412D01*
X-1016Y-124946D01*
X-3357Y-125412D01*
X-4503Y-126178D01*
X-5706Y-126340D01*
Y-126340D01*
X-5870Y-126450D01*
X-7140Y-125773D01*
Y-121777D01*
X-7411Y-120412D01*
X-8185Y-119254D01*
X-19065Y-108374D01*
X-18579Y-107201D01*
X13716D01*
X15082Y-106929D01*
X16239Y-106155D01*
X20656Y-101739D01*
X22034Y-102157D01*
X22288Y-103433D01*
X23614Y-105418D01*
X25599Y-106744D01*
X27940Y-107210D01*
X30281Y-106744D01*
X32266Y-105418D01*
X32928Y-104426D01*
X39370D01*
X40646Y-104172D01*
X41727Y-103449D01*
X56714Y-88463D01*
X57436Y-87382D01*
X57690Y-86106D01*
Y-79636D01*
X58960Y-79205D01*
X60178Y-80792D01*
X62267Y-82395D01*
X64700Y-83403D01*
X67310Y-83746D01*
X69921Y-83403D01*
X72353Y-82395D01*
X74155Y-81012D01*
X75425Y-81436D01*
Y-115310D01*
X74668Y-115816D01*
X73342Y-117801D01*
X72877Y-120142D01*
X73342Y-122483D01*
X74668Y-124468D01*
X76653Y-125794D01*
X78994Y-126259D01*
X81335Y-125794D01*
X83320Y-124468D01*
X83734Y-123848D01*
X85004D01*
X85590Y-124726D01*
X87575Y-126052D01*
X89916Y-126517D01*
X92257Y-126052D01*
X94242Y-124726D01*
X95568Y-122741D01*
X96033Y-120400D01*
X95568Y-118059D01*
X94242Y-116074D01*
X93485Y-115568D01*
Y-98764D01*
X107308Y-84941D01*
X108081Y-83784D01*
X108353Y-82418D01*
Y-79523D01*
X109623Y-79092D01*
X110949Y-80821D01*
D02*
G37*
G36*
X-197099Y-123286D02*
X-196325Y-124443D01*
X-194137Y-126631D01*
X-192980Y-127405D01*
X-191614Y-127677D01*
X-162509D01*
X-161910Y-128797D01*
X-162370Y-129485D01*
X-162836Y-131826D01*
X-162684Y-132588D01*
X-163495Y-133253D01*
X-163826Y-133359D01*
X-167500Y-132875D01*
X-192500D01*
X-196285Y-133373D01*
X-199813Y-134834D01*
X-201930Y-136459D01*
X-203200Y-135833D01*
Y-123760D01*
X-202302Y-122862D01*
X-197183D01*
X-197099Y-123286D01*
D02*
G37*
G36*
X-69325Y-125967D02*
X-68168Y-126741D01*
X-66802Y-127013D01*
X-62744D01*
X-62238Y-127770D01*
X-60253Y-129096D01*
X-57912Y-129562D01*
X-55571Y-129096D01*
X-53586Y-127770D01*
X-52393Y-128270D01*
X-51481Y-128969D01*
Y-134844D01*
X-52751Y-135229D01*
X-53332Y-134358D01*
X-55317Y-133032D01*
X-57658Y-132566D01*
X-59999Y-133032D01*
X-61984Y-134358D01*
X-62490Y-135115D01*
X-75948D01*
X-77098Y-134826D01*
Y-123826D01*
X-92347D01*
Y-120904D01*
X-92619Y-119538D01*
X-93165Y-118721D01*
X-92942Y-117602D01*
X-93408Y-115261D01*
X-94734Y-113276D01*
X-96719Y-111950D01*
X-98058Y-111684D01*
X-98367Y-111188D01*
X-98641Y-110273D01*
X-97889Y-108632D01*
X-97538Y-106555D01*
X-97736Y-104458D01*
X-98471Y-102484D01*
X-99691Y-100767D01*
X-101314Y-99424D01*
X-103229Y-98547D01*
X-105306Y-98196D01*
X-107403Y-98394D01*
X-109378Y-99129D01*
X-111095Y-100349D01*
X-112437Y-101972D01*
X-113314Y-103887D01*
X-113665Y-105964D01*
X-113467Y-108061D01*
X-112733Y-110035D01*
X-111513Y-111752D01*
X-109889Y-113095D01*
X-107974Y-113972D01*
X-105897Y-114323D01*
X-105469Y-114283D01*
X-104758Y-115491D01*
X-105177Y-117602D01*
X-104942Y-118786D01*
X-106112Y-119411D01*
X-117159Y-108364D01*
Y-95851D01*
X-115951Y-95187D01*
X-114431Y-93729D01*
X-113340Y-91927D01*
X-112752Y-89904D01*
X-112708Y-87798D01*
X-113210Y-85752D01*
X-114225Y-83906D01*
X-115583Y-82491D01*
X-115743Y-82052D01*
X-115764Y-81084D01*
X-115308Y-80780D01*
X-114584Y-80708D01*
X-69325Y-125967D01*
D02*
G37*
G36*
X-32534Y-154777D02*
X-30549Y-156103D01*
X-28208Y-156569D01*
X-25867Y-156103D01*
X-25397Y-155789D01*
X-24277Y-156387D01*
Y-165534D01*
X-34921Y-176178D01*
X-35814Y-176000D01*
X-38155Y-176466D01*
X-40140Y-177792D01*
X-40386Y-178161D01*
X-41656D01*
X-41902Y-177792D01*
X-43309Y-176852D01*
X-43287Y-175389D01*
X-42689Y-174989D01*
X-35577Y-167877D01*
X-34803Y-166720D01*
X-34531Y-165354D01*
Y-154074D01*
X-33261Y-153688D01*
X-32534Y-154777D01*
D02*
G37*
G36*
X113118Y-181522D02*
X114580Y-182645D01*
X115148Y-182880D01*
X114896Y-184150D01*
X37744D01*
X37258Y-182977D01*
X39882Y-180353D01*
X112220D01*
X113118Y-181522D01*
D02*
G37*
G36*
X-121617Y-162830D02*
X-122072Y-164171D01*
X-122357Y-164208D01*
X-123948Y-164867D01*
X-125314Y-165916D01*
X-126363Y-167282D01*
X-127022Y-168873D01*
X-127079Y-169310D01*
X-120650D01*
Y-170580D01*
X-119380D01*
Y-177009D01*
X-118943Y-176952D01*
X-117352Y-176293D01*
X-115986Y-175244D01*
X-114937Y-173878D01*
X-114278Y-172287D01*
X-114241Y-172002D01*
X-112900Y-171547D01*
X-111061Y-173385D01*
X-109904Y-174159D01*
X-108538Y-174431D01*
X-95873D01*
X-94638Y-174514D01*
Y-179284D01*
X-85598D01*
Y-181824D01*
X-94638D01*
Y-184150D01*
X-156888D01*
X-157296Y-182947D01*
X-157158Y-182841D01*
X-154834Y-179813D01*
X-153373Y-176285D01*
X-152875Y-172500D01*
Y-147500D01*
X-153373Y-143715D01*
X-154834Y-140188D01*
X-155845Y-138870D01*
X-155398Y-137681D01*
X-154377Y-137478D01*
X-152392Y-136152D01*
X-151886Y-135395D01*
X-149052D01*
X-121617Y-162830D01*
D02*
G37*
%LPC*%
G36*
X-12017Y157612D02*
X-14078Y157179D01*
X-15957Y156227D01*
X-17526Y154821D01*
X-18678Y153057D01*
X-19334Y151056D01*
X-19449Y148952D01*
X-19016Y146891D01*
X-18065Y145012D01*
X-16659Y143443D01*
X-14895Y142291D01*
X-12893Y141636D01*
X-10790Y141520D01*
X-8729Y141953D01*
X-6849Y142905D01*
X-5281Y144311D01*
X-4129Y146074D01*
X-3473Y148076D01*
X-3358Y150179D01*
X-3791Y152241D01*
X-4742Y154120D01*
X-6148Y155689D01*
X-7912Y156840D01*
X-9914Y157496D01*
X-12017Y157612D01*
D02*
G37*
G36*
X11974Y157414D02*
X9871Y157298D01*
X7869Y156642D01*
X6106Y155490D01*
X4700Y153921D01*
X3749Y152042D01*
X3316Y149980D01*
X3432Y147877D01*
X4088Y145876D01*
X5240Y144112D01*
X6809Y142706D01*
X8689Y141755D01*
X10750Y141323D01*
X12853Y141438D01*
X14855Y142094D01*
X16619Y143246D01*
X18024Y144816D01*
X18975Y146695D01*
X19408Y148756D01*
X19292Y150860D01*
X18636Y152861D01*
X17484Y154625D01*
X15915Y156030D01*
X14036Y156982D01*
X11974Y157414D01*
D02*
G37*
G36*
X-33649Y154179D02*
X-35746Y153974D01*
X-37718Y153234D01*
X-39431Y152009D01*
X-40769Y150382D01*
X-41641Y148464D01*
X-41986Y146386D01*
X-41781Y144289D01*
X-41041Y142317D01*
X-39816Y140604D01*
X-38189Y139266D01*
X-36271Y138395D01*
X-34193Y138050D01*
X-32097Y138254D01*
X-30124Y138994D01*
X-28411Y140220D01*
X-27073Y141847D01*
X-26202Y143764D01*
X-25857Y145842D01*
X-26061Y147939D01*
X-26801Y149911D01*
X-28027Y151624D01*
X-29654Y152962D01*
X-31572Y153833D01*
X-33649Y154179D01*
D02*
G37*
G36*
X33577Y153990D02*
X31499Y153644D01*
X29582Y152773D01*
X27955Y151434D01*
X26730Y149721D01*
X25990Y147749D01*
X25786Y145652D01*
X26132Y143574D01*
X27003Y141657D01*
X28341Y140030D01*
X30055Y138805D01*
X32027Y138065D01*
X34124Y137861D01*
X36202Y138206D01*
X38119Y139078D01*
X39746Y140416D01*
X40971Y142130D01*
X41711Y144102D01*
X41915Y146198D01*
X41569Y148276D01*
X40698Y150194D01*
X39360Y151821D01*
X37646Y153046D01*
X35674Y153785D01*
X33577Y153990D01*
D02*
G37*
G36*
X-56609Y147305D02*
X-58650Y146785D01*
X-60488Y145755D01*
X-61996Y144284D01*
X-63072Y142474D01*
X-63643Y140446D01*
X-63669Y138340D01*
X-63150Y136298D01*
X-62119Y134461D01*
X-60649Y132953D01*
X-58838Y131877D01*
X-56810Y131306D01*
X-54704Y131280D01*
X-52663Y131799D01*
X-50825Y132830D01*
X-49317Y134300D01*
X-48241Y136111D01*
X-47670Y138139D01*
X-47644Y140245D01*
X-48163Y142286D01*
X-49194Y144124D01*
X-50664Y145632D01*
X-52475Y146708D01*
X-54503Y147278D01*
X-56609Y147305D01*
D02*
G37*
G36*
X56509Y147129D02*
X54403Y147102D01*
X52375Y146531D01*
X50565Y145455D01*
X49094Y143946D01*
X48064Y142109D01*
X47545Y140067D01*
X47572Y137961D01*
X48143Y135934D01*
X49220Y134123D01*
X50728Y132653D01*
X52565Y131623D01*
X54607Y131103D01*
X56713Y131130D01*
X58741Y131701D01*
X60551Y132778D01*
X62022Y134286D01*
X63052Y136124D01*
X63571Y138165D01*
X63544Y140271D01*
X62973Y142299D01*
X61897Y144109D01*
X60388Y145580D01*
X58551Y146610D01*
X56509Y147129D01*
D02*
G37*
G36*
X-10451Y139143D02*
X-11232Y138988D01*
X-11893Y138546D01*
X-23037Y127402D01*
X-64578D01*
X-64578Y127402D01*
X-65359Y127247D01*
X-66020Y126805D01*
X-67834Y124991D01*
X-68915Y125707D01*
X-68296Y127236D01*
X-68039Y129327D01*
X-68332Y131413D01*
X-69155Y133352D01*
X-70451Y135012D01*
X-72134Y136280D01*
X-74086Y137069D01*
X-76177Y137326D01*
X-78263Y137034D01*
X-80202Y136211D01*
X-81862Y134914D01*
X-83130Y133232D01*
X-83920Y131279D01*
X-84177Y129189D01*
X-83884Y127103D01*
X-83061Y125163D01*
X-81765Y123503D01*
X-80083Y122235D01*
X-78130Y121446D01*
X-76039Y121189D01*
X-73953Y121482D01*
X-72540Y122081D01*
X-71817Y121009D01*
X-91866Y100959D01*
X-92308Y100298D01*
X-92463Y99517D01*
Y76558D01*
X-92788Y74090D01*
Y59090D01*
X-92462Y56610D01*
X-91504Y54299D01*
X-89982Y52315D01*
X-87997Y50792D01*
X-85686Y49834D01*
X-83206Y49508D01*
X-38206D01*
X-35726Y49834D01*
X-33415Y50792D01*
X-31431Y52315D01*
X-29908Y54299D01*
X-28951Y56610D01*
X-28624Y59090D01*
Y61456D01*
X-23958Y66122D01*
X-23958Y66122D01*
X-8718Y81362D01*
X2712Y92792D01*
X3154Y93454D01*
X3309Y94234D01*
Y107105D01*
X5417Y109213D01*
X6810D01*
X7714Y108330D01*
X7714Y107943D01*
Y99060D01*
X22794D01*
Y107654D01*
X24064Y108180D01*
X27933Y104311D01*
Y87884D01*
X27933Y87884D01*
X28088Y87104D01*
X28530Y86442D01*
X33864Y81108D01*
X34526Y80666D01*
X35306Y80511D01*
X39358D01*
Y77086D01*
X34426D01*
Y66086D01*
X51426D01*
Y77086D01*
X46495D01*
Y80511D01*
X68087Y80511D01*
X68867Y80666D01*
X69528Y81108D01*
X84233Y95813D01*
X84446Y96131D01*
X84663Y96445D01*
X85539Y98470D01*
X85620Y98844D01*
X85706Y99216D01*
X85776Y101422D01*
X85713Y101799D01*
X85656Y102177D01*
X84909Y104254D01*
X84713Y104581D01*
X84521Y104911D01*
X65306Y126720D01*
X65255Y126759D01*
X65218Y126814D01*
X64940Y127000D01*
X64674Y127203D01*
X64611Y127219D01*
X64557Y127256D01*
X64229Y127321D01*
X63905Y127407D01*
X63840Y127398D01*
X63776Y127411D01*
X37487Y127411D01*
X26352Y138546D01*
X25691Y138988D01*
X24910Y139143D01*
X-10451D01*
X-10451Y139143D01*
D02*
G37*
G36*
X76052Y137167D02*
X73961Y136910D01*
X72008Y136120D01*
X70326Y134852D01*
X69030Y133191D01*
X68208Y131252D01*
X67915Y129166D01*
X68173Y127076D01*
X68963Y125123D01*
X70231Y123441D01*
X71891Y122145D01*
X73830Y121322D01*
X75917Y121030D01*
X78007Y121287D01*
X79960Y122077D01*
X81642Y123345D01*
X82938Y125006D01*
X83760Y126945D01*
X84053Y129031D01*
X83795Y131122D01*
X83006Y133074D01*
X81737Y134756D01*
X80077Y136053D01*
X78138Y136875D01*
X76052Y137167D01*
D02*
G37*
G36*
X93841Y124131D02*
X91791Y123646D01*
X89937Y122647D01*
X88404Y121202D01*
X87297Y119410D01*
X86692Y117392D01*
X86630Y115286D01*
X87115Y113237D01*
X88114Y111382D01*
X89559Y109849D01*
X91351Y108743D01*
X93369Y108138D01*
X95475Y108076D01*
X97524Y108560D01*
X99379Y109559D01*
X100912Y111004D01*
X102018Y112797D01*
X102623Y114815D01*
X102685Y116920D01*
X102200Y118970D01*
X101201Y120824D01*
X99756Y122357D01*
X97964Y123464D01*
X95946Y124069D01*
X93841Y124131D01*
D02*
G37*
G36*
X-93862Y124114D02*
X-95968Y124052D01*
X-97986Y123447D01*
X-99778Y122340D01*
X-101222Y120807D01*
X-102221Y118952D01*
X-102706Y116902D01*
X-102643Y114796D01*
X-102038Y112779D01*
X-100931Y110987D01*
X-99398Y109542D01*
X-97543Y108544D01*
X-95493Y108059D01*
X-93388Y108121D01*
X-91370Y108727D01*
X-89578Y109834D01*
X-88133Y111367D01*
X-87135Y113221D01*
X-86650Y115271D01*
X-86713Y117377D01*
X-87318Y119394D01*
X-88425Y121187D01*
X-89958Y122631D01*
X-91813Y123630D01*
X-93862Y124114D01*
D02*
G37*
G36*
X111705Y108623D02*
X109605Y108454D01*
X107621Y107747D01*
X105887Y106551D01*
X104522Y104947D01*
X103618Y103044D01*
X103238Y100972D01*
X103407Y98872D01*
X104113Y96888D01*
X105309Y95154D01*
X106913Y93789D01*
X108816Y92886D01*
X110888Y92505D01*
X112988Y92674D01*
X114972Y93381D01*
X116706Y94577D01*
X118071Y96181D01*
X118975Y98084D01*
X119355Y100156D01*
X119186Y102255D01*
X118479Y104240D01*
X117283Y105974D01*
X115679Y107339D01*
X113776Y108242D01*
X111705Y108623D01*
D02*
G37*
G36*
X-111575Y108469D02*
X-113647Y108089D01*
X-115549Y107185D01*
X-117153Y105819D01*
X-118349Y104085D01*
X-119056Y102100D01*
X-119224Y100001D01*
X-118843Y97929D01*
X-117940Y96026D01*
X-116574Y94423D01*
X-114840Y93227D01*
X-112856Y92520D01*
X-110756Y92352D01*
X-108684Y92732D01*
X-106781Y93636D01*
X-105177Y95002D01*
X-103982Y96736D01*
X-103275Y98720D01*
X-103107Y100820D01*
X-103487Y102892D01*
X-104391Y104795D01*
X-105757Y106398D01*
X-107491Y107594D01*
X-109475Y108301D01*
X-111575Y108469D01*
D02*
G37*
G36*
X22794Y96520D02*
X16524D01*
Y87250D01*
X22794D01*
Y96520D01*
D02*
G37*
G36*
X13984D02*
X7714D01*
Y87250D01*
X13984D01*
Y96520D01*
D02*
G37*
G36*
X102790Y91453D02*
X87851D01*
X86485Y91181D01*
X85327Y90407D01*
X74947Y80027D01*
X74173Y78869D01*
X73901Y77503D01*
Y77088D01*
X68970D01*
Y66088D01*
X85970D01*
Y77088D01*
X83761D01*
X83275Y78261D01*
X89329Y84315D01*
X101312D01*
X105711Y79917D01*
X106868Y79143D01*
X108234Y78872D01*
X117914D01*
X118337Y78000D01*
X119716Y76407D01*
X121460Y75226D01*
X123451Y74536D01*
X125552Y74385D01*
X127620Y74783D01*
X129515Y75703D01*
X131108Y77082D01*
X132289Y78826D01*
X132978Y80816D01*
X133129Y82917D01*
X132732Y84986D01*
X131812Y86881D01*
X130433Y88473D01*
X128689Y89655D01*
X126698Y90344D01*
X124597Y90495D01*
X122529Y90097D01*
X120634Y89177D01*
X119042Y87799D01*
X117860Y86054D01*
X117844Y86009D01*
X109712D01*
X105314Y90407D01*
X104156Y91181D01*
X102790Y91453D01*
D02*
G37*
G36*
X1270Y78669D02*
Y58420D01*
X21519D01*
X21228Y61373D01*
X19997Y65433D01*
X17996Y69175D01*
X15305Y72455D01*
X12025Y75146D01*
X8283Y77147D01*
X4223Y78378D01*
X1270Y78669D01*
D02*
G37*
G36*
X-1270D02*
X-4223Y78378D01*
X-8283Y77147D01*
X-12025Y75146D01*
X-15305Y72455D01*
X-17996Y69175D01*
X-19997Y65433D01*
X-21228Y61373D01*
X-21519Y58420D01*
X-1270D01*
Y78669D01*
D02*
G37*
G36*
X106798Y77342D02*
X89798D01*
Y66342D01*
X106798D01*
Y68273D01*
X108405D01*
X116653Y60026D01*
X117811Y59252D01*
X119177Y58980D01*
X128910D01*
X129906Y57397D01*
X131451Y55965D01*
X133314Y54982D01*
X135368Y54515D01*
X137473Y54595D01*
X139486Y55217D01*
X141268Y56339D01*
X142700Y57884D01*
X143683Y59747D01*
X144151Y61801D01*
X144071Y63906D01*
X143448Y65918D01*
X142326Y67701D01*
X140781Y69133D01*
X138918Y70116D01*
X136865Y70583D01*
X134760Y70503D01*
X132747Y69881D01*
X130964Y68759D01*
X129532Y67214D01*
X128954Y66118D01*
X120655D01*
X112407Y74365D01*
X111249Y75139D01*
X109884Y75411D01*
X106798D01*
Y77342D01*
D02*
G37*
G36*
X51426Y59586D02*
X34426D01*
Y48586D01*
X34426D01*
X34863Y47530D01*
X18813Y31479D01*
X18039Y30322D01*
X17767Y28956D01*
Y26572D01*
X11336D01*
Y12572D01*
X31336D01*
Y26572D01*
X25784D01*
X25269Y27842D01*
X45449Y48023D01*
X45826Y48586D01*
X51426D01*
Y59586D01*
D02*
G37*
G36*
X21519Y55880D02*
X1270D01*
Y35631D01*
X4223Y35922D01*
X8283Y37153D01*
X12025Y39153D01*
X15305Y41845D01*
X17996Y45125D01*
X19997Y48867D01*
X21228Y52927D01*
X21519Y55880D01*
D02*
G37*
G36*
X143882Y49283D02*
X141798Y48973D01*
X139866Y48134D01*
X138217Y46823D01*
X136963Y45131D01*
X136190Y43171D01*
X135951Y41079D01*
X136261Y38995D01*
X137100Y37063D01*
X138410Y35414D01*
X140103Y34160D01*
X142062Y33387D01*
X144155Y33147D01*
X146239Y33458D01*
X148171Y34296D01*
X149820Y35607D01*
X151074Y37299D01*
X151847Y39259D01*
X152086Y41352D01*
X151776Y43435D01*
X150937Y45367D01*
X149627Y47017D01*
X147934Y48270D01*
X145975Y49043D01*
X143882Y49283D01*
D02*
G37*
G36*
X-2644Y17750D02*
X-10414D01*
Y12980D01*
X-2644D01*
Y17750D01*
D02*
G37*
G36*
X147579Y26935D02*
X145542Y26398D01*
X143714Y25353D01*
X142218Y23869D01*
X141157Y22050D01*
X140604Y20017D01*
X140595Y17911D01*
X141131Y15874D01*
X142177Y14045D01*
X143660Y12550D01*
X145480Y11489D01*
X147512Y10935D01*
X149619Y10926D01*
X151656Y11463D01*
X153484Y12508D01*
X154980Y13992D01*
X156041Y15812D01*
X156594Y17844D01*
X156603Y19950D01*
X156067Y21987D01*
X155021Y23816D01*
X153538Y25312D01*
X151718Y26372D01*
X149686Y26926D01*
X147579Y26935D01*
D02*
G37*
G36*
X80200Y11639D02*
X77470D01*
Y1270D01*
X91672D01*
X91443Y3013D01*
X90280Y5820D01*
X88431Y8230D01*
X86020Y10080D01*
X83213Y11243D01*
X80200Y11639D01*
D02*
G37*
G36*
X74930D02*
X72200D01*
X69187Y11243D01*
X66380Y10080D01*
X63970Y8230D01*
X62120Y5820D01*
X60957Y3013D01*
X60728Y1270D01*
X74930D01*
Y11639D01*
D02*
G37*
G36*
X1270Y9455D02*
Y1270D01*
X9455D01*
X9294Y2490D01*
X8333Y4811D01*
X6804Y6804D01*
X4811Y8333D01*
X2490Y9294D01*
X1270Y9455D01*
D02*
G37*
G36*
X-2513Y10440D02*
X-10414D01*
Y5670D01*
X-9134D01*
X-8504Y4400D01*
X-9294Y2490D01*
X-9455Y1270D01*
X-1270D01*
Y9455D01*
X-1374Y9441D01*
X-2513Y10440D01*
D02*
G37*
G36*
X31876Y-2888D02*
X22606D01*
Y-9158D01*
X31876D01*
Y-2888D01*
D02*
G37*
G36*
X20066D02*
X10796D01*
Y-9158D01*
X20066D01*
Y-2888D01*
D02*
G37*
G36*
X9455Y-1270D02*
X1270D01*
Y-9455D01*
X2490Y-9294D01*
X4811Y-8333D01*
X6804Y-6804D01*
X8333Y-4811D01*
X9294Y-2490D01*
X9455Y-1270D01*
D02*
G37*
G36*
X-1270D02*
X-9455D01*
X-9294Y-2490D01*
X-8333Y-4811D01*
X-6804Y-6804D01*
X-4811Y-8333D01*
X-2490Y-9294D01*
X-1270Y-9455D01*
Y-1270D01*
D02*
G37*
G36*
X149956Y4276D02*
X147861Y4054D01*
X145896Y3297D01*
X144192Y2058D01*
X142868Y419D01*
X142013Y-1506D01*
X141685Y-3586D01*
X141908Y-5681D01*
X142664Y-7647D01*
X143904Y-9350D01*
X145542Y-10674D01*
X147467Y-11529D01*
X149548Y-11857D01*
X151643Y-11635D01*
X153608Y-10878D01*
X155311Y-9639D01*
X156636Y-8001D01*
X157491Y-6076D01*
X157818Y-3995D01*
X157596Y-1900D01*
X156840Y66D01*
X155600Y1769D01*
X153962Y3093D01*
X152037Y3948D01*
X149956Y4276D01*
D02*
G37*
G36*
X31876Y-11698D02*
X22606D01*
Y-17968D01*
X31876D01*
Y-11698D01*
D02*
G37*
G36*
X20066D02*
X10796D01*
Y-17968D01*
X20066D01*
Y-11698D01*
D02*
G37*
%LPD*%
G36*
X36642Y125372D02*
X63776Y125372D01*
X82261Y104391D01*
X82991Y103563D01*
X83738Y101487D01*
X83668Y99280D01*
X82791Y97255D01*
X82011Y96474D01*
X68087Y82550D01*
X35306Y82550D01*
X29972Y87884D01*
Y105156D01*
X23876Y111252D01*
X4572D01*
X1270Y107950D01*
Y94234D01*
X-10160Y82804D01*
X-25400Y67564D01*
X-32004Y60960D01*
X-37338Y60960D01*
X-90424Y71120D01*
Y99517D01*
X-64578Y125363D01*
X-22192D01*
X-10451Y137104D01*
X24910D01*
X36642Y125372D01*
D02*
G37*
%LPC*%
G36*
X-85090Y191599D02*
Y186440D01*
X-79931D01*
X-79988Y186877D01*
X-80647Y188468D01*
X-81696Y189834D01*
X-83062Y190883D01*
X-84653Y191542D01*
X-85090Y191599D01*
D02*
G37*
G36*
X-87630D02*
X-88067Y191542D01*
X-89658Y190883D01*
X-91024Y189834D01*
X-92073Y188468D01*
X-92732Y186877D01*
X-92789Y186440D01*
X-87630D01*
Y191599D01*
D02*
G37*
G36*
X-131064Y191595D02*
Y186436D01*
X-125905D01*
X-125962Y186873D01*
X-126621Y188464D01*
X-127670Y189830D01*
X-129036Y190879D01*
X-130627Y191538D01*
X-131064Y191595D01*
D02*
G37*
G36*
X-133604D02*
X-134041Y191538D01*
X-135632Y190879D01*
X-136998Y189830D01*
X-138047Y188464D01*
X-138706Y186873D01*
X-138763Y186436D01*
X-133604D01*
Y191595D01*
D02*
G37*
G36*
X-79931Y183900D02*
X-85090D01*
Y178741D01*
X-84653Y178798D01*
X-83062Y179457D01*
X-81696Y180506D01*
X-80647Y181872D01*
X-79988Y183463D01*
X-79931Y183900D01*
D02*
G37*
G36*
X-87630D02*
X-92789D01*
X-92732Y183463D01*
X-92073Y181872D01*
X-91024Y180506D01*
X-89658Y179457D01*
X-88067Y178798D01*
X-87630Y178741D01*
Y183900D01*
D02*
G37*
G36*
X-125905Y183896D02*
X-131064D01*
Y178737D01*
X-130627Y178794D01*
X-129036Y179453D01*
X-127670Y180502D01*
X-126621Y181868D01*
X-125962Y183459D01*
X-125905Y183896D01*
D02*
G37*
G36*
X-133604D02*
X-138763D01*
X-138706Y183459D01*
X-138047Y181868D01*
X-136998Y180502D01*
X-135632Y179453D01*
X-134041Y178794D01*
X-133604Y178737D01*
Y183896D01*
D02*
G37*
G36*
X124714Y175085D02*
Y169926D01*
X129873D01*
X129816Y170363D01*
X129157Y171954D01*
X128108Y173320D01*
X126742Y174369D01*
X125151Y175028D01*
X124714Y175085D01*
D02*
G37*
G36*
X122174D02*
X121737Y175028D01*
X120146Y174369D01*
X118780Y173320D01*
X117731Y171954D01*
X117072Y170363D01*
X117015Y169926D01*
X122174D01*
Y175085D01*
D02*
G37*
G36*
X129873Y167386D02*
X124714D01*
Y162227D01*
X125151Y162284D01*
X126742Y162943D01*
X128108Y163992D01*
X129157Y165358D01*
X129816Y166949D01*
X129873Y167386D01*
D02*
G37*
G36*
X122174D02*
X117015D01*
X117072Y166949D01*
X117731Y165358D01*
X118780Y163992D01*
X120146Y162943D01*
X121737Y162284D01*
X122174Y162227D01*
Y167386D01*
D02*
G37*
G36*
X195036Y144128D02*
X184766D01*
Y133858D01*
X195036D01*
Y144128D01*
D02*
G37*
G36*
X182226D02*
X171956D01*
Y133858D01*
X182226D01*
Y144128D01*
D02*
G37*
G36*
X154432Y130556D02*
Y125397D01*
X159591D01*
X159534Y125834D01*
X158875Y127425D01*
X157826Y128791D01*
X156460Y129839D01*
X154869Y130498D01*
X154432Y130556D01*
D02*
G37*
G36*
X151892D02*
X151455Y130498D01*
X149864Y129839D01*
X148498Y128791D01*
X147449Y127425D01*
X146790Y125834D01*
X146733Y125397D01*
X151892D01*
Y130556D01*
D02*
G37*
G36*
X195036Y131318D02*
X184766D01*
Y121048D01*
X195036D01*
Y131318D01*
D02*
G37*
G36*
X182226D02*
X171956D01*
Y121048D01*
X182226D01*
Y131318D01*
D02*
G37*
G36*
X159591Y122857D02*
X154432D01*
Y117698D01*
X154869Y117755D01*
X156460Y118414D01*
X157826Y119462D01*
X158875Y120829D01*
X159534Y122420D01*
X159591Y122857D01*
D02*
G37*
G36*
X151892D02*
X146733D01*
X146790Y122420D01*
X147449Y120829D01*
X148498Y119462D01*
X149864Y118414D01*
X151455Y117755D01*
X151892Y117698D01*
Y122857D01*
D02*
G37*
G36*
X183496Y118283D02*
X180624Y117905D01*
X177949Y116797D01*
X175651Y115033D01*
X173888Y112736D01*
X172779Y110060D01*
X172401Y107188D01*
X172779Y104317D01*
X173888Y101641D01*
X175651Y99343D01*
X177949Y97580D01*
X180624Y96471D01*
X183496Y96093D01*
X186368Y96471D01*
X189043Y97580D01*
X191341Y99343D01*
X193104Y101641D01*
X194213Y104317D01*
X194591Y107188D01*
X194213Y110060D01*
X193104Y112736D01*
X191341Y115033D01*
X189043Y116797D01*
X186368Y117905D01*
X183496Y118283D01*
D02*
G37*
G36*
X-177150Y105061D02*
X-182880D01*
Y93726D01*
X-169545D01*
Y97456D01*
X-169804Y99424D01*
X-170564Y101259D01*
X-171772Y102834D01*
X-173347Y104042D01*
X-175182Y104802D01*
X-177150Y105061D01*
D02*
G37*
G36*
X-185420D02*
X-191150D01*
X-193118Y104802D01*
X-194953Y104042D01*
X-196528Y102834D01*
X-197736Y101259D01*
X-198496Y99424D01*
X-198755Y97456D01*
Y93726D01*
X-185420D01*
Y105061D01*
D02*
G37*
G36*
X-169545Y91186D02*
X-182880D01*
Y79851D01*
X-177150D01*
X-175182Y80110D01*
X-173347Y80870D01*
X-171772Y82078D01*
X-170564Y83653D01*
X-169804Y85488D01*
X-169545Y87456D01*
Y91186D01*
D02*
G37*
G36*
X-185420D02*
X-198755D01*
Y87456D01*
X-198496Y85488D01*
X-197736Y83653D01*
X-196528Y82078D01*
X-194953Y80870D01*
X-193118Y80110D01*
X-191150Y79851D01*
X-185420D01*
Y91186D01*
D02*
G37*
G36*
X183496Y92883D02*
X180625Y92505D01*
X177949Y91397D01*
X175651Y89633D01*
X173888Y87336D01*
X172779Y84660D01*
X172401Y81788D01*
X172779Y78917D01*
X173888Y76241D01*
X175651Y73943D01*
X177949Y72180D01*
X180625Y71071D01*
X183496Y70693D01*
X186368Y71071D01*
X189044Y72180D01*
X191341Y73943D01*
X193104Y76241D01*
X194213Y78917D01*
X194591Y81788D01*
X194213Y84660D01*
X193104Y87336D01*
X191341Y89633D01*
X189044Y91397D01*
X186368Y92505D01*
X183496Y92883D01*
D02*
G37*
G36*
X-149957Y4250D02*
X-152038Y3922D01*
X-153962Y3066D01*
X-155601Y1742D01*
X-156840Y38D01*
X-157596Y-1928D01*
X-157818Y-4022D01*
X-157490Y-6103D01*
X-156634Y-8028D01*
X-155310Y-9666D01*
X-153606Y-10905D01*
X-151640Y-11661D01*
X-149546Y-11883D01*
X-147465Y-11555D01*
X-145540Y-10700D01*
X-143902Y-9375D01*
X-142663Y-7672D01*
X-141906Y-5706D01*
X-141685Y-3611D01*
X-142013Y-1530D01*
X-142868Y395D01*
X-144193Y2032D01*
X-145896Y3272D01*
X-147862Y4028D01*
X-149957Y4250D01*
D02*
G37*
G36*
X-145823Y104448D02*
X-147924Y104297D01*
X-149915Y103607D01*
X-151658Y102425D01*
X-153037Y100833D01*
X-153956Y98937D01*
X-154354Y96869D01*
X-154203Y94768D01*
X-153752Y93468D01*
X-160671Y80999D01*
X-162012Y80693D01*
X-163875Y79710D01*
X-165420Y78278D01*
X-166541Y76495D01*
X-167163Y74482D01*
X-167243Y72377D01*
X-166775Y70324D01*
X-166133Y69107D01*
X-171084Y55734D01*
X-172363Y55229D01*
X-174056Y53974D01*
X-175366Y52325D01*
X-176205Y50393D01*
X-176514Y48309D01*
X-176275Y46217D01*
X-175501Y44257D01*
X-174682Y43152D01*
X-177551Y29183D01*
X-178739Y28490D01*
X-180222Y26994D01*
X-181267Y25165D01*
X-181804Y23128D01*
X-181794Y21022D01*
X-181241Y18990D01*
X-180179Y17170D01*
X-179202Y16202D01*
X-179923Y1959D01*
X-180992Y1094D01*
X-182232Y-609D01*
X-182988Y-2575D01*
X-183209Y-4669D01*
X-182881Y-6750D01*
X-182026Y-8675D01*
X-180702Y-10313D01*
X-179589Y-11122D01*
X-178144Y-25310D01*
X-179071Y-26326D01*
X-180038Y-28198D01*
X-180488Y-30256D01*
X-180389Y-32360D01*
X-179750Y-34367D01*
X-178613Y-36140D01*
X-177056Y-37558D01*
X-175184Y-38526D01*
X-173127Y-38975D01*
X-171022Y-38877D01*
X-169016Y-38238D01*
X-167242Y-37101D01*
X-165824Y-35543D01*
X-164857Y-33672D01*
X-164407Y-31614D01*
X-164505Y-29510D01*
X-165144Y-27503D01*
X-166282Y-25730D01*
X-167839Y-24311D01*
X-168006Y-24225D01*
X-169441Y-10141D01*
X-169294Y-10022D01*
X-168055Y-8319D01*
X-167298Y-6353D01*
X-167077Y-4258D01*
X-167405Y-2178D01*
X-168260Y-253D01*
X-169585Y1385D01*
X-169737Y1496D01*
X-169022Y15635D01*
X-168859Y15730D01*
X-167376Y17226D01*
X-166331Y19055D01*
X-165795Y21092D01*
X-165804Y23198D01*
X-166358Y25231D01*
X-167419Y27050D01*
X-167553Y27183D01*
X-164705Y41050D01*
X-164530Y41119D01*
X-162837Y42374D01*
X-161527Y44023D01*
X-160689Y45955D01*
X-160379Y48039D01*
X-160619Y50132D01*
X-161392Y52091D01*
X-161504Y52242D01*
X-156589Y65519D01*
X-156405Y65560D01*
X-154543Y66544D01*
X-152998Y67976D01*
X-151876Y69759D01*
X-151255Y71772D01*
X-151175Y73877D01*
X-151643Y75930D01*
X-151731Y76097D01*
X-144862Y88476D01*
X-144674Y88490D01*
X-142683Y89179D01*
X-140940Y90361D01*
X-139561Y91954D01*
X-138642Y93849D01*
X-138244Y95917D01*
X-138395Y98018D01*
X-139085Y100009D01*
X-140267Y101752D01*
X-141860Y103131D01*
X-143755Y104051D01*
X-145823Y104448D01*
D02*
G37*
G36*
X201540Y-43000D02*
X192270D01*
Y-49270D01*
X201540D01*
Y-43000D01*
D02*
G37*
G36*
X189730D02*
X180460D01*
Y-49270D01*
X189730D01*
Y-43000D01*
D02*
G37*
G36*
X-142287Y-40423D02*
X-144352Y-40838D01*
X-146239Y-41774D01*
X-147819Y-43167D01*
X-148986Y-44921D01*
X-149658Y-46917D01*
X-149791Y-49019D01*
X-149375Y-51084D01*
X-148440Y-52971D01*
X-147047Y-54552D01*
X-145293Y-55718D01*
X-143297Y-56391D01*
X-141194Y-56524D01*
X-139129Y-56108D01*
X-137242Y-55172D01*
X-135662Y-53780D01*
X-134496Y-52026D01*
X-133823Y-50030D01*
X-133690Y-47927D01*
X-134106Y-45862D01*
X-135042Y-43975D01*
X-136434Y-42395D01*
X-138188Y-41228D01*
X-140184Y-40556D01*
X-142287Y-40423D01*
D02*
G37*
G36*
X201540Y-51810D02*
X192270D01*
Y-58080D01*
X201540D01*
Y-51810D01*
D02*
G37*
G36*
X189730D02*
X180460D01*
Y-58080D01*
X189730D01*
Y-51810D01*
D02*
G37*
G36*
X-39076Y14253D02*
X-41556D01*
X-44010Y13765D01*
X-46091Y12375D01*
X-47481Y10294D01*
X-47969Y7840D01*
Y2860D01*
X-39076D01*
Y14253D01*
D02*
G37*
G36*
Y320D02*
X-47969D01*
Y-4660D01*
X-47481Y-7114D01*
X-46091Y-9195D01*
X-44010Y-10585D01*
X-41556Y-11073D01*
X-39076D01*
Y320D01*
D02*
G37*
G36*
X-66850Y-12752D02*
X-68580D01*
Y-24130D01*
X-54369D01*
X-54633Y-22126D01*
X-55896Y-19076D01*
X-57906Y-16456D01*
X-60526Y-14446D01*
X-63576Y-13183D01*
X-66850Y-12752D01*
D02*
G37*
G36*
X4064Y-141320D02*
Y-146090D01*
X11834D01*
Y-141320D01*
X4064D01*
D02*
G37*
G36*
X43180Y-147278D02*
Y-157480D01*
X53382D01*
X53153Y-155737D01*
X51990Y-152930D01*
X50140Y-150520D01*
X47730Y-148670D01*
X44922Y-147507D01*
X43180Y-147278D01*
D02*
G37*
G36*
X40640D02*
X38897Y-147507D01*
X36090Y-148670D01*
X33680Y-150520D01*
X31830Y-152930D01*
X30667Y-155737D01*
X30438Y-157480D01*
X40640D01*
Y-147278D01*
D02*
G37*
G36*
Y-160020D02*
X30438D01*
X30667Y-161763D01*
X31032Y-162643D01*
X30060Y-163615D01*
X29400Y-163342D01*
X28702Y-163250D01*
Y-169418D01*
X35029D01*
X36072Y-168816D01*
X36090Y-168830D01*
X38897Y-169993D01*
X40640Y-170222D01*
Y-160020D01*
D02*
G37*
G36*
X53382D02*
X43180D01*
Y-170222D01*
X44922Y-169993D01*
X47730Y-168830D01*
X50140Y-166980D01*
X51990Y-164570D01*
X53153Y-161763D01*
X53382Y-160020D01*
D02*
G37*
G36*
X-121920Y-171850D02*
X-127079D01*
X-127022Y-172287D01*
X-126363Y-173878D01*
X-125314Y-175244D01*
X-123948Y-176293D01*
X-122357Y-176952D01*
X-121920Y-177009D01*
Y-171850D01*
D02*
G37*
%LPD*%
D11*
X40132Y-57150D02*
Y26416D01*
X28138Y-69144D02*
X40132Y-57150D01*
X28138Y-84638D02*
Y-69144D01*
X98298Y48514D02*
Y54342D01*
X67804Y54088D02*
X77470D01*
X40132Y26416D02*
X67804Y54088D01*
X44958Y23622D02*
X62992Y41656D01*
X91440D02*
X98298Y48514D01*
X62992Y41656D02*
X91440D01*
X27432Y-85344D02*
X28138Y-84638D01*
X27940Y-101092D02*
X39370D01*
X54356Y-86106D01*
X44958Y-55372D02*
Y23622D01*
Y-55372D02*
X54356Y-64770D01*
Y-86106D02*
Y-64770D01*
D33*
X2794Y-164860D02*
X3810Y-165876D01*
Y-170688D02*
Y-165876D01*
X-36068Y-140462D02*
Y-124702D01*
X-45708Y-115062D02*
X-36068Y-124702D01*
X-47912Y-139540D02*
X-38100Y-149352D01*
X-47912Y-139540D02*
Y-123464D01*
X135749Y-85519D02*
X137019D01*
X130682D02*
X135749D01*
X118822Y-73660D02*
X130682Y-85519D01*
X118110Y-73660D02*
X118822D01*
X152423Y-99608D02*
X174244D01*
X132778Y-69355D02*
X142886Y-79464D01*
Y-90071D02*
Y-79464D01*
Y-90071D02*
X152423Y-99608D01*
X13716Y-103632D02*
X24392Y-92956D01*
X-21783Y-103632D02*
X13716D01*
X-35560Y-89855D02*
X-21783Y-103632D01*
X68580Y-133350D02*
X97249D01*
X49570Y-114340D02*
X68580Y-133350D01*
X2794Y-114340D02*
X49570D01*
X192786Y-118070D02*
Y-111252D01*
X64770Y-138430D02*
X130585D01*
X56642Y-130302D02*
X64770Y-138430D01*
X37338Y-130302D02*
X56642D01*
X97249Y-133350D02*
X105925Y-124674D01*
X-38100Y-165354D02*
Y-149352D01*
X-45212Y-172466D02*
X-38100Y-165354D01*
X-64770Y-172466D02*
X-45212D01*
X-67818Y-169418D02*
X-64770Y-172466D01*
X-71374Y-169418D02*
X-67818D01*
X-28448Y-150211D02*
Y-125251D01*
X-43717Y-109982D02*
X-28448Y-125251D01*
X-22860Y-27178D02*
Y28194D01*
X-28956Y34290D02*
X-22860Y28194D01*
X-60960Y34290D02*
X-28956D01*
X-69850Y25400D02*
X-60960Y34290D01*
X-7112Y-96012D02*
X29485Y-59415D01*
Y-34544D01*
X38403Y-176784D02*
X118110D01*
X-98298Y-27218D02*
Y8636D01*
X-125089Y35427D02*
X-98298Y8636D01*
X-125089Y35427D02*
Y82418D01*
X-109982Y5294D02*
Y10414D01*
X-134526Y34958D02*
X-109982Y10414D01*
X-134526Y34958D02*
Y60924D01*
X-121158Y-24946D02*
X-115316Y-30788D01*
X-121158Y-24946D02*
Y11425D01*
X-144026Y34292D02*
X-121158Y11425D01*
X-144026Y34292D02*
Y41190D01*
X-35560Y-39878D02*
X-22860Y-27178D01*
X-112730Y41864D02*
X-90238Y19372D01*
X-105664Y-62008D02*
Y-12206D01*
X-20708Y-167012D02*
Y-125919D01*
X-35814Y-182118D02*
X-20708Y-167012D01*
X-15708Y-173442D02*
Y-123848D01*
X-24638Y-182372D02*
X-15708Y-173442D01*
X-82550Y-138684D02*
X-57658D01*
X-85598Y-135636D02*
X-82550Y-138684D01*
X-85598Y-135636D02*
Y-129326D01*
X-66802Y-123444D02*
X-57912D01*
X-113792Y-76454D02*
X-66802Y-123444D01*
X87851Y87884D02*
X102790D01*
X77470Y77503D02*
X87851Y87884D01*
X77470Y71588D02*
Y77503D01*
X-184150Y131826D02*
X-161061D01*
X-112730Y83495D01*
Y41864D02*
Y83495D01*
X-136127Y62525D02*
X-134526Y60924D01*
X104784Y-59817D02*
X124216Y-40385D01*
X137514Y-26424D02*
X147451D01*
X130901Y-19812D02*
X137514Y-26424D01*
X105311Y-19812D02*
X130901D01*
X101854Y-23269D02*
X105311Y-19812D01*
X101854Y-28408D02*
Y-23269D01*
X99862Y-12900D02*
X101854Y-10908D01*
X64316Y-12900D02*
X99862D01*
X104784Y-82418D02*
Y-59817D01*
X151386Y-16924D02*
X156951Y-22489D01*
Y-31665D02*
Y-22489D01*
X141749Y-46867D02*
X156951Y-31665D01*
X141749Y-48449D02*
Y-46867D01*
X98298Y71842D02*
X109884D01*
X55118Y25400D02*
X76200D01*
X50038Y20320D02*
X55118Y25400D01*
X119177Y62549D02*
X136116D01*
X109884Y71842D02*
X119177Y62549D01*
X102790Y87884D02*
X108234Y82440D01*
X125075D01*
X-120728Y-109843D02*
Y-88684D01*
Y-109843D02*
X-106934Y-123637D01*
Y-129326D02*
Y-123637D01*
X-128623Y-54004D02*
X-67564Y-115062D01*
X-128623Y-54004D02*
Y-15885D01*
X-117348Y-57395D02*
X-64761Y-109982D01*
X-105664Y-62008D02*
X-63278Y-104394D01*
X-153055Y-99608D02*
X-132765Y-79318D01*
X-172466Y-99608D02*
X-153055D01*
X-132765Y-79318D02*
Y-69378D01*
X-132230Y-12277D02*
X-128623Y-15885D01*
X-149730Y-26450D02*
X-147446D01*
X-137953Y18905D02*
X-132676Y13628D01*
X-148602Y18905D02*
X-137953D01*
X-132676Y5217D02*
Y13628D01*
X-109982Y-12206D02*
X-105664D01*
X-117348Y-57395D02*
Y-48274D01*
X-22606Y-65532D02*
Y-46482D01*
X89916Y-119634D02*
Y-97286D01*
X104784Y-82418D01*
X105925Y-124674D02*
Y-105925D01*
X-7874Y-31750D02*
X-6858D01*
X-22606Y-46482D02*
X-7874Y-31750D01*
X-1141Y-24250D02*
X8954Y-34345D01*
X-22606Y-65532D02*
X-16510Y-71628D01*
X-29972Y-43434D02*
X-10788Y-24250D01*
X-1141D01*
X-98298Y-27218D02*
X-94742Y-30774D01*
Y-39678D02*
Y-30774D01*
Y-57178D02*
X-94742Y-57178D01*
X-83606Y-9946D02*
Y1590D01*
X-89916Y-16256D02*
X-83606Y-9946D01*
X-89916Y-28529D02*
Y-16256D01*
X-60706Y-5080D02*
X-46736Y-19050D01*
X-60706Y-5080D02*
Y1590D01*
X-60946Y-73166D02*
X-51816D01*
X-70358Y-63754D02*
X-60946Y-73166D01*
X-46736Y-33782D02*
Y-19050D01*
X-89916Y-28529D02*
X-83312Y-35133D01*
X-66040Y-48260D02*
X-51816D01*
X124216Y-40385D02*
Y-28208D01*
X118110Y-176530D02*
Y-158750D01*
X32703Y-182485D02*
X38403Y-176784D01*
X-95916Y-136508D02*
Y-120904D01*
Y-136508D02*
X-85598Y-146826D01*
X-47306Y-183196D02*
X-46228Y-182118D01*
X-28448Y-150211D02*
X-28208Y-150451D01*
X-99060Y-117760D02*
X-95916Y-120904D01*
X-99060Y-117760D02*
Y-117602D01*
X-69088Y-182118D02*
X-46228D01*
X-75598Y-175608D02*
Y-175604D01*
Y-175608D02*
X-69088Y-182118D01*
X-80340Y-170862D02*
X-75598Y-175604D01*
X-85598Y-163054D02*
X-67070D01*
X-64262Y-165862D01*
X-10708Y-174712D02*
X-2935Y-182485D01*
X32703D01*
X-64262Y-165862D02*
X-49247D01*
X-43554Y-160169D02*
Y-153357D01*
X-50085Y-146826D02*
X-43554Y-153357D01*
X-51464Y-156054D02*
X-51054Y-156464D01*
X-49247Y-165862D02*
X-43554Y-160169D01*
X-85598Y-146826D02*
X-50085D01*
X-67564Y-115062D02*
X-45708D01*
X-64761Y-109982D02*
X-43717D01*
X-63278Y-104394D02*
X-42234D01*
X-38907Y-93579D02*
X-10708Y-121777D01*
X-35560Y-89855D02*
Y-39878D01*
X-40751Y-98806D02*
X-15708Y-123848D01*
X-42234Y-104394D02*
X-20708Y-125919D01*
X-10708Y-174712D02*
Y-121777D01*
X-145397Y-117108D02*
X-143379Y-119126D01*
X-172466Y-117108D02*
X-145397D01*
X-143379Y-119126D02*
X-141224D01*
X-191614Y-124108D02*
X-148221D01*
X-193802Y-99862D02*
Y-55923D01*
X-182799Y-44921D01*
X-165917D01*
X-147446Y-26450D01*
X24392Y-92956D02*
X37600D01*
X41910Y-88646D01*
Y-73660D01*
X143312Y-16924D02*
X151386D01*
X120647Y-11214D02*
X137601D01*
X143312Y-16924D01*
X21336Y19572D02*
Y28956D01*
X42926Y50546D01*
Y54086D01*
X50038Y-46228D02*
Y20320D01*
Y-46228D02*
X67310Y-63500D01*
Y-73660D02*
Y-63500D01*
X78994Y-120142D02*
Y-61214D01*
X76200Y-43942D02*
Y-25400D01*
Y-43942D02*
X92710Y-60452D01*
Y-73660D02*
Y-60452D01*
X55880Y-38100D02*
X78994Y-61214D01*
X55880Y-38100D02*
Y-21336D01*
X64316Y-12900D01*
X-119634Y-76454D02*
X-113792D01*
X-94742Y-65024D02*
Y-57178D01*
Y-65024D02*
X-60960Y-98806D01*
X-40751D01*
X-83312Y-67818D02*
Y-35133D01*
Y-67818D02*
X-57551Y-93579D01*
X-38907D01*
X-51816Y-47244D02*
X-35107Y-30535D01*
Y-20130D01*
X-51816Y-55666D02*
Y-48260D01*
Y-47244D01*
X-156718Y-131826D02*
X-147574D01*
X-108538Y-170862D01*
X-80340D01*
X-116275Y-156054D02*
X-51464D01*
X-148221Y-124108D02*
X-116275Y-156054D01*
X-193802Y-121920D02*
X-191614Y-124108D01*
X-193802Y-121920D02*
Y-117362D01*
X-29972Y-84836D02*
Y-43434D01*
Y-84836D02*
X-18796Y-96012D01*
X-69629Y-40386D02*
X-53340D01*
X-46736Y-33782D01*
X-76708Y-57404D02*
X-70358Y-63754D01*
X-76708Y-57404D02*
Y-47465D01*
X-69629Y-40386D01*
X42926Y71586D02*
Y87630D01*
X55118Y-140716D02*
X59182Y-144780D01*
X131306D01*
X158978Y-117108D01*
X16256Y-162814D02*
Y-151384D01*
X37338Y-130302D01*
X130585Y-138430D02*
X160557Y-108458D01*
X189992D01*
X192786Y-111252D01*
X158978Y-117108D02*
X174244D01*
X192024Y-99046D02*
Y-82564D01*
X190000Y-80540D02*
X192024Y-82564D01*
D34*
X2794Y-147360D02*
D03*
Y-164860D02*
D03*
X-11684Y11710D02*
D03*
Y29210D02*
D03*
X123190Y-28208D02*
D03*
X123190Y-10708D02*
D03*
X101854Y-10908D02*
D03*
X101854Y-28408D02*
D03*
X-106934Y-129326D02*
D03*
X-106934Y-146826D02*
D03*
X-172466Y-99608D02*
D03*
X-172466Y-117108D02*
D03*
X-193802Y-99862D02*
D03*
Y-117362D02*
D03*
X-85598Y-146826D02*
D03*
Y-129326D02*
D03*
X-132457Y5220D02*
D03*
X-132457Y-12280D02*
D03*
X-117348Y-30774D02*
D03*
X-117348Y-48274D02*
D03*
X-109982Y5294D02*
D03*
X-109982Y-12206D02*
D03*
X-94742Y-39678D02*
D03*
Y-57178D02*
D03*
X77470Y54088D02*
D03*
X77470Y71588D02*
D03*
X98298Y54342D02*
D03*
X98298Y71842D02*
D03*
X169164Y-116346D02*
D03*
X169164Y-98846D02*
D03*
X2794Y-131840D02*
D03*
Y-114340D02*
D03*
X-51816Y-55666D02*
D03*
X-51816Y-73166D02*
D03*
X-85598Y-163054D02*
D03*
Y-180554D02*
D03*
X42926Y71586D02*
D03*
X42926Y54086D02*
D03*
X192338Y-116036D02*
D03*
Y-98536D02*
D03*
D40*
X123885Y-123885D02*
X141217Y-103696D01*
X155291Y-81115D02*
X165784Y-56663D01*
X172453Y-30905D01*
X175144Y-4433D01*
X173795Y22140D02*
X175144Y-4433D01*
X168438Y48204D02*
X173795Y22140D01*
X159196Y73155D02*
X168438Y48204D01*
X146282Y96419D02*
X159196Y73155D01*
X130143Y117593D02*
X146282Y96419D01*
X111946Y135789D02*
X130143Y117593D01*
X110708Y135789D02*
X111946D01*
X88868Y150988D02*
X110708Y135789D01*
X64978Y162705D02*
X88868Y150988D01*
X39590Y170668D02*
X64978Y162705D01*
X13289Y174695D02*
X39590Y170668D01*
X-13334Y174892D02*
X13289Y174695D01*
X-175143Y-4464D02*
X-172447Y-30935D01*
X-39665Y170856D02*
X-13334Y174892D01*
X-65081Y162879D02*
X-39665Y170856D01*
X-88996Y151145D02*
X-65081Y162879D01*
X-110731Y135770D02*
X-88996Y151145D01*
X-130015Y117436D02*
X-110731Y135770D01*
X-159209Y73127D02*
X-146299Y96393D01*
X-168447Y48174D02*
X-159209Y73127D01*
X-173799Y22110D02*
X-168447Y48174D01*
X-175143Y-4464D02*
X-173799Y22110D01*
X-165774Y-56693D02*
X-155277Y-81142D01*
D43*
X144018Y41215D02*
D03*
X168438Y48204D02*
D03*
X148599Y18930D02*
D03*
X173795Y22140D02*
D03*
X149752Y-3791D02*
D03*
X175144Y-4433D02*
D03*
X147451Y-26424D02*
D03*
X172453Y-30905D02*
D03*
X141749Y-48449D02*
D03*
X165784Y-56663D02*
D03*
X155291Y-81115D02*
D03*
X141217Y-103696D02*
D03*
X105925Y-105925D02*
D03*
X123885Y-123885D02*
D03*
X11362Y149368D02*
D03*
X13289Y174695D02*
D03*
X33851Y145925D02*
D03*
X39590Y170668D02*
D03*
X55558Y139116D02*
D03*
X64978Y162705D02*
D03*
X75984Y129099D02*
D03*
X88868Y150988D02*
D03*
X94658Y116103D02*
D03*
X110708Y135789D02*
D03*
X111296Y100564D02*
D03*
X130143Y117593D02*
D03*
X125075Y82440D02*
D03*
X146282Y96419D02*
D03*
X136116Y62549D02*
D03*
X159196Y73155D02*
D03*
X-175143Y-4464D02*
D03*
X-149751Y-3817D02*
D03*
X-165774Y-56693D02*
D03*
X-141741Y-48473D02*
D03*
X-155277Y-81142D02*
D03*
X-132765Y-69378D02*
D03*
X-141199Y-103721D02*
D03*
X-120728Y-88684D02*
D03*
X-124208Y-123550D02*
D03*
X-105602Y-106260D02*
D03*
X-172447Y-30935D02*
D03*
X-147446Y-26450D02*
D03*
X-168447Y48174D02*
D03*
X-144026Y41190D02*
D03*
X-173799Y22110D02*
D03*
X-148602Y18905D02*
D03*
X-13334Y174892D02*
D03*
X-11403Y149566D02*
D03*
X-39665Y170856D02*
D03*
X-33921Y146114D02*
D03*
X-65081Y162879D02*
D03*
X-55656Y139292D02*
D03*
X-88996Y151145D02*
D03*
X-76108Y129258D02*
D03*
X-110731Y135770D02*
D03*
X-94678Y116087D02*
D03*
X-130015Y117436D02*
D03*
X-111165Y100410D02*
D03*
X-146299Y96393D02*
D03*
X-125089Y82418D02*
D03*
X-159209Y73127D02*
D03*
X-136127Y62525D02*
D03*
D44*
X132778Y-69355D02*
D03*
X120744Y-88663D02*
D03*
D45*
X0Y0D02*
D03*
D46*
X0Y57150D02*
D03*
D47*
X0Y-57150D02*
D03*
D48*
X76200Y-25400D02*
D03*
X76200Y0D02*
D03*
D49*
X76200Y25400D02*
D03*
X-69850Y-25400D02*
D03*
D50*
X-69850Y25400D02*
D03*
D51*
X-180000Y180000D02*
D03*
X180000D02*
D03*
Y-160000D02*
D03*
X-180000D02*
D03*
D52*
X41910Y-158750D02*
D03*
X67310D02*
D03*
X92710Y-158750D02*
D03*
X183496Y107188D02*
D03*
X183496Y81788D02*
D03*
D53*
X118110Y-158750D02*
D03*
D54*
X41910Y-73660D02*
D03*
X67310Y-73660D02*
D03*
X92710Y-73660D02*
D03*
D55*
X118110Y-73660D02*
D03*
X183496Y56388D02*
D03*
D56*
X183496Y132588D02*
D03*
D57*
X-1016Y-131064D02*
D03*
X3810Y-170688D02*
D03*
X-36068Y-140462D02*
D03*
X135749Y-85519D02*
D03*
X-36322Y2032D02*
D03*
X-184150Y92456D02*
D03*
X27940Y-101092D02*
D03*
X-7112Y-96012D02*
D03*
X-18796D02*
D03*
X27432Y-85344D02*
D03*
X8954Y-34345D02*
D03*
X-119634Y-76454D02*
D03*
X-57912Y-123444D02*
D03*
X-57658Y-138684D02*
D03*
X-35814Y-182118D02*
D03*
X89916Y-120400D02*
D03*
X78994Y-120142D02*
D03*
X55118Y-140716D02*
D03*
X-6858Y-31750D02*
D03*
X-16510Y-71628D02*
D03*
X-35107Y-20130D02*
D03*
X-66040Y-48260D02*
D03*
X-112268Y-146812D02*
D03*
X-120650Y-170580D02*
D03*
X-46228Y-182118D02*
D03*
X-24638Y-182372D02*
D03*
X-28208Y-150451D02*
D03*
X-99060Y-117602D02*
D03*
X-71374Y-169418D02*
D03*
X-51054Y-156464D02*
D03*
X-47912Y-123464D02*
D03*
X-132334Y185166D02*
D03*
X-86360Y185170D02*
D03*
X-182372Y-108204D02*
D03*
X-141224Y-119126D02*
D03*
X-156718Y-131826D02*
D03*
X29485Y-34544D02*
D03*
X123444Y168656D02*
D03*
X153162Y124127D02*
D03*
X16256Y-162814D02*
D03*
D58*
X-70358Y-63754D02*
D03*
X27432Y-170688D02*
D03*
X118110Y-176530D02*
D03*
D59*
X-184150Y131826D02*
D03*
Y92456D02*
D03*
D60*
X-60706Y66590D02*
D03*
D61*
X-60706Y1590D02*
D03*
X-37806Y1590D02*
D03*
X-83606Y1590D02*
D03*
D62*
X15254Y97790D02*
D03*
X-14746D02*
D03*
D63*
X21336Y-10428D02*
D03*
X21336Y19572D02*
D03*
X191000Y-50539D02*
D03*
Y-80540D02*
D03*
D64*
X-24638Y42164D02*
X-11684Y29210D01*
X-80264Y42164D02*
X-24638D01*
X-90238Y8222D02*
Y19372D01*
Y32190D01*
Y8222D02*
X-83606Y1590D01*
X-90238Y32190D02*
X-80264Y42164D01*
M02*
