G04*
G04 #@! TF.GenerationSoftware,Altium Limited,Altium Designer,21.8.1 (53)*
G04*
G04 Layer_Color=65535*
%FSLAX44Y44*%
%MOMM*%
G71*
G04*
G04 #@! TF.SameCoordinates,A6134195-47DE-4A90-8313-BABE1660A9E3*
G04*
G04*
G04 #@! TF.FilePolarity,Positive*
G04*
G01*
G75*
%ADD18C,0.2540*%
%ADD43C,0.2000*%
D18*
X284456Y59282D02*
X283123Y57949D01*
Y55283D01*
X284456Y53950D01*
X285788D01*
X287121Y55283D01*
Y57949D01*
X288454Y59282D01*
X289787D01*
X291120Y57949D01*
Y55283D01*
X289787Y53950D01*
X283123Y61947D02*
X291120D01*
Y65946D01*
X289787Y67279D01*
X284456D01*
X283123Y65946D01*
Y61947D01*
X291120Y69945D02*
X285788D01*
X283123Y72611D01*
X285788Y75276D01*
X291120D01*
X287121D01*
Y69945D01*
X310364Y60044D02*
X309031Y58711D01*
Y56045D01*
X310364Y54712D01*
X311696D01*
X313029Y56045D01*
Y58711D01*
X314362Y60044D01*
X315695D01*
X317028Y58711D01*
Y56045D01*
X315695Y54712D01*
X310364Y68041D02*
X309031Y66708D01*
Y64042D01*
X310364Y62709D01*
X315695D01*
X317028Y64042D01*
Y66708D01*
X315695Y68041D01*
X309031Y70707D02*
X317028D01*
Y76038D01*
X95920Y132998D02*
X102585D01*
X99253Y136331D02*
Y129666D01*
X105917Y136331D02*
X107583Y137997D01*
X110915D01*
X112582Y136331D01*
Y134664D01*
X110915Y132998D01*
X109249D01*
X110915D01*
X112582Y131332D01*
Y129666D01*
X110915Y128000D01*
X107583D01*
X105917Y129666D01*
X115914Y128000D02*
Y129666D01*
X117580D01*
Y128000D01*
X115914D01*
X124244Y136331D02*
X125911Y137997D01*
X129243D01*
X130909Y136331D01*
Y134664D01*
X129243Y132998D01*
X127577D01*
X129243D01*
X130909Y131332D01*
Y129666D01*
X129243Y128000D01*
X125911D01*
X124244Y129666D01*
X134241Y137997D02*
Y131332D01*
X137573Y128000D01*
X140906Y131332D01*
Y137997D01*
X343444Y23388D02*
X350109D01*
X346776Y26721D02*
Y20056D01*
X360105Y28387D02*
X353441D01*
Y23388D01*
X356773Y25055D01*
X358439D01*
X360105Y23388D01*
Y20056D01*
X358439Y18390D01*
X355107D01*
X353441Y20056D01*
X363438Y28387D02*
Y21722D01*
X366770Y18390D01*
X370102Y21722D01*
Y28387D01*
X258405Y62646D02*
X256739Y60980D01*
Y57648D01*
X258405Y55982D01*
X265070D01*
X266736Y57648D01*
Y60980D01*
X265070Y62646D01*
X261738D01*
Y59314D01*
X266736Y65979D02*
X256739D01*
X266736Y72643D01*
X256739D01*
Y75976D02*
X266736D01*
Y80974D01*
X265070Y82640D01*
X258405D01*
X256739Y80974D01*
Y75976D01*
X258100Y109159D02*
X261432D01*
X259766D01*
Y99162D01*
X258100D01*
X261432D01*
X273095Y107493D02*
X271429Y109159D01*
X268097D01*
X266431Y107493D01*
Y100828D01*
X268097Y99162D01*
X271429D01*
X273095Y100828D01*
X283092Y99162D02*
X276427D01*
X283092Y105827D01*
Y107493D01*
X281426Y109159D01*
X278094D01*
X276427Y107493D01*
X97000Y147000D02*
Y156997D01*
X101998D01*
X103665Y155331D01*
Y151998D01*
X101998Y150332D01*
X97000D01*
X100332D02*
X103665Y147000D01*
X106997Y155331D02*
X108663Y156997D01*
X111995D01*
X113661Y155331D01*
Y153665D01*
X111995Y151998D01*
X110329D01*
X111995D01*
X113661Y150332D01*
Y148666D01*
X111995Y147000D01*
X108663D01*
X106997Y148666D01*
X123658Y156997D02*
X120326Y155331D01*
X116994Y151998D01*
Y148666D01*
X118660Y147000D01*
X121992D01*
X123658Y148666D01*
Y150332D01*
X121992Y151998D01*
X116994D01*
X844456Y59282D02*
X843123Y57949D01*
Y55283D01*
X844456Y53950D01*
X845789D01*
X847121Y55283D01*
Y57949D01*
X848454Y59282D01*
X849787D01*
X851120Y57949D01*
Y55283D01*
X849787Y53950D01*
X843123Y61947D02*
X851120D01*
Y65946D01*
X849787Y67279D01*
X844456D01*
X843123Y65946D01*
Y61947D01*
X851120Y69945D02*
X845789D01*
X843123Y72611D01*
X845789Y75276D01*
X851120D01*
X847121D01*
Y69945D01*
X870364Y60044D02*
X869031Y58711D01*
Y56045D01*
X870364Y54712D01*
X871697D01*
X873029Y56045D01*
Y58711D01*
X874362Y60044D01*
X875695D01*
X877028Y58711D01*
Y56045D01*
X875695Y54712D01*
X870364Y68041D02*
X869031Y66708D01*
Y64042D01*
X870364Y62709D01*
X875695D01*
X877028Y64042D01*
Y66708D01*
X875695Y68041D01*
X869031Y70707D02*
X877028D01*
Y76038D01*
X655920Y132998D02*
X662585D01*
X659253Y136331D02*
Y129666D01*
X665917Y136331D02*
X667583Y137997D01*
X670916D01*
X672582Y136331D01*
Y134664D01*
X670916Y132998D01*
X669249D01*
X670916D01*
X672582Y131332D01*
Y129666D01*
X670916Y128000D01*
X667583D01*
X665917Y129666D01*
X675914Y128000D02*
Y129666D01*
X677580D01*
Y128000D01*
X675914D01*
X684245Y136331D02*
X685911Y137997D01*
X689243D01*
X690909Y136331D01*
Y134664D01*
X689243Y132998D01*
X687577D01*
X689243D01*
X690909Y131332D01*
Y129666D01*
X689243Y128000D01*
X685911D01*
X684245Y129666D01*
X694241Y137997D02*
Y131332D01*
X697574Y128000D01*
X700906Y131332D01*
Y137997D01*
X903444Y23388D02*
X910109D01*
X906776Y26721D02*
Y20056D01*
X920105Y28387D02*
X913441D01*
Y23388D01*
X916773Y25055D01*
X918439D01*
X920105Y23388D01*
Y20056D01*
X918439Y18390D01*
X915107D01*
X913441Y20056D01*
X923438Y28387D02*
Y21722D01*
X926770Y18390D01*
X930102Y21722D01*
Y28387D01*
X818406Y62646D02*
X816739Y60980D01*
Y57648D01*
X818406Y55982D01*
X825070D01*
X826736Y57648D01*
Y60980D01*
X825070Y62646D01*
X821738D01*
Y59314D01*
X826736Y65979D02*
X816739D01*
X826736Y72643D01*
X816739D01*
Y75976D02*
X826736D01*
Y80974D01*
X825070Y82640D01*
X818406D01*
X816739Y80974D01*
Y75976D01*
X818100Y109159D02*
X821432D01*
X819766D01*
Y99162D01*
X818100D01*
X821432D01*
X833095Y107493D02*
X831429Y109159D01*
X828097D01*
X826431Y107493D01*
Y100828D01*
X828097Y99162D01*
X831429D01*
X833095Y100828D01*
X843092Y99162D02*
X836428D01*
X843092Y105827D01*
Y107493D01*
X841426Y109159D01*
X838094D01*
X836428Y107493D01*
X657000Y147000D02*
Y156997D01*
X661999D01*
X663665Y155331D01*
Y151998D01*
X661999Y150332D01*
X657000D01*
X660332D02*
X663665Y147000D01*
X666997Y155331D02*
X668663Y156997D01*
X671995D01*
X673661Y155331D01*
Y153665D01*
X671995Y151998D01*
X670329D01*
X671995D01*
X673661Y150332D01*
Y148666D01*
X671995Y147000D01*
X668663D01*
X666997Y148666D01*
X683658Y156997D02*
X680326Y155331D01*
X676994Y151998D01*
Y148666D01*
X678660Y147000D01*
X681992D01*
X683658Y148666D01*
Y150332D01*
X681992Y151998D01*
X676994D01*
X284456Y639282D02*
X283123Y637949D01*
Y635283D01*
X284456Y633950D01*
X285788D01*
X287121Y635283D01*
Y637949D01*
X288454Y639282D01*
X289787D01*
X291120Y637949D01*
Y635283D01*
X289787Y633950D01*
X283123Y641947D02*
X291120D01*
Y645946D01*
X289787Y647279D01*
X284456D01*
X283123Y645946D01*
Y641947D01*
X291120Y649945D02*
X285788D01*
X283123Y652611D01*
X285788Y655276D01*
X291120D01*
X287121D01*
Y649945D01*
X310364Y640044D02*
X309031Y638711D01*
Y636045D01*
X310364Y634712D01*
X311696D01*
X313029Y636045D01*
Y638711D01*
X314362Y640044D01*
X315695D01*
X317028Y638711D01*
Y636045D01*
X315695Y634712D01*
X310364Y648041D02*
X309031Y646708D01*
Y644042D01*
X310364Y642710D01*
X315695D01*
X317028Y644042D01*
Y646708D01*
X315695Y648041D01*
X309031Y650707D02*
X317028D01*
Y656039D01*
X95920Y712998D02*
X102585D01*
X99253Y716331D02*
Y709666D01*
X105917Y716331D02*
X107583Y717997D01*
X110915D01*
X112582Y716331D01*
Y714665D01*
X110915Y712998D01*
X109249D01*
X110915D01*
X112582Y711332D01*
Y709666D01*
X110915Y708000D01*
X107583D01*
X105917Y709666D01*
X115914Y708000D02*
Y709666D01*
X117580D01*
Y708000D01*
X115914D01*
X124244Y716331D02*
X125911Y717997D01*
X129243D01*
X130909Y716331D01*
Y714665D01*
X129243Y712998D01*
X127577D01*
X129243D01*
X130909Y711332D01*
Y709666D01*
X129243Y708000D01*
X125911D01*
X124244Y709666D01*
X134241Y717997D02*
Y711332D01*
X137573Y708000D01*
X140906Y711332D01*
Y717997D01*
X343444Y603388D02*
X350109D01*
X346776Y606721D02*
Y600056D01*
X360105Y608387D02*
X353441D01*
Y603388D01*
X356773Y605055D01*
X358439D01*
X360105Y603388D01*
Y600056D01*
X358439Y598390D01*
X355107D01*
X353441Y600056D01*
X363438Y608387D02*
Y601722D01*
X366770Y598390D01*
X370102Y601722D01*
Y608387D01*
X258405Y642646D02*
X256739Y640980D01*
Y637648D01*
X258405Y635982D01*
X265070D01*
X266736Y637648D01*
Y640980D01*
X265070Y642646D01*
X261738D01*
Y639314D01*
X266736Y645979D02*
X256739D01*
X266736Y652643D01*
X256739D01*
Y655976D02*
X266736D01*
Y660974D01*
X265070Y662640D01*
X258405D01*
X256739Y660974D01*
Y655976D01*
X258100Y689159D02*
X261432D01*
X259766D01*
Y679162D01*
X258100D01*
X261432D01*
X273095Y687493D02*
X271429Y689159D01*
X268097D01*
X266431Y687493D01*
Y680828D01*
X268097Y679162D01*
X271429D01*
X273095Y680828D01*
X283092Y679162D02*
X276427D01*
X283092Y685826D01*
Y687493D01*
X281426Y689159D01*
X278094D01*
X276427Y687493D01*
X97000Y727000D02*
Y736997D01*
X101998D01*
X103665Y735331D01*
Y731998D01*
X101998Y730332D01*
X97000D01*
X100332D02*
X103665Y727000D01*
X106997Y735331D02*
X108663Y736997D01*
X111995D01*
X113661Y735331D01*
Y733664D01*
X111995Y731998D01*
X110329D01*
X111995D01*
X113661Y730332D01*
Y728666D01*
X111995Y727000D01*
X108663D01*
X106997Y728666D01*
X123658Y736997D02*
X120326Y735331D01*
X116994Y731998D01*
Y728666D01*
X118660Y727000D01*
X121992D01*
X123658Y728666D01*
Y730332D01*
X121992Y731998D01*
X116994D01*
X844456Y639282D02*
X843123Y637949D01*
Y635283D01*
X844456Y633950D01*
X845789D01*
X847121Y635283D01*
Y637949D01*
X848454Y639282D01*
X849787D01*
X851120Y637949D01*
Y635283D01*
X849787Y633950D01*
X843123Y641947D02*
X851120D01*
Y645946D01*
X849787Y647279D01*
X844456D01*
X843123Y645946D01*
Y641947D01*
X851120Y649945D02*
X845789D01*
X843123Y652611D01*
X845789Y655276D01*
X851120D01*
X847121D01*
Y649945D01*
X870364Y640044D02*
X869031Y638711D01*
Y636045D01*
X870364Y634712D01*
X871697D01*
X873029Y636045D01*
Y638711D01*
X874362Y640044D01*
X875695D01*
X877028Y638711D01*
Y636045D01*
X875695Y634712D01*
X870364Y648041D02*
X869031Y646708D01*
Y644042D01*
X870364Y642710D01*
X875695D01*
X877028Y644042D01*
Y646708D01*
X875695Y648041D01*
X869031Y650707D02*
X877028D01*
Y656039D01*
X655920Y712998D02*
X662585D01*
X659253Y716331D02*
Y709666D01*
X665917Y716331D02*
X667583Y717997D01*
X670916D01*
X672582Y716331D01*
Y714665D01*
X670916Y712998D01*
X669249D01*
X670916D01*
X672582Y711332D01*
Y709666D01*
X670916Y708000D01*
X667583D01*
X665917Y709666D01*
X675914Y708000D02*
Y709666D01*
X677580D01*
Y708000D01*
X675914D01*
X684245Y716331D02*
X685911Y717997D01*
X689243D01*
X690909Y716331D01*
Y714665D01*
X689243Y712998D01*
X687577D01*
X689243D01*
X690909Y711332D01*
Y709666D01*
X689243Y708000D01*
X685911D01*
X684245Y709666D01*
X694241Y717997D02*
Y711332D01*
X697574Y708000D01*
X700906Y711332D01*
Y717997D01*
X903444Y603388D02*
X910109D01*
X906776Y606721D02*
Y600056D01*
X920105Y608387D02*
X913441D01*
Y603388D01*
X916773Y605055D01*
X918439D01*
X920105Y603388D01*
Y600056D01*
X918439Y598390D01*
X915107D01*
X913441Y600056D01*
X923438Y608387D02*
Y601722D01*
X926770Y598390D01*
X930102Y601722D01*
Y608387D01*
X818406Y642646D02*
X816739Y640980D01*
Y637648D01*
X818406Y635982D01*
X825070D01*
X826736Y637648D01*
Y640980D01*
X825070Y642646D01*
X821738D01*
Y639314D01*
X826736Y645979D02*
X816739D01*
X826736Y652643D01*
X816739D01*
Y655976D02*
X826736D01*
Y660974D01*
X825070Y662640D01*
X818406D01*
X816739Y660974D01*
Y655976D01*
X818100Y689159D02*
X821432D01*
X819766D01*
Y679162D01*
X818100D01*
X821432D01*
X833095Y687493D02*
X831429Y689159D01*
X828097D01*
X826431Y687493D01*
Y680828D01*
X828097Y679162D01*
X831429D01*
X833095Y680828D01*
X843092Y679162D02*
X836428D01*
X843092Y685826D01*
Y687493D01*
X841426Y689159D01*
X838094D01*
X836428Y687493D01*
X657000Y727000D02*
Y736997D01*
X661999D01*
X663665Y735331D01*
Y731998D01*
X661999Y730332D01*
X657000D01*
X660332D02*
X663665Y727000D01*
X666997Y735331D02*
X668663Y736997D01*
X671995D01*
X673661Y735331D01*
Y733664D01*
X671995Y731998D01*
X670329D01*
X671995D01*
X673661Y730332D01*
Y728666D01*
X671995Y727000D01*
X668663D01*
X666997Y728666D01*
X683658Y736997D02*
X680326Y735331D01*
X676994Y731998D01*
Y728666D01*
X678660Y727000D01*
X681992D01*
X683658Y728666D01*
Y730332D01*
X681992Y731998D01*
X676994D01*
D43*
X337334Y232002D02*
X355622D01*
X355622Y202030D02*
X355622Y232002D01*
X337334Y202030D02*
X355622D01*
X337334D02*
X337334Y232002D01*
X315758Y232004D02*
X334046Y232004D01*
X334046Y202032D02*
X334046Y232004D01*
X315758Y202032D02*
X334046Y202032D01*
X315758Y202032D02*
X315758Y232004D01*
X358642Y248923D02*
X387946Y257309D01*
X358642Y248923D02*
X363534Y231830D01*
X363778Y231900D02*
X393082Y240285D01*
X388190Y257379D02*
X393082Y240285D01*
X364452Y227364D02*
X394688Y231216D01*
X364452Y227364D02*
X366699Y209727D01*
X366951Y209759D02*
X397187Y213611D01*
X394940Y231248D02*
X397187Y213611D01*
X366930Y205174D02*
X397400Y204402D01*
X366480Y187399D02*
X366930Y205174D01*
X366734Y187393D02*
X397204Y186622D01*
X397654Y204396D01*
X337336Y196952D02*
X355624Y196952D01*
X355624Y166980D01*
X337336Y166980D02*
X355624Y166980D01*
X337336Y166980D02*
Y196952D01*
X366019Y182864D02*
X396021Y177487D01*
X362883Y165363D02*
X366019Y182864D01*
X363133Y165318D02*
X393135Y159941D01*
X396271Y177442D01*
X361740Y160949D02*
X390582Y151091D01*
X355990Y144125D02*
X361740Y160949D01*
X356230Y144043D02*
X385072Y134185D01*
X390822Y151009D01*
X354192Y139936D02*
X381208Y125824D01*
X345960Y124176D02*
X354192Y139936D01*
X346185Y124059D02*
X373201Y109947D01*
X381433Y125706D01*
X343549Y120307D02*
X368116Y102267D01*
X333025Y105976D02*
X343549Y120307D01*
X333230Y105826D02*
X357798Y87785D01*
X368321Y102117D01*
X351572Y73000D02*
X369860D01*
X369860Y43028D01*
X351572Y43028D02*
X369860Y43028D01*
X351572Y43028D02*
X351572Y73000D01*
X330056Y102517D02*
X351608Y80964D01*
X317483Y89945D02*
X330056Y102517D01*
X317663Y89765D02*
X339215Y68212D01*
X351788Y80785D01*
X222267Y347004D02*
X224578Y377396D01*
X222267Y347004D02*
X239995Y345655D01*
X240015Y345908D02*
X242327Y376300D01*
X224598Y377649D02*
X242327Y376300D01*
X221016Y328778D02*
X239304Y328778D01*
X239304Y298806D02*
X239304Y328778D01*
X221016Y298806D02*
X239304D01*
X221016D02*
Y328778D01*
X244502Y344965D02*
X251389Y374657D01*
X244502Y344965D02*
X261822Y340947D01*
X261879Y341195D02*
X268767Y370886D01*
X251447Y374904D02*
X268767Y370886D01*
X242352Y328538D02*
X260640D01*
Y298566D02*
Y328538D01*
X242352Y298566D02*
X260640D01*
X242352Y328538D02*
X242352Y298566D01*
X266172Y339583D02*
X277476Y367889D01*
X266172Y339583D02*
X282684Y332989D01*
X282778Y333224D02*
X294082Y361531D01*
X277570Y368125D02*
X294082Y361531D01*
X264196Y328732D02*
X282484Y328732D01*
Y298760D02*
Y328732D01*
X264196Y298760D02*
X282484Y298760D01*
X264196Y298760D02*
Y328732D01*
X286777Y330981D02*
X302237Y357249D01*
X286777Y330981D02*
X302100Y321962D01*
X302229Y322181D02*
X317689Y348449D01*
X302366Y357468D02*
X317689Y348449D01*
X264196Y294732D02*
X282484D01*
X282484Y264760D01*
X264196Y264760D02*
X282484Y264760D01*
X264196Y294732D02*
X264196Y264760D01*
X305842Y319358D02*
X325102Y342982D01*
X305842Y319358D02*
X319622Y308123D01*
X319783Y308320D02*
X339043Y331944D01*
X325262Y343179D02*
X339043Y331944D01*
X286040Y294782D02*
X304328Y294782D01*
Y264810D02*
Y294782D01*
X286040Y264810D02*
X304328Y264810D01*
X286040Y294782D02*
X286040Y264810D01*
X323075Y305117D02*
X345690Y325551D01*
X323075Y305117D02*
X334995Y291924D01*
X335183Y292095D02*
X357799Y312529D01*
X345879Y325722D02*
X357799Y312529D01*
X308138Y294732D02*
X326426D01*
Y264760D02*
Y294732D01*
X308138Y264760D02*
X326426D01*
X308138Y294732D02*
X308138Y264760D01*
X337637Y288186D02*
X363086Y304960D01*
X337637Y288186D02*
X347422Y273340D01*
X347634Y273480D02*
X373083Y290254D01*
X363298Y305099D02*
X373083Y290254D01*
X349635Y269354D02*
X377331Y282081D01*
X349635Y269354D02*
X357059Y253198D01*
X357290Y253304D02*
X384986Y266031D01*
X377561Y282187D02*
X384986Y266031D01*
X72934Y21946D02*
X106970D01*
X72934D02*
Y60046D01*
X106970Y21946D02*
Y60046D01*
X72934D02*
X106970D01*
X112050Y45822D02*
X130338D01*
Y15850D02*
Y45822D01*
X112050Y15850D02*
X130338D01*
X112050D02*
Y45822D01*
X39660Y76302D02*
Y106274D01*
Y76302D02*
X57948D01*
Y106274D01*
X39660D02*
X57948D01*
X17816D02*
X17816Y76302D01*
X36104Y76302D01*
X36104Y106274D02*
X36104Y76302D01*
X17816Y106274D02*
X36104D01*
X112050Y48870D02*
X112050Y78842D01*
X112050Y48870D02*
X130338Y48870D01*
X130338Y78842D02*
X130338Y48870D01*
X112050Y78842D02*
X130338D01*
X42345Y204365D02*
X42798Y186591D01*
X42345Y204365D02*
X72815Y205142D01*
X73069Y205148D02*
X73523Y187374D01*
X43052Y186597D02*
X73523Y187374D01*
X49187Y150980D02*
X54940Y134156D01*
X49187Y150980D02*
X78027Y160842D01*
X78267Y160925D02*
X84020Y144101D01*
X55180Y134238D02*
X84020Y144101D01*
X58580Y125678D02*
X66814Y109920D01*
X58580Y125678D02*
X85594Y139795D01*
X85819Y139912D02*
X94053Y124154D01*
X67039Y110037D02*
X94053Y124154D01*
X71696Y102091D02*
X82222Y87761D01*
X71696Y102091D02*
X96261Y120135D01*
X96466Y120286D02*
X106992Y105956D01*
X82427Y87912D02*
X106992Y105956D01*
X88066Y81406D02*
X100169Y68382D01*
X88066Y81406D02*
X110393Y102155D01*
X110579Y102328D02*
X122683Y89303D01*
X100355Y68555D02*
X122683Y89303D01*
X43733Y177412D02*
X46873Y159911D01*
X43733Y177412D02*
X73734Y182794D01*
X73984Y182838D02*
X77124Y165338D01*
X47123Y159956D02*
X77124Y165338D01*
X46911Y240255D02*
X51800Y257350D01*
X81105Y248969D01*
X76460Y231805D02*
X81349Y248899D01*
X47155Y240186D02*
X76460Y231805D01*
X42811Y213580D02*
X45055Y231217D01*
X75291Y227371D01*
X73299Y209701D02*
X75543Y227339D01*
X43063Y213548D02*
X73299Y209701D01*
X199426Y329032D02*
X199426Y299060D01*
X217714Y299060D01*
Y329032D01*
X199426D02*
X217714D01*
X197628Y376496D02*
X215356Y377848D01*
X217673Y347456D01*
X199964Y345851D02*
X217693Y347203D01*
X197647Y376243D02*
X199964Y345851D01*
X178090Y299060D02*
Y329032D01*
Y299060D02*
X196378D01*
X196378Y329032D02*
X196378Y299060D01*
X178090Y329032D02*
X196378D01*
X171158Y371073D02*
X188478Y375093D01*
X195370Y345403D01*
X178109Y341135D02*
X195428Y345155D01*
X171216Y370825D02*
X178109Y341135D01*
X156500Y328732D02*
X156500Y298760D01*
X174788Y298760D01*
X174788Y328732D01*
X156500D02*
X174788D01*
X145815Y361703D02*
X162326Y368301D01*
X173636Y339996D01*
X157219Y333163D02*
X173730Y339761D01*
X145910Y361468D02*
X157219Y333163D01*
X135164Y299060D02*
X135164Y269088D01*
X153452Y269088D01*
X153452Y299060D01*
X135164Y299060D02*
X153452Y299060D01*
X122184Y348605D02*
X137505Y357626D01*
X152970Y331361D01*
X137778Y322121D02*
X153099Y331142D01*
X122312Y348386D02*
X137778Y322121D01*
X101128Y211176D02*
X101128Y181204D01*
X119416Y181204D01*
X119416Y211176D01*
X101128Y211176D02*
X119416Y211176D01*
X100934Y331923D02*
X114713Y343161D01*
X133977Y319540D01*
X120359Y308106D02*
X134138Y319343D01*
X101095Y331726D02*
X120359Y308106D01*
X78399Y181384D02*
X78399Y211356D01*
X78399Y181384D02*
X96687Y181384D01*
X96687Y211356D02*
X96687Y181384D01*
X78399Y211356D02*
X96687Y211356D01*
X82330Y312371D02*
X94248Y325566D01*
X116867Y305135D01*
X105138Y291770D02*
X117056Y304965D01*
X82519Y312201D02*
X105138Y291770D01*
X66901Y290227D02*
X76683Y305074D01*
X102135Y288305D01*
X92565Y273318D02*
X102347Y288165D01*
X67113Y290088D02*
X92565Y273318D01*
X55003Y266003D02*
X62424Y282160D01*
X90122Y269438D01*
X82932Y253174D02*
X90353Y269332D01*
X55234Y265896D02*
X82932Y253174D01*
X416596Y349098D02*
X421676Y344018D01*
X386116Y349098D02*
X416596Y349098D01*
X386116Y238608D02*
Y349098D01*
Y238608D02*
X421676D01*
X421676Y344018D01*
X130098Y161138D02*
X160070D01*
X130098Y142850D02*
Y161138D01*
Y142850D02*
X160070Y142850D01*
X160070Y161138D02*
X160070Y142850D01*
X241590Y20676D02*
Y126340D01*
X135950Y86248D02*
Y117220D01*
Y28003D02*
X135950Y20676D01*
X241590Y20676D01*
X135950Y28003D02*
Y86248D01*
Y117220D02*
X145070Y126340D01*
X241590D01*
X897334Y232002D02*
X915622D01*
X915622Y202030D02*
X915622Y232002D01*
X897334Y202030D02*
X915622D01*
X897334D02*
X897334Y232002D01*
X875758Y232004D02*
X894046Y232004D01*
X894046Y202032D02*
X894046Y232004D01*
X875758Y202032D02*
X894046Y202032D01*
X875758Y202032D02*
X875758Y232004D01*
X918642Y248923D02*
X947946Y257309D01*
X918642Y248923D02*
X923534Y231830D01*
X923779Y231900D02*
X953082Y240285D01*
X948190Y257379D02*
X953082Y240285D01*
X924452Y227364D02*
X954688Y231216D01*
X924452Y227364D02*
X926699Y209727D01*
X926951Y209759D02*
X957187Y213611D01*
X954940Y231248D02*
X957187Y213611D01*
X926930Y205174D02*
X957400Y204402D01*
X926480Y187399D02*
X926930Y205174D01*
X926734Y187393D02*
X957204Y186622D01*
X957654Y204396D01*
X897336Y196952D02*
X915624Y196952D01*
X915624Y166980D01*
X897336Y166980D02*
X915624Y166980D01*
X897336Y166980D02*
Y196952D01*
X926019Y182864D02*
X956021Y177487D01*
X922883Y165363D02*
X926019Y182864D01*
X923133Y165318D02*
X953135Y159941D01*
X956271Y177442D01*
X921740Y160949D02*
X950582Y151091D01*
X915990Y144125D02*
X921740Y160949D01*
X916230Y144043D02*
X945072Y134185D01*
X950822Y151009D01*
X914192Y139936D02*
X941208Y125824D01*
X905960Y124176D02*
X914192Y139936D01*
X906185Y124059D02*
X933202Y109947D01*
X941433Y125706D01*
X903549Y120307D02*
X928117Y102267D01*
X893025Y105976D02*
X903549Y120307D01*
X893230Y105826D02*
X917798Y87785D01*
X928321Y102117D01*
X911572Y73000D02*
X929860D01*
X929860Y43028D01*
X911572Y43028D02*
X929860Y43028D01*
X911572Y43028D02*
X911572Y73000D01*
X890056Y102517D02*
X911608Y80964D01*
X877483Y89945D02*
X890056Y102517D01*
X877663Y89765D02*
X899215Y68212D01*
X911788Y80785D01*
X782267Y347004D02*
X784579Y377396D01*
X782267Y347004D02*
X799995Y345655D01*
X800015Y345908D02*
X802327Y376300D01*
X784598Y377649D02*
X802327Y376300D01*
X781016Y328778D02*
X799304Y328778D01*
X799304Y298806D02*
X799304Y328778D01*
X781016Y298806D02*
X799304D01*
X781016D02*
Y328778D01*
X804502Y344965D02*
X811389Y374657D01*
X804502Y344965D02*
X821822Y340947D01*
X821879Y341195D02*
X828767Y370886D01*
X811447Y374904D02*
X828767Y370886D01*
X802352Y328538D02*
X820640D01*
Y298566D02*
Y328538D01*
X802352Y298566D02*
X820640D01*
X802352Y328538D02*
X802352Y298566D01*
X826172Y339583D02*
X837476Y367889D01*
X826172Y339583D02*
X842684Y332989D01*
X842778Y333224D02*
X854082Y361531D01*
X837570Y368125D02*
X854082Y361531D01*
X824196Y328732D02*
X842484Y328732D01*
Y298760D02*
Y328732D01*
X824196Y298760D02*
X842484Y298760D01*
X824196Y298760D02*
Y328732D01*
X846777Y330981D02*
X862237Y357249D01*
X846777Y330981D02*
X862100Y321962D01*
X862229Y322181D02*
X877689Y348449D01*
X862366Y357468D02*
X877689Y348449D01*
X824196Y294732D02*
X842484D01*
X842484Y264760D01*
X824196Y264760D02*
X842484Y264760D01*
X824196Y294732D02*
X824196Y264760D01*
X865842Y319358D02*
X885102Y342982D01*
X865842Y319358D02*
X879622Y308123D01*
X879783Y308320D02*
X899043Y331944D01*
X885262Y343179D02*
X899043Y331944D01*
X846040Y294782D02*
X864328Y294782D01*
Y264810D02*
Y294782D01*
X846040Y264810D02*
X864328Y264810D01*
X846040Y294782D02*
X846040Y264810D01*
X883075Y305117D02*
X905690Y325551D01*
X883075Y305117D02*
X894995Y291924D01*
X895183Y292095D02*
X917799Y312529D01*
X905879Y325722D02*
X917799Y312529D01*
X868138Y294732D02*
X886426D01*
Y264760D02*
Y294732D01*
X868138Y264760D02*
X886426D01*
X868138Y294732D02*
X868138Y264760D01*
X897637Y288186D02*
X923086Y304960D01*
X897637Y288186D02*
X907422Y273340D01*
X907634Y273480D02*
X933083Y290254D01*
X923298Y305099D02*
X933083Y290254D01*
X909635Y269354D02*
X937331Y282081D01*
X909635Y269354D02*
X917059Y253198D01*
X917290Y253304D02*
X944986Y266031D01*
X937561Y282187D02*
X944986Y266031D01*
X632934Y21946D02*
X666970D01*
X632934D02*
Y60046D01*
X666970Y21946D02*
Y60046D01*
X632934D02*
X666970D01*
X672050Y45822D02*
X690338D01*
Y15850D02*
Y45822D01*
X672050Y15850D02*
X690338D01*
X672050D02*
Y45822D01*
X599660Y76302D02*
Y106274D01*
Y76302D02*
X617948D01*
Y106274D01*
X599660D02*
X617948D01*
X577816D02*
X577816Y76302D01*
X596104Y76302D01*
X596104Y106274D02*
X596104Y76302D01*
X577816Y106274D02*
X596104D01*
X672050Y48870D02*
X672050Y78842D01*
X672050Y48870D02*
X690338Y48870D01*
X690338Y78842D02*
X690338Y48870D01*
X672050Y78842D02*
X690338D01*
X602345Y204365D02*
X602798Y186591D01*
X602345Y204365D02*
X632816Y205142D01*
X633069Y205148D02*
X633523Y187374D01*
X603052Y186597D02*
X633523Y187374D01*
X609187Y150980D02*
X614940Y134156D01*
X609187Y150980D02*
X638027Y160842D01*
X638267Y160925D02*
X644020Y144101D01*
X615180Y134238D02*
X644020Y144101D01*
X618580Y125678D02*
X626814Y109920D01*
X618580Y125678D02*
X645594Y139795D01*
X645819Y139912D02*
X654053Y124154D01*
X627040Y110037D02*
X654053Y124154D01*
X631696Y102091D02*
X642222Y87761D01*
X631696Y102091D02*
X656261Y120135D01*
X656466Y120286D02*
X666992Y105956D01*
X642427Y87912D02*
X666992Y105956D01*
X648066Y81406D02*
X660169Y68382D01*
X648066Y81406D02*
X670394Y102155D01*
X670580Y102328D02*
X682683Y89303D01*
X660355Y68555D02*
X682683Y89303D01*
X603733Y177412D02*
X606873Y159911D01*
X603733Y177412D02*
X633734Y182794D01*
X633984Y182838D02*
X637124Y165338D01*
X607123Y159956D02*
X637124Y165338D01*
X606911Y240255D02*
X611800Y257350D01*
X641105Y248969D01*
X636460Y231805D02*
X641349Y248899D01*
X607155Y240186D02*
X636460Y231805D01*
X602811Y213580D02*
X605055Y231217D01*
X635291Y227371D01*
X633300Y209701D02*
X635543Y227339D01*
X603063Y213548D02*
X633300Y209701D01*
X759426Y329032D02*
X759426Y299060D01*
X777714Y299060D01*
Y329032D01*
X759426D02*
X777714D01*
X757628Y376496D02*
X775356Y377848D01*
X777673Y347456D01*
X759964Y345851D02*
X777693Y347203D01*
X757647Y376243D02*
X759964Y345851D01*
X738090Y299060D02*
Y329032D01*
Y299060D02*
X756378D01*
X756378Y329032D02*
X756378Y299060D01*
X738090Y329032D02*
X756378D01*
X731158Y371073D02*
X748478Y375093D01*
X755370Y345403D01*
X738109Y341135D02*
X755428Y345155D01*
X731216Y370825D02*
X738109Y341135D01*
X716500Y328732D02*
X716500Y298760D01*
X734788Y298760D01*
X734788Y328732D01*
X716500D02*
X734788D01*
X705816Y361703D02*
X722326Y368301D01*
X733636Y339996D01*
X717219Y333163D02*
X733730Y339761D01*
X705910Y361468D02*
X717219Y333163D01*
X695164Y299060D02*
X695164Y269088D01*
X713452Y269088D01*
X713452Y299060D01*
X695164Y299060D02*
X713452Y299060D01*
X682184Y348605D02*
X697505Y357626D01*
X712970Y331361D01*
X697778Y322121D02*
X713099Y331142D01*
X682313Y348386D02*
X697778Y322121D01*
X661128Y211176D02*
X661128Y181204D01*
X679416Y181204D01*
X679416Y211176D01*
X661128Y211176D02*
X679416Y211176D01*
X660935Y331923D02*
X674713Y343161D01*
X693977Y319540D01*
X680359Y308106D02*
X694138Y319343D01*
X661095Y331726D02*
X680359Y308106D01*
X638399Y181384D02*
X638399Y211356D01*
X638399Y181384D02*
X656687Y181384D01*
X656687Y211356D02*
X656687Y181384D01*
X638399Y211356D02*
X656687Y211356D01*
X642330Y312371D02*
X654248Y325566D01*
X676867Y305135D01*
X665138Y291770D02*
X677056Y304965D01*
X642519Y312201D02*
X665138Y291770D01*
X626901Y290227D02*
X636684Y305074D01*
X662135Y288305D01*
X652565Y273318D02*
X662348Y288165D01*
X627113Y290088D02*
X652565Y273318D01*
X615003Y266003D02*
X622425Y282160D01*
X650123Y269438D01*
X642932Y253174D02*
X650353Y269332D01*
X615234Y265896D02*
X642932Y253174D01*
X976596Y349098D02*
X981676Y344018D01*
X946116Y349098D02*
X976596Y349098D01*
X946116Y238608D02*
Y349098D01*
Y238608D02*
X981676D01*
X981676Y344018D01*
X690098Y161138D02*
X720070D01*
X690098Y142850D02*
Y161138D01*
Y142850D02*
X720070Y142850D01*
X720070Y161138D02*
X720070Y142850D01*
X801590Y20676D02*
Y126340D01*
X695950Y86248D02*
Y117220D01*
Y28003D02*
X695950Y20676D01*
X801590Y20676D01*
X695950Y28003D02*
Y86248D01*
Y117220D02*
X705070Y126340D01*
X801590D01*
X337334Y812002D02*
X355622D01*
X355622Y782030D02*
X355622Y812002D01*
X337334Y782030D02*
X355622D01*
X337334D02*
X337334Y812002D01*
X315758Y812004D02*
X334046Y812004D01*
X334046Y782032D02*
X334046Y812004D01*
X315758Y782032D02*
X334046Y782032D01*
X315758Y782032D02*
X315758Y812004D01*
X358642Y828923D02*
X387946Y837309D01*
X358642Y828923D02*
X363534Y811830D01*
X363778Y811899D02*
X393082Y820286D01*
X388190Y837379D02*
X393082Y820286D01*
X364452Y807364D02*
X394688Y811216D01*
X364452Y807364D02*
X366699Y789727D01*
X366951Y789759D02*
X397187Y793611D01*
X394940Y811248D02*
X397187Y793611D01*
X366930Y785174D02*
X397400Y784402D01*
X366480Y767399D02*
X366930Y785174D01*
X366734Y767393D02*
X397204Y766622D01*
X397654Y784396D01*
X337336Y776952D02*
X355624Y776952D01*
X355624Y746980D01*
X337336Y746980D02*
X355624Y746980D01*
X337336Y746980D02*
Y776952D01*
X366019Y762864D02*
X396021Y757487D01*
X362883Y745363D02*
X366019Y762864D01*
X363133Y745318D02*
X393135Y739941D01*
X396271Y757443D01*
X361740Y740949D02*
X390582Y731092D01*
X355990Y724125D02*
X361740Y740949D01*
X356230Y724043D02*
X385072Y714185D01*
X390822Y731009D01*
X354192Y719936D02*
X381208Y705824D01*
X345960Y704176D02*
X354192Y719936D01*
X346185Y704059D02*
X373201Y689947D01*
X381433Y705706D01*
X343549Y700307D02*
X368116Y682267D01*
X333025Y685976D02*
X343549Y700307D01*
X333230Y685826D02*
X357798Y667785D01*
X368321Y682117D01*
X351572Y653000D02*
X369860D01*
X369860Y623028D01*
X351572Y623028D02*
X369860Y623028D01*
X351572Y623028D02*
X351572Y653000D01*
X330056Y682517D02*
X351608Y660964D01*
X317483Y669945D02*
X330056Y682517D01*
X317663Y669765D02*
X339215Y648212D01*
X351788Y660785D01*
X222267Y927003D02*
X224578Y957396D01*
X222267Y927003D02*
X239995Y925655D01*
X240015Y925908D02*
X242327Y956300D01*
X224598Y957649D02*
X242327Y956300D01*
X221016Y908778D02*
X239304Y908778D01*
X239304Y878806D02*
X239304Y908778D01*
X221016Y878806D02*
X239304D01*
X221016D02*
Y908778D01*
X244502Y924965D02*
X251389Y954657D01*
X244502Y924965D02*
X261822Y920947D01*
X261879Y921195D02*
X268767Y950886D01*
X251447Y954904D02*
X268767Y950886D01*
X242352Y908538D02*
X260640D01*
Y878566D02*
Y908538D01*
X242352Y878566D02*
X260640D01*
X242352Y908538D02*
X242352Y878566D01*
X266172Y919583D02*
X277476Y947889D01*
X266172Y919583D02*
X282684Y912989D01*
X282778Y913224D02*
X294082Y941531D01*
X277570Y948125D02*
X294082Y941531D01*
X264196Y908732D02*
X282484Y908732D01*
Y878760D02*
Y908732D01*
X264196Y878760D02*
X282484Y878760D01*
X264196Y878760D02*
Y908732D01*
X286777Y910981D02*
X302237Y937249D01*
X286777Y910981D02*
X302100Y901962D01*
X302229Y902181D02*
X317689Y928449D01*
X302366Y937468D02*
X317689Y928449D01*
X264196Y874732D02*
X282484D01*
X282484Y844760D01*
X264196Y844760D02*
X282484Y844760D01*
X264196Y874732D02*
X264196Y844760D01*
X305842Y899358D02*
X325102Y922982D01*
X305842Y899358D02*
X319622Y888123D01*
X319783Y888320D02*
X339043Y911944D01*
X325262Y923179D02*
X339043Y911944D01*
X286040Y874782D02*
X304328Y874782D01*
Y844810D02*
Y874782D01*
X286040Y844810D02*
X304328Y844810D01*
X286040Y874782D02*
X286040Y844810D01*
X323075Y885117D02*
X345690Y905551D01*
X323075Y885117D02*
X334995Y871924D01*
X335183Y872095D02*
X357799Y892529D01*
X345879Y905722D02*
X357799Y892529D01*
X308138Y874732D02*
X326426D01*
Y844760D02*
Y874732D01*
X308138Y844760D02*
X326426D01*
X308138Y874732D02*
X308138Y844760D01*
X337637Y868186D02*
X363086Y884960D01*
X337637Y868186D02*
X347422Y853340D01*
X347634Y853480D02*
X373083Y870254D01*
X363298Y885099D02*
X373083Y870254D01*
X349635Y849354D02*
X377331Y862081D01*
X349635Y849354D02*
X357059Y833198D01*
X357290Y833304D02*
X384986Y846031D01*
X377561Y862187D02*
X384986Y846031D01*
X72934Y601946D02*
X106970D01*
X72934D02*
Y640046D01*
X106970Y601946D02*
Y640046D01*
X72934D02*
X106970D01*
X112050Y625822D02*
X130338D01*
Y595850D02*
Y625822D01*
X112050Y595850D02*
X130338D01*
X112050D02*
Y625822D01*
X39660Y656302D02*
Y686274D01*
Y656302D02*
X57948D01*
Y686274D01*
X39660D02*
X57948D01*
X17816D02*
X17816Y656302D01*
X36104Y656302D01*
X36104Y686274D02*
X36104Y656302D01*
X17816Y686274D02*
X36104D01*
X112050Y628870D02*
X112050Y658842D01*
X112050Y628870D02*
X130338Y628870D01*
X130338Y658842D02*
X130338Y628870D01*
X112050Y658842D02*
X130338D01*
X42345Y784365D02*
X42798Y766591D01*
X42345Y784365D02*
X72815Y785142D01*
X73069Y785148D02*
X73523Y767374D01*
X43052Y766597D02*
X73523Y767374D01*
X49187Y730980D02*
X54940Y714156D01*
X49187Y730980D02*
X78027Y740843D01*
X78267Y740925D02*
X84020Y724101D01*
X55180Y714238D02*
X84020Y724101D01*
X58580Y705678D02*
X66814Y689920D01*
X58580Y705678D02*
X85594Y719795D01*
X85819Y719912D02*
X94053Y704154D01*
X67039Y690038D02*
X94053Y704154D01*
X71696Y682091D02*
X82222Y667761D01*
X71696Y682091D02*
X96261Y700135D01*
X96466Y700286D02*
X106992Y685956D01*
X82427Y667912D02*
X106992Y685956D01*
X88066Y661406D02*
X100169Y648382D01*
X88066Y661406D02*
X110393Y682155D01*
X110579Y682328D02*
X122683Y669303D01*
X100355Y648555D02*
X122683Y669303D01*
X43733Y757412D02*
X46873Y739911D01*
X43733Y757412D02*
X73734Y762794D01*
X73984Y762839D02*
X77124Y745338D01*
X47123Y739956D02*
X77124Y745338D01*
X46911Y820255D02*
X51800Y837350D01*
X81105Y828969D01*
X76460Y811805D02*
X81349Y828899D01*
X47155Y820185D02*
X76460Y811805D01*
X42811Y793580D02*
X45055Y811217D01*
X75291Y807371D01*
X73299Y789701D02*
X75543Y807339D01*
X43063Y793548D02*
X73299Y789701D01*
X199426Y909032D02*
X199426Y879060D01*
X217714Y879060D01*
Y909032D01*
X199426D02*
X217714D01*
X197628Y956496D02*
X215356Y957848D01*
X217673Y927456D01*
X199964Y925851D02*
X217693Y927203D01*
X197647Y956243D02*
X199964Y925851D01*
X178090Y879060D02*
Y909032D01*
Y879060D02*
X196378D01*
X196378Y909032D02*
X196378Y879060D01*
X178090Y909032D02*
X196378D01*
X171158Y951072D02*
X188478Y955093D01*
X195370Y925403D01*
X178109Y921135D02*
X195428Y925155D01*
X171216Y950825D02*
X178109Y921135D01*
X156500Y908732D02*
X156500Y878760D01*
X174788Y878760D01*
X174788Y908732D01*
X156500D02*
X174788D01*
X145815Y941703D02*
X162326Y948300D01*
X173636Y919996D01*
X157219Y913163D02*
X173730Y919761D01*
X145910Y941468D02*
X157219Y913163D01*
X135164Y879060D02*
X135164Y849088D01*
X153452Y849088D01*
X153452Y879060D01*
X135164Y879060D02*
X153452Y879060D01*
X122184Y928605D02*
X137505Y937626D01*
X152970Y911361D01*
X137778Y902121D02*
X153099Y911142D01*
X122312Y928386D02*
X137778Y902121D01*
X101128Y791176D02*
X101128Y761204D01*
X119416Y761204D01*
X119416Y791176D01*
X101128Y791176D02*
X119416Y791176D01*
X100934Y911923D02*
X114713Y923160D01*
X133977Y899540D01*
X120359Y888106D02*
X134138Y899343D01*
X101095Y911726D02*
X120359Y888106D01*
X78399Y761384D02*
X78399Y791356D01*
X78399Y761384D02*
X96687Y761384D01*
X96687Y791356D02*
X96687Y761384D01*
X78399Y791356D02*
X96687Y791356D01*
X82330Y892371D02*
X94248Y905566D01*
X116867Y885135D01*
X105138Y871770D02*
X117056Y884965D01*
X82519Y892201D02*
X105138Y871770D01*
X66901Y870227D02*
X76683Y885074D01*
X102135Y868305D01*
X92565Y853318D02*
X102347Y868165D01*
X67113Y870088D02*
X92565Y853318D01*
X55003Y846003D02*
X62424Y862160D01*
X90122Y849438D01*
X82932Y833174D02*
X90353Y849332D01*
X55234Y845897D02*
X82932Y833174D01*
X416596Y929098D02*
X421676Y924018D01*
X386116Y929098D02*
X416596Y929098D01*
X386116Y818608D02*
Y929098D01*
Y818608D02*
X421676D01*
X421676Y924018D01*
X130098Y741138D02*
X160070D01*
X130098Y722850D02*
Y741138D01*
Y722850D02*
X160070Y722850D01*
X160070Y741138D02*
X160070Y722850D01*
X241590Y600676D02*
Y706340D01*
X135950Y666248D02*
Y697220D01*
Y608003D02*
X135950Y600676D01*
X241590Y600676D01*
X135950Y608003D02*
Y666248D01*
Y697220D02*
X145070Y706340D01*
X241590D01*
X897334Y812002D02*
X915622D01*
X915622Y782030D02*
X915622Y812002D01*
X897334Y782030D02*
X915622D01*
X897334D02*
X897334Y812002D01*
X875758Y812004D02*
X894046Y812004D01*
X894046Y782032D02*
X894046Y812004D01*
X875758Y782032D02*
X894046Y782032D01*
X875758Y782032D02*
X875758Y812004D01*
X918642Y828923D02*
X947946Y837309D01*
X918642Y828923D02*
X923534Y811830D01*
X923779Y811899D02*
X953082Y820286D01*
X948190Y837379D02*
X953082Y820286D01*
X924452Y807364D02*
X954688Y811216D01*
X924452Y807364D02*
X926699Y789727D01*
X926951Y789759D02*
X957187Y793611D01*
X954940Y811248D02*
X957187Y793611D01*
X926930Y785174D02*
X957400Y784402D01*
X926480Y767399D02*
X926930Y785174D01*
X926734Y767393D02*
X957204Y766622D01*
X957654Y784396D01*
X897336Y776952D02*
X915624Y776952D01*
X915624Y746980D01*
X897336Y746980D02*
X915624Y746980D01*
X897336Y746980D02*
Y776952D01*
X926019Y762864D02*
X956021Y757487D01*
X922883Y745363D02*
X926019Y762864D01*
X923133Y745318D02*
X953135Y739941D01*
X956271Y757443D01*
X921740Y740949D02*
X950582Y731092D01*
X915990Y724125D02*
X921740Y740949D01*
X916230Y724043D02*
X945072Y714185D01*
X950822Y731009D01*
X914192Y719936D02*
X941208Y705824D01*
X905960Y704176D02*
X914192Y719936D01*
X906185Y704059D02*
X933202Y689947D01*
X941433Y705706D01*
X903549Y700307D02*
X928117Y682267D01*
X893025Y685976D02*
X903549Y700307D01*
X893230Y685826D02*
X917798Y667785D01*
X928321Y682117D01*
X911572Y653000D02*
X929860D01*
X929860Y623028D01*
X911572Y623028D02*
X929860Y623028D01*
X911572Y623028D02*
X911572Y653000D01*
X890056Y682517D02*
X911608Y660964D01*
X877483Y669945D02*
X890056Y682517D01*
X877663Y669765D02*
X899215Y648212D01*
X911788Y660785D01*
X782267Y927003D02*
X784579Y957396D01*
X782267Y927003D02*
X799995Y925655D01*
X800015Y925908D02*
X802327Y956300D01*
X784598Y957649D02*
X802327Y956300D01*
X781016Y908778D02*
X799304Y908778D01*
X799304Y878806D02*
X799304Y908778D01*
X781016Y878806D02*
X799304D01*
X781016D02*
Y908778D01*
X804502Y924965D02*
X811389Y954657D01*
X804502Y924965D02*
X821822Y920947D01*
X821879Y921195D02*
X828767Y950886D01*
X811447Y954904D02*
X828767Y950886D01*
X802352Y908538D02*
X820640D01*
Y878566D02*
Y908538D01*
X802352Y878566D02*
X820640D01*
X802352Y908538D02*
X802352Y878566D01*
X826172Y919583D02*
X837476Y947889D01*
X826172Y919583D02*
X842684Y912989D01*
X842778Y913224D02*
X854082Y941531D01*
X837570Y948125D02*
X854082Y941531D01*
X824196Y908732D02*
X842484Y908732D01*
Y878760D02*
Y908732D01*
X824196Y878760D02*
X842484Y878760D01*
X824196Y878760D02*
Y908732D01*
X846777Y910981D02*
X862237Y937249D01*
X846777Y910981D02*
X862100Y901962D01*
X862229Y902181D02*
X877689Y928449D01*
X862366Y937468D02*
X877689Y928449D01*
X824196Y874732D02*
X842484D01*
X842484Y844760D01*
X824196Y844760D02*
X842484Y844760D01*
X824196Y874732D02*
X824196Y844760D01*
X865842Y899358D02*
X885102Y922982D01*
X865842Y899358D02*
X879622Y888123D01*
X879783Y888320D02*
X899043Y911944D01*
X885262Y923179D02*
X899043Y911944D01*
X846040Y874782D02*
X864328Y874782D01*
Y844810D02*
Y874782D01*
X846040Y844810D02*
X864328Y844810D01*
X846040Y874782D02*
X846040Y844810D01*
X883075Y885117D02*
X905690Y905551D01*
X883075Y885117D02*
X894995Y871924D01*
X895183Y872095D02*
X917799Y892529D01*
X905879Y905722D02*
X917799Y892529D01*
X868138Y874732D02*
X886426D01*
Y844760D02*
Y874732D01*
X868138Y844760D02*
X886426D01*
X868138Y874732D02*
X868138Y844760D01*
X897637Y868186D02*
X923086Y884960D01*
X897637Y868186D02*
X907422Y853340D01*
X907634Y853480D02*
X933083Y870254D01*
X923298Y885099D02*
X933083Y870254D01*
X909635Y849354D02*
X937331Y862081D01*
X909635Y849354D02*
X917059Y833198D01*
X917290Y833304D02*
X944986Y846031D01*
X937561Y862187D02*
X944986Y846031D01*
X632934Y601946D02*
X666970D01*
X632934D02*
Y640046D01*
X666970Y601946D02*
Y640046D01*
X632934D02*
X666970D01*
X672050Y625822D02*
X690338D01*
Y595850D02*
Y625822D01*
X672050Y595850D02*
X690338D01*
X672050D02*
Y625822D01*
X599660Y656302D02*
Y686274D01*
Y656302D02*
X617948D01*
Y686274D01*
X599660D02*
X617948D01*
X577816D02*
X577816Y656302D01*
X596104Y656302D01*
X596104Y686274D02*
X596104Y656302D01*
X577816Y686274D02*
X596104D01*
X672050Y628870D02*
X672050Y658842D01*
X672050Y628870D02*
X690338Y628870D01*
X690338Y658842D02*
X690338Y628870D01*
X672050Y658842D02*
X690338D01*
X602345Y784365D02*
X602798Y766591D01*
X602345Y784365D02*
X632816Y785142D01*
X633069Y785148D02*
X633523Y767374D01*
X603052Y766597D02*
X633523Y767374D01*
X609187Y730980D02*
X614940Y714156D01*
X609187Y730980D02*
X638027Y740843D01*
X638267Y740925D02*
X644020Y724101D01*
X615180Y714238D02*
X644020Y724101D01*
X618580Y705678D02*
X626814Y689920D01*
X618580Y705678D02*
X645594Y719795D01*
X645819Y719912D02*
X654053Y704154D01*
X627040Y690038D02*
X654053Y704154D01*
X631696Y682091D02*
X642222Y667761D01*
X631696Y682091D02*
X656261Y700135D01*
X656466Y700286D02*
X666992Y685956D01*
X642427Y667912D02*
X666992Y685956D01*
X648066Y661406D02*
X660169Y648382D01*
X648066Y661406D02*
X670394Y682155D01*
X670580Y682328D02*
X682683Y669303D01*
X660355Y648555D02*
X682683Y669303D01*
X603733Y757412D02*
X606873Y739911D01*
X603733Y757412D02*
X633734Y762794D01*
X633984Y762839D02*
X637124Y745338D01*
X607123Y739956D02*
X637124Y745338D01*
X606911Y820255D02*
X611800Y837350D01*
X641105Y828969D01*
X636460Y811805D02*
X641349Y828899D01*
X607155Y820185D02*
X636460Y811805D01*
X602811Y793580D02*
X605055Y811217D01*
X635291Y807371D01*
X633300Y789701D02*
X635543Y807339D01*
X603063Y793548D02*
X633300Y789701D01*
X759426Y909032D02*
X759426Y879060D01*
X777714Y879060D01*
Y909032D01*
X759426D02*
X777714D01*
X757628Y956496D02*
X775356Y957848D01*
X777673Y927456D01*
X759964Y925851D02*
X777693Y927203D01*
X757647Y956243D02*
X759964Y925851D01*
X738090Y879060D02*
Y909032D01*
Y879060D02*
X756378D01*
X756378Y909032D02*
X756378Y879060D01*
X738090Y909032D02*
X756378D01*
X731158Y951072D02*
X748478Y955093D01*
X755370Y925403D01*
X738109Y921135D02*
X755428Y925155D01*
X731216Y950825D02*
X738109Y921135D01*
X716500Y908732D02*
X716500Y878760D01*
X734788Y878760D01*
X734788Y908732D01*
X716500D02*
X734788D01*
X705816Y941703D02*
X722326Y948300D01*
X733636Y919996D01*
X717219Y913163D02*
X733730Y919761D01*
X705910Y941468D02*
X717219Y913163D01*
X695164Y879060D02*
X695164Y849088D01*
X713452Y849088D01*
X713452Y879060D01*
X695164Y879060D02*
X713452Y879060D01*
X682184Y928605D02*
X697505Y937626D01*
X712970Y911361D01*
X697778Y902121D02*
X713099Y911142D01*
X682313Y928386D02*
X697778Y902121D01*
X661128Y791176D02*
X661128Y761204D01*
X679416Y761204D01*
X679416Y791176D01*
X661128Y791176D02*
X679416Y791176D01*
X660935Y911923D02*
X674713Y923160D01*
X693977Y899540D01*
X680359Y888106D02*
X694138Y899343D01*
X661095Y911726D02*
X680359Y888106D01*
X638399Y761384D02*
X638399Y791356D01*
X638399Y761384D02*
X656687Y761384D01*
X656687Y791356D02*
X656687Y761384D01*
X638399Y791356D02*
X656687Y791356D01*
X642330Y892371D02*
X654248Y905566D01*
X676867Y885135D01*
X665138Y871770D02*
X677056Y884965D01*
X642519Y892201D02*
X665138Y871770D01*
X626901Y870227D02*
X636684Y885074D01*
X662135Y868305D01*
X652565Y853318D02*
X662348Y868165D01*
X627113Y870088D02*
X652565Y853318D01*
X615003Y846003D02*
X622425Y862160D01*
X650123Y849438D01*
X642932Y833174D02*
X650353Y849332D01*
X615234Y845897D02*
X642932Y833174D01*
X976596Y929098D02*
X981676Y924018D01*
X946116Y929098D02*
X976596Y929098D01*
X946116Y818608D02*
Y929098D01*
Y818608D02*
X981676D01*
X981676Y924018D01*
X690098Y741138D02*
X720070D01*
X690098Y722850D02*
Y741138D01*
Y722850D02*
X720070Y722850D01*
X720070Y741138D02*
X720070Y722850D01*
X801590Y600676D02*
Y706340D01*
X695950Y666248D02*
Y697220D01*
Y608003D02*
X695950Y600676D01*
X801590Y600676D01*
X695950Y608003D02*
Y666248D01*
Y697220D02*
X705070Y706340D01*
X801590D01*
M02*
