G04*
G04 #@! TF.GenerationSoftware,Altium Limited,Altium Designer,21.8.1 (53)*
G04*
G04 Layer_Color=32896*
%FSLAX44Y44*%
%MOMM*%
G71*
G04*
G04 #@! TF.SameCoordinates,A6134195-47DE-4A90-8313-BABE1660A9E3*
G04*
G04*
G04 #@! TF.FilePolarity,Positive*
G04*
G01*
G75*
%ADD18C,0.2540*%
%ADD43C,0.2000*%
D18*
X90908Y47295D02*
X92574Y48961D01*
X95906D01*
X97572Y47295D01*
Y40630D01*
X95906Y38964D01*
X92574D01*
X90908Y40630D01*
Y43962D01*
X94240D01*
X87575Y38964D02*
Y48961D01*
X80911Y38964D01*
Y48961D01*
X77579D02*
Y38964D01*
X72580D01*
X70914Y40630D01*
Y47295D01*
X72580Y48961D01*
X77579D01*
X151166Y122448D02*
X144502D01*
X147834Y125781D02*
Y119116D01*
X141169Y125781D02*
X139503Y127447D01*
X136171D01*
X134505Y125781D01*
Y124115D01*
X136171Y122448D01*
X137837D01*
X136171D01*
X134505Y120782D01*
Y119116D01*
X136171Y117450D01*
X139503D01*
X141169Y119116D01*
X131173Y117450D02*
Y119116D01*
X129506D01*
Y117450D01*
X131173D01*
X122842Y125781D02*
X121176Y127447D01*
X117844D01*
X116177Y125781D01*
Y124115D01*
X117844Y122448D01*
X119510D01*
X117844D01*
X116177Y120782D01*
Y119116D01*
X117844Y117450D01*
X121176D01*
X122842Y119116D01*
X112845Y127447D02*
Y120782D01*
X109513Y117450D01*
X106181Y120782D01*
Y127447D01*
X361986Y396179D02*
Y389514D01*
X358654Y386182D01*
X355322Y389514D01*
Y396179D01*
X351989D02*
X348657D01*
X350323D01*
Y386182D01*
X351989D01*
X348657D01*
X343659D02*
Y387848D01*
X341992D01*
Y386182D01*
X343659D01*
X335328Y394513D02*
X333662Y396179D01*
X330330D01*
X328663Y394513D01*
Y392846D01*
X330330Y391180D01*
X331996D01*
X330330D01*
X328663Y389514D01*
Y387848D01*
X330330Y386182D01*
X333662D01*
X335328Y387848D01*
X318667Y386182D02*
X325331D01*
X318667Y392846D01*
Y394513D01*
X320333Y396179D01*
X323665D01*
X325331Y394513D01*
X308670Y396179D02*
X315334D01*
Y391180D01*
X312002D01*
X315334D01*
Y386182D01*
X305338Y394513D02*
X303671Y396179D01*
X300339D01*
X298673Y394513D01*
Y387848D01*
X300339Y386182D01*
X303671D01*
X305338Y387848D01*
Y394513D01*
X295341D02*
X293675Y396179D01*
X290343D01*
X288676Y394513D01*
Y392846D01*
X290343Y391180D01*
X292009D01*
X290343D01*
X288676Y389514D01*
Y387848D01*
X290343Y386182D01*
X293675D01*
X295341Y387848D01*
X285344Y394513D02*
X283678Y396179D01*
X280346D01*
X278680Y394513D01*
Y387848D01*
X280346Y386182D01*
X283678D01*
X285344Y387848D01*
Y394513D01*
X275347Y386182D02*
Y387848D01*
X273681D01*
Y386182D01*
X275347D01*
X267017Y396179D02*
Y389514D01*
X263684Y386182D01*
X260352Y389514D01*
Y396179D01*
X257020Y386182D02*
X253688D01*
X255354D01*
Y396179D01*
X257020Y394513D01*
X265406Y177231D02*
X272070D01*
Y167234D01*
X265406D01*
X272070Y172232D02*
X268738D01*
X262073Y167234D02*
Y177231D01*
X255409Y167234D01*
Y177231D01*
X245412Y175565D02*
X247078Y177231D01*
X250410D01*
X252076Y175565D01*
Y168900D01*
X250410Y167234D01*
X247078D01*
X245412Y168900D01*
X269022Y92141D02*
X265690D01*
X267356D01*
Y82144D01*
X269022D01*
X265690D01*
X254027D02*
X260691D01*
X254027Y88808D01*
Y90475D01*
X255693Y92141D01*
X259025D01*
X260691Y90475D01*
X244030D02*
X245696Y92141D01*
X249028D01*
X250695Y90475D01*
Y83810D01*
X249028Y82144D01*
X245696D01*
X244030Y83810D01*
X284008Y237764D02*
X277344D01*
X280676Y241097D02*
Y234432D01*
X274011Y241097D02*
X272345Y242763D01*
X269013D01*
X267347Y241097D01*
Y239431D01*
X269013Y237764D01*
X270679D01*
X269013D01*
X267347Y236098D01*
Y234432D01*
X269013Y232766D01*
X272345D01*
X274011Y234432D01*
X264014Y232766D02*
Y234432D01*
X262348D01*
Y232766D01*
X264014D01*
X255684Y241097D02*
X254018Y242763D01*
X250686D01*
X249019Y241097D01*
Y239431D01*
X250686Y237764D01*
X252352D01*
X250686D01*
X249019Y236098D01*
Y234432D01*
X250686Y232766D01*
X254018D01*
X255684Y234432D01*
X245687Y242763D02*
Y236098D01*
X242355Y232766D01*
X239023Y236098D01*
Y242763D01*
X406003Y200000D02*
Y193335D01*
Y196668D01*
X416000D01*
X406003Y183339D02*
Y190003D01*
X416000D01*
Y183339D01*
X411002Y190003D02*
Y186671D01*
X407669Y173342D02*
X406003Y175008D01*
Y178340D01*
X407669Y180007D01*
X409336D01*
X411002Y178340D01*
Y175008D01*
X412668Y173342D01*
X414334D01*
X416000Y175008D01*
Y178340D01*
X414334Y180007D01*
X406003Y170010D02*
Y163345D01*
Y166677D01*
X416000D01*
X174026Y82906D02*
Y92903D01*
X169028D01*
X167362Y91237D01*
Y87904D01*
X169028Y86238D01*
X174026D01*
X170694D02*
X167362Y82906D01*
X157365Y92903D02*
X164029D01*
Y82906D01*
X157365D01*
X164029Y87904D02*
X160697D01*
X147368Y91237D02*
X149034Y92903D01*
X152366D01*
X154032Y91237D01*
Y89571D01*
X152366Y87904D01*
X149034D01*
X147368Y86238D01*
Y84572D01*
X149034Y82906D01*
X152366D01*
X154032Y84572D01*
X137371Y92903D02*
X144036D01*
Y82906D01*
X137371D01*
X144036Y87904D02*
X140703D01*
X134039Y92903D02*
X127374D01*
X130707D01*
Y82906D01*
X201398Y42469D02*
X203064Y44135D01*
X206396D01*
X208062Y42469D01*
Y35804D01*
X206396Y34138D01*
X203064D01*
X201398Y35804D01*
X193067Y34138D02*
Y44135D01*
X198065Y39136D01*
X191401D01*
X211304Y197663D02*
X212970Y199329D01*
X216302D01*
X217968Y197663D01*
Y190998D01*
X216302Y189332D01*
X212970D01*
X211304Y190998D01*
X207971Y197663D02*
X206305Y199329D01*
X202973D01*
X201307Y197663D01*
Y195996D01*
X202973Y194330D01*
X204639D01*
X202973D01*
X201307Y192664D01*
Y190998D01*
X202973Y189332D01*
X206305D01*
X207971Y190998D01*
X73437Y342380D02*
Y332384D01*
X68438D01*
X66772Y334050D01*
Y340714D01*
X68438Y342380D01*
X73437D01*
X63440Y332384D02*
X60108D01*
X61774D01*
Y342380D01*
X63440Y340714D01*
X378242Y347665D02*
X371578Y337668D01*
Y347665D02*
X378242Y337668D01*
X368245Y345999D02*
X366579Y347665D01*
X363247D01*
X361581Y345999D01*
Y344333D01*
X363247Y342666D01*
X364913D01*
X363247D01*
X361581Y341000D01*
Y339334D01*
X363247Y337668D01*
X366579D01*
X368245Y339334D01*
X158472Y31293D02*
X160138Y32959D01*
X163470D01*
X165136Y31293D01*
Y24628D01*
X163470Y22962D01*
X160138D01*
X158472Y24628D01*
X155139Y22962D02*
X151807D01*
X153473D01*
Y32959D01*
X155139Y31293D01*
X175550Y56998D02*
Y66995D01*
X170552D01*
X168886Y65329D01*
Y61996D01*
X170552Y60330D01*
X175550D01*
X172218D02*
X168886Y56998D01*
X165553D02*
X162221D01*
X163887D01*
Y66995D01*
X165553Y65329D01*
X157223D02*
X155556Y66995D01*
X152224D01*
X150558Y65329D01*
Y58664D01*
X152224Y56998D01*
X155556D01*
X157223Y58664D01*
Y65329D01*
X291882Y91887D02*
X285218Y81890D01*
Y91887D02*
X291882Y81890D01*
X281885D02*
X278553D01*
X280219D01*
Y91887D01*
X281885Y90221D01*
X229144Y121351D02*
X222480Y111354D01*
Y121351D02*
X229144Y111354D01*
X212483D02*
X219147D01*
X212483Y118019D01*
Y119685D01*
X214149Y121351D01*
X217481D01*
X219147Y119685D01*
X169962Y301945D02*
X166630D01*
X168296D01*
Y291948D01*
X169962D01*
X166630D01*
X154967Y300279D02*
X156633Y301945D01*
X159965D01*
X161631Y300279D01*
Y293614D01*
X159965Y291948D01*
X156633D01*
X154967Y293614D01*
X151635Y291948D02*
X148302D01*
X149969D01*
Y301945D01*
X151635Y300279D01*
X222734Y322631D02*
X224400Y324297D01*
X227732D01*
X229398Y322631D01*
Y315966D01*
X227732Y314300D01*
X224400D01*
X222734Y315966D01*
X212737Y314300D02*
X219401D01*
X212737Y320965D01*
Y322631D01*
X214403Y324297D01*
X217735D01*
X219401Y322631D01*
X182408Y105512D02*
Y115509D01*
X177410D01*
X175744Y113843D01*
Y110510D01*
X177410Y108844D01*
X182408D01*
X179076D02*
X175744Y105512D01*
X172411Y113843D02*
X170745Y115509D01*
X167413D01*
X165747Y113843D01*
Y112177D01*
X167413Y110510D01*
X169079D01*
X167413D01*
X165747Y108844D01*
Y107178D01*
X167413Y105512D01*
X170745D01*
X172411Y107178D01*
X155750Y115509D02*
X162414D01*
Y110510D01*
X159082Y112177D01*
X157416D01*
X155750Y110510D01*
Y107178D01*
X157416Y105512D01*
X160748D01*
X162414Y107178D01*
X276896Y284328D02*
Y294325D01*
X271898D01*
X270232Y292659D01*
Y289326D01*
X271898Y287660D01*
X276896D01*
X273564D02*
X270232Y284328D01*
X266899Y292659D02*
X265233Y294325D01*
X261901D01*
X260235Y292659D01*
Y290993D01*
X261901Y289326D01*
X263567D01*
X261901D01*
X260235Y287660D01*
Y285994D01*
X261901Y284328D01*
X265233D01*
X266899Y285994D01*
X256903Y294325D02*
X250238D01*
Y292659D01*
X256903Y285994D01*
Y284328D01*
X650908Y47295D02*
X652574Y48961D01*
X655906D01*
X657572Y47295D01*
Y40630D01*
X655906Y38964D01*
X652574D01*
X650908Y40630D01*
Y43962D01*
X654240D01*
X647575Y38964D02*
Y48961D01*
X640911Y38964D01*
Y48961D01*
X637579D02*
Y38964D01*
X632580D01*
X630914Y40630D01*
Y47295D01*
X632580Y48961D01*
X637579D01*
X711166Y122448D02*
X704502D01*
X707834Y125781D02*
Y119116D01*
X701169Y125781D02*
X699503Y127447D01*
X696171D01*
X694505Y125781D01*
Y124115D01*
X696171Y122448D01*
X697837D01*
X696171D01*
X694505Y120782D01*
Y119116D01*
X696171Y117450D01*
X699503D01*
X701169Y119116D01*
X691173Y117450D02*
Y119116D01*
X689507D01*
Y117450D01*
X691173D01*
X682842Y125781D02*
X681176Y127447D01*
X677844D01*
X676178Y125781D01*
Y124115D01*
X677844Y122448D01*
X679510D01*
X677844D01*
X676178Y120782D01*
Y119116D01*
X677844Y117450D01*
X681176D01*
X682842Y119116D01*
X672845Y127447D02*
Y120782D01*
X669513Y117450D01*
X666181Y120782D01*
Y127447D01*
X921986Y396179D02*
Y389514D01*
X918654Y386182D01*
X915322Y389514D01*
Y396179D01*
X911989D02*
X908657D01*
X910323D01*
Y386182D01*
X911989D01*
X908657D01*
X903659D02*
Y387848D01*
X901993D01*
Y386182D01*
X903659D01*
X895328Y394513D02*
X893662Y396179D01*
X890330D01*
X888664Y394513D01*
Y392846D01*
X890330Y391180D01*
X891996D01*
X890330D01*
X888664Y389514D01*
Y387848D01*
X890330Y386182D01*
X893662D01*
X895328Y387848D01*
X878667Y386182D02*
X885331D01*
X878667Y392846D01*
Y394513D01*
X880333Y396179D01*
X883665D01*
X885331Y394513D01*
X868670Y396179D02*
X875334D01*
Y391180D01*
X872002D01*
X875334D01*
Y386182D01*
X865338Y394513D02*
X863672Y396179D01*
X860339D01*
X858673Y394513D01*
Y387848D01*
X860339Y386182D01*
X863672D01*
X865338Y387848D01*
Y394513D01*
X855341D02*
X853675Y396179D01*
X850343D01*
X848677Y394513D01*
Y392846D01*
X850343Y391180D01*
X852009D01*
X850343D01*
X848677Y389514D01*
Y387848D01*
X850343Y386182D01*
X853675D01*
X855341Y387848D01*
X845344Y394513D02*
X843678Y396179D01*
X840346D01*
X838680Y394513D01*
Y387848D01*
X840346Y386182D01*
X843678D01*
X845344Y387848D01*
Y394513D01*
X835347Y386182D02*
Y387848D01*
X833681D01*
Y386182D01*
X835347D01*
X827017Y396179D02*
Y389514D01*
X823684Y386182D01*
X820352Y389514D01*
Y396179D01*
X817020Y386182D02*
X813688D01*
X815354D01*
Y396179D01*
X817020Y394513D01*
X825406Y177231D02*
X832070D01*
Y167234D01*
X825406D01*
X832070Y172232D02*
X828738D01*
X822073Y167234D02*
Y177231D01*
X815409Y167234D01*
Y177231D01*
X805412Y175565D02*
X807078Y177231D01*
X810411D01*
X812077Y175565D01*
Y168900D01*
X810411Y167234D01*
X807078D01*
X805412Y168900D01*
X829022Y92141D02*
X825690D01*
X827356D01*
Y82144D01*
X829022D01*
X825690D01*
X814027D02*
X820692D01*
X814027Y88808D01*
Y90475D01*
X815693Y92141D01*
X819025D01*
X820692Y90475D01*
X804030D02*
X805696Y92141D01*
X809029D01*
X810695Y90475D01*
Y83810D01*
X809029Y82144D01*
X805696D01*
X804030Y83810D01*
X844008Y237764D02*
X837344D01*
X840676Y241097D02*
Y234432D01*
X834011Y241097D02*
X832345Y242763D01*
X829013D01*
X827347Y241097D01*
Y239431D01*
X829013Y237764D01*
X830679D01*
X829013D01*
X827347Y236098D01*
Y234432D01*
X829013Y232766D01*
X832345D01*
X834011Y234432D01*
X824015Y232766D02*
Y234432D01*
X822348D01*
Y232766D01*
X824015D01*
X815684Y241097D02*
X814018Y242763D01*
X810686D01*
X809019Y241097D01*
Y239431D01*
X810686Y237764D01*
X812352D01*
X810686D01*
X809019Y236098D01*
Y234432D01*
X810686Y232766D01*
X814018D01*
X815684Y234432D01*
X805687Y242763D02*
Y236098D01*
X802355Y232766D01*
X799023Y236098D01*
Y242763D01*
X966003Y200000D02*
Y193335D01*
Y196668D01*
X976000D01*
X966003Y183339D02*
Y190003D01*
X976000D01*
Y183339D01*
X971002Y190003D02*
Y186671D01*
X967670Y173342D02*
X966003Y175008D01*
Y178340D01*
X967670Y180007D01*
X969336D01*
X971002Y178340D01*
Y175008D01*
X972668Y173342D01*
X974334D01*
X976000Y175008D01*
Y178340D01*
X974334Y180007D01*
X966003Y170010D02*
Y163345D01*
Y166677D01*
X976000D01*
X734026Y82906D02*
Y92903D01*
X729028D01*
X727362Y91237D01*
Y87904D01*
X729028Y86238D01*
X734026D01*
X730694D02*
X727362Y82906D01*
X717365Y92903D02*
X724029D01*
Y82906D01*
X717365D01*
X724029Y87904D02*
X720697D01*
X707368Y91237D02*
X709034Y92903D01*
X712366D01*
X714033Y91237D01*
Y89571D01*
X712366Y87904D01*
X709034D01*
X707368Y86238D01*
Y84572D01*
X709034Y82906D01*
X712366D01*
X714033Y84572D01*
X697371Y92903D02*
X704036D01*
Y82906D01*
X697371D01*
X704036Y87904D02*
X700704D01*
X694039Y92903D02*
X687374D01*
X690707D01*
Y82906D01*
X761398Y42469D02*
X763064Y44135D01*
X766396D01*
X768062Y42469D01*
Y35804D01*
X766396Y34138D01*
X763064D01*
X761398Y35804D01*
X753067Y34138D02*
Y44135D01*
X758065Y39136D01*
X751401D01*
X771304Y197663D02*
X772970Y199329D01*
X776302D01*
X777968Y197663D01*
Y190998D01*
X776302Y189332D01*
X772970D01*
X771304Y190998D01*
X767971Y197663D02*
X766305Y199329D01*
X762973D01*
X761307Y197663D01*
Y195996D01*
X762973Y194330D01*
X764639D01*
X762973D01*
X761307Y192664D01*
Y190998D01*
X762973Y189332D01*
X766305D01*
X767971Y190998D01*
X633437Y342380D02*
Y332384D01*
X628438D01*
X626772Y334050D01*
Y340714D01*
X628438Y342380D01*
X633437D01*
X623440Y332384D02*
X620108D01*
X621774D01*
Y342380D01*
X623440Y340714D01*
X938242Y347665D02*
X931578Y337668D01*
Y347665D02*
X938242Y337668D01*
X928245Y345999D02*
X926579Y347665D01*
X923247D01*
X921581Y345999D01*
Y344333D01*
X923247Y342666D01*
X924913D01*
X923247D01*
X921581Y341000D01*
Y339334D01*
X923247Y337668D01*
X926579D01*
X928245Y339334D01*
X718472Y31293D02*
X720138Y32959D01*
X723470D01*
X725136Y31293D01*
Y24628D01*
X723470Y22962D01*
X720138D01*
X718472Y24628D01*
X715139Y22962D02*
X711807D01*
X713473D01*
Y32959D01*
X715139Y31293D01*
X735550Y56998D02*
Y66995D01*
X730552D01*
X728886Y65329D01*
Y61996D01*
X730552Y60330D01*
X735550D01*
X732218D02*
X728886Y56998D01*
X725553D02*
X722221D01*
X723887D01*
Y66995D01*
X725553Y65329D01*
X717223D02*
X715557Y66995D01*
X712224D01*
X710558Y65329D01*
Y58664D01*
X712224Y56998D01*
X715557D01*
X717223Y58664D01*
Y65329D01*
X851882Y91887D02*
X845218Y81890D01*
Y91887D02*
X851882Y81890D01*
X841885D02*
X838553D01*
X840219D01*
Y91887D01*
X841885Y90221D01*
X789144Y121351D02*
X782480Y111354D01*
Y121351D02*
X789144Y111354D01*
X772483D02*
X779147D01*
X772483Y118019D01*
Y119685D01*
X774149Y121351D01*
X777481D01*
X779147Y119685D01*
X729962Y301945D02*
X726630D01*
X728296D01*
Y291948D01*
X729962D01*
X726630D01*
X714967Y300279D02*
X716633Y301945D01*
X719965D01*
X721631Y300279D01*
Y293614D01*
X719965Y291948D01*
X716633D01*
X714967Y293614D01*
X711635Y291948D02*
X708303D01*
X709969D01*
Y301945D01*
X711635Y300279D01*
X782734Y322631D02*
X784400Y324297D01*
X787732D01*
X789398Y322631D01*
Y315966D01*
X787732Y314300D01*
X784400D01*
X782734Y315966D01*
X772737Y314300D02*
X779401D01*
X772737Y320965D01*
Y322631D01*
X774403Y324297D01*
X777735D01*
X779401Y322631D01*
X742408Y105512D02*
Y115509D01*
X737410D01*
X735744Y113843D01*
Y110510D01*
X737410Y108844D01*
X742408D01*
X739076D02*
X735744Y105512D01*
X732411Y113843D02*
X730745Y115509D01*
X727413D01*
X725747Y113843D01*
Y112177D01*
X727413Y110510D01*
X729079D01*
X727413D01*
X725747Y108844D01*
Y107178D01*
X727413Y105512D01*
X730745D01*
X732411Y107178D01*
X715750Y115509D02*
X722415D01*
Y110510D01*
X719082Y112177D01*
X717416D01*
X715750Y110510D01*
Y107178D01*
X717416Y105512D01*
X720749D01*
X722415Y107178D01*
X836896Y284328D02*
Y294325D01*
X831898D01*
X830232Y292659D01*
Y289326D01*
X831898Y287660D01*
X836896D01*
X833564D02*
X830232Y284328D01*
X826899Y292659D02*
X825233Y294325D01*
X821901D01*
X820235Y292659D01*
Y290993D01*
X821901Y289326D01*
X823567D01*
X821901D01*
X820235Y287660D01*
Y285994D01*
X821901Y284328D01*
X825233D01*
X826899Y285994D01*
X816903Y294325D02*
X810238D01*
Y292659D01*
X816903Y285994D01*
Y284328D01*
X90908Y627295D02*
X92574Y628961D01*
X95906D01*
X97572Y627295D01*
Y620630D01*
X95906Y618964D01*
X92574D01*
X90908Y620630D01*
Y623962D01*
X94240D01*
X87575Y618964D02*
Y628961D01*
X80911Y618964D01*
Y628961D01*
X77579D02*
Y618964D01*
X72580D01*
X70914Y620630D01*
Y627295D01*
X72580Y628961D01*
X77579D01*
X151166Y702448D02*
X144502D01*
X147834Y705781D02*
Y699116D01*
X141169Y705781D02*
X139503Y707447D01*
X136171D01*
X134505Y705781D01*
Y704115D01*
X136171Y702448D01*
X137837D01*
X136171D01*
X134505Y700782D01*
Y699116D01*
X136171Y697450D01*
X139503D01*
X141169Y699116D01*
X131173Y697450D02*
Y699116D01*
X129506D01*
Y697450D01*
X131173D01*
X122842Y705781D02*
X121176Y707447D01*
X117844D01*
X116177Y705781D01*
Y704115D01*
X117844Y702448D01*
X119510D01*
X117844D01*
X116177Y700782D01*
Y699116D01*
X117844Y697450D01*
X121176D01*
X122842Y699116D01*
X112845Y707447D02*
Y700782D01*
X109513Y697450D01*
X106181Y700782D01*
Y707447D01*
X361986Y976179D02*
Y969514D01*
X358654Y966182D01*
X355322Y969514D01*
Y976179D01*
X351989D02*
X348657D01*
X350323D01*
Y966182D01*
X351989D01*
X348657D01*
X343659D02*
Y967848D01*
X341992D01*
Y966182D01*
X343659D01*
X335328Y974513D02*
X333662Y976179D01*
X330330D01*
X328663Y974513D01*
Y972847D01*
X330330Y971180D01*
X331996D01*
X330330D01*
X328663Y969514D01*
Y967848D01*
X330330Y966182D01*
X333662D01*
X335328Y967848D01*
X318667Y966182D02*
X325331D01*
X318667Y972847D01*
Y974513D01*
X320333Y976179D01*
X323665D01*
X325331Y974513D01*
X308670Y976179D02*
X315334D01*
Y971180D01*
X312002D01*
X315334D01*
Y966182D01*
X305338Y974513D02*
X303671Y976179D01*
X300339D01*
X298673Y974513D01*
Y967848D01*
X300339Y966182D01*
X303671D01*
X305338Y967848D01*
Y974513D01*
X295341D02*
X293675Y976179D01*
X290343D01*
X288676Y974513D01*
Y972847D01*
X290343Y971180D01*
X292009D01*
X290343D01*
X288676Y969514D01*
Y967848D01*
X290343Y966182D01*
X293675D01*
X295341Y967848D01*
X285344Y974513D02*
X283678Y976179D01*
X280346D01*
X278680Y974513D01*
Y967848D01*
X280346Y966182D01*
X283678D01*
X285344Y967848D01*
Y974513D01*
X275347Y966182D02*
Y967848D01*
X273681D01*
Y966182D01*
X275347D01*
X267017Y976179D02*
Y969514D01*
X263684Y966182D01*
X260352Y969514D01*
Y976179D01*
X257020Y966182D02*
X253688D01*
X255354D01*
Y976179D01*
X257020Y974513D01*
X265406Y757231D02*
X272070D01*
Y747234D01*
X265406D01*
X272070Y752232D02*
X268738D01*
X262073Y747234D02*
Y757231D01*
X255409Y747234D01*
Y757231D01*
X245412Y755565D02*
X247078Y757231D01*
X250410D01*
X252076Y755565D01*
Y748900D01*
X250410Y747234D01*
X247078D01*
X245412Y748900D01*
X269022Y672141D02*
X265690D01*
X267356D01*
Y662144D01*
X269022D01*
X265690D01*
X254027D02*
X260691D01*
X254027Y668809D01*
Y670475D01*
X255693Y672141D01*
X259025D01*
X260691Y670475D01*
X244030D02*
X245696Y672141D01*
X249028D01*
X250695Y670475D01*
Y663810D01*
X249028Y662144D01*
X245696D01*
X244030Y663810D01*
X284008Y817764D02*
X277344D01*
X280676Y821097D02*
Y814432D01*
X274011Y821097D02*
X272345Y822763D01*
X269013D01*
X267347Y821097D01*
Y819430D01*
X269013Y817764D01*
X270679D01*
X269013D01*
X267347Y816098D01*
Y814432D01*
X269013Y812766D01*
X272345D01*
X274011Y814432D01*
X264014Y812766D02*
Y814432D01*
X262348D01*
Y812766D01*
X264014D01*
X255684Y821097D02*
X254018Y822763D01*
X250686D01*
X249019Y821097D01*
Y819430D01*
X250686Y817764D01*
X252352D01*
X250686D01*
X249019Y816098D01*
Y814432D01*
X250686Y812766D01*
X254018D01*
X255684Y814432D01*
X245687Y822763D02*
Y816098D01*
X242355Y812766D01*
X239023Y816098D01*
Y822763D01*
X406003Y780000D02*
Y773335D01*
Y776668D01*
X416000D01*
X406003Y763339D02*
Y770003D01*
X416000D01*
Y763339D01*
X411002Y770003D02*
Y766671D01*
X407669Y753342D02*
X406003Y755008D01*
Y758340D01*
X407669Y760006D01*
X409336D01*
X411002Y758340D01*
Y755008D01*
X412668Y753342D01*
X414334D01*
X416000Y755008D01*
Y758340D01*
X414334Y760006D01*
X406003Y750010D02*
Y743345D01*
Y746677D01*
X416000D01*
X174026Y662906D02*
Y672903D01*
X169028D01*
X167362Y671237D01*
Y667904D01*
X169028Y666238D01*
X174026D01*
X170694D02*
X167362Y662906D01*
X157365Y672903D02*
X164029D01*
Y662906D01*
X157365D01*
X164029Y667904D02*
X160697D01*
X147368Y671237D02*
X149034Y672903D01*
X152366D01*
X154032Y671237D01*
Y669570D01*
X152366Y667904D01*
X149034D01*
X147368Y666238D01*
Y664572D01*
X149034Y662906D01*
X152366D01*
X154032Y664572D01*
X137371Y672903D02*
X144036D01*
Y662906D01*
X137371D01*
X144036Y667904D02*
X140703D01*
X134039Y672903D02*
X127374D01*
X130707D01*
Y662906D01*
X201398Y622469D02*
X203064Y624135D01*
X206396D01*
X208062Y622469D01*
Y615804D01*
X206396Y614138D01*
X203064D01*
X201398Y615804D01*
X193067Y614138D02*
Y624135D01*
X198065Y619136D01*
X191401D01*
X211304Y777663D02*
X212970Y779329D01*
X216302D01*
X217968Y777663D01*
Y770998D01*
X216302Y769332D01*
X212970D01*
X211304Y770998D01*
X207971Y777663D02*
X206305Y779329D01*
X202973D01*
X201307Y777663D01*
Y775996D01*
X202973Y774330D01*
X204639D01*
X202973D01*
X201307Y772664D01*
Y770998D01*
X202973Y769332D01*
X206305D01*
X207971Y770998D01*
X73437Y922380D02*
Y912384D01*
X68438D01*
X66772Y914050D01*
Y920714D01*
X68438Y922380D01*
X73437D01*
X63440Y912384D02*
X60108D01*
X61774D01*
Y922380D01*
X63440Y920714D01*
X378242Y927665D02*
X371578Y917668D01*
Y927665D02*
X378242Y917668D01*
X368245Y925999D02*
X366579Y927665D01*
X363247D01*
X361581Y925999D01*
Y924333D01*
X363247Y922666D01*
X364913D01*
X363247D01*
X361581Y921000D01*
Y919334D01*
X363247Y917668D01*
X366579D01*
X368245Y919334D01*
X158472Y611293D02*
X160138Y612959D01*
X163470D01*
X165136Y611293D01*
Y604628D01*
X163470Y602962D01*
X160138D01*
X158472Y604628D01*
X155139Y602962D02*
X151807D01*
X153473D01*
Y612959D01*
X155139Y611293D01*
X175550Y636998D02*
Y646995D01*
X170552D01*
X168886Y645329D01*
Y641996D01*
X170552Y640330D01*
X175550D01*
X172218D02*
X168886Y636998D01*
X165553D02*
X162221D01*
X163887D01*
Y646995D01*
X165553Y645329D01*
X157223D02*
X155556Y646995D01*
X152224D01*
X150558Y645329D01*
Y638664D01*
X152224Y636998D01*
X155556D01*
X157223Y638664D01*
Y645329D01*
X291882Y671887D02*
X285218Y661890D01*
Y671887D02*
X291882Y661890D01*
X281885D02*
X278553D01*
X280219D01*
Y671887D01*
X281885Y670221D01*
X229144Y701351D02*
X222480Y691354D01*
Y701351D02*
X229144Y691354D01*
X212483D02*
X219147D01*
X212483Y698018D01*
Y699685D01*
X214149Y701351D01*
X217481D01*
X219147Y699685D01*
X169962Y881945D02*
X166630D01*
X168296D01*
Y871948D01*
X169962D01*
X166630D01*
X154967Y880279D02*
X156633Y881945D01*
X159965D01*
X161631Y880279D01*
Y873614D01*
X159965Y871948D01*
X156633D01*
X154967Y873614D01*
X151635Y871948D02*
X148302D01*
X149969D01*
Y881945D01*
X151635Y880279D01*
X222734Y902631D02*
X224400Y904297D01*
X227732D01*
X229398Y902631D01*
Y895966D01*
X227732Y894300D01*
X224400D01*
X222734Y895966D01*
X212737Y894300D02*
X219401D01*
X212737Y900965D01*
Y902631D01*
X214403Y904297D01*
X217735D01*
X219401Y902631D01*
X182408Y685512D02*
Y695509D01*
X177410D01*
X175744Y693843D01*
Y690510D01*
X177410Y688844D01*
X182408D01*
X179076D02*
X175744Y685512D01*
X172411Y693843D02*
X170745Y695509D01*
X167413D01*
X165747Y693843D01*
Y692177D01*
X167413Y690510D01*
X169079D01*
X167413D01*
X165747Y688844D01*
Y687178D01*
X167413Y685512D01*
X170745D01*
X172411Y687178D01*
X155750Y695509D02*
X162414D01*
Y690510D01*
X159082Y692177D01*
X157416D01*
X155750Y690510D01*
Y687178D01*
X157416Y685512D01*
X160748D01*
X162414Y687178D01*
X276896Y864328D02*
Y874325D01*
X271898D01*
X270232Y872659D01*
Y869326D01*
X271898Y867660D01*
X276896D01*
X273564D02*
X270232Y864328D01*
X266899Y872659D02*
X265233Y874325D01*
X261901D01*
X260235Y872659D01*
Y870993D01*
X261901Y869326D01*
X263567D01*
X261901D01*
X260235Y867660D01*
Y865994D01*
X261901Y864328D01*
X265233D01*
X266899Y865994D01*
X256903Y874325D02*
X250238D01*
Y872659D01*
X256903Y865994D01*
Y864328D01*
X650908Y627295D02*
X652574Y628961D01*
X655906D01*
X657572Y627295D01*
Y620630D01*
X655906Y618964D01*
X652574D01*
X650908Y620630D01*
Y623962D01*
X654240D01*
X647575Y618964D02*
Y628961D01*
X640911Y618964D01*
Y628961D01*
X637579D02*
Y618964D01*
X632580D01*
X630914Y620630D01*
Y627295D01*
X632580Y628961D01*
X637579D01*
X711166Y702448D02*
X704502D01*
X707834Y705781D02*
Y699116D01*
X701169Y705781D02*
X699503Y707447D01*
X696171D01*
X694505Y705781D01*
Y704115D01*
X696171Y702448D01*
X697837D01*
X696171D01*
X694505Y700782D01*
Y699116D01*
X696171Y697450D01*
X699503D01*
X701169Y699116D01*
X691173Y697450D02*
Y699116D01*
X689507D01*
Y697450D01*
X691173D01*
X682842Y705781D02*
X681176Y707447D01*
X677844D01*
X676178Y705781D01*
Y704115D01*
X677844Y702448D01*
X679510D01*
X677844D01*
X676178Y700782D01*
Y699116D01*
X677844Y697450D01*
X681176D01*
X682842Y699116D01*
X672845Y707447D02*
Y700782D01*
X669513Y697450D01*
X666181Y700782D01*
Y707447D01*
X921986Y976179D02*
Y969514D01*
X918654Y966182D01*
X915322Y969514D01*
Y976179D01*
X911989D02*
X908657D01*
X910323D01*
Y966182D01*
X911989D01*
X908657D01*
X903659D02*
Y967848D01*
X901993D01*
Y966182D01*
X903659D01*
X895328Y974513D02*
X893662Y976179D01*
X890330D01*
X888664Y974513D01*
Y972847D01*
X890330Y971180D01*
X891996D01*
X890330D01*
X888664Y969514D01*
Y967848D01*
X890330Y966182D01*
X893662D01*
X895328Y967848D01*
X878667Y966182D02*
X885331D01*
X878667Y972847D01*
Y974513D01*
X880333Y976179D01*
X883665D01*
X885331Y974513D01*
X868670Y976179D02*
X875334D01*
Y971180D01*
X872002D01*
X875334D01*
Y966182D01*
X865338Y974513D02*
X863672Y976179D01*
X860339D01*
X858673Y974513D01*
Y967848D01*
X860339Y966182D01*
X863672D01*
X865338Y967848D01*
Y974513D01*
X855341D02*
X853675Y976179D01*
X850343D01*
X848677Y974513D01*
Y972847D01*
X850343Y971180D01*
X852009D01*
X850343D01*
X848677Y969514D01*
Y967848D01*
X850343Y966182D01*
X853675D01*
X855341Y967848D01*
X845344Y974513D02*
X843678Y976179D01*
X840346D01*
X838680Y974513D01*
Y967848D01*
X840346Y966182D01*
X843678D01*
X845344Y967848D01*
Y974513D01*
X835347Y966182D02*
Y967848D01*
X833681D01*
Y966182D01*
X835347D01*
X827017Y976179D02*
Y969514D01*
X823684Y966182D01*
X820352Y969514D01*
Y976179D01*
X817020Y966182D02*
X813688D01*
X815354D01*
Y976179D01*
X817020Y974513D01*
X825406Y757231D02*
X832070D01*
Y747234D01*
X825406D01*
X832070Y752232D02*
X828738D01*
X822073Y747234D02*
Y757231D01*
X815409Y747234D01*
Y757231D01*
X805412Y755565D02*
X807078Y757231D01*
X810411D01*
X812077Y755565D01*
Y748900D01*
X810411Y747234D01*
X807078D01*
X805412Y748900D01*
X829022Y672141D02*
X825690D01*
X827356D01*
Y662144D01*
X829022D01*
X825690D01*
X814027D02*
X820692D01*
X814027Y668809D01*
Y670475D01*
X815693Y672141D01*
X819025D01*
X820692Y670475D01*
X804030D02*
X805696Y672141D01*
X809029D01*
X810695Y670475D01*
Y663810D01*
X809029Y662144D01*
X805696D01*
X804030Y663810D01*
X844008Y817764D02*
X837344D01*
X840676Y821097D02*
Y814432D01*
X834011Y821097D02*
X832345Y822763D01*
X829013D01*
X827347Y821097D01*
Y819430D01*
X829013Y817764D01*
X830679D01*
X829013D01*
X827347Y816098D01*
Y814432D01*
X829013Y812766D01*
X832345D01*
X834011Y814432D01*
X824015Y812766D02*
Y814432D01*
X822348D01*
Y812766D01*
X824015D01*
X815684Y821097D02*
X814018Y822763D01*
X810686D01*
X809019Y821097D01*
Y819430D01*
X810686Y817764D01*
X812352D01*
X810686D01*
X809019Y816098D01*
Y814432D01*
X810686Y812766D01*
X814018D01*
X815684Y814432D01*
X805687Y822763D02*
Y816098D01*
X802355Y812766D01*
X799023Y816098D01*
Y822763D01*
X966003Y780000D02*
Y773335D01*
Y776668D01*
X976000D01*
X966003Y763339D02*
Y770003D01*
X976000D01*
Y763339D01*
X971002Y770003D02*
Y766671D01*
X967670Y753342D02*
X966003Y755008D01*
Y758340D01*
X967670Y760006D01*
X969336D01*
X971002Y758340D01*
Y755008D01*
X972668Y753342D01*
X974334D01*
X976000Y755008D01*
Y758340D01*
X974334Y760006D01*
X966003Y750010D02*
Y743345D01*
Y746677D01*
X976000D01*
X734026Y662906D02*
Y672903D01*
X729028D01*
X727362Y671237D01*
Y667904D01*
X729028Y666238D01*
X734026D01*
X730694D02*
X727362Y662906D01*
X717365Y672903D02*
X724029D01*
Y662906D01*
X717365D01*
X724029Y667904D02*
X720697D01*
X707368Y671237D02*
X709034Y672903D01*
X712366D01*
X714033Y671237D01*
Y669570D01*
X712366Y667904D01*
X709034D01*
X707368Y666238D01*
Y664572D01*
X709034Y662906D01*
X712366D01*
X714033Y664572D01*
X697371Y672903D02*
X704036D01*
Y662906D01*
X697371D01*
X704036Y667904D02*
X700704D01*
X694039Y672903D02*
X687374D01*
X690707D01*
Y662906D01*
X761398Y622469D02*
X763064Y624135D01*
X766396D01*
X768062Y622469D01*
Y615804D01*
X766396Y614138D01*
X763064D01*
X761398Y615804D01*
X753067Y614138D02*
Y624135D01*
X758065Y619136D01*
X751401D01*
X771304Y777663D02*
X772970Y779329D01*
X776302D01*
X777968Y777663D01*
Y770998D01*
X776302Y769332D01*
X772970D01*
X771304Y770998D01*
X767971Y777663D02*
X766305Y779329D01*
X762973D01*
X761307Y777663D01*
Y775996D01*
X762973Y774330D01*
X764639D01*
X762973D01*
X761307Y772664D01*
Y770998D01*
X762973Y769332D01*
X766305D01*
X767971Y770998D01*
X633437Y922380D02*
Y912384D01*
X628438D01*
X626772Y914050D01*
Y920714D01*
X628438Y922380D01*
X633437D01*
X623440Y912384D02*
X620108D01*
X621774D01*
Y922380D01*
X623440Y920714D01*
X938242Y927665D02*
X931578Y917668D01*
Y927665D02*
X938242Y917668D01*
X928245Y925999D02*
X926579Y927665D01*
X923247D01*
X921581Y925999D01*
Y924333D01*
X923247Y922666D01*
X924913D01*
X923247D01*
X921581Y921000D01*
Y919334D01*
X923247Y917668D01*
X926579D01*
X928245Y919334D01*
X718472Y611293D02*
X720138Y612959D01*
X723470D01*
X725136Y611293D01*
Y604628D01*
X723470Y602962D01*
X720138D01*
X718472Y604628D01*
X715139Y602962D02*
X711807D01*
X713473D01*
Y612959D01*
X715139Y611293D01*
X735550Y636998D02*
Y646995D01*
X730552D01*
X728886Y645329D01*
Y641996D01*
X730552Y640330D01*
X735550D01*
X732218D02*
X728886Y636998D01*
X725553D02*
X722221D01*
X723887D01*
Y646995D01*
X725553Y645329D01*
X717223D02*
X715557Y646995D01*
X712224D01*
X710558Y645329D01*
Y638664D01*
X712224Y636998D01*
X715557D01*
X717223Y638664D01*
Y645329D01*
X851882Y671887D02*
X845218Y661890D01*
Y671887D02*
X851882Y661890D01*
X841885D02*
X838553D01*
X840219D01*
Y671887D01*
X841885Y670221D01*
X789144Y701351D02*
X782480Y691354D01*
Y701351D02*
X789144Y691354D01*
X772483D02*
X779147D01*
X772483Y698018D01*
Y699685D01*
X774149Y701351D01*
X777481D01*
X779147Y699685D01*
X729962Y881945D02*
X726630D01*
X728296D01*
Y871948D01*
X729962D01*
X726630D01*
X714967Y880279D02*
X716633Y881945D01*
X719965D01*
X721631Y880279D01*
Y873614D01*
X719965Y871948D01*
X716633D01*
X714967Y873614D01*
X711635Y871948D02*
X708303D01*
X709969D01*
Y881945D01*
X711635Y880279D01*
X782734Y902631D02*
X784400Y904297D01*
X787732D01*
X789398Y902631D01*
Y895966D01*
X787732Y894300D01*
X784400D01*
X782734Y895966D01*
X772737Y894300D02*
X779401D01*
X772737Y900965D01*
Y902631D01*
X774403Y904297D01*
X777735D01*
X779401Y902631D01*
X742408Y685512D02*
Y695509D01*
X737410D01*
X735744Y693843D01*
Y690510D01*
X737410Y688844D01*
X742408D01*
X739076D02*
X735744Y685512D01*
X732411Y693843D02*
X730745Y695509D01*
X727413D01*
X725747Y693843D01*
Y692177D01*
X727413Y690510D01*
X729079D01*
X727413D01*
X725747Y688844D01*
Y687178D01*
X727413Y685512D01*
X730745D01*
X732411Y687178D01*
X715750Y695509D02*
X722415D01*
Y690510D01*
X719082Y692177D01*
X717416D01*
X715750Y690510D01*
Y687178D01*
X717416Y685512D01*
X720749D01*
X722415Y687178D01*
X836896Y864328D02*
Y874325D01*
X831898D01*
X830232Y872659D01*
Y869326D01*
X831898Y867660D01*
X836896D01*
X833564D02*
X830232Y864328D01*
X826899Y872659D02*
X825233Y874325D01*
X821901D01*
X820235Y872659D01*
Y870993D01*
X821901Y869326D01*
X823567D01*
X821901D01*
X820235Y867660D01*
Y865994D01*
X821901Y864328D01*
X825233D01*
X826899Y865994D01*
X816903Y874325D02*
X810238D01*
Y872659D01*
X816903Y865994D01*
Y864328D01*
D43*
X231938Y28804D02*
Y58776D01*
X213650Y28804D02*
X231938D01*
X213650D02*
Y58776D01*
X231938D01*
X199172Y205574D02*
Y235546D01*
X217460D01*
Y205574D02*
Y235546D01*
X199172Y205574D02*
X217460D01*
X19340Y278486D02*
X52360D01*
X52360Y341986D01*
X23150Y345796D02*
X48550Y345796D01*
X19340Y278486D02*
Y341986D01*
X23150Y345796D01*
X48550Y345796D02*
X52360Y341986D01*
X334046Y195428D02*
X352334Y195428D01*
X334046Y195428D02*
X334046Y165456D01*
X352334Y165456D01*
X352334Y195428D01*
X312710Y165456D02*
X330998Y165456D01*
X330998Y195428D02*
X330998Y165456D01*
X312710Y195428D02*
X330998Y195428D01*
X312710Y165456D02*
X312710Y195428D01*
X122210Y76810D02*
X122210Y46838D01*
X103922Y46838D02*
X122210Y46838D01*
X103922Y76810D02*
X103922Y46838D01*
X103922Y76810D02*
X122210Y76810D01*
X56678Y106528D02*
X56678Y76556D01*
X38390Y76556D02*
X56678Y76556D01*
X38390Y106528D02*
X38390Y76556D01*
X38390Y106528D02*
X56678Y106528D01*
X35342Y76302D02*
Y106274D01*
X17054Y76302D02*
X35342D01*
X17054D02*
Y106274D01*
X35342D01*
X125258Y76810D02*
X143546D01*
X125258Y46838D02*
Y76810D01*
Y46838D02*
X143546D01*
Y76810D01*
X96687Y211356D02*
X96687Y181384D01*
X78399Y181384D02*
X96687Y181384D01*
X78399Y181384D02*
X78399Y211356D01*
X96687D01*
X111796Y175362D02*
X111796Y145390D01*
X93508Y145390D02*
X111796Y145390D01*
X93508Y145390D02*
X93508Y175362D01*
X111796D01*
X119162Y211430D02*
X119162Y181458D01*
X100874Y181458D02*
X119162Y181458D01*
X100874Y181458D02*
Y211430D01*
X119162D01*
X134402Y136486D02*
X134402Y166458D01*
X116114Y136486D02*
X134402Y136486D01*
X116114Y136486D02*
X116114Y166458D01*
X134402D01*
X234732Y13926D02*
X359446Y13926D01*
X364526Y19006D01*
Y77172D01*
X234732Y77172D02*
X364526Y77172D01*
X234732Y77172D02*
X234732Y13926D01*
X234732Y99016D02*
X359446Y99016D01*
X364526Y104096D01*
X364526Y162262D02*
X364526Y104096D01*
X234732Y162262D02*
X364526Y162262D01*
X234732Y99016D02*
X234732Y162262D01*
X386396Y238538D02*
X421396Y238538D01*
X386396Y349288D02*
X386396Y238538D01*
X386396Y349288D02*
X416396Y349288D01*
X421396Y344288D01*
X421396Y238538D01*
X288326Y277724D02*
X306614Y277724D01*
X288326Y277724D02*
X288326Y247752D01*
X306614Y247752D01*
X306614Y277724D02*
X306614Y247752D01*
X309154Y277978D02*
X327442Y277978D01*
X309154Y248006D02*
X309154Y277978D01*
X309154Y248006D02*
X327442Y248006D01*
Y277978D01*
X380020Y107290D02*
X398308Y107290D01*
X380020Y77318D02*
Y107290D01*
Y77318D02*
X398308Y77318D01*
X398308Y107290D01*
X213650Y91796D02*
X231938D01*
X213650Y61824D02*
Y91796D01*
Y61824D02*
X231938D01*
Y91796D01*
X196294Y187590D02*
X196294Y285590D01*
X123044Y187590D02*
X196294Y187590D01*
X123294Y285590D02*
X196294Y285590D01*
X123044Y285340D02*
X123044Y187590D01*
X123044Y285340D02*
X123294Y285590D01*
X123294Y285590D01*
X197754Y287290D02*
X242754D01*
X197754D02*
Y308290D01*
X242754D01*
Y287290D02*
Y308290D01*
X177328Y120498D02*
Y150470D01*
X159040Y120498D02*
X177328Y120498D01*
X159040Y150470D02*
X159040Y120498D01*
X159040Y150470D02*
X177328D01*
X125258Y13310D02*
X143546D01*
Y43282D01*
X125258D02*
X143546D01*
X125258Y13310D02*
Y43282D01*
X230836Y182072D02*
Y227072D01*
X251836Y227072D01*
Y182072D02*
Y227072D01*
X230836Y182072D02*
X251836Y182072D01*
X272070Y277722D02*
X272070Y247750D01*
X253782Y247750D02*
X272070Y247750D01*
X253782Y247750D02*
X253782Y277722D01*
X272070D01*
X421500Y111960D02*
Y156960D01*
X400500Y111960D02*
X421500Y111960D01*
X400500Y111960D02*
Y156960D01*
X421500Y156960D01*
X403194Y77828D02*
Y107800D01*
X421482D01*
Y77828D02*
Y107800D01*
X403194Y77828D02*
X421482D01*
X791938Y28804D02*
Y58776D01*
X773650Y28804D02*
X791938D01*
X773650D02*
Y58776D01*
X791938D01*
X759172Y205574D02*
Y235546D01*
X777460D01*
Y205574D02*
Y235546D01*
X759172Y205574D02*
X777460D01*
X579340Y278486D02*
X612360D01*
X612360Y341986D01*
X583150Y345796D02*
X608550Y345796D01*
X579340Y278486D02*
Y341986D01*
X583150Y345796D01*
X608550Y345796D02*
X612360Y341986D01*
X894046Y195428D02*
X912334Y195428D01*
X894046Y195428D02*
X894046Y165456D01*
X912334Y165456D01*
X912334Y195428D01*
X872710Y165456D02*
X890998Y165456D01*
X890998Y195428D02*
X890998Y165456D01*
X872710Y195428D02*
X890998Y195428D01*
X872710Y165456D02*
X872710Y195428D01*
X682210Y76810D02*
X682210Y46838D01*
X663922Y46838D02*
X682210Y46838D01*
X663922Y76810D02*
X663922Y46838D01*
X663922Y76810D02*
X682210Y76810D01*
X616678Y106528D02*
X616678Y76556D01*
X598390Y76556D02*
X616678Y76556D01*
X598390Y106528D02*
X598390Y76556D01*
X598390Y106528D02*
X616678Y106528D01*
X595342Y76302D02*
Y106274D01*
X577054Y76302D02*
X595342D01*
X577054D02*
Y106274D01*
X595342D01*
X685258Y76810D02*
X703546D01*
X685258Y46838D02*
Y76810D01*
Y46838D02*
X703546D01*
Y76810D01*
X656687Y211356D02*
X656687Y181384D01*
X638399Y181384D02*
X656687Y181384D01*
X638399Y181384D02*
X638399Y211356D01*
X656687D01*
X671796Y175362D02*
X671796Y145390D01*
X653508Y145390D02*
X671796Y145390D01*
X653508Y145390D02*
X653508Y175362D01*
X671796D01*
X679162Y211430D02*
X679162Y181458D01*
X660874Y181458D02*
X679162Y181458D01*
X660874Y181458D02*
Y211430D01*
X679162D01*
X694402Y136486D02*
X694402Y166458D01*
X676114Y136486D02*
X694402Y136486D01*
X676114Y136486D02*
X676114Y166458D01*
X694402D01*
X794732Y13926D02*
X919446Y13926D01*
X924526Y19006D01*
Y77172D01*
X794732Y77172D02*
X924526Y77172D01*
X794732Y77172D02*
X794732Y13926D01*
X794732Y99016D02*
X919446Y99016D01*
X924526Y104096D01*
X924526Y162262D02*
X924526Y104096D01*
X794732Y162262D02*
X924526Y162262D01*
X794732Y99016D02*
X794732Y162262D01*
X946396Y238538D02*
X981396Y238538D01*
X946396Y349288D02*
X946396Y238538D01*
X946396Y349288D02*
X976396Y349288D01*
X981396Y344288D01*
X981396Y238538D01*
X848326Y277724D02*
X866614Y277724D01*
X848326Y277724D02*
X848326Y247752D01*
X866614Y247752D01*
X866614Y277724D02*
X866614Y247752D01*
X869154Y277978D02*
X887442Y277978D01*
X869154Y248006D02*
X869154Y277978D01*
X869154Y248006D02*
X887442Y248006D01*
Y277978D01*
X940020Y107290D02*
X958308Y107290D01*
X940020Y77318D02*
Y107290D01*
Y77318D02*
X958308Y77318D01*
X958308Y107290D01*
X773650Y91796D02*
X791938D01*
X773650Y61824D02*
Y91796D01*
Y61824D02*
X791938D01*
Y91796D01*
X756294Y187590D02*
X756294Y285590D01*
X683044Y187590D02*
X756294Y187590D01*
X683294Y285590D02*
X756294Y285590D01*
X683044Y285340D02*
X683044Y187590D01*
X683044Y285340D02*
X683294Y285590D01*
X683294Y285590D01*
X757754Y287290D02*
X802754D01*
X757754D02*
Y308290D01*
X802754D01*
Y287290D02*
Y308290D01*
X737328Y120498D02*
Y150470D01*
X719040Y120498D02*
X737328Y120498D01*
X719040Y150470D02*
X719040Y120498D01*
X719040Y150470D02*
X737328D01*
X685258Y13310D02*
X703546D01*
Y43282D01*
X685258D02*
X703546D01*
X685258Y13310D02*
Y43282D01*
X790836Y182072D02*
Y227072D01*
X811836Y227072D01*
Y182072D02*
Y227072D01*
X790836Y182072D02*
X811836Y182072D01*
X832070Y277722D02*
X832070Y247750D01*
X813782Y247750D02*
X832070Y247750D01*
X813782Y247750D02*
X813782Y277722D01*
X832070D01*
X981500Y111960D02*
Y156960D01*
X960500Y111960D02*
X981500Y111960D01*
X960500Y111960D02*
Y156960D01*
X981500Y156960D01*
X963194Y77828D02*
Y107800D01*
X981482D01*
Y77828D02*
Y107800D01*
X963194Y77828D02*
X981482D01*
X231938Y608804D02*
Y638776D01*
X213650Y608804D02*
X231938D01*
X213650D02*
Y638776D01*
X231938D01*
X199172Y785574D02*
Y815546D01*
X217460D01*
Y785574D02*
Y815546D01*
X199172Y785574D02*
X217460D01*
X19340Y858486D02*
X52360D01*
X52360Y921986D01*
X23150Y925796D02*
X48550Y925796D01*
X19340Y858486D02*
Y921986D01*
X23150Y925796D01*
X48550Y925796D02*
X52360Y921986D01*
X334046Y775428D02*
X352334Y775428D01*
X334046Y775428D02*
X334046Y745456D01*
X352334Y745456D01*
X352334Y775428D01*
X312710Y745456D02*
X330998Y745456D01*
X330998Y775428D02*
X330998Y745456D01*
X312710Y775428D02*
X330998Y775428D01*
X312710Y745456D02*
X312710Y775428D01*
X122210Y656810D02*
X122210Y626838D01*
X103922Y626838D02*
X122210Y626838D01*
X103922Y656810D02*
X103922Y626838D01*
X103922Y656810D02*
X122210Y656810D01*
X56678Y686528D02*
X56678Y656556D01*
X38390Y656556D02*
X56678Y656556D01*
X38390Y686528D02*
X38390Y656556D01*
X38390Y686528D02*
X56678Y686528D01*
X35342Y656302D02*
Y686274D01*
X17054Y656302D02*
X35342D01*
X17054D02*
Y686274D01*
X35342D01*
X125258Y656810D02*
X143546D01*
X125258Y626838D02*
Y656810D01*
Y626838D02*
X143546D01*
Y656810D01*
X96687Y791356D02*
X96687Y761384D01*
X78399Y761384D02*
X96687Y761384D01*
X78399Y761384D02*
X78399Y791356D01*
X96687D01*
X111796Y755362D02*
X111796Y725390D01*
X93508Y725390D02*
X111796Y725390D01*
X93508Y725390D02*
X93508Y755362D01*
X111796D01*
X119162Y791430D02*
X119162Y761458D01*
X100874Y761458D02*
X119162Y761458D01*
X100874Y761458D02*
Y791430D01*
X119162D01*
X134402Y716486D02*
X134402Y746458D01*
X116114Y716486D02*
X134402Y716486D01*
X116114Y716486D02*
X116114Y746458D01*
X134402D01*
X234732Y593926D02*
X359446Y593926D01*
X364526Y599006D01*
Y657172D01*
X234732Y657172D02*
X364526Y657172D01*
X234732Y657172D02*
X234732Y593926D01*
X234732Y679016D02*
X359446Y679016D01*
X364526Y684096D01*
X364526Y742262D02*
X364526Y684096D01*
X234732Y742262D02*
X364526Y742262D01*
X234732Y679016D02*
X234732Y742262D01*
X386396Y818538D02*
X421396Y818538D01*
X386396Y929288D02*
X386396Y818538D01*
X386396Y929288D02*
X416396Y929288D01*
X421396Y924288D01*
X421396Y818538D01*
X288326Y857724D02*
X306614Y857724D01*
X288326Y857724D02*
X288326Y827752D01*
X306614Y827752D01*
X306614Y857724D02*
X306614Y827752D01*
X309154Y857978D02*
X327442Y857978D01*
X309154Y828006D02*
X309154Y857978D01*
X309154Y828006D02*
X327442Y828006D01*
Y857978D01*
X380020Y687290D02*
X398308Y687290D01*
X380020Y657318D02*
Y687290D01*
Y657318D02*
X398308Y657318D01*
X398308Y687290D01*
X213650Y671796D02*
X231938D01*
X213650Y641824D02*
Y671796D01*
Y641824D02*
X231938D01*
Y671796D01*
X196294Y767590D02*
X196294Y865590D01*
X123044Y767590D02*
X196294Y767590D01*
X123294Y865590D02*
X196294Y865590D01*
X123044Y865340D02*
X123044Y767590D01*
X123044Y865340D02*
X123294Y865590D01*
X123294Y865590D01*
X197754Y867290D02*
X242754D01*
X197754D02*
Y888290D01*
X242754D01*
Y867290D02*
Y888290D01*
X177328Y700498D02*
Y730470D01*
X159040Y700498D02*
X177328Y700498D01*
X159040Y730470D02*
X159040Y700498D01*
X159040Y730470D02*
X177328D01*
X125258Y593310D02*
X143546D01*
Y623282D01*
X125258D02*
X143546D01*
X125258Y593310D02*
Y623282D01*
X230836Y762072D02*
Y807072D01*
X251836Y807072D01*
Y762072D02*
Y807072D01*
X230836Y762072D02*
X251836Y762072D01*
X272070Y857722D02*
X272070Y827750D01*
X253782Y827750D02*
X272070Y827750D01*
X253782Y827750D02*
X253782Y857722D01*
X272070D01*
X421500Y691960D02*
Y736961D01*
X400500Y691961D02*
X421500Y691960D01*
X400500Y691961D02*
Y736961D01*
X421500Y736961D01*
X403194Y657828D02*
Y687800D01*
X421482D01*
Y657828D02*
Y687800D01*
X403194Y657828D02*
X421482D01*
X791938Y608804D02*
Y638776D01*
X773650Y608804D02*
X791938D01*
X773650D02*
Y638776D01*
X791938D01*
X759172Y785574D02*
Y815546D01*
X777460D01*
Y785574D02*
Y815546D01*
X759172Y785574D02*
X777460D01*
X579340Y858486D02*
X612360D01*
X612360Y921986D01*
X583150Y925796D02*
X608550Y925796D01*
X579340Y858486D02*
Y921986D01*
X583150Y925796D01*
X608550Y925796D02*
X612360Y921986D01*
X894046Y775428D02*
X912334Y775428D01*
X894046Y775428D02*
X894046Y745456D01*
X912334Y745456D01*
X912334Y775428D01*
X872710Y745456D02*
X890998Y745456D01*
X890998Y775428D02*
X890998Y745456D01*
X872710Y775428D02*
X890998Y775428D01*
X872710Y745456D02*
X872710Y775428D01*
X682210Y656810D02*
X682210Y626838D01*
X663922Y626838D02*
X682210Y626838D01*
X663922Y656810D02*
X663922Y626838D01*
X663922Y656810D02*
X682210Y656810D01*
X616678Y686528D02*
X616678Y656556D01*
X598390Y656556D02*
X616678Y656556D01*
X598390Y686528D02*
X598390Y656556D01*
X598390Y686528D02*
X616678Y686528D01*
X595342Y656302D02*
Y686274D01*
X577054Y656302D02*
X595342D01*
X577054D02*
Y686274D01*
X595342D01*
X685258Y656810D02*
X703546D01*
X685258Y626838D02*
Y656810D01*
Y626838D02*
X703546D01*
Y656810D01*
X656687Y791356D02*
X656687Y761384D01*
X638399Y761384D02*
X656687Y761384D01*
X638399Y761384D02*
X638399Y791356D01*
X656687D01*
X671796Y755362D02*
X671796Y725390D01*
X653508Y725390D02*
X671796Y725390D01*
X653508Y725390D02*
X653508Y755362D01*
X671796D01*
X679162Y791430D02*
X679162Y761458D01*
X660874Y761458D02*
X679162Y761458D01*
X660874Y761458D02*
Y791430D01*
X679162D01*
X694402Y716486D02*
X694402Y746458D01*
X676114Y716486D02*
X694402Y716486D01*
X676114Y716486D02*
X676114Y746458D01*
X694402D01*
X794732Y593926D02*
X919446Y593926D01*
X924526Y599006D01*
Y657172D01*
X794732Y657172D02*
X924526Y657172D01*
X794732Y657172D02*
X794732Y593926D01*
X794732Y679016D02*
X919446Y679016D01*
X924526Y684096D01*
X924526Y742262D02*
X924526Y684096D01*
X794732Y742262D02*
X924526Y742262D01*
X794732Y679016D02*
X794732Y742262D01*
X946396Y818538D02*
X981396Y818538D01*
X946396Y929288D02*
X946396Y818538D01*
X946396Y929288D02*
X976396Y929288D01*
X981396Y924288D01*
X981396Y818538D01*
X848326Y857724D02*
X866614Y857724D01*
X848326Y857724D02*
X848326Y827752D01*
X866614Y827752D01*
X866614Y857724D02*
X866614Y827752D01*
X869154Y857978D02*
X887442Y857978D01*
X869154Y828006D02*
X869154Y857978D01*
X869154Y828006D02*
X887442Y828006D01*
Y857978D01*
X940020Y687290D02*
X958308Y687290D01*
X940020Y657318D02*
Y687290D01*
Y657318D02*
X958308Y657318D01*
X958308Y687290D01*
X773650Y671796D02*
X791938D01*
X773650Y641824D02*
Y671796D01*
Y641824D02*
X791938D01*
Y671796D01*
X756294Y767590D02*
X756294Y865590D01*
X683044Y767590D02*
X756294Y767590D01*
X683294Y865590D02*
X756294Y865590D01*
X683044Y865340D02*
X683044Y767590D01*
X683044Y865340D02*
X683294Y865590D01*
X683294Y865590D01*
X757754Y867290D02*
X802754D01*
X757754D02*
Y888290D01*
X802754D01*
Y867290D02*
Y888290D01*
X737328Y700498D02*
Y730470D01*
X719040Y700498D02*
X737328Y700498D01*
X719040Y730470D02*
X719040Y700498D01*
X719040Y730470D02*
X737328D01*
X685258Y593310D02*
X703546D01*
Y623282D01*
X685258D02*
X703546D01*
X685258Y593310D02*
Y623282D01*
X790836Y762072D02*
Y807072D01*
X811836Y807072D01*
Y762072D02*
Y807072D01*
X790836Y762072D02*
X811836Y762072D01*
X832070Y857722D02*
X832070Y827750D01*
X813782Y827750D02*
X832070Y827750D01*
X813782Y827750D02*
X813782Y857722D01*
X832070D01*
X981500Y691960D02*
Y736961D01*
X960500Y691961D02*
X981500Y691960D01*
X960500Y691961D02*
Y736961D01*
X981500Y736961D01*
X963194Y657828D02*
Y687800D01*
X981482D01*
Y657828D02*
Y687800D01*
X963194Y657828D02*
X981482D01*
M02*
