G04*
G04 #@! TF.GenerationSoftware,Altium Limited,Altium Designer,21.8.1 (53)*
G04*
G04 Layer_Color=16711935*
%FSLAX44Y44*%
%MOMM*%
G71*
G04*
G04 #@! TF.SameCoordinates,A6134195-47DE-4A90-8313-BABE1660A9E3*
G04*
G04*
G04 #@! TF.FilePolarity,Negative*
G04*
G01*
G75*
%ADD44R,1.5032X0.9032*%
%ADD50C,1.4032*%
%ADD51C,1.3532*%
%ADD52C,4.0032*%
%ADD53C,3.4032*%
%ADD54O,2.8032X2.0032*%
%ADD55O,2.8032X2.2032*%
%ADD56O,2.6032X2.0032*%
G04:AMPARAMS|DCode=57|XSize=5.2032mm|YSize=5.2032mm|CornerRadius=1.3516mm|HoleSize=0mm|Usage=FLASHONLY|Rotation=0.000|XOffset=0mm|YOffset=0mm|HoleType=Round|Shape=RoundedRectangle|*
%AMROUNDEDRECTD57*
21,1,5.2032,2.5000,0,0,0.0*
21,1,2.5000,5.2032,0,0,0.0*
1,1,2.7032,1.2500,-1.2500*
1,1,2.7032,-1.2500,-1.2500*
1,1,2.7032,-1.2500,1.2500*
1,1,2.7032,1.2500,1.2500*
%
%ADD57ROUNDEDRECTD57*%
%ADD58C,2.0032*%
%ADD59R,2.0032X2.0032*%
%ADD60C,1.8032*%
%ADD61C,1.7032*%
%ADD62R,2.0032X2.0032*%
%ADD63C,1.2032*%
%ADD64C,1.0032*%
G04:AMPARAMS|DCode=65|XSize=2.2032mm|YSize=2.6032mm|CornerRadius=0.6016mm|HoleSize=0mm|Usage=FLASHONLY|Rotation=270.000|XOffset=0mm|YOffset=0mm|HoleType=Round|Shape=RoundedRectangle|*
%AMROUNDEDRECTD65*
21,1,2.2032,1.4000,0,0,270.0*
21,1,1.0000,2.6032,0,0,270.0*
1,1,1.2032,-0.7000,-0.5000*
1,1,1.2032,-0.7000,0.5000*
1,1,1.2032,0.7000,0.5000*
1,1,1.2032,0.7000,-0.5000*
%
%ADD65ROUNDEDRECTD65*%
G04:AMPARAMS|DCode=66|XSize=6.2032mm|YSize=3.2032mm|CornerRadius=0.8516mm|HoleSize=0mm|Usage=FLASHONLY|Rotation=180.000|XOffset=0mm|YOffset=0mm|HoleType=Round|Shape=RoundedRectangle|*
%AMROUNDEDRECTD66*
21,1,6.2032,1.5000,0,0,180.0*
21,1,4.5000,3.2032,0,0,180.0*
1,1,1.7032,-2.2500,0.7500*
1,1,1.7032,2.2500,0.7500*
1,1,1.7032,2.2500,-0.7500*
1,1,1.7032,-2.2500,-0.7500*
%
%ADD66ROUNDEDRECTD66*%
G04:AMPARAMS|DCode=67|XSize=1.7032mm|YSize=2.2032mm|CornerRadius=0.4766mm|HoleSize=0mm|Usage=FLASHONLY|Rotation=180.000|XOffset=0mm|YOffset=0mm|HoleType=Round|Shape=RoundedRectangle|*
%AMROUNDEDRECTD67*
21,1,1.7032,1.2500,0,0,180.0*
21,1,0.7500,2.2032,0,0,180.0*
1,1,0.9532,-0.3750,0.6250*
1,1,0.9532,0.3750,0.6250*
1,1,0.9532,0.3750,-0.6250*
1,1,0.9532,-0.3750,-0.6250*
%
%ADD67ROUNDEDRECTD67*%
%ADD68R,1.2032X1.8032*%
%ADD69R,1.8032X1.2032*%
D44*
X222794Y52640D02*
D03*
Y35140D02*
D03*
X208316Y211710D02*
D03*
Y229210D02*
D03*
X343190Y171792D02*
D03*
X343190Y189292D02*
D03*
X321854Y189092D02*
D03*
X321854Y171592D02*
D03*
X113066Y70674D02*
D03*
X113066Y53174D02*
D03*
X47534Y100392D02*
D03*
X47534Y82892D02*
D03*
X26198Y100138D02*
D03*
Y82638D02*
D03*
X134402Y53174D02*
D03*
Y70674D02*
D03*
X87543Y205220D02*
D03*
X87543Y187720D02*
D03*
X102652Y169226D02*
D03*
X102652Y151726D02*
D03*
X110018Y205294D02*
D03*
X110018Y187794D02*
D03*
X125258Y160322D02*
D03*
Y142822D02*
D03*
X297470Y254088D02*
D03*
X297470Y271588D02*
D03*
X318298Y254342D02*
D03*
X318298Y271842D02*
D03*
X389164Y83654D02*
D03*
X389164Y101154D02*
D03*
X222794Y68160D02*
D03*
Y85660D02*
D03*
X168184Y144334D02*
D03*
X168184Y126834D02*
D03*
X134402Y36946D02*
D03*
Y19446D02*
D03*
X262926Y271586D02*
D03*
X262926Y254086D02*
D03*
X412338Y83964D02*
D03*
Y101464D02*
D03*
X782794Y52640D02*
D03*
Y35140D02*
D03*
X768316Y211710D02*
D03*
Y229210D02*
D03*
X903190Y171792D02*
D03*
X903190Y189292D02*
D03*
X881854Y189092D02*
D03*
X881854Y171592D02*
D03*
X673066Y70674D02*
D03*
X673066Y53174D02*
D03*
X607534Y100392D02*
D03*
X607534Y82892D02*
D03*
X586198Y100138D02*
D03*
Y82638D02*
D03*
X694402Y53174D02*
D03*
Y70674D02*
D03*
X647543Y205220D02*
D03*
X647543Y187720D02*
D03*
X662652Y169226D02*
D03*
X662652Y151726D02*
D03*
X670018Y205294D02*
D03*
X670018Y187794D02*
D03*
X685258Y160322D02*
D03*
Y142822D02*
D03*
X857470Y254088D02*
D03*
X857470Y271588D02*
D03*
X878298Y254342D02*
D03*
X878298Y271842D02*
D03*
X949164Y83654D02*
D03*
X949164Y101154D02*
D03*
X782794Y68160D02*
D03*
Y85660D02*
D03*
X728184Y144334D02*
D03*
X728184Y126834D02*
D03*
X694402Y36946D02*
D03*
Y19446D02*
D03*
X822926Y271586D02*
D03*
X822926Y254086D02*
D03*
X972338Y83964D02*
D03*
Y101464D02*
D03*
X222794Y632640D02*
D03*
Y615140D02*
D03*
X208316Y791710D02*
D03*
Y809210D02*
D03*
X343190Y751792D02*
D03*
X343190Y769292D02*
D03*
X321854Y769092D02*
D03*
X321854Y751592D02*
D03*
X113066Y650674D02*
D03*
X113066Y633174D02*
D03*
X47534Y680392D02*
D03*
X47534Y662892D02*
D03*
X26198Y680138D02*
D03*
Y662638D02*
D03*
X134402Y633174D02*
D03*
Y650674D02*
D03*
X87543Y785220D02*
D03*
X87543Y767720D02*
D03*
X102652Y749226D02*
D03*
X102652Y731726D02*
D03*
X110018Y785294D02*
D03*
X110018Y767794D02*
D03*
X125258Y740322D02*
D03*
Y722822D02*
D03*
X297470Y834088D02*
D03*
X297470Y851588D02*
D03*
X318298Y834342D02*
D03*
X318298Y851842D02*
D03*
X389164Y663654D02*
D03*
X389164Y681154D02*
D03*
X222794Y648160D02*
D03*
Y665660D02*
D03*
X168184Y724334D02*
D03*
X168184Y706834D02*
D03*
X134402Y616946D02*
D03*
Y599446D02*
D03*
X262926Y851586D02*
D03*
X262926Y834086D02*
D03*
X412338Y663964D02*
D03*
Y681464D02*
D03*
X782794Y632640D02*
D03*
Y615140D02*
D03*
X768316Y791710D02*
D03*
Y809210D02*
D03*
X903190Y751792D02*
D03*
X903190Y769292D02*
D03*
X881854Y769092D02*
D03*
X881854Y751592D02*
D03*
X673066Y650674D02*
D03*
X673066Y633174D02*
D03*
X607534Y680392D02*
D03*
X607534Y662892D02*
D03*
X586198Y680138D02*
D03*
Y662638D02*
D03*
X694402Y633174D02*
D03*
Y650674D02*
D03*
X647543Y785220D02*
D03*
X647543Y767720D02*
D03*
X662652Y749226D02*
D03*
X662652Y731726D02*
D03*
X670018Y785294D02*
D03*
X670018Y767794D02*
D03*
X685258Y740322D02*
D03*
Y722822D02*
D03*
X857470Y834088D02*
D03*
X857470Y851588D02*
D03*
X878298Y834342D02*
D03*
X878298Y851842D02*
D03*
X949164Y663654D02*
D03*
X949164Y681154D02*
D03*
X782794Y648160D02*
D03*
Y665660D02*
D03*
X728184Y724334D02*
D03*
X728184Y706834D02*
D03*
X694402Y616946D02*
D03*
Y599446D02*
D03*
X822926Y851586D02*
D03*
X822926Y834086D02*
D03*
X972338Y663964D02*
D03*
Y681464D02*
D03*
D50*
X364019Y241215D02*
D03*
X388438Y248204D02*
D03*
X368599Y218931D02*
D03*
X393795Y222140D02*
D03*
X369752Y196209D02*
D03*
X395144Y195567D02*
D03*
X367451Y173576D02*
D03*
X392453Y169095D02*
D03*
X361749Y151551D02*
D03*
X385784Y143336D02*
D03*
X375291Y118885D02*
D03*
X361217Y96304D02*
D03*
X325925Y94075D02*
D03*
X343885Y76115D02*
D03*
X231362Y349368D02*
D03*
X233289Y374695D02*
D03*
X253851Y345925D02*
D03*
X259590Y370668D02*
D03*
X275558Y339116D02*
D03*
X284979Y362705D02*
D03*
X295984Y329099D02*
D03*
X308868Y350988D02*
D03*
X314658Y316103D02*
D03*
X330708Y335790D02*
D03*
X331296Y300564D02*
D03*
X350143Y317593D02*
D03*
X345075Y282440D02*
D03*
X366282Y296419D02*
D03*
X356116Y262549D02*
D03*
X379196Y273155D02*
D03*
X44857Y195536D02*
D03*
X70249Y196183D02*
D03*
X54226Y143308D02*
D03*
X78260Y151527D02*
D03*
X64723Y118858D02*
D03*
X87235Y130622D02*
D03*
X78801Y96279D02*
D03*
X99272Y111316D02*
D03*
X95792Y76450D02*
D03*
X114398Y93741D02*
D03*
X47553Y169065D02*
D03*
X72554Y173550D02*
D03*
X51553Y248174D02*
D03*
X75974Y241190D02*
D03*
X46201Y222110D02*
D03*
X71398Y218905D02*
D03*
X206666Y374892D02*
D03*
X208597Y349566D02*
D03*
X180335Y370856D02*
D03*
X186079Y346114D02*
D03*
X154919Y362879D02*
D03*
X164343Y339292D02*
D03*
X131004Y351145D02*
D03*
X143892Y329258D02*
D03*
X109269Y335770D02*
D03*
X125322Y316087D02*
D03*
X89985Y317436D02*
D03*
X108835Y300410D02*
D03*
X73701Y296393D02*
D03*
X94911Y282418D02*
D03*
X60791Y273127D02*
D03*
X83873Y262525D02*
D03*
X924019Y241215D02*
D03*
X948438Y248204D02*
D03*
X928599Y218931D02*
D03*
X953795Y222140D02*
D03*
X929752Y196209D02*
D03*
X955144Y195567D02*
D03*
X927451Y173576D02*
D03*
X952453Y169095D02*
D03*
X921749Y151551D02*
D03*
X945784Y143336D02*
D03*
X935291Y118885D02*
D03*
X921217Y96304D02*
D03*
X885925Y94075D02*
D03*
X903885Y76115D02*
D03*
X791362Y349368D02*
D03*
X793289Y374695D02*
D03*
X813851Y345925D02*
D03*
X819590Y370668D02*
D03*
X835558Y339116D02*
D03*
X844979Y362705D02*
D03*
X855984Y329099D02*
D03*
X868868Y350988D02*
D03*
X874658Y316103D02*
D03*
X890708Y335790D02*
D03*
X891296Y300564D02*
D03*
X910143Y317593D02*
D03*
X905075Y282440D02*
D03*
X926282Y296419D02*
D03*
X916116Y262549D02*
D03*
X939196Y273155D02*
D03*
X604857Y195536D02*
D03*
X630249Y196183D02*
D03*
X614226Y143308D02*
D03*
X638260Y151527D02*
D03*
X624723Y118858D02*
D03*
X647235Y130622D02*
D03*
X638802Y96279D02*
D03*
X659272Y111316D02*
D03*
X655792Y76450D02*
D03*
X674398Y93741D02*
D03*
X607553Y169065D02*
D03*
X632554Y173550D02*
D03*
X611553Y248174D02*
D03*
X635974Y241190D02*
D03*
X606201Y222110D02*
D03*
X631398Y218905D02*
D03*
X766666Y374892D02*
D03*
X768597Y349566D02*
D03*
X740335Y370856D02*
D03*
X746079Y346114D02*
D03*
X714919Y362879D02*
D03*
X724344Y339292D02*
D03*
X691004Y351145D02*
D03*
X703892Y329258D02*
D03*
X669269Y335770D02*
D03*
X685322Y316087D02*
D03*
X649986Y317436D02*
D03*
X668835Y300410D02*
D03*
X633701Y296393D02*
D03*
X654911Y282418D02*
D03*
X620791Y273127D02*
D03*
X643873Y262525D02*
D03*
X364019Y821215D02*
D03*
X388438Y828204D02*
D03*
X368599Y798931D02*
D03*
X393795Y802140D02*
D03*
X369752Y776209D02*
D03*
X395144Y775567D02*
D03*
X367451Y753576D02*
D03*
X392453Y749095D02*
D03*
X361749Y731551D02*
D03*
X385784Y723336D02*
D03*
X375291Y698885D02*
D03*
X361217Y676304D02*
D03*
X325925Y674075D02*
D03*
X343885Y656115D02*
D03*
X231362Y929368D02*
D03*
X233289Y954695D02*
D03*
X253851Y925925D02*
D03*
X259590Y950668D02*
D03*
X275558Y919116D02*
D03*
X284979Y942705D02*
D03*
X295984Y909099D02*
D03*
X308868Y930988D02*
D03*
X314658Y896103D02*
D03*
X330708Y915790D02*
D03*
X331296Y880564D02*
D03*
X350143Y897593D02*
D03*
X345075Y862440D02*
D03*
X366282Y876419D02*
D03*
X356116Y842549D02*
D03*
X379196Y853155D02*
D03*
X44857Y775536D02*
D03*
X70249Y776183D02*
D03*
X54226Y723308D02*
D03*
X78260Y731527D02*
D03*
X64723Y698858D02*
D03*
X87235Y710621D02*
D03*
X78801Y676279D02*
D03*
X99272Y691317D02*
D03*
X95792Y656450D02*
D03*
X114398Y673740D02*
D03*
X47553Y749065D02*
D03*
X72554Y753550D02*
D03*
X51553Y828174D02*
D03*
X75974Y821190D02*
D03*
X46201Y802110D02*
D03*
X71398Y798905D02*
D03*
X206666Y954892D02*
D03*
X208597Y929566D02*
D03*
X180335Y950856D02*
D03*
X186079Y926114D02*
D03*
X154919Y942879D02*
D03*
X164343Y919292D02*
D03*
X131004Y931145D02*
D03*
X143892Y909258D02*
D03*
X109269Y915770D02*
D03*
X125322Y896087D02*
D03*
X89985Y897436D02*
D03*
X108835Y880411D02*
D03*
X73701Y876393D02*
D03*
X94911Y862418D02*
D03*
X60791Y853127D02*
D03*
X83873Y842525D02*
D03*
X924019Y821215D02*
D03*
X948438Y828204D02*
D03*
X928599Y798931D02*
D03*
X953795Y802140D02*
D03*
X929752Y776209D02*
D03*
X955144Y775567D02*
D03*
X927451Y753576D02*
D03*
X952453Y749095D02*
D03*
X921749Y731551D02*
D03*
X945784Y723336D02*
D03*
X935291Y698885D02*
D03*
X921217Y676304D02*
D03*
X885925Y674075D02*
D03*
X903885Y656115D02*
D03*
X791362Y929368D02*
D03*
X793289Y954695D02*
D03*
X813851Y925925D02*
D03*
X819590Y950668D02*
D03*
X835558Y919116D02*
D03*
X844979Y942705D02*
D03*
X855984Y909099D02*
D03*
X868868Y930988D02*
D03*
X874658Y896103D02*
D03*
X890708Y915790D02*
D03*
X891296Y880564D02*
D03*
X910143Y897593D02*
D03*
X905075Y862440D02*
D03*
X926282Y876419D02*
D03*
X916116Y842549D02*
D03*
X939196Y853155D02*
D03*
X604857Y775536D02*
D03*
X630249Y776183D02*
D03*
X614226Y723308D02*
D03*
X638260Y731527D02*
D03*
X624723Y698858D02*
D03*
X647235Y710621D02*
D03*
X638802Y676279D02*
D03*
X659272Y691317D02*
D03*
X655792Y656450D02*
D03*
X674398Y673740D02*
D03*
X607553Y749065D02*
D03*
X632554Y753550D02*
D03*
X611553Y828174D02*
D03*
X635974Y821190D02*
D03*
X606201Y802110D02*
D03*
X631398Y798905D02*
D03*
X766666Y954892D02*
D03*
X768597Y929566D02*
D03*
X740335Y950856D02*
D03*
X746079Y926114D02*
D03*
X714919Y942879D02*
D03*
X724344Y919292D02*
D03*
X691004Y931145D02*
D03*
X703892Y909258D02*
D03*
X669269Y915770D02*
D03*
X685322Y896087D02*
D03*
X649986Y897436D02*
D03*
X668835Y880411D02*
D03*
X633701Y876393D02*
D03*
X654911Y862418D02*
D03*
X620791Y853127D02*
D03*
X643873Y842525D02*
D03*
D51*
X352777Y130645D02*
D03*
X340743Y111338D02*
D03*
X912778Y130645D02*
D03*
X900744Y111338D02*
D03*
X352777Y710645D02*
D03*
X340743Y691338D02*
D03*
X912778Y710645D02*
D03*
X900744Y691338D02*
D03*
D52*
X220000Y257150D02*
D03*
X780000D02*
D03*
X220000Y837150D02*
D03*
X780000D02*
D03*
D53*
X220000Y142850D02*
D03*
X780000D02*
D03*
X220000Y722850D02*
D03*
X780000D02*
D03*
D54*
X296200Y174600D02*
D03*
X296200Y200000D02*
D03*
X856200Y174600D02*
D03*
X856200Y200000D02*
D03*
X296200Y754600D02*
D03*
X296200Y780000D02*
D03*
X856200Y754600D02*
D03*
X856200Y780000D02*
D03*
D55*
X296200Y225400D02*
D03*
X150150Y174600D02*
D03*
X856200Y225400D02*
D03*
X710150Y174600D02*
D03*
X296200Y805400D02*
D03*
X150150Y754600D02*
D03*
X856200Y805400D02*
D03*
X710150Y754600D02*
D03*
D56*
X150150Y225400D02*
D03*
X710150D02*
D03*
X150150Y805400D02*
D03*
X710150D02*
D03*
D57*
X40000Y380000D02*
D03*
X400000D02*
D03*
Y40000D02*
D03*
X40000D02*
D03*
X600000Y380000D02*
D03*
X960000D02*
D03*
Y40000D02*
D03*
X600000D02*
D03*
X40000Y960000D02*
D03*
X400000D02*
D03*
Y620000D02*
D03*
X40000D02*
D03*
X600000Y960000D02*
D03*
X960000D02*
D03*
Y620000D02*
D03*
X600000D02*
D03*
D58*
X261910Y41250D02*
D03*
X287310D02*
D03*
X312710Y41250D02*
D03*
X403496Y307188D02*
D03*
X403496Y281788D02*
D03*
X821910Y41250D02*
D03*
X847310D02*
D03*
X872710Y41250D02*
D03*
X963496Y307188D02*
D03*
X963496Y281788D02*
D03*
X261910Y621250D02*
D03*
X287310D02*
D03*
X312710Y621250D02*
D03*
X403496Y887188D02*
D03*
X403496Y861788D02*
D03*
X821910Y621250D02*
D03*
X847310D02*
D03*
X872710Y621250D02*
D03*
X963496Y887188D02*
D03*
X963496Y861788D02*
D03*
D59*
X338110Y41250D02*
D03*
X898110D02*
D03*
X338110Y621250D02*
D03*
X898110D02*
D03*
D60*
X261910Y126340D02*
D03*
X287310Y126340D02*
D03*
X312710Y126340D02*
D03*
X821910Y126340D02*
D03*
X847310Y126340D02*
D03*
X872710Y126340D02*
D03*
X261910Y706340D02*
D03*
X287310Y706340D02*
D03*
X312710Y706340D02*
D03*
X821910Y706340D02*
D03*
X847310Y706340D02*
D03*
X872710Y706340D02*
D03*
D61*
X338110Y126340D02*
D03*
X403496Y256388D02*
D03*
X898110Y126340D02*
D03*
X963496Y256388D02*
D03*
X338110Y706340D02*
D03*
X403496Y836388D02*
D03*
X898110Y706340D02*
D03*
X963496Y836388D02*
D03*
D62*
X403496Y332588D02*
D03*
X963496D02*
D03*
X403496Y912588D02*
D03*
X963496D02*
D03*
D63*
X149642Y136246D02*
D03*
X709642D02*
D03*
X149642Y716246D02*
D03*
X709642D02*
D03*
D64*
X99350Y29420D02*
D03*
X120940Y82398D02*
D03*
X659350Y29420D02*
D03*
X680940Y82398D02*
D03*
X99350Y609420D02*
D03*
X120940Y662398D02*
D03*
X659350Y609420D02*
D03*
X680940Y662398D02*
D03*
D65*
X35850Y331826D02*
D03*
Y292456D02*
D03*
X595850Y331826D02*
D03*
Y292456D02*
D03*
X35850Y911826D02*
D03*
Y872456D02*
D03*
X595850Y911826D02*
D03*
Y872456D02*
D03*
D66*
X159294Y266590D02*
D03*
X719294D02*
D03*
X159294Y846590D02*
D03*
X719294D02*
D03*
D67*
X159294Y201590D02*
D03*
X182194Y201590D02*
D03*
X136394Y201590D02*
D03*
X719294Y201590D02*
D03*
X742194Y201590D02*
D03*
X696394Y201590D02*
D03*
X159294Y781590D02*
D03*
X182194Y781590D02*
D03*
X136394Y781590D02*
D03*
X719294Y781590D02*
D03*
X742194Y781590D02*
D03*
X696394Y781590D02*
D03*
D68*
X235254Y297790D02*
D03*
X205254D02*
D03*
X795254D02*
D03*
X765254D02*
D03*
X235254Y877790D02*
D03*
X205254D02*
D03*
X795254D02*
D03*
X765254D02*
D03*
D69*
X241336Y189572D02*
D03*
X241336Y219572D02*
D03*
X411000Y149460D02*
D03*
Y119460D02*
D03*
X801336Y189572D02*
D03*
X801336Y219572D02*
D03*
X971000Y149460D02*
D03*
Y119460D02*
D03*
X241336Y769572D02*
D03*
X241336Y799572D02*
D03*
X411000Y729461D02*
D03*
Y699461D02*
D03*
X801336Y769572D02*
D03*
X801336Y799572D02*
D03*
X971000Y729461D02*
D03*
Y699461D02*
D03*
M02*
