G04*
G04 #@! TF.GenerationSoftware,Altium Limited,Altium Designer,21.8.1 (53)*
G04*
G04 Layer_Color=8388736*
%FSLAX44Y44*%
%MOMM*%
G71*
G04*
G04 #@! TF.SameCoordinates,A6134195-47DE-4A90-8313-BABE1660A9E3*
G04*
G04*
G04 #@! TF.FilePolarity,Negative*
G04*
G01*
G75*
%ADD44R,1.5032X0.9032*%
G04:AMPARAMS|DCode=45|XSize=1.2032mm|YSize=1.2032mm|CornerRadius=0.2016mm|HoleSize=0mm|Usage=FLASHONLY|Rotation=0.000|XOffset=0mm|YOffset=0mm|HoleType=Round|Shape=RoundedRectangle|*
%AMROUNDEDRECTD45*
21,1,1.2032,0.8000,0,0,0.0*
21,1,0.8000,1.2032,0,0,0.0*
1,1,0.4032,0.4000,-0.4000*
1,1,0.4032,-0.4000,-0.4000*
1,1,0.4032,-0.4000,0.4000*
1,1,0.4032,0.4000,0.4000*
%
%ADD45ROUNDEDRECTD45*%
G04:AMPARAMS|DCode=46|XSize=1.0032mm|YSize=1.2032mm|CornerRadius=0.1816mm|HoleSize=0mm|Usage=FLASHONLY|Rotation=0.000|XOffset=0mm|YOffset=0mm|HoleType=Round|Shape=RoundedRectangle|*
%AMROUNDEDRECTD46*
21,1,1.0032,0.8400,0,0,0.0*
21,1,0.6400,1.2032,0,0,0.0*
1,1,0.3632,0.3200,-0.4200*
1,1,0.3632,-0.3200,-0.4200*
1,1,0.3632,-0.3200,0.4200*
1,1,0.3632,0.3200,0.4200*
%
%ADD46ROUNDEDRECTD46*%
%ADD47R,0.9032X1.5032*%
G04:AMPARAMS|DCode=48|XSize=1.4032mm|YSize=0.5032mm|CornerRadius=0.1766mm|HoleSize=0mm|Usage=FLASHONLY|Rotation=270.000|XOffset=0mm|YOffset=0mm|HoleType=Round|Shape=RoundedRectangle|*
%AMROUNDEDRECTD48*
21,1,1.4032,0.1500,0,0,270.0*
21,1,1.0500,0.5032,0,0,270.0*
1,1,0.3532,-0.0750,-0.5250*
1,1,0.3532,-0.0750,0.5250*
1,1,0.3532,0.0750,0.5250*
1,1,0.3532,0.0750,-0.5250*
%
%ADD48ROUNDEDRECTD48*%
G04:AMPARAMS|DCode=49|XSize=1.4032mm|YSize=0.5032mm|CornerRadius=0.1766mm|HoleSize=0mm|Usage=FLASHONLY|Rotation=180.000|XOffset=0mm|YOffset=0mm|HoleType=Round|Shape=RoundedRectangle|*
%AMROUNDEDRECTD49*
21,1,1.4032,0.1500,0,0,180.0*
21,1,1.0500,0.5032,0,0,180.0*
1,1,0.3532,-0.5250,0.0750*
1,1,0.3532,0.5250,0.0750*
1,1,0.3532,0.5250,-0.0750*
1,1,0.3532,-0.5250,-0.0750*
%
%ADD49ROUNDEDRECTD49*%
%ADD50C,1.4032*%
%ADD51C,1.3532*%
%ADD52C,4.0032*%
%ADD53C,3.4032*%
%ADD54O,2.8032X2.0032*%
%ADD55O,2.8032X2.2032*%
%ADD56O,2.6032X2.0032*%
G04:AMPARAMS|DCode=57|XSize=5.2032mm|YSize=5.2032mm|CornerRadius=1.3516mm|HoleSize=0mm|Usage=FLASHONLY|Rotation=0.000|XOffset=0mm|YOffset=0mm|HoleType=Round|Shape=RoundedRectangle|*
%AMROUNDEDRECTD57*
21,1,5.2032,2.5000,0,0,0.0*
21,1,2.5000,5.2032,0,0,0.0*
1,1,2.7032,1.2500,-1.2500*
1,1,2.7032,-1.2500,-1.2500*
1,1,2.7032,-1.2500,1.2500*
1,1,2.7032,1.2500,1.2500*
%
%ADD57ROUNDEDRECTD57*%
%ADD58C,2.0032*%
%ADD59R,2.0032X2.0032*%
%ADD60C,1.8032*%
%ADD61C,1.7032*%
%ADD62R,2.0032X2.0032*%
%ADD63C,1.2032*%
%ADD64C,1.0032*%
D44*
X346478Y208366D02*
D03*
X346478Y225866D02*
D03*
X324902Y208368D02*
D03*
X324902Y225868D02*
D03*
X346480Y173316D02*
D03*
X346480Y190816D02*
D03*
X360716Y49364D02*
D03*
Y66864D02*
D03*
X230160Y305142D02*
D03*
X230160Y322642D02*
D03*
X251496Y304902D02*
D03*
Y322402D02*
D03*
X273340Y305096D02*
D03*
Y322596D02*
D03*
X273340Y271096D02*
D03*
X273340Y288596D02*
D03*
X295184Y271146D02*
D03*
X295184Y288646D02*
D03*
X317282Y271096D02*
D03*
X317282Y288596D02*
D03*
X121194Y22186D02*
D03*
Y39686D02*
D03*
X48804Y100138D02*
D03*
Y82638D02*
D03*
X26960Y100138D02*
D03*
X26960Y82638D02*
D03*
X121194Y72706D02*
D03*
Y55206D02*
D03*
X208570Y322896D02*
D03*
Y305396D02*
D03*
X187234Y322896D02*
D03*
Y305396D02*
D03*
X165644Y322596D02*
D03*
X165644Y305096D02*
D03*
X144308Y292924D02*
D03*
X144308Y275424D02*
D03*
X110272Y205040D02*
D03*
X110272Y187540D02*
D03*
X87543Y205220D02*
D03*
X87543Y187720D02*
D03*
X906478Y208366D02*
D03*
X906478Y225866D02*
D03*
X884902Y208368D02*
D03*
X884902Y225868D02*
D03*
X906480Y173316D02*
D03*
X906480Y190816D02*
D03*
X920716Y49364D02*
D03*
Y66864D02*
D03*
X790160Y305142D02*
D03*
X790160Y322642D02*
D03*
X811496Y304902D02*
D03*
Y322402D02*
D03*
X833340Y305096D02*
D03*
Y322596D02*
D03*
X833340Y271096D02*
D03*
X833340Y288596D02*
D03*
X855184Y271146D02*
D03*
X855184Y288646D02*
D03*
X877282Y271096D02*
D03*
X877282Y288596D02*
D03*
X681194Y22186D02*
D03*
Y39686D02*
D03*
X608804Y100138D02*
D03*
Y82638D02*
D03*
X586960Y100138D02*
D03*
X586960Y82638D02*
D03*
X681194Y72706D02*
D03*
Y55206D02*
D03*
X768570Y322896D02*
D03*
Y305396D02*
D03*
X747234Y322896D02*
D03*
Y305396D02*
D03*
X725644Y322596D02*
D03*
X725644Y305096D02*
D03*
X704308Y292924D02*
D03*
X704308Y275424D02*
D03*
X670272Y205040D02*
D03*
X670272Y187540D02*
D03*
X647543Y205220D02*
D03*
X647543Y187720D02*
D03*
X346478Y788366D02*
D03*
X346478Y805866D02*
D03*
X324902Y788368D02*
D03*
X324902Y805868D02*
D03*
X346480Y753316D02*
D03*
X346480Y770816D02*
D03*
X360716Y629364D02*
D03*
Y646864D02*
D03*
X230160Y885142D02*
D03*
X230160Y902642D02*
D03*
X251496Y884902D02*
D03*
Y902402D02*
D03*
X273340Y885096D02*
D03*
Y902596D02*
D03*
X273340Y851096D02*
D03*
X273340Y868596D02*
D03*
X295184Y851146D02*
D03*
X295184Y868646D02*
D03*
X317282Y851096D02*
D03*
X317282Y868596D02*
D03*
X121194Y602186D02*
D03*
Y619686D02*
D03*
X48804Y680138D02*
D03*
Y662638D02*
D03*
X26960Y680138D02*
D03*
X26960Y662638D02*
D03*
X121194Y652706D02*
D03*
Y635206D02*
D03*
X208570Y902896D02*
D03*
Y885396D02*
D03*
X187234Y902896D02*
D03*
Y885396D02*
D03*
X165644Y902596D02*
D03*
X165644Y885096D02*
D03*
X144308Y872924D02*
D03*
X144308Y855424D02*
D03*
X110272Y785040D02*
D03*
X110272Y767540D02*
D03*
X87543Y785220D02*
D03*
X87543Y767720D02*
D03*
X906478Y788366D02*
D03*
X906478Y805866D02*
D03*
X884902Y788368D02*
D03*
X884902Y805868D02*
D03*
X906480Y753316D02*
D03*
X906480Y770816D02*
D03*
X920716Y629364D02*
D03*
Y646864D02*
D03*
X790160Y885142D02*
D03*
X790160Y902642D02*
D03*
X811496Y884902D02*
D03*
Y902402D02*
D03*
X833340Y885096D02*
D03*
Y902596D02*
D03*
X833340Y851096D02*
D03*
X833340Y868596D02*
D03*
X855184Y851146D02*
D03*
X855184Y868646D02*
D03*
X877282Y851096D02*
D03*
X877282Y868596D02*
D03*
X681194Y602186D02*
D03*
Y619686D02*
D03*
X608804Y680138D02*
D03*
Y662638D02*
D03*
X586960Y680138D02*
D03*
X586960Y662638D02*
D03*
X681194Y652706D02*
D03*
Y635206D02*
D03*
X768570Y902896D02*
D03*
Y885396D02*
D03*
X747234Y902896D02*
D03*
Y885396D02*
D03*
X725644Y902596D02*
D03*
X725644Y885096D02*
D03*
X704308Y872924D02*
D03*
X704308Y855424D02*
D03*
X670272Y785040D02*
D03*
X670272Y767540D02*
D03*
X647543Y785220D02*
D03*
X647543Y767720D02*
D03*
D45*
X89952Y52680D02*
D03*
X649952D02*
D03*
X89952Y632680D02*
D03*
X649952D02*
D03*
D46*
X80554Y29566D02*
D03*
X99350D02*
D03*
X640554D02*
D03*
X659350D02*
D03*
X80554Y609566D02*
D03*
X99350D02*
D03*
X640554D02*
D03*
X659350D02*
D03*
D47*
X153934Y151994D02*
D03*
X136434D02*
D03*
X713934D02*
D03*
X696434D02*
D03*
X153934Y731994D02*
D03*
X136434D02*
D03*
X713934D02*
D03*
X696434D02*
D03*
D48*
X206326Y116688D02*
D03*
X211326D02*
D03*
X216326D02*
D03*
X191326D02*
D03*
X196326D02*
D03*
X201326D02*
D03*
X176326D02*
D03*
X181326D02*
D03*
X186326D02*
D03*
X171326D02*
D03*
X166326D02*
D03*
X161326D02*
D03*
Y30328D02*
D03*
X166326Y30328D02*
D03*
X171326D02*
D03*
X186326D02*
D03*
X181326D02*
D03*
X176326Y30328D02*
D03*
X201326Y30328D02*
D03*
X196326Y30328D02*
D03*
X191326Y30328D02*
D03*
X216326Y30328D02*
D03*
X211326Y30328D02*
D03*
X206326Y30328D02*
D03*
X766326Y116688D02*
D03*
X771326D02*
D03*
X776326D02*
D03*
X751326D02*
D03*
X756326D02*
D03*
X761326D02*
D03*
X736326D02*
D03*
X741326D02*
D03*
X746326D02*
D03*
X731326D02*
D03*
X726326D02*
D03*
X721326D02*
D03*
Y30328D02*
D03*
X726326Y30328D02*
D03*
X731326D02*
D03*
X746326D02*
D03*
X741326D02*
D03*
X736326Y30328D02*
D03*
X761326Y30328D02*
D03*
X756326Y30328D02*
D03*
X751326Y30328D02*
D03*
X776326Y30328D02*
D03*
X771326Y30328D02*
D03*
X766326Y30328D02*
D03*
X206326Y696688D02*
D03*
X211326D02*
D03*
X216326D02*
D03*
X191326D02*
D03*
X196326D02*
D03*
X201326D02*
D03*
X176326D02*
D03*
X181326D02*
D03*
X186326D02*
D03*
X171326D02*
D03*
X166326D02*
D03*
X161326D02*
D03*
Y610328D02*
D03*
X166326Y610328D02*
D03*
X171326D02*
D03*
X186326D02*
D03*
X181326D02*
D03*
X176326Y610328D02*
D03*
X201326Y610328D02*
D03*
X196326Y610328D02*
D03*
X191326Y610328D02*
D03*
X216326Y610328D02*
D03*
X211326Y610328D02*
D03*
X206326Y610328D02*
D03*
X766326Y696688D02*
D03*
X771326D02*
D03*
X776326D02*
D03*
X751326D02*
D03*
X756326D02*
D03*
X761326D02*
D03*
X736326D02*
D03*
X741326D02*
D03*
X746326D02*
D03*
X731326D02*
D03*
X726326D02*
D03*
X721326D02*
D03*
Y610328D02*
D03*
X726326Y610328D02*
D03*
X731326D02*
D03*
X746326D02*
D03*
X741326D02*
D03*
X736326Y610328D02*
D03*
X761326Y610328D02*
D03*
X756326Y610328D02*
D03*
X751326Y610328D02*
D03*
X776326Y610328D02*
D03*
X771326Y610328D02*
D03*
X766326Y610328D02*
D03*
D49*
X232192Y101194D02*
D03*
X232192Y96194D02*
D03*
X232192Y91194D02*
D03*
Y76194D02*
D03*
Y81194D02*
D03*
Y86194D02*
D03*
X232192Y61194D02*
D03*
X232192Y66194D02*
D03*
Y71194D02*
D03*
Y46194D02*
D03*
Y51194D02*
D03*
Y56194D02*
D03*
X145832Y56194D02*
D03*
Y51194D02*
D03*
Y46194D02*
D03*
Y71194D02*
D03*
Y66194D02*
D03*
Y61194D02*
D03*
Y86194D02*
D03*
Y81194D02*
D03*
Y76194D02*
D03*
Y91194D02*
D03*
Y96194D02*
D03*
Y101194D02*
D03*
X792192D02*
D03*
X792192Y96194D02*
D03*
X792192Y91194D02*
D03*
Y76194D02*
D03*
Y81194D02*
D03*
Y86194D02*
D03*
X792192Y61194D02*
D03*
X792192Y66194D02*
D03*
Y71194D02*
D03*
Y46194D02*
D03*
Y51194D02*
D03*
Y56194D02*
D03*
X705832Y56194D02*
D03*
Y51194D02*
D03*
Y46194D02*
D03*
Y71194D02*
D03*
Y66194D02*
D03*
Y61194D02*
D03*
Y86194D02*
D03*
Y81194D02*
D03*
Y76194D02*
D03*
Y91194D02*
D03*
Y96194D02*
D03*
Y101194D02*
D03*
X232192Y681194D02*
D03*
X232192Y676194D02*
D03*
X232192Y671194D02*
D03*
Y656194D02*
D03*
Y661194D02*
D03*
Y666194D02*
D03*
X232192Y641194D02*
D03*
X232192Y646194D02*
D03*
Y651194D02*
D03*
Y626194D02*
D03*
Y631194D02*
D03*
Y636194D02*
D03*
X145832Y636194D02*
D03*
Y631194D02*
D03*
Y626194D02*
D03*
Y651194D02*
D03*
Y646194D02*
D03*
Y641194D02*
D03*
Y666194D02*
D03*
Y661194D02*
D03*
Y656194D02*
D03*
Y671194D02*
D03*
Y676194D02*
D03*
Y681194D02*
D03*
X792192D02*
D03*
X792192Y676194D02*
D03*
X792192Y671194D02*
D03*
Y656194D02*
D03*
Y661194D02*
D03*
Y666194D02*
D03*
X792192Y641194D02*
D03*
X792192Y646194D02*
D03*
Y651194D02*
D03*
Y626194D02*
D03*
Y631194D02*
D03*
Y636194D02*
D03*
X705832Y636194D02*
D03*
Y631194D02*
D03*
Y626194D02*
D03*
Y651194D02*
D03*
Y646194D02*
D03*
Y641194D02*
D03*
Y666194D02*
D03*
Y661194D02*
D03*
Y656194D02*
D03*
Y671194D02*
D03*
Y676194D02*
D03*
Y681194D02*
D03*
D50*
X364019Y241215D02*
D03*
X388438Y248204D02*
D03*
X368599Y218931D02*
D03*
X393795Y222140D02*
D03*
X369752Y196209D02*
D03*
X395144Y195567D02*
D03*
X367451Y173576D02*
D03*
X392453Y169095D02*
D03*
X361749Y151551D02*
D03*
X385784Y143336D02*
D03*
X375291Y118885D02*
D03*
X361217Y96304D02*
D03*
X325925Y94075D02*
D03*
X343885Y76115D02*
D03*
X231362Y349368D02*
D03*
X233289Y374695D02*
D03*
X253851Y345925D02*
D03*
X259590Y370668D02*
D03*
X275558Y339116D02*
D03*
X284979Y362705D02*
D03*
X295984Y329099D02*
D03*
X308868Y350988D02*
D03*
X314658Y316103D02*
D03*
X330708Y335790D02*
D03*
X331296Y300564D02*
D03*
X350143Y317593D02*
D03*
X345075Y282440D02*
D03*
X366282Y296419D02*
D03*
X356116Y262549D02*
D03*
X379196Y273155D02*
D03*
X44857Y195536D02*
D03*
X70249Y196183D02*
D03*
X54226Y143308D02*
D03*
X78260Y151527D02*
D03*
X64723Y118858D02*
D03*
X87235Y130622D02*
D03*
X78801Y96279D02*
D03*
X99272Y111316D02*
D03*
X95792Y76450D02*
D03*
X114398Y93741D02*
D03*
X47553Y169065D02*
D03*
X72554Y173550D02*
D03*
X51553Y248174D02*
D03*
X75974Y241190D02*
D03*
X46201Y222110D02*
D03*
X71398Y218905D02*
D03*
X206666Y374892D02*
D03*
X208597Y349566D02*
D03*
X180335Y370856D02*
D03*
X186079Y346114D02*
D03*
X154919Y362879D02*
D03*
X164343Y339292D02*
D03*
X131004Y351145D02*
D03*
X143892Y329258D02*
D03*
X109269Y335770D02*
D03*
X125322Y316087D02*
D03*
X89985Y317436D02*
D03*
X108835Y300410D02*
D03*
X73701Y296393D02*
D03*
X94911Y282418D02*
D03*
X60791Y273127D02*
D03*
X83873Y262525D02*
D03*
X924019Y241215D02*
D03*
X948438Y248204D02*
D03*
X928599Y218931D02*
D03*
X953795Y222140D02*
D03*
X929752Y196209D02*
D03*
X955144Y195567D02*
D03*
X927451Y173576D02*
D03*
X952453Y169095D02*
D03*
X921749Y151551D02*
D03*
X945784Y143336D02*
D03*
X935291Y118885D02*
D03*
X921217Y96304D02*
D03*
X885925Y94075D02*
D03*
X903885Y76115D02*
D03*
X791362Y349368D02*
D03*
X793289Y374695D02*
D03*
X813851Y345925D02*
D03*
X819590Y370668D02*
D03*
X835558Y339116D02*
D03*
X844979Y362705D02*
D03*
X855984Y329099D02*
D03*
X868868Y350988D02*
D03*
X874658Y316103D02*
D03*
X890708Y335790D02*
D03*
X891296Y300564D02*
D03*
X910143Y317593D02*
D03*
X905075Y282440D02*
D03*
X926282Y296419D02*
D03*
X916116Y262549D02*
D03*
X939196Y273155D02*
D03*
X604857Y195536D02*
D03*
X630249Y196183D02*
D03*
X614226Y143308D02*
D03*
X638260Y151527D02*
D03*
X624723Y118858D02*
D03*
X647235Y130622D02*
D03*
X638802Y96279D02*
D03*
X659272Y111316D02*
D03*
X655792Y76450D02*
D03*
X674398Y93741D02*
D03*
X607553Y169065D02*
D03*
X632554Y173550D02*
D03*
X611553Y248174D02*
D03*
X635974Y241190D02*
D03*
X606201Y222110D02*
D03*
X631398Y218905D02*
D03*
X766666Y374892D02*
D03*
X768597Y349566D02*
D03*
X740335Y370856D02*
D03*
X746079Y346114D02*
D03*
X714919Y362879D02*
D03*
X724344Y339292D02*
D03*
X691004Y351145D02*
D03*
X703892Y329258D02*
D03*
X669269Y335770D02*
D03*
X685322Y316087D02*
D03*
X649986Y317436D02*
D03*
X668835Y300410D02*
D03*
X633701Y296393D02*
D03*
X654911Y282418D02*
D03*
X620791Y273127D02*
D03*
X643873Y262525D02*
D03*
X364019Y821215D02*
D03*
X388438Y828204D02*
D03*
X368599Y798931D02*
D03*
X393795Y802140D02*
D03*
X369752Y776209D02*
D03*
X395144Y775567D02*
D03*
X367451Y753576D02*
D03*
X392453Y749095D02*
D03*
X361749Y731551D02*
D03*
X385784Y723336D02*
D03*
X375291Y698885D02*
D03*
X361217Y676304D02*
D03*
X325925Y674075D02*
D03*
X343885Y656115D02*
D03*
X231362Y929368D02*
D03*
X233289Y954695D02*
D03*
X253851Y925925D02*
D03*
X259590Y950668D02*
D03*
X275558Y919116D02*
D03*
X284979Y942705D02*
D03*
X295984Y909099D02*
D03*
X308868Y930988D02*
D03*
X314658Y896103D02*
D03*
X330708Y915790D02*
D03*
X331296Y880564D02*
D03*
X350143Y897593D02*
D03*
X345075Y862440D02*
D03*
X366282Y876419D02*
D03*
X356116Y842549D02*
D03*
X379196Y853155D02*
D03*
X44857Y775536D02*
D03*
X70249Y776183D02*
D03*
X54226Y723308D02*
D03*
X78260Y731527D02*
D03*
X64723Y698858D02*
D03*
X87235Y710621D02*
D03*
X78801Y676279D02*
D03*
X99272Y691317D02*
D03*
X95792Y656450D02*
D03*
X114398Y673740D02*
D03*
X47553Y749065D02*
D03*
X72554Y753550D02*
D03*
X51553Y828174D02*
D03*
X75974Y821190D02*
D03*
X46201Y802110D02*
D03*
X71398Y798905D02*
D03*
X206666Y954892D02*
D03*
X208597Y929566D02*
D03*
X180335Y950856D02*
D03*
X186079Y926114D02*
D03*
X154919Y942879D02*
D03*
X164343Y919292D02*
D03*
X131004Y931145D02*
D03*
X143892Y909258D02*
D03*
X109269Y915770D02*
D03*
X125322Y896087D02*
D03*
X89985Y897436D02*
D03*
X108835Y880411D02*
D03*
X73701Y876393D02*
D03*
X94911Y862418D02*
D03*
X60791Y853127D02*
D03*
X83873Y842525D02*
D03*
X924019Y821215D02*
D03*
X948438Y828204D02*
D03*
X928599Y798931D02*
D03*
X953795Y802140D02*
D03*
X929752Y776209D02*
D03*
X955144Y775567D02*
D03*
X927451Y753576D02*
D03*
X952453Y749095D02*
D03*
X921749Y731551D02*
D03*
X945784Y723336D02*
D03*
X935291Y698885D02*
D03*
X921217Y676304D02*
D03*
X885925Y674075D02*
D03*
X903885Y656115D02*
D03*
X791362Y929368D02*
D03*
X793289Y954695D02*
D03*
X813851Y925925D02*
D03*
X819590Y950668D02*
D03*
X835558Y919116D02*
D03*
X844979Y942705D02*
D03*
X855984Y909099D02*
D03*
X868868Y930988D02*
D03*
X874658Y896103D02*
D03*
X890708Y915790D02*
D03*
X891296Y880564D02*
D03*
X910143Y897593D02*
D03*
X905075Y862440D02*
D03*
X926282Y876419D02*
D03*
X916116Y842549D02*
D03*
X939196Y853155D02*
D03*
X604857Y775536D02*
D03*
X630249Y776183D02*
D03*
X614226Y723308D02*
D03*
X638260Y731527D02*
D03*
X624723Y698858D02*
D03*
X647235Y710621D02*
D03*
X638802Y676279D02*
D03*
X659272Y691317D02*
D03*
X655792Y656450D02*
D03*
X674398Y673740D02*
D03*
X607553Y749065D02*
D03*
X632554Y753550D02*
D03*
X611553Y828174D02*
D03*
X635974Y821190D02*
D03*
X606201Y802110D02*
D03*
X631398Y798905D02*
D03*
X766666Y954892D02*
D03*
X768597Y929566D02*
D03*
X740335Y950856D02*
D03*
X746079Y926114D02*
D03*
X714919Y942879D02*
D03*
X724344Y919292D02*
D03*
X691004Y931145D02*
D03*
X703892Y909258D02*
D03*
X669269Y915770D02*
D03*
X685322Y896087D02*
D03*
X649986Y897436D02*
D03*
X668835Y880411D02*
D03*
X633701Y876393D02*
D03*
X654911Y862418D02*
D03*
X620791Y853127D02*
D03*
X643873Y842525D02*
D03*
D51*
X352777Y130645D02*
D03*
X340743Y111338D02*
D03*
X912778Y130645D02*
D03*
X900744Y111338D02*
D03*
X352777Y710645D02*
D03*
X340743Y691338D02*
D03*
X912778Y710645D02*
D03*
X900744Y691338D02*
D03*
D52*
X220000Y257150D02*
D03*
X780000D02*
D03*
X220000Y837150D02*
D03*
X780000D02*
D03*
D53*
X220000Y142850D02*
D03*
X780000D02*
D03*
X220000Y722850D02*
D03*
X780000D02*
D03*
D54*
X296200Y174600D02*
D03*
X296200Y200000D02*
D03*
X856200Y174600D02*
D03*
X856200Y200000D02*
D03*
X296200Y754600D02*
D03*
X296200Y780000D02*
D03*
X856200Y754600D02*
D03*
X856200Y780000D02*
D03*
D55*
X296200Y225400D02*
D03*
X150150Y174600D02*
D03*
X856200Y225400D02*
D03*
X710150Y174600D02*
D03*
X296200Y805400D02*
D03*
X150150Y754600D02*
D03*
X856200Y805400D02*
D03*
X710150Y754600D02*
D03*
D56*
X150150Y225400D02*
D03*
X710150D02*
D03*
X150150Y805400D02*
D03*
X710150D02*
D03*
D57*
X40000Y380000D02*
D03*
X400000D02*
D03*
Y40000D02*
D03*
X40000D02*
D03*
X600000Y380000D02*
D03*
X960000D02*
D03*
Y40000D02*
D03*
X600000D02*
D03*
X40000Y960000D02*
D03*
X400000D02*
D03*
Y620000D02*
D03*
X40000D02*
D03*
X600000Y960000D02*
D03*
X960000D02*
D03*
Y620000D02*
D03*
X600000D02*
D03*
D58*
X261910Y41250D02*
D03*
X287310D02*
D03*
X312710Y41250D02*
D03*
X403496Y307188D02*
D03*
X403496Y281788D02*
D03*
X821910Y41250D02*
D03*
X847310D02*
D03*
X872710Y41250D02*
D03*
X963496Y307188D02*
D03*
X963496Y281788D02*
D03*
X261910Y621250D02*
D03*
X287310D02*
D03*
X312710Y621250D02*
D03*
X403496Y887188D02*
D03*
X403496Y861788D02*
D03*
X821910Y621250D02*
D03*
X847310D02*
D03*
X872710Y621250D02*
D03*
X963496Y887188D02*
D03*
X963496Y861788D02*
D03*
D59*
X338110Y41250D02*
D03*
X898110D02*
D03*
X338110Y621250D02*
D03*
X898110D02*
D03*
D60*
X261910Y126340D02*
D03*
X287310Y126340D02*
D03*
X312710Y126340D02*
D03*
X821910Y126340D02*
D03*
X847310Y126340D02*
D03*
X872710Y126340D02*
D03*
X261910Y706340D02*
D03*
X287310Y706340D02*
D03*
X312710Y706340D02*
D03*
X821910Y706340D02*
D03*
X847310Y706340D02*
D03*
X872710Y706340D02*
D03*
D61*
X338110Y126340D02*
D03*
X403496Y256388D02*
D03*
X898110Y126340D02*
D03*
X963496Y256388D02*
D03*
X338110Y706340D02*
D03*
X403496Y836388D02*
D03*
X898110Y706340D02*
D03*
X963496Y836388D02*
D03*
D62*
X403496Y332588D02*
D03*
X963496D02*
D03*
X403496Y912588D02*
D03*
X963496D02*
D03*
D63*
X149642Y136246D02*
D03*
X247432Y29312D02*
D03*
X338110Y23470D02*
D03*
X709642Y136246D02*
D03*
X807432Y29312D02*
D03*
X898110Y23470D02*
D03*
X149642Y716246D02*
D03*
X247432Y609312D02*
D03*
X338110Y603470D02*
D03*
X709642Y716246D02*
D03*
X807432Y609312D02*
D03*
X898110Y603470D02*
D03*
D64*
X99350Y29420D02*
D03*
X120940Y82398D02*
D03*
X78776Y80874D02*
D03*
X659350Y29420D02*
D03*
X680940Y82398D02*
D03*
X638776Y80874D02*
D03*
X99350Y609420D02*
D03*
X120940Y662398D02*
D03*
X78776Y660874D02*
D03*
X659350Y609420D02*
D03*
X680940Y662398D02*
D03*
X638776Y660874D02*
D03*
M02*
